<?xml version="1.0" encoding="UTF-8"?>
<svg xmlns="http://www.w3.org/2000/svg" width="230" height="156" viewBox="0 0 230 156" fill="none">
  <path d="M111.131 139.663C103.928 137.041 102.427 132.912 102.564 130.045L77.5728 138.025V155.488H124.049C124.049 144.858 118.333 142.285 111.131 139.663Z" fill="#FFB827"></path>
  <path d="M0 137.391L11.8734 123.369L30.1924 139.087C27.8178 141.462 29.5517 144.892 32.1148 145.759C41.1612 147.116 42.1413 151.564 41.8397 154.692H20.4675C20.4675 154.692 14.1727 149.189 13.1173 148.36L0 137.391Z" fill="#FFB827"></path>
  <path d="M66.6043 42.6309H62.5334C63.0762 48.0587 60.6488 57.859 59.3672 62.0807C73.5701 57.5575 77.1208 53.3358 77.1208 51.7904C75.2738 51.9034 70.8335 51.813 67.8482 50.5465C64.8629 49.28 65.7751 44.7417 66.6043 42.6309Z" fill="white" stroke="black" stroke-width="2" stroke-linecap="round" stroke-linejoin="round"></path>
  <path d="M73.2771 32.7958C71.6487 34.2433 68.0754 39.9576 66.4922 42.6338C65.7007 45.0085 64.9091 48.2879 67.2838 50.3233C69.1836 51.9517 74.4833 52.0572 76.8956 51.9064C78.1805 50.8119 78.4788 45.3478 81.9843 45.3478C84.6982 44.5562 82.234 40.5458 82.6627 38.9022L79.6096 31.4389C80.3634 30.2704 82.7758 27.9334 80.5142 27.481C78.2526 27.0287 75.3125 30.9865 73.2771 32.7958Z" fill="white" stroke="black" stroke-width="2" stroke-linecap="round" stroke-linejoin="round"></path>
  <path d="M89.7856 69.8853L75.7637 32.3426L108.105 20.6953L112.515 31.4379C109.801 31.551 104.147 34.265 105.278 40.9367C106.508 48.1964 113.721 47.6084 117.49 46.3646L122.014 56.6549L89.7856 69.8853Z" fill="#FFB827"></path>
  <path d="M76.2164 35.0566L70.7886 40.1452L72.9371 45.9123L77.6865 39.5798L79.7219 35.0566L78.9304 33.9258L76.2164 35.0566Z" fill="white"></path>
  <path d="M70.2236 40.8231L76.6692 34.943C77.31 34.4153 78.7499 33.5181 79.3831 34.1514C80.1747 34.943 79.9485 37.4307 72.0329 47.0425" stroke="black" stroke-width="2" stroke-linecap="round" stroke-linejoin="round"></path>
  <path d="M79.3828 64.3421C82.059 62.6082 86.62 60.1353 88.4292 59.1402C90.6908 57.8963 96.3449 55.7482 97.7018 56.3136C99.0588 56.8791 99.5111 58.2357 97.7018 59.1403C96.6638 59.6593 94.3618 60.7909 92.4892 61.7093C94.6615 60.7997 97.4536 60.0395 98.8326 60.3843C100.678 60.8456 99.8504 63.0982 97.7018 63.6635C95.5533 64.2288 89.6731 66.3775 92.0478 67.5083C93.9983 68.4371 98.8326 66.2645 98.8326 68.7521C98.8326 69.996 97.7018 70.2222 92.8394 71.4661C88.9494 72.4612 86.0169 75.5747 85.0368 77.007L79.3828 64.3421Z" fill="white" stroke="black" stroke-width="2" stroke-linecap="round" stroke-linejoin="round"></path>
  <path d="M11.0815 122.241L28.9482 102.678L22.6157 75.8779L32.3406 72.0332L57.4445 109.237L30.6444 139.768L11.0815 122.241Z" fill="white"></path>
  <path d="M28.9482 102.678L11.0815 122.241L30.6444 139.768L57.4445 109.237L32.3406 72.0332L22.6157 75.8779L28.9482 102.678ZM28.9482 102.678L30.3052 107.654" stroke="black" stroke-width="2" stroke-linecap="round" stroke-linejoin="round"></path>
  <path d="M102.79 130.156L76.555 138.637L35.9591 86.5066C32.1521 85.112 24.8025 84.5843 20.9195 76.4425C17.0365 68.3007 21.0703 61.4405 22.8418 58.3496L55.5221 68.753L102.79 130.156Z" fill="white" stroke="black" stroke-width="2" stroke-linecap="round" stroke-linejoin="round"></path>
  <path d="M28.0438 41.3897L23.2944 58.4649L42.8573 64.345L41.6135 73.1653C41.2742 74.1453 41.048 76.9422 42.8573 80.2893C44.6666 83.6365 50.0191 83.7195 52.4692 83.3425L80.9654 80.2893C83.1893 79.4601 87.2075 76.3994 85.4886 70.7906C83.7698 65.1818 79.3446 64.1566 77.3468 64.345L58.6886 65.8151C59.8948 61.4049 62.4202 50.9789 62.8726 44.556C63.3249 38.133 57.3316 35.6226 54.2785 35.1703C51.9038 34.1903 45.413 32.0719 38.4472 31.4386C31.4815 30.8054 28.6092 37.8088 28.0438 41.3897Z" fill="white"></path>
  <path d="M42.8573 64.345L41.6135 73.1653C41.2742 74.1453 41.0481 76.9422 42.8573 80.2893C44.6666 83.6365 50.0191 83.7195 52.4692 83.3425L80.9654 80.2893C83.1893 79.4601 87.2075 76.3994 85.4886 70.7906C83.7698 65.1818 79.3446 64.1566 77.3468 64.345L58.6886 65.8151C59.8948 61.4049 62.4202 50.9789 62.8726 44.556C63.3249 38.133 57.3316 35.6226 54.2785 35.1703C51.9038 34.1903 45.413 32.0719 38.4472 31.4386C31.4815 30.8054 28.6092 37.8088 28.0438 41.3897L23.2944 58.4649L42.8573 64.345ZM42.8573 64.345L46.7021 43.4252" stroke="black" stroke-width="2" stroke-linecap="round" stroke-linejoin="round"></path>
  <path d="M42.7444 15.7188L41.5005 31.55L51.4516 34.3771L52.5824 27.8221C55.4111 27.387 57.2366 26.0722 58.3609 24.5391C59.4976 22.989 59.9175 21.2157 59.9326 19.9028L63.2119 19.2243L60.7241 15.7188C62.262 8.30072 59.4803 5.3154 57.8971 4.75H48.6245L42.7444 15.7188Z" fill="white"></path>
  <path d="M47.3807 27.7053C49.4073 28.0369 51.1275 28.0459 52.5824 27.8221M52.5824 27.8221L51.4516 34.3771L41.5005 31.55L42.7444 15.7188L48.6246 4.75H57.8971C59.4803 5.3154 62.262 8.30072 60.7241 15.7188L63.2119 19.2243L59.9326 19.9028C59.9175 21.2157 59.4976 22.989 58.3609 24.5391M52.5824 27.8221C55.4111 27.387 57.2366 26.0722 58.3609 24.5391M56.9925 20.9205C56.9247 21.8628 57.1035 23.9058 58.3609 24.5391M60.2718 13.9095C59.141 13.231 58.6887 14.2487 59.141 14.7011C59.5933 15.1534 59.9326 14.7011 60.2718 13.9095Z" stroke="black" stroke-width="2" stroke-linecap="round" stroke-linejoin="round"></path>
  <path d="M44.2146 23.0697C46.9737 22.568 48.5493 20.544 49.9816 18.6594L48.9639 17.6418L47.9462 14.5887L48.9639 11.8745L51.4517 10.6309L54.731 11.1963L56.4272 13.4579C59.5935 11.7391 60.6112 9.12313 60.7243 8.03002C60.9128 5.80604 59.0281 1.31283 49.9816 1.1319C40.9352 0.950974 38.2967 9.00993 38.3344 12.6662C38.3868 17.755 40.4829 23.7482 44.2146 23.0697Z" fill="#FFB827"></path>
  <path d="M52.6746 18.8467C51.5438 19.0728 49.0334 18.9824 48.0383 16.8112C47.0432 14.6401 47.4974 12.9868 48.7168 11.4964C49.7345 10.2526 52.7877 10.0383 54.2577 11.0441C55.7278 12.0499 55.9539 14.0973 55.7278 14.6627M49.9607 15.3412L53.4662 16.2458L51.9961 12.8534" stroke="black" stroke-width="2" stroke-linecap="round" stroke-linejoin="round"></path>
  <path d="M173.691 155.598V141.463L152.886 132.982C152.886 135.538 149.233 144.496 139.867 146.139C132.375 147.453 132.012 153.287 132.41 155.598H152.886L164.639 147.02V155.598H173.691Z" fill="#FFB827"></path>
  <path d="M206.258 154.691L214.287 152.543L208.746 133.658L188.166 140.217C188.366 141.798 186.13 144.966 180.476 146.992C176.84 148.295 175.247 153.638 175.161 155.709H195.063L203.884 146.992L206.258 154.691Z" fill="#FFB827"></path>
  <path d="M174.935 77.1228V39.5801H142.934V50.775C139.579 50.2473 133.096 50.775 133.096 58.3514C133.096 65.9278 139.579 66.0786 142.934 65.8147V77.1228H174.935Z" fill="#FFB827"></path>
  <path d="M175.275 142.369L207.616 69.0933L181.721 64.457L150.85 131.853L175.275 142.369Z" fill="white" stroke="black" stroke-width="2" stroke-linecap="round" stroke-linejoin="round"></path>
  <path d="M170.524 74.069L187.486 54.6192L217 51.3398C217.528 51.7168 218.131 54.2027 218.131 61.1778C218.131 70.9027 209.386 71.7697 205.24 72.712L193.706 87.4125L208.972 134.002L183.868 141.804C177.837 124.126 165.73 87.8422 165.549 84.1331C165.368 80.4241 168.791 75.8783 170.524 74.069Z" fill="white"></path>
  <path d="M193.706 87.4125L208.972 134.002L183.868 141.804C177.837 124.126 165.73 87.8422 165.549 84.1331C165.368 80.4241 168.791 75.8783 170.524 74.069L187.486 54.6192L217 51.3398C217.528 51.7168 218.131 54.2027 218.131 61.1778C218.131 70.9027 209.386 71.7697 205.24 72.712L193.706 87.4125ZM193.706 87.4125L190.766 91.031" stroke="black" stroke-width="2" stroke-linecap="round" stroke-linejoin="round"></path>
  <path d="M220.507 37.4282L192.124 27.8164C181.177 30.1685 178.441 35.2043 178.441 37.4282V46.4747C179.232 46.3993 180.997 47.8316 181.72 54.1641C182.444 60.4966 190.917 60.2705 195.064 59.3658L220.507 56.0865C222.957 56.0488 227.97 54.3451 228.422 47.8316C228.875 41.3182 223.334 38.1821 220.507 37.4282Z" fill="white" stroke="black" stroke-width="2" stroke-linecap="round" stroke-linejoin="round"></path>
  <path d="M186.809 44.5537C193.414 43.4529 195.064 48.1343 195.064 50.4336C194.611 56.5402 189.975 56.9925 184.434 56.9925C178.893 56.9925 178.215 59.7064 175.84 61.6288C173.465 63.5511 171.769 62.9855 172.448 60.6108C173.126 58.2362 175.459 56.3254 174.144 55.9745C172.448 55.5222 166.632 61.0632 165.663 58.8016C164.687 56.5255 167.393 54.6587 170.167 53.2008C168.018 54.303 164.966 54.8369 164.079 54.5045C163.175 54.1653 162.497 52.9216 163.514 51.9039C164.079 51.3382 167.434 49.3028 169.055 48.7374C172.033 47.2296 180.024 45.6844 186.809 44.5537Z" fill="white" stroke="black" stroke-width="2" stroke-linecap="round" stroke-linejoin="round"></path>
  <path d="M183.303 44.6681C183.793 43.8012 185.429 41.9768 188.053 41.615C190.676 41.2531 203.545 40.6349 209.651 40.3711" stroke="black" stroke-width="2" stroke-linecap="round" stroke-linejoin="round"></path>
  <path fill-rule="evenodd" clip-rule="evenodd" d="M194.498 12.4364C194.498 14.0509 193.953 15.542 193.031 16.746C198.503 16.979 202.866 21.3914 202.866 26.8004C202.866 32.3587 198.259 36.8646 192.576 36.8646C189.699 36.8646 187.098 35.7101 185.231 33.849C183.376 36.4888 180.266 38.2198 176.744 38.2198C171.061 38.2198 166.454 33.7139 166.454 28.1556C166.454 24.7635 168.17 21.7633 170.799 19.94C168.78 19.1125 167.358 17.1278 167.358 14.8111C167.358 11.7509 169.839 9.27018 172.899 9.27018C175.96 9.27018 178.44 11.7509 178.44 14.8111C178.44 16.0465 178.036 17.1874 177.353 18.1088C179.986 18.2591 182.354 19.3782 184.089 21.107C184.494 20.5302 184.959 19.9968 185.476 19.5154C182.102 18.8203 179.571 15.9149 179.571 12.4364C179.571 8.4394 182.913 5.19922 187.035 5.19922C191.156 5.19922 194.498 8.4394 194.498 12.4364Z" fill="#FFB827"></path>
  <path d="M169.959 15.9424L172.108 14.2462L174.03 13.7938L174.482 11.0799L179.458 7.6875L186.582 9.04446L188.052 13.7938L191.557 13.1154L194.158 15.49V19.1086L191.557 21.5964L189.183 21.1441L191.557 30.4167L191.897 34.9399L190.313 37.6538L186.129 39.5762L182.624 38.2192L179.91 33.3567L179.458 30.4167L175.048 28.8335L172.56 25.6673V22.6141L171.655 20.8048L169.959 18.5432V15.9424Z" fill="white"></path>
  <path d="M186.582 15.1529C187.412 13.8713 189.704 12.4842 192.237 13.5698C194.951 14.7329 194.837 17.4145 194.498 18.5453C193.901 20.5366 191.445 22.6162 189.07 21.0331L192.237 33.1327C192.35 34.5651 191.603 37.8142 187.713 39.3521C183.823 40.89 181.042 36.6759 180.137 34.3766L179.232 30.3057M179.232 30.3057C177.046 30.0795 173.451 28.9949 172.561 24.6517C172.291 23.3391 172.306 22.12 172.473 21.0331M179.232 30.3057C180.853 30.4565 184.592 30.1474 186.582 27.7048M174.483 16.0576C174.29 15.7102 174.058 15.031 173.998 14.1352M174.483 16.0576C174.112 16.64 172.868 18.4683 172.473 21.0331M174.483 16.0576C175.749 14.4292 176.669 15.3791 176.971 16.0576M174.483 11.082C174.041 12.23 173.941 13.2811 173.998 14.1352M173.998 14.1352C172.614 14.0221 169.847 14.8137 169.847 17.4145C169.847 20.3094 171.598 21.0331 172.473 21.0331M179.232 16.0576L178.102 19.2238L179.798 19.6761M182.059 16.5099C182.21 16.0576 182.693 15.1529 183.416 15.1529C184.321 15.1529 184.886 15.9445 184.886 16.5099M191.445 15.6052L188.279 17.4145L190.88 18.2061M176.971 22.1639H182.625C182.587 23.3701 182.421 25.7599 179.798 25.6694C177.174 25.5789 176.971 23.4078 176.971 22.1639Z" stroke="black" stroke-width="2" stroke-linecap="round" stroke-linejoin="round"></path>
  <path fill-rule="evenodd" clip-rule="evenodd" d="M178.695 10.0969C177.636 11.1264 176.19 11.7604 174.596 11.7604C171.349 11.7604 168.716 9.12771 168.716 5.88018C168.716 2.63265 171.349 0 174.596 0C176.439 0 178.083 0.847142 179.161 2.17312C180.031 1.51887 181.113 1.13112 182.285 1.13112C185.158 1.13112 187.487 3.46 187.487 6.33282C187.487 9.20563 185.158 11.5345 182.285 11.5345C180.893 11.5345 179.628 10.9876 178.695 10.0969Z" fill="#FFB827"></path>
</svg>
