<?xml version="1.0" encoding="UTF-8"?>
<svg xmlns="http://www.w3.org/2000/svg" width="64" height="103" viewBox="0 0 64 103" fill="none">
  <rect x="1" y="10" width="52" height="52" rx="15" fill="white"></rect>
  <rect x="1" y="10" width="52" height="52" rx="15" stroke="black" stroke-width="2"></rect>
  <rect x="6" y="15" width="42" height="42" rx="12" fill="white"></rect>
  <path fill-rule="evenodd" clip-rule="evenodd" d="M10.107 23.6582C9.32811 23.6582 8.79165 24.3122 9.07822 24.9074L13.3181 31.4767C13.3573 31.5417 13.3893 31.6107 13.4136 31.6825C13.4505 31.8172 13.4505 31.9593 13.4136 32.094C13.3893 32.1658 13.3573 32.2348 13.3181 32.2998L9.07828 38.8691C8.79171 39.4641 9.32811 40.1183 10.1071 40.1183H23.4493C23.4489 40.1848 23.4397 40.2513 23.4218 40.316C23.3995 40.39 23.3647 40.4595 23.3189 40.5217L19.079 47.0907C18.7925 47.6933 19.3289 48.3399 20.1151 48.3399H38.6034C39.5145 48.3399 40.3376 47.8844 40.6756 47.1863L44.8053 40.8448L44.8788 40.7198C44.959 40.5278 45.0003 40.3217 45.0003 40.1136C45.0003 39.9055 44.959 39.6994 44.8788 39.5074C44.8569 39.4665 44.8324 39.4273 44.8053 39.3898L40.6755 33.0484C40.3375 32.3503 39.5145 31.8874 38.6033 31.8874H34.9972C34.9971 31.6802 34.954 31.4753 34.8707 31.2857L34.8046 31.1607L30.6674 24.8193C30.3367 24.1212 29.5137 23.6582 28.6025 23.6582H10.107Z" fill="#9253FD"></path>
  <path d="M10.107 23.6582C9.32811 23.6582 8.79165 24.3122 9.07822 24.9074L13.3181 31.4767C13.3573 31.5417 13.3893 31.6107 13.4136 31.6825C13.4505 31.8172 13.4505 31.9593 13.4136 32.094C13.3893 32.1658 13.3573 32.2348 13.3181 32.2998L9.07828 38.8691C8.79171 39.4641 9.32811 40.1183 10.1071 40.1183H28.5953C29.5137 40.1183 30.3368 39.6554 30.6675 38.9573L34.8046 32.6157L34.8707 32.4908C34.9541 32.3008 34.9972 32.0957 34.9972 31.8882C34.9972 31.6808 34.9541 31.4756 34.8707 31.2857L34.8046 31.1607L30.6674 24.8193C30.3367 24.1212 29.5137 23.6582 28.6025 23.6582H10.107Z" fill="url(#paint0_linear_2569_5505)"></path>
  <path d="M20.1153 31.8867C19.329 31.8867 18.7925 32.5334 19.0792 33.1359L23.3191 39.7053C23.3634 39.7683 23.3981 39.8377 23.4219 39.911C23.4586 40.0433 23.4586 40.1831 23.4219 40.3154C23.3996 40.3893 23.3648 40.4589 23.3191 40.5211L19.0792 47.0901C18.7926 47.6926 19.329 48.3393 20.1153 48.3393H38.6035C39.5147 48.3393 40.3377 47.8837 40.6758 47.1857L44.8055 40.8441L44.8789 40.7192C44.9592 40.5271 45.0005 40.3211 45.0005 40.113C45.0005 39.9048 44.9592 39.6988 44.8789 39.5067C44.8571 39.4659 44.8326 39.4266 44.8055 39.3891L40.6757 33.0478C40.3377 32.3497 39.5147 31.8867 38.6035 31.8867H20.1153Z" fill="#9966FF"></path>
  <path d="M31.8725 31.8867H20.1153C19.329 31.8867 18.7925 32.5334 19.0792 33.1359L23.3191 39.7053C23.3634 39.7683 23.3981 39.8377 23.4219 39.911C23.4394 39.9783 23.4493 40.0473 23.4513 40.1168H28.5951C29.5136 40.1168 30.3366 39.6539 30.6673 38.9557L34.8044 32.6142L34.8706 32.4893C34.952 32.2988 34.9945 32.0939 34.9955 31.8867H31.8725Z" fill="url(#paint1_linear_2569_5505)"></path>
  <path d="M27 63L27 102" stroke="black" stroke-width="2" stroke-linecap="round" stroke-linejoin="round"></path>
  <rect x="40" width="24" height="24" rx="12" fill="#19CB8F"></rect>
  <g clip-path="url(#clip0_2569_5505)">
    <path d="M52 7.33398V16.6673" stroke="white" stroke-width="2" stroke-linecap="round" stroke-linejoin="round"></path>
    <path d="M47.3335 12H56.6668" stroke="white" stroke-width="2" stroke-linecap="round" stroke-linejoin="round"></path>
  </g>
  <defs>
    <linearGradient id="paint0_linear_2569_5505" x1="21.9986" y1="23.6582" x2="21.9986" y2="40.1183" gradientUnits="userSpaceOnUse">
      <stop stop-color="#F089E2"></stop>
      <stop offset="0.517" stop-color="#E47FD6"></stop>
      <stop offset="1" stop-color="#C162B4"></stop>
    </linearGradient>
    <linearGradient id="paint1_linear_2569_5505" x1="26.9982" y1="31.8867" x2="26.9982" y2="40.1168" gradientUnits="userSpaceOnUse">
      <stop stop-color="#9253FD"></stop>
      <stop offset="1" stop-color="#812BF9"></stop>
    </linearGradient>
    <clipPath id="clip0_2569_5505">
      <rect width="16" height="16" fill="white" transform="translate(44 4)"></rect>
    </clipPath>
  </defs>
</svg>
