<svg width="34" height="32" viewBox="0 0 34 32" fill="none" xmlns="http://www.w3.org/2000/svg">
<path d="M1 6L18.2 6L23.4 12.4L18.2 18.8H1L5.4 12.4L1 6Z" fill="#C04FB0" fill-opacity="0.8"/>
<path d="M1 5.75C0.90716 5.75 0.821966 5.80145 0.778744 5.88361C0.735523 5.96578 0.741393 6.06513 0.79399 6.14163L5.09661 12.4L0.79399 18.6584C0.741393 18.7349 0.735523 18.8342 0.778744 18.9164C0.821966 18.9985 0.90716 19.05 1 19.05H18.2C18.2753 19.05 18.3465 19.0161 18.394 18.9576L23.594 12.5576C23.6686 12.4658 23.6686 12.3342 23.594 12.2423L18.394 5.84235C18.3465 5.78392 18.2753 5.75 18.2 5.75H1Z" stroke="#C04FB0" stroke-opacity="0.8" stroke-width="0.5" stroke-linejoin="round"/>
<path d="M10.6 13.2L27.8 13.2L33 19.5999L27.8 25.9999H10.6L15 19.5999L10.6 13.2Z" fill="#9966FF" fill-opacity="0.8"/>
<path d="M10.6 12.95C10.5071 12.95 10.4219 13.0014 10.3787 13.0836C10.3355 13.1657 10.3414 13.2651 10.394 13.3416L14.6966 19.5999L10.394 25.8583C10.3414 25.9348 10.3355 26.0342 10.3787 26.1163C10.4219 26.1985 10.5071 26.2499 10.6 26.2499H27.8C27.8752 26.2499 27.9465 26.216 27.994 26.1576L33.194 19.7576C33.2686 19.6657 33.2686 19.5342 33.194 19.4423L27.994 13.0423C27.9465 12.9839 27.8752 12.95 27.8 12.95H10.6Z" stroke="#9966FF" stroke-opacity="0.8" stroke-width="0.5" stroke-miterlimit="5.75877" stroke-linejoin="round"/>
</svg>
