<svg width="89" height="117" viewBox="0 0 89 117" fill="none" xmlns="http://www.w3.org/2000/svg">
<line x1="10.252" y1="41.7068" x2="33.2519" y2="116.707" stroke="black" stroke-width="2"></line>
<circle cx="9.69927" cy="43.3536" r="7.46099" fill="white"></circle>
<circle cx="7.46099" cy="60.8868" r="7.46099" fill="white"></circle>
<circle cx="21.6368" cy="56.4122" r="7.46099" fill="white"></circle>
<circle cx="26.4864" cy="72.4512" r="7.46099" fill="white"></circle>
<circle cx="12.3106" cy="76.5547" r="7.46099" fill="white"></circle>
<path d="M55.796 23.0012V4.00119C55.6294 3.00079 56.7959 1 58.796 1C61.596 1 62.296 3.00079 62.296 4.00119C62.4627 3.00079 63.396 1 65.796 1C68.196 1 68.796 3.33333 68.796 4.5L69.296 19.5L74.796 6.50119C75.296 5.16785 76.996 2.80119 79.796 4.00119C81.9941 4.94321 81.6655 7.59017 80.9389 9.57165C82.446 6.29576 83.1447 5.61741 85.796 6.50119C88.196 7.30119 88.1294 9.50119 87.796 10.5012L80.296 28.5012C78.796 31.0012 73.996 35.6012 66.796 34.0012C57.996 32.0012 55.796 25.8345 55.796 23.0012Z" fill="white"></path>
<path d="M55.796 4.00119V23.0012C55.796 25.8345 57.996 32.0012 66.796 34.0012C73.996 35.6012 78.796 31.0012 80.296 28.5012L87.796 10.5012C88.1294 9.50119 88.196 7.30119 85.796 6.50119C82.796 5.50119 82.296 6.50119 80.296 11.0012C81.296 9.16785 82.596 5.20119 79.796 4.00119C76.996 2.80119 75.296 5.16785 74.796 6.50119L69.296 19.5L68.796 4.5C68.796 3.33333 68.196 1 65.796 1C63.396 1 62.4627 3.00079 62.296 4.00119C62.296 3.00079 61.596 1 58.796 1C56.7959 1 55.6294 3.00079 55.796 4.00119Z" stroke="black" stroke-width="2"></path>
<path d="M62.2959 2.5L62.2959 17" stroke="black" stroke-width="2"></path>
<path d="M81.7959 7L76.7959 19.5" stroke="black" stroke-width="2"></path>
<path d="M66.7959 33.5L50.0127 116.78" stroke="black" stroke-width="2"></path>
</svg>