<svg width="122" height="40" viewBox="0 0 122 40" fill="none" xmlns="http://www.w3.org/2000/svg">
<rect x="0.5" y="0.5" width="121" height="39" rx="7.5" fill="white" stroke="#E3E6F2"/>
<path d="M0 8C0 3.58172 3.58172 0 8 0H40V40H8C3.58172 40 0 36.4183 0 32V8Z" fill="#4A6BED"/>
<path d="M20.1742 4.12725L20.6046 5.41772L21.9649 5.4283C22.1411 5.42964 22.214 5.65434 22.0724 5.75904L20.978 6.56714L21.3883 7.86405C21.4414 8.03185 21.2503 8.17096 21.1069 8.06845L20.0003 7.27737L18.8937 8.06845C18.7505 8.17083 18.5592 8.03197 18.6123 7.86405L19.0226 6.56714L17.9283 5.75904C17.7866 5.65434 17.8596 5.42964 18.0358 5.4283L19.396 5.41772L19.8264 4.12725C19.882 3.96019 20.1185 3.96019 20.1742 4.12725Z" fill="#FFE15A"/>
<path d="M20.1742 31.8329L20.6046 33.1234L21.9649 33.134C22.1411 33.1353 22.214 33.36 22.0724 33.4647L20.978 34.2728L21.3883 35.5697C21.4414 35.7375 21.2503 35.8766 21.1069 35.7741L20.0003 34.983L18.8937 35.7741C18.7505 35.8765 18.5592 35.7376 18.6123 35.5697L19.0226 34.2728L17.9283 33.4647C17.7866 33.36 17.8596 33.1353 18.0358 33.134L19.396 33.1234L19.8264 31.8329C19.882 31.6657 20.1185 31.6657 20.1742 31.8329Z" fill="#FFE15A"/>
<path d="M34.0267 17.9802L34.4572 19.2707L35.8174 19.2812C35.9936 19.2826 36.0666 19.5073 35.9249 19.612L34.8306 20.4201L35.2408 21.717C35.294 21.8848 35.1028 22.0239 34.9595 21.9214L33.8529 21.1303L32.7463 21.9214C32.603 22.0238 32.4118 21.8849 32.4649 21.717L32.8751 20.4201L31.7808 19.612C31.6392 19.5073 31.7121 19.2826 31.8883 19.2812L33.2486 19.2707L33.679 17.9802C33.7346 17.8132 33.9711 17.8132 34.0267 17.9802Z" fill="#FFE15A"/>
<path d="M6.32069 17.9802L6.75112 19.2707L8.11138 19.2812C8.28756 19.2826 8.36052 19.5073 8.21886 19.612L7.12453 20.4201L7.53479 21.717C7.58792 21.8848 7.39678 22.0239 7.25342 21.9214L6.14681 21.1303L5.0402 21.9214C4.89696 22.0238 4.7057 21.8849 4.75883 21.717L5.16908 20.4201L4.07475 19.612C3.9331 19.5073 4.00605 19.2826 4.18224 19.2812L5.54249 19.2707L5.97293 17.9802C6.02862 17.8132 6.26512 17.8132 6.32069 17.9802Z" fill="#FFE15A"/>
<path d="M8.40076 10.7459L8.8312 12.0364L10.1915 12.047C10.3676 12.0483 10.4406 12.273 10.2989 12.3777L9.20461 13.1858L9.61486 14.4827C9.668 14.6505 9.47686 14.7896 9.3335 14.6871L8.22689 13.896L7.12028 14.6871C6.97704 14.7895 6.78578 14.6506 6.83891 14.4827L7.24916 13.1858L6.15483 12.3777C6.01318 12.273 6.08613 12.0483 6.26232 12.047L7.62257 12.0364L8.05301 10.7459C8.1087 10.5788 8.34495 10.5788 8.40076 10.7459Z" fill="#FFE15A"/>
<path d="M32.3949 24.5998L32.8253 25.8903L34.1856 25.9009C34.3618 25.9022 34.4347 26.1269 34.2931 26.2316L33.1987 27.0397L33.609 28.3366C33.6621 28.5047 33.471 28.6435 33.3276 28.541L32.221 27.7499L31.1144 28.541C30.9712 28.6434 30.7799 28.5045 30.8331 28.3366L31.2433 27.0397L30.149 26.2316C30.0073 26.1269 30.0803 25.9022 30.2565 25.9009L31.6167 25.8903L32.0471 24.5998C32.1028 24.4329 32.3392 24.4329 32.3949 24.5998Z" fill="#FFE15A"/>
<path d="M27.3237 5.6755L27.7542 6.96597L29.1144 6.97655C29.2906 6.97789 29.3636 7.20259 29.2219 7.30728L28.1276 8.11539L28.5378 9.4123C28.591 9.5801 28.3998 9.7192 28.2565 9.6167L27.1499 8.82562L26.0431 9.6167C25.8999 9.71908 25.7086 9.58022 25.7618 9.4123L26.172 8.11539L25.0777 7.30728C24.936 7.20259 25.009 6.97789 25.1852 6.97655L26.5454 6.96597L26.9759 5.6755C27.0315 5.50856 27.2678 5.50856 27.3237 5.6755Z" fill="#FFE15A"/>
<path d="M13.4711 29.6703L13.9015 30.9608L15.2618 30.9713C15.438 30.9727 15.5109 31.1974 15.3693 31.3021L14.2749 32.1102L14.6852 33.4071C14.7383 33.5749 14.5472 33.714 14.4038 33.6115L13.2972 32.8204L12.1906 33.6115C12.0474 33.7138 11.8561 33.575 11.9092 33.4071L12.3195 32.1102L11.2251 31.3021C11.0835 31.1974 11.1564 30.9727 11.3326 30.9713L12.6929 30.9609L13.1233 29.6704C13.179 29.5031 13.4155 29.5031 13.4711 29.6703Z" fill="#FFE15A"/>
<path d="M32.0471 10.7459L31.6167 12.0364L30.2565 12.047C30.0803 12.0483 30.0073 12.273 30.149 12.3777L31.2433 13.1858L30.8331 14.4827C30.7799 14.6505 30.9711 14.7896 31.1144 14.6871L32.221 13.896L33.3276 14.6871C33.4709 14.7895 33.6621 14.6506 33.609 14.4827L33.1987 13.1858L34.2931 12.3777C34.4347 12.273 34.3618 12.0483 34.1856 12.047L32.8253 12.0364L32.3949 10.7459C32.3392 10.5788 32.1028 10.5788 32.0471 10.7459Z" fill="#FFE15A"/>
<path d="M8.05301 24.5998L7.62257 25.8903L6.26232 25.9009C6.08613 25.9022 6.01318 26.1269 6.15483 26.2316L7.24916 27.0397L6.83891 28.3366C6.78578 28.5047 6.97692 28.6435 7.12028 28.541L8.22689 27.7499L9.3335 28.541C9.47673 28.6434 9.668 28.5045 9.61486 28.3366L9.20461 27.0397L10.2989 26.2316C10.4406 26.1269 10.3676 25.9022 10.1915 25.9009L8.8312 25.8903L8.40076 24.5998C8.34495 24.4329 8.1087 24.4329 8.05301 24.5998Z" fill="#FFE15A"/>
<path d="M13.1233 5.6755L12.6929 6.96597L11.3326 6.97655C11.1564 6.97789 11.0835 7.20259 11.2251 7.30728L12.3195 8.11539L11.9092 9.4123C11.8561 9.5801 12.0472 9.7192 12.1906 9.6167L13.2972 8.82562L14.4038 9.6167C14.547 9.71908 14.7383 9.58022 14.6852 9.4123L14.2749 8.11539L15.3693 7.30728C15.5109 7.20259 15.438 6.97789 15.2618 6.97655L13.9015 6.96597L13.4711 5.6755C13.4153 5.50856 13.179 5.50856 13.1233 5.6755Z" fill="#FFE15A"/>
<path d="M26.9759 29.6703L26.5454 30.9608L25.1852 30.9713C25.009 30.9727 24.936 31.1974 25.0777 31.3021L26.172 32.1102L25.7618 33.4071C25.7086 33.5749 25.8998 33.714 26.0431 33.6115L27.1497 32.8204L28.2563 33.6115C28.3996 33.7138 28.5908 33.575 28.5377 33.4071L28.1275 32.1102L29.2218 31.3021C29.3634 31.1974 29.2905 30.9727 29.1143 30.9713L27.754 30.9609L27.3236 29.6704C27.2678 29.5031 27.0315 29.5031 26.9759 29.6703Z" fill="#FFE15A"/>
<path d="M54.7074 12.0597H56.3182C56.0497 10.3466 54.5668 9.15341 52.6364 9.15341C50.3523 9.15341 48.6392 10.8324 48.6392 13.6449C48.6392 16.4062 50.2756 18.1193 52.6832 18.1193C54.8438 18.1193 56.3906 16.7301 56.3906 14.4801V13.4318H52.8494V14.6676H54.8608C54.8352 15.9119 54.0043 16.7003 52.6918 16.7003C51.2301 16.7003 50.2287 15.6051 50.2287 13.6278C50.2287 11.6634 51.2472 10.5724 52.6577 10.5724C53.7102 10.5724 54.4261 11.1349 54.7074 12.0597ZM60.8768 18C63.5359 18 65.1126 16.3551 65.1126 13.6278C65.1126 10.9091 63.5359 9.27273 60.9364 9.27273H57.9194V18H60.8768ZM59.5004 16.6321V10.6406H60.8469C62.6197 10.6406 63.5444 11.6293 63.5444 13.6278C63.5444 15.6349 62.6197 16.6321 60.8001 16.6321H59.5004ZM66.6147 18H68.1957V15.0511H69.8661C71.8817 15.0511 72.9641 13.8409 72.9641 12.1619C72.9641 10.4957 71.8945 9.27273 69.8874 9.27273H66.6147V18ZM68.1957 13.7514V10.5938H69.6445C70.8292 10.5938 71.3533 11.233 71.3533 12.1619C71.3533 13.0909 70.8292 13.7514 69.6531 13.7514H68.1957ZM74.3374 18H75.9183V14.804H77.5291L79.2422 18H81.0064L79.1186 14.5398C80.1456 14.1264 80.6868 13.2486 80.6868 12.0639C80.6868 10.3977 79.6129 9.27273 77.6101 9.27273H74.3374V18ZM75.9183 13.4915V10.5938H77.3672C78.5476 10.5938 79.076 11.1349 79.076 12.0639C79.076 12.9929 78.5476 13.4915 77.3757 13.4915H75.9183Z" fill="#111958"/>
<path opacity="0.6" d="M51.7744 31.1709C53.3467 31.1709 54.5039 30.2432 54.6992 28.8516H53.6104C53.415 29.6475 52.707 30.1504 51.7744 30.1504C50.5049 30.1504 49.7139 29.1201 49.7139 27.4795C49.7139 25.834 50.5049 24.8037 51.7695 24.8037C52.6973 24.8037 53.4053 25.3604 53.6104 26.2246H54.6992C54.5234 24.7891 53.3223 23.7832 51.7695 23.7832C49.8115 23.7832 48.5957 25.1943 48.5957 27.4795C48.5957 29.7598 49.8164 31.1709 51.7744 31.1709ZM59.1926 23.7832C57.1711 23.7832 55.9016 25.1992 55.9016 27.4746C55.9016 29.7451 57.1467 31.1709 59.1926 31.1709C61.2336 31.1709 62.4738 29.7402 62.4738 27.4746C62.4738 25.2041 61.2238 23.7832 59.1926 23.7832ZM59.1926 24.8037C60.5305 24.8037 61.3557 25.8389 61.3557 27.4746C61.3557 29.1006 60.5305 30.1504 59.1926 30.1504C57.84 30.1504 57.0197 29.1006 57.0197 27.4746C57.0197 25.8389 57.8645 24.8037 59.1926 24.8037ZM71.1322 31V23.9541H69.8529L67.6068 29.3057H67.5238L65.2826 23.9541H64.0033V31H65.0189V25.9121H65.0873L67.1527 30.7949H67.9828L70.0482 25.9121H70.1166V31H71.1322ZM72.9498 23.9541V31H74.0436V28.627H75.6744C77.0562 28.627 78.0328 27.6797 78.0328 26.3027C78.0328 24.9062 77.0855 23.9541 75.7086 23.9541H72.9498ZM74.0436 24.9209H75.4205C76.3824 24.9209 76.9146 25.4092 76.9146 26.3027C76.9146 27.1768 76.3629 27.665 75.4205 27.665H74.0436V24.9209ZM83.8885 29.9941H80.5877V23.9541H79.4939V31H83.8885V29.9941ZM86.4189 31V23.9541H85.3252V31H86.4189ZM92.7971 31H93.9592L91.4152 23.9541H90.2385L87.6945 31H88.8176L89.467 29.1299H92.1525L92.7971 31ZM90.7707 25.2334H90.8537L91.8742 28.2119H89.7453L90.7707 25.2334ZM96.3041 31V25.9951H96.3822L100 31H100.987V23.9541H99.9223V28.959H99.8441L96.226 23.9541H95.2396V31H96.3041ZM105.69 31V24.9502H107.902V23.9541H102.379V24.9502H104.596V31H105.69Z" fill="#111958"/>
<path d="M25.3337 16L18.0003 23.3333L14.667 20" stroke="#F7F8FF" stroke-width="2" stroke-linecap="round" stroke-linejoin="round"/>
</svg>
