<?xml version="1.0" encoding="UTF-8"?>
<svg xmlns="http://www.w3.org/2000/svg" width="144" height="137" viewBox="0 0 144 137" fill="none">
  <rect x="1" y="1.70898" width="125.022" height="133.81" rx="5" fill="white" stroke="black" stroke-width="2"></rect>
  <circle cx="7.23176" cy="8.98567" r="2.37629" fill="#9966FF"></circle>
  <circle cx="14.0638" cy="8.98567" r="2.37629" fill="#9966FF"></circle>
  <circle cx="20.8958" cy="8.98567" r="2.37629" fill="#9966FF"></circle>
  <rect x="2.74658" y="18.5527" width="122.115" height="112.972" fill="white"></rect>
  <path d="M121.829 118.544L109.447 86.1895L142.201 101.368L133.014 105.363L143 116.148L137.807 120.541L127.422 110.156L121.829 118.544Z" fill="white" stroke="black" stroke-width="2" stroke-linejoin="round"></path>
  <rect x="42.3628" y="24.6465" width="34.8277" height="23.0733" fill="#9966FF"></rect>
  <rect x="83.7212" y="24.6465" width="34.8277" height="23.0733" fill="#9966FF"></rect>
  <rect x="35.3979" y="16.5938" width="120.156" height="2" transform="rotate(90 35.3979 16.5938)" fill="black"></rect>
  <rect x="127.022" y="17.4844" width="127.022" height="2" transform="rotate(-180 127.022 17.4844)" fill="black"></rect>
  <rect x="28" y="27" width="21" height="2" transform="rotate(-180 28 27)" fill="black"></rect>
  <rect x="28" y="37" width="21" height="2" transform="rotate(-180 28 37)" fill="black"></rect>
  <rect x="28" y="47" width="21" height="2" transform="rotate(-180 28 47)" fill="black"></rect>
  <rect x="104.653" y="110.156" width="32.7542" height="2" transform="rotate(-180 104.653 110.156)" fill="black"></rect>
  <rect x="71.8994" y="61.4238" width="23.9665" height="2" transform="rotate(-180 71.8994 61.4238)" fill="black"></rect>
  <rect x="91.0723" y="118.145" width="19.1732" height="2" transform="rotate(-180 91.0723 118.145)" fill="black"></rect>
  <rect x="43.3628" y="54.5996" width="32.8277" height="19.7673" stroke="black" stroke-width="2"></rect>
  <rect x="84.7212" y="54.5996" width="32.8277" height="19.7673" stroke="black" stroke-width="2"></rect>
  <mask id="path-19-inside-1_2544_7974" fill="white">
    <path d="M45.4664 107.173C43.9398 108.989 43.0768 111.27 43.0192 113.642C42.9616 116.014 43.7129 118.334 45.1495 120.222C46.5862 122.111 48.6226 123.453 50.9238 124.03C53.2251 124.607 55.6541 124.384 57.8115 123.397C59.9689 122.41 61.7261 120.718 62.7941 118.599C63.8621 116.481 64.1774 114.062 63.688 111.74C63.1987 109.419 61.9338 107.333 60.1015 105.826C58.2692 104.319 55.9786 103.48 53.6064 103.448L53.5521 107.441C55.0177 107.461 56.4329 107.979 57.5649 108.91C58.6969 109.841 59.4783 111.13 59.7806 112.564C60.083 113.998 59.8882 115.493 59.2284 116.801C58.5685 118.11 57.4829 119.156 56.1501 119.765C54.8172 120.375 53.3165 120.513 51.8948 120.157C50.4731 119.8 49.215 118.971 48.3274 117.804C47.4399 116.638 46.9757 115.204 47.0113 113.739C47.0469 112.274 47.5801 110.864 48.5232 109.742L45.4664 107.173Z"></path>
  </mask>
  <path d="M45.4664 107.173C43.9398 108.989 43.0768 111.27 43.0192 113.642C42.9616 116.014 43.7129 118.334 45.1495 120.222C46.5862 122.111 48.6226 123.453 50.9238 124.03C53.2251 124.607 55.6541 124.384 57.8115 123.397C59.9689 122.41 61.7261 120.718 62.7941 118.599C63.8621 116.481 64.1774 114.062 63.688 111.74C63.1987 109.419 61.9338 107.333 60.1015 105.826C58.2692 104.319 55.9786 103.48 53.6064 103.448L53.5521 107.441C55.0177 107.461 56.4329 107.979 57.5649 108.91C58.6969 109.841 59.4783 111.13 59.7806 112.564C60.083 113.998 59.8882 115.493 59.2284 116.801C58.5685 118.11 57.4829 119.156 56.1501 119.765C54.8172 120.375 53.3165 120.513 51.8948 120.157C50.4731 119.8 49.215 118.971 48.3274 117.804C47.4399 116.638 46.9757 115.204 47.0113 113.739C47.0469 112.274 47.5801 110.864 48.5232 109.742L45.4664 107.173Z" fill="#D9D9D9" stroke="#9966FF" stroke-width="28" mask="url(#path-19-inside-1_2544_7974)"></path>
  <circle cx="51.0698" cy="67.3139" r="3.2651" fill="#9966FF"></circle>
  <rect x="112.642" y="61.4238" width="23.1676" height="2" transform="rotate(-180 112.642 61.4238)" fill="black"></rect>
  <circle cx="92.4277" cy="67.3139" r="3.2651" fill="#9966FF"></circle>
</svg>
