<svg width="172" height="37" viewBox="0 0 172 37" fill="none" xmlns="http://www.w3.org/2000/svg">
<path d="M115.092 1L144.975 1L154.009 12.1191L144.975 23.2382H115.092L122.737 12.1191L115.092 1Z" fill="#C04FB0" fill-opacity="0.8"/>
<path d="M115.092 0.75C115 0.75 114.914 0.801447 114.871 0.883613C114.828 0.965778 114.834 1.06513 114.886 1.14163L122.433 12.1191L114.886 23.0966C114.834 23.1731 114.828 23.2724 114.871 23.3546C114.914 23.4368 115 23.4882 115.092 23.4882H144.975C145.05 23.4882 145.122 23.4543 145.169 23.3959L154.203 12.2767C154.278 12.1849 154.278 12.0533 154.203 11.9615L145.169 0.842352C145.122 0.783924 145.05 0.75 144.975 0.75H115.092Z" stroke="#C04FB0" stroke-opacity="0.8" stroke-width="0.5" stroke-linejoin="round"/>
<path d="M131.771 13.509L161.654 13.509L170.688 24.6281L161.654 35.7472H131.771L139.416 24.6281L131.771 13.509Z" fill="#9966FF" fill-opacity="0.8"/>
<path d="M131.771 13.259C131.678 13.259 131.593 13.3104 131.55 13.3926C131.507 13.4748 131.513 13.5741 131.565 13.6506L139.112 24.6281L131.565 35.6055C131.513 35.682 131.507 35.7814 131.55 35.8636C131.593 35.9457 131.678 35.9972 131.771 35.9972H161.654C161.729 35.9972 161.8 35.9633 161.848 35.9048L170.882 24.7857C170.957 24.6939 170.957 24.5623 170.882 24.4704L161.848 13.3513C161.8 13.2929 161.729 13.259 161.654 13.259H131.771Z" stroke="#9966FF" stroke-opacity="0.8" stroke-width="0.5" stroke-miterlimit="5.75877" stroke-linejoin="round"/>
<path d="M13.8752 30.3433L10.7841 27.2522C10.028 27.4597 9.25711 27.5635 8.47136 27.5635C7.03329 27.5635 5.72124 27.2299 4.5352 26.5628C3.34916 25.8808 2.40774 24.9394 1.71095 23.7385C1.02897 22.5228 0.687988 21.1589 0.687988 19.6467C0.687988 18.1345 1.02897 16.778 1.71095 15.5771C2.40774 14.3614 3.34916 13.42 4.5352 12.7529C5.72124 12.0709 7.03329 11.7299 8.47136 11.7299C9.92426 11.7299 11.2437 12.0709 12.4298 12.7529C13.6158 13.42 14.5498 14.354 15.2318 15.5549C15.9137 16.7557 16.2547 18.1197 16.2547 19.6467C16.2547 21.1292 15.9286 22.4635 15.2763 23.6496C14.6239 24.8356 13.727 25.7696 12.5854 26.4516L16.4994 30.3433H13.8752ZM2.75614 19.6467C2.75614 20.8772 3.00076 21.9595 3.49 22.8935C3.99407 23.8275 4.67604 24.5465 5.53592 25.0506C6.41062 25.5546 7.3891 25.8067 8.47136 25.8067C9.55362 25.8067 10.5247 25.5546 11.3846 25.0506C12.2593 24.5465 12.9412 23.8275 13.4305 22.8935C13.9345 21.9595 14.1866 20.8772 14.1866 19.6467C14.1866 18.4014 13.9345 17.3191 13.4305 16.3999C12.9412 15.4659 12.2667 14.7469 11.4068 14.2428C10.5469 13.7387 9.56844 13.4867 8.47136 13.4867C7.37428 13.4867 6.39579 13.7387 5.53592 14.2428C4.67604 14.7469 3.99407 15.4659 3.49 16.3999C3.00076 17.3191 2.75614 18.4014 2.75614 19.6467Z" fill="#151515"/>
<path d="M29.3327 15.2213V27.4078H27.309V25.6065C26.9236 26.2292 26.3824 26.7184 25.6856 27.0743C25.0037 27.4152 24.2476 27.5857 23.4173 27.5857C22.4685 27.5857 21.6161 27.393 20.86 27.0075C20.1039 26.6073 19.5034 26.0142 19.0587 25.2285C18.6287 24.4427 18.4137 23.4865 18.4137 22.3598V15.2213H20.4152V22.0929C20.4152 23.2938 20.7191 24.2204 21.327 24.8727C21.9348 25.5102 22.765 25.8289 23.8176 25.8289C24.8999 25.8289 25.7524 25.4953 26.375 24.8282C26.9977 24.1611 27.309 23.19 27.309 21.915V15.2213H29.3327Z" fill="#151515"/>
<path d="M31.5487 21.2701C31.5487 20.0247 31.8007 18.9351 32.3048 18.0011C32.8089 17.0522 33.4983 16.3184 34.373 15.7995C35.2625 15.2806 36.2484 15.0212 37.3306 15.0212C38.3981 15.0212 39.3247 15.2509 40.1104 15.7105C40.8962 16.1701 41.4818 16.7483 41.8672 17.4451V15.2213H43.9132V27.4078H41.8672V25.1395C41.4669 25.8512 40.8665 26.4442 40.0659 26.9186C39.2802 27.3782 38.361 27.608 37.3084 27.608C36.2261 27.608 35.2477 27.3411 34.373 26.8074C33.4983 26.2737 32.8089 25.525 32.3048 24.5613C31.8007 23.5977 31.5487 22.5006 31.5487 21.2701ZM41.8672 21.2923C41.8672 20.3731 41.6819 19.5726 41.3113 18.8906C40.9406 18.2086 40.4366 17.6897 39.7991 17.3339C39.1764 16.9633 38.487 16.778 37.7309 16.778C36.9748 16.778 36.2854 16.9559 35.6628 17.3117C35.0401 17.6675 34.5435 18.1864 34.1728 18.8684C33.8022 19.5503 33.6169 20.3509 33.6169 21.2701C33.6169 22.2041 33.8022 23.0195 34.1728 23.7163C34.5435 24.3983 35.0401 24.9246 35.6628 25.2952C36.2854 25.651 36.9748 25.8289 37.7309 25.8289C38.487 25.8289 39.1764 25.651 39.7991 25.2952C40.4366 24.9246 40.9406 24.3983 41.3113 23.7163C41.6819 23.0195 41.8672 22.2115 41.8672 21.2923Z" fill="#151515"/>
<path d="M48.9119 10.9516V27.4078H46.8882V10.9516H48.9119Z" fill="#151515"/>
<path d="M52.9613 13.2421C52.5759 13.2421 52.2497 13.1087 51.9828 12.8418C51.716 12.5749 51.5826 12.2488 51.5826 11.8633C51.5826 11.4779 51.716 11.1517 51.9828 10.8848C52.2497 10.618 52.5759 10.4846 52.9613 10.4846C53.332 10.4846 53.6433 10.618 53.8953 10.8848C54.1622 11.1517 54.2956 11.4779 54.2956 11.8633C54.2956 12.2488 54.1622 12.5749 53.8953 12.8418C53.6433 13.1087 53.332 13.2421 52.9613 13.2421ZM53.9398 15.2213V27.4078H51.9161V15.2213H53.9398Z" fill="#151515"/>
<path d="M62.259 27.608C61.1174 27.608 60.0796 27.3485 59.1456 26.8296C58.2264 26.3107 57.5 25.5769 56.9663 24.6281C56.4474 23.6644 56.1879 22.5525 56.1879 21.2923C56.1879 20.047 56.4548 18.9499 56.9885 18.0011C57.5371 17.0374 58.2783 16.3036 59.2123 15.7995C60.1463 15.2806 61.1915 15.0212 62.3479 15.0212C63.5043 15.0212 64.5495 15.2806 65.4835 15.7995C66.4175 16.3036 67.1514 17.03 67.6851 17.9788C68.2336 18.9277 68.5079 20.0322 68.5079 21.2923C68.5079 22.5525 68.2262 23.6644 67.6629 24.6281C67.1143 25.5769 66.3656 26.3107 65.4168 26.8296C64.468 27.3485 63.4154 27.608 62.259 27.608ZM62.259 25.8289C62.9854 25.8289 63.6674 25.6584 64.3049 25.3174C64.9424 24.9765 65.4539 24.465 65.8393 23.783C66.2396 23.101 66.4398 22.2708 66.4398 21.2923C66.4398 20.3138 66.247 19.4836 65.8616 18.8016C65.4761 18.1197 64.972 17.6156 64.3494 17.2894C63.7267 16.9485 63.0521 16.778 62.3257 16.778C61.5844 16.778 60.9024 16.9485 60.2798 17.2894C59.6719 17.6156 59.1827 18.1197 58.8121 18.8016C58.4414 19.4836 58.2561 20.3138 58.2561 21.2923C58.2561 22.2856 58.434 23.1233 58.7898 23.8052C59.1605 24.4872 59.6497 24.9987 60.2575 25.3397C60.8654 25.6658 61.5325 25.8289 62.259 25.8289Z" fill="#151515"/>
<path d="M73.6594 16.8892C74.0596 16.2961 74.6082 15.8143 75.305 15.4437C76.0166 15.073 76.8246 14.8877 77.729 14.8877C78.7816 14.8877 79.7304 15.1472 80.5754 15.6661C81.4353 16.185 82.1099 16.9262 82.5991 17.8899C83.1032 18.8387 83.3552 19.9432 83.3552 21.2034C83.3552 22.4635 83.1032 23.5829 82.5991 24.5613C82.1099 25.525 81.4353 26.2737 80.5754 26.8074C79.7304 27.3411 78.7816 27.608 77.729 27.608C76.8098 27.608 76.0018 27.4301 75.305 27.0743C74.623 26.7036 74.0745 26.2292 73.6594 25.651V27.4078H70.546V10.9516H73.6594V16.8892ZM80.1752 21.2034C80.1752 20.4621 80.0195 19.8246 79.7082 19.2909C79.4116 18.7423 79.0114 18.3272 78.5073 18.0455C78.018 17.7639 77.4843 17.623 76.9061 17.623C76.3428 17.623 75.8091 17.7713 75.305 18.0678C74.8157 18.3495 74.4155 18.7646 74.1041 19.3131C73.8076 19.8617 73.6594 20.5066 73.6594 21.2478C73.6594 21.9891 73.8076 22.634 74.1041 23.1826C74.4155 23.7311 74.8157 24.1536 75.305 24.4502C75.8091 24.7318 76.3428 24.8727 76.9061 24.8727C77.4843 24.8727 78.018 24.7244 78.5073 24.4279C79.0114 24.1314 79.4116 23.7089 79.7082 23.1603C80.0195 22.6118 80.1752 21.9595 80.1752 21.2034Z" fill="#151515"/>
<path d="M96.6255 20.981C96.6255 21.4258 96.5959 21.826 96.5366 22.1819H87.5301C87.6042 23.0714 87.9156 23.7682 88.4641 24.2722C89.0126 24.7763 89.6872 25.0283 90.4878 25.0283C91.6442 25.0283 92.467 24.5317 92.9562 23.5384H96.3142C95.9584 24.7244 95.2764 25.7029 94.2683 26.4738C93.2601 27.2299 92.0222 27.608 90.5545 27.608C89.3684 27.608 88.301 27.3485 87.3522 26.8296C86.4182 26.2959 85.6843 25.5472 85.1506 24.5836C84.6317 23.6199 84.3723 22.508 84.3723 21.2478C84.3723 19.9729 84.6317 18.8535 85.1506 17.8899C85.6695 16.9262 86.3959 16.185 87.3299 15.6661C88.2639 15.1472 89.3388 14.8877 90.5545 14.8877C91.7257 14.8877 92.7709 15.1398 93.6901 15.6438C94.6241 16.1479 95.3431 16.8669 95.8472 17.8009C96.3661 18.7201 96.6255 19.7801 96.6255 20.981ZM93.401 20.0915C93.3862 19.2909 93.0971 18.6534 92.5337 18.179C91.9703 17.6897 91.2809 17.4451 90.4655 17.4451C89.6946 17.4451 89.0423 17.6823 88.5086 18.1567C87.9897 18.6163 87.6709 19.2612 87.5523 20.0915H93.401Z" fill="#151515"/>
<path d="M109.906 20.981C109.906 21.4258 109.876 21.826 109.817 22.1819H100.81C100.885 23.0714 101.196 23.7682 101.744 24.2722C102.293 24.7763 102.968 25.0283 103.768 25.0283C104.925 25.0283 105.747 24.5317 106.237 23.5384H109.595C109.239 24.7244 108.557 25.7029 107.549 26.4738C106.541 27.2299 105.303 27.608 103.835 27.608C102.649 27.608 101.581 27.3485 100.633 26.8296C99.6986 26.2959 98.9647 25.5472 98.431 24.5836C97.9121 23.6199 97.6526 22.508 97.6526 21.2478C97.6526 19.9729 97.9121 18.8535 98.431 17.8899C98.9499 16.9262 99.6763 16.185 100.61 15.6661C101.544 15.1472 102.619 14.8877 103.835 14.8877C105.006 14.8877 106.051 15.1398 106.97 15.6438C107.904 16.1479 108.623 16.8669 109.128 17.8009C109.646 18.7201 109.906 19.7801 109.906 20.981ZM106.681 20.0915C106.667 19.2909 106.377 18.6534 105.814 18.179C105.251 17.6897 104.561 17.4451 103.746 17.4451C102.975 17.4451 102.323 17.6823 101.789 18.1567C101.27 18.6163 100.951 19.2612 100.833 20.0915H106.681Z" fill="#151515"/>
</svg>
