<svg xmlns="http://www.w3.org/2000/svg" xmlns:xlink="http://www.w3.org/1999/xlink" width="2355.178" height="427.307" viewBox="0 0 2355.178 427.307">
  <defs>
    <linearGradient id="linear-gradient" x1="0.5" x2="0.5" y2="1" gradientUnits="objectBoundingBox">
      <stop offset="0" stop-color="#f089e2"/>
      <stop offset="0.517" stop-color="#e47fd6"/>
      <stop offset="1" stop-color="#c162b4"/>
    </linearGradient>
    <linearGradient id="linear-gradient-2" x1="0.5" x2="0.5" y2="1" gradientUnits="objectBoundingBox">
      <stop offset="0" stop-color="#9253fd"/>
      <stop offset="1" stop-color="#812bf9"/>
    </linearGradient>
  </defs>
  <g id="Groupe_246" data-name="Groupe 246" transform="translate(-758.684 -807.608)">
    <path id="Tracé_1046" data-name="Tracé 1046" d="M472.683,335.627c60.077,0,102.717,44.105,102.717,105.648S532.467,546.483,472.683,546.483,369.82,502.377,369.82,441.274,412.9,335.627,472.683,335.627ZM604.56,441.274c0-76.781-54.8-131.29-131.876-131.29S341.1,364.493,341.1,441.274s54.509,130.851,131.583,130.851a143.159,143.159,0,0,0,55.242-10.7l31.211,40.3h33.995l-40.882-53.483C584.778,525.236,604.56,487.431,604.56,441.274ZM790.8,563.48v-175.4H764.423V490.948c0,31.943-26.375,55.535-57,55.535S658.483,523.917,658.483,493V388.084H632.107V493c0,44.838,27.4,77.514,72.239,77.514,24.324,0,48.208-12.162,60.077-31.65V563.48Zm121.18-17c-38.977,0-66.964-29.892-66.964-70.481s28.134-70.481,66.964-70.481S978.943,434.974,978.943,476,950.516,546.483,911.979,546.483Zm67.4-127.041C964.436,395.7,939.087,381.2,908.9,381.2c-52.458,0-90.409,39.856-90.409,94.8s37.951,94.511,90.409,94.511c30.185,0,55.535-14.653,70.481-37.951V563.48h26.375v-175.4H979.382Zm63.447-111.216V563.48h26.815V308.226Zm68.136,79.859v175.4h26.375v-175.4Zm13.188-32.236a17.584,17.584,0,0,0,18.023-17v-1.026c0-10.4-7.62-17.73-18.023-17.73s-18.023,7.326-18.023,17.73S1113.456,355.848,1124.153,355.848ZM1262.33,381.2c-54.8,0-93.339,39.27-93.339,94.8s38.537,94.511,93.339,94.511,93.779-39.27,93.779-94.511-38.83-94.8-93.779-94.8Zm0,165.285c-38.83,0-66.964-29.892-66.964-70.481s28.134-70.481,66.964-70.481,67.11,29.452,67.11,70.481S1301.307,546.483,1262.33,546.483Zm213.2-130.851c33.7,0,58.465,25.35,58.465,59.638s-25.057,59.784-58.465,59.784-57.879-25.35-57.879-59.784S1441.975,415.632,1475.531,415.632Zm95.977,59.638c0-55.242-37.219-95.1-88.65-95.1-26.375,0-48.941,11.429-63.887,30.918V307.2h-37.8V563.48h36.779V538.863c15.239,19.781,37.8,31.65,64.913,31.65,51.139,0,88.65-40,88.65-95.244ZM1626.6,459c4.982-28.134,25.789-47.329,54.216-47.329s51.432,19.488,55.535,47.329Zm-39.123,14.213c0,56.56,39.563,97.3,94.8,97.3,40.149,0,76.635-25.057,86.745-59.784l-35.46-5.275c-6.594,19.488-28.427,33.409-52.018,33.409-28.866,0-50.7-20.807-55.242-52.164l148.581.44c.44-4.249.733-9.378.733-13.627,0-54.509-38.83-93.339-93.779-93.339s-94.365,38.83-94.365,93.046ZM1830.865,459c4.836-28.134,25.643-47.329,54.216-47.329s51.285,19.488,55.535,47.329Zm-39.27,14.213c0,56.56,39.563,97.3,94.8,97.3,40.3,0,76.781-25.057,86.892-59.784l-35.46-5.275c-6.594,19.488-28.427,33.409-52.164,33.409-28.72,0-50.7-20.807-55.095-52.164l148.581.44c.293-4.249.733-9.378.733-13.627,0-54.509-38.977-93.339-93.779-93.339S1791.594,419,1791.594,473.218Z" transform="translate(417.584 566.8)"/>
    <g id="Groupe_244" data-name="Groupe 244" transform="translate(0 21.515)">
      <path id="Tracé_1055" data-name="Tracé 1055" d="M1531.3,299.7c-13.484,0-22.771,11.322-17.81,21.626l73.4,113.728a18.188,18.188,0,0,1,1.654,3.562,13.481,13.481,0,0,1,0,7.124,18.189,18.189,0,0,1-1.653,3.562l-73.4,113.728c-4.961,10.3,4.325,21.626,17.81,21.626h320.067c15.9,0,30.149-8.014,35.874-20.1l71.621-109.784,1.145-2.163a25.951,25.951,0,0,0,0-20.863l-1.145-2.163L1887.24,319.8c-5.725-12.085-19.972-20.1-35.747-20.1Z" transform="translate(978.489 486.393)" fill="url(#linear-gradient)"/>
      <path id="Tracé_1056" data-name="Tracé 1056" d="M1667.527,411.7c-13.612,0-22.9,11.195-17.937,21.626l73.4,113.728a13.357,13.357,0,0,1,1.781,3.562,13.1,13.1,0,0,1,0,7,11.709,11.709,0,0,1-1.781,3.562L1649.59,674.9c-4.961,10.431,4.325,21.626,17.937,21.626h320.067c15.774,0,30.022-7.887,35.874-19.972l71.493-109.784,1.272-2.163a27.226,27.226,0,0,0,0-20.99,17.757,17.757,0,0,0-1.272-2.036L2023.467,431.8c-5.852-12.085-20.1-20.1-35.874-20.1H1667.527Z" transform="translate(1015.525 516.871)" fill="#96f"/>
      <path id="Tracé_1057" data-name="Tracé 1057" d="M1871.066,411.7h-203.54c-13.612,0-22.9,11.195-17.937,21.626l73.4,113.728a13.357,13.357,0,0,1,1.781,3.562,16.029,16.029,0,0,1,.509,3.562h89.049c15.9,0,30.149-8.014,35.874-20.1l71.621-109.784,1.145-2.163a26.844,26.844,0,0,0,2.162-10.431Z" transform="translate(1015.525 516.871)" fill="url(#linear-gradient-2)"/>
    </g>
  </g>
</svg>
