<?xml version="1.0" encoding="UTF-8"?>
<svg xmlns="http://www.w3.org/2000/svg" width="325" height="216" viewBox="0 0 325 216" fill="none">
  <mask id="mask0_2078_5717" style="mask-type:alpha" maskUnits="userSpaceOnUse" x="0" y="0" width="325" height="216">
    <path d="M0 0H325V196C325 207.046 316.046 216 305 216H0V0Z" fill="#D9D9D9"></path>
  </mask>
  <g mask="url(#mask0_2078_5717)">
    <path d="M290.225 106.962C275.451 112.113 263.162 108.933 253.357 97.4227C251.213 94.8867 249.897 91.3317 248.428 88.2388C248.254 87.8754 247.973 87.7253 247.586 87.7885C237.742 89.2026 231.659 85.2091 229.336 75.8079C229.319 75.7377 229.285 75.6725 229.238 75.6177C229.191 75.5628 229.131 75.5198 229.065 75.4922C228.998 75.4645 228.925 75.4529 228.853 75.4583C228.781 75.4638 228.711 75.4861 228.649 75.5235C213.236 84.7509 204.944 98.4537 203.775 116.632C203.751 117.035 203.917 117.331 204.273 117.521L242.787 138.792C242.873 138.844 242.973 138.867 243.073 138.856C243.173 138.846 243.267 138.804 243.341 138.736C243.414 138.667 243.464 138.577 243.481 138.478C243.499 138.379 243.484 138.277 243.439 138.187C240.918 132.642 238.426 127.032 235.961 121.36C235.439 120.167 235.732 119.634 236.838 119.76C237.049 119.786 237.251 119.865 237.424 119.989C237.598 120.113 237.739 120.279 237.833 120.471C240.82 126.728 243.782 132.918 246.721 139.041C249.079 143.959 263.442 150.18 268.585 153.142C269.691 153.79 269.747 154.513 268.751 155.311C268.412 155.588 268.021 155.603 267.578 155.358C242.036 141.383 216.502 127.325 190.976 113.183C190.756 113.061 190.587 112.863 190.5 112.626C190.413 112.389 190.414 112.128 190.502 111.892C191.32 109.711 199.319 114.795 200.599 115.506C200.675 115.548 200.761 115.57 200.848 115.57C200.935 115.571 201.02 115.549 201.097 115.508C201.173 115.467 201.238 115.407 201.286 115.334C201.333 115.262 201.362 115.178 201.369 115.091C202.325 103.976 206.161 94.0533 212.876 85.3236C213.405 84.6284 213.812 83.866 214.097 83.0365" stroke="#382367" stroke-width="2"></path>
    <path d="M256.64 27.3991C256.746 11.4605 241.72 0.593866 226.528 4.45704C220.895 5.89486 216.692 9.11022 213.919 14.1031C213.524 14.822 213.614 14.8892 214.191 14.3046L216.94 11.5553C217.091 11.406 217.27 11.2885 217.467 11.2098C217.664 11.1311 217.875 11.0928 218.086 11.0972C218.297 11.1016 218.505 11.1487 218.697 11.2356C218.889 11.3224 219.062 11.4473 219.204 11.6027C223.743 16.5443 230.758 26.0837 236.233 28.7618C236.597 28.9435 236.917 28.8843 237.193 28.5841C243.182 21.9954 249.526 21.6596 256.225 27.5768C256.26 27.6084 256.304 27.6293 256.351 27.637C256.397 27.6447 256.445 27.6388 256.489 27.6202C256.533 27.6015 256.57 27.5708 256.597 27.5316C256.623 27.4924 256.638 27.4464 256.64 27.3991Z" stroke="#909196" stroke-width="2"></path>
    <path d="M235.368 35.9195L235.629 32.4C235.661 31.9892 235.503 31.6771 235.155 31.4638C229.052 27.7547 223.032 19.8625 218.292 14.4232C218.031 14.123 217.754 14.1072 217.462 14.3758C211.786 19.5425 210.091 20.9527 210.565 29.236C210.589 29.6626 210.747 30.0339 211.039 30.3499C211.616 30.974 211.825 31.6969 211.667 32.5185C211.564 33.0241 211.256 33.3283 210.743 33.431L209.534 33.668C209.107 33.7549 208.831 34.0037 208.705 34.4145L207.2 39.4272C207.176 39.5133 207.183 39.6051 207.22 39.6865C207.257 39.7678 207.322 39.8334 207.403 39.8717C207.483 39.91 207.575 39.9185 207.662 39.8957C207.748 39.8729 207.824 39.8203 207.875 39.7471C208.918 38.1948 213.575 30.5395 215.341 31.3098C215.512 31.3841 215.663 31.4959 215.785 31.6368C215.907 31.7777 215.996 31.9441 216.045 32.1238C216.093 32.3035 216.101 32.4918 216.068 32.675C216.034 32.8582 215.96 33.0315 215.85 33.1821L210.778 40.2211C210.533 40.5609 210.557 40.8848 210.85 41.1929C211.892 42.2712 216.076 44.3095 213.563 45.9803C213.145 46.2568 212.734 46.2371 212.331 45.9211L207.65 42.2357C207.583 42.1833 207.503 42.1504 207.419 42.1406C207.334 42.1307 207.249 42.1443 207.172 42.1798C207.095 42.2153 207.029 42.2714 206.981 42.3419C206.934 42.4123 206.907 42.4945 206.903 42.5793C206.595 61.4923 224.762 71.2806 241.531 63.3291C242.076 63.0684 242.38 63.2382 242.443 63.8386L242.55 64.8696C242.597 65.3673 242.4 65.7268 241.957 65.948C238.584 67.6307 235.017 68.6735 231.256 69.0764C230.861 69.1238 230.707 69.3371 230.794 69.7163C232.797 78.8884 234.207 87.4324 246.472 85.0624C246.732 85.0135 246.962 84.8658 247.117 84.6497C247.271 84.4337 247.337 84.1657 247.302 83.901C246.227 75.9693 247.744 68.6182 251.852 61.8478C252.058 61.5002 252.129 61.1249 252.066 60.722L250.928 53.4578C250.865 53.0549 250.885 52.656 250.987 52.261L252.457 46.8454C252.638 46.1818 252.39 45.9132 251.71 46.0396L249.079 46.5255C248.471 46.6361 248.198 46.3832 248.262 45.767L248.333 45.0323C248.372 44.582 248.605 44.2779 249.032 44.1199C255.147 41.7854 258.583 35.0781 254.14 29.6389C248.629 22.8961 238.248 26.8185 238.082 35.5284C238.058 36.9979 237.383 37.5667 235.925 36.8675C235.522 36.6779 235.337 36.3619 235.368 35.9195Z" stroke="#909196" stroke-width="2"></path>
    <path d="M293.791 55.0937C292.314 53.1187 290.339 52.064 287.866 51.9297" stroke="#4B2593" stroke-width="2"></path>
    <path d="M287.866 51.9298C286.681 51.7244 285.599 51.278 284.619 50.5907C284.232 50.33 284.133 49.9863 284.323 49.5597C286.823 44.0494 279.298 35.7187 275.269 33.1235C270.707 30.1965 265.184 29.9595 259.851 30.5046C259.694 30.5194 259.541 30.5653 259.401 30.6395C259.262 30.7138 259.138 30.8151 259.038 30.9374C258.938 31.0597 258.863 31.2007 258.817 31.3522C258.772 31.5036 258.757 31.6626 258.773 31.82C259.184 36.3151 258.054 40.3205 255.384 43.8361C255.131 44.1758 255.005 44.555 255.005 44.9737C255.028 47.1067 254.708 49.1647 254.045 51.1477C253.215 53.6481 253.737 55.3308 254.211 57.7245C254.274 58.0642 254.471 58.2854 254.803 58.3881L256.296 58.8859C256.991 59.115 257.102 59.506 256.628 60.059C245.145 73.3905 248.878 92.5405 261.89 101.653C272.84 109.309 287.937 108.254 297.311 99.1055C310.667 86.094 308.865 66.4344 293.791 55.0938" stroke="#909196" stroke-width="2"></path>
    <path d="M287.866 51.9297L293.791 55.0937" stroke="#BB93FC" stroke-width="2"></path>
    <path d="M248.262 34.9361C248.107 34.9463 247.954 34.904 247.826 34.816C247.699 34.7279 247.605 34.5994 247.559 34.4512C247.514 34.303 247.52 34.1438 247.577 33.9995C247.633 33.8552 247.737 33.7343 247.871 33.6563C249.538 32.7162 250.095 31.4522 249.542 29.8642C249.5 29.742 249.426 29.6328 249.329 29.5474C249.232 29.4619 249.114 29.4032 248.988 29.3769C248.861 29.3506 248.73 29.3577 248.607 29.3974C248.484 29.4371 248.373 29.5082 248.286 29.6035L242.206 36.1804C242.047 36.3504 241.944 36.5651 241.911 36.7956C241.877 37.0261 241.916 37.2613 242.02 37.4694C242.125 37.6774 242.291 37.8483 242.496 37.959C242.701 38.0697 242.935 38.1148 243.166 38.0883L251.936 37.1758C252.226 37.1458 252.493 37.0042 252.681 36.7809C252.869 36.5576 252.963 36.2701 252.943 35.979C252.789 33.8459 249.317 34.8532 248.262 34.9361Z" stroke="#909196" stroke-width="2"></path>
    <path d="M222.463 33.2411C222.463 32.7539 222.27 32.2867 221.925 31.9423C221.581 31.5978 221.114 31.4043 220.626 31.4043C220.139 31.4043 219.672 31.5978 219.328 31.9423C218.983 32.2867 218.79 32.7539 218.79 33.2411C218.79 33.7282 218.983 34.1954 219.328 34.5399C219.672 34.8843 220.139 35.0779 220.626 35.0779C221.114 35.0779 221.581 34.8843 221.925 34.5399C222.27 34.1954 222.463 33.7282 222.463 33.2411Z" stroke="#909196" stroke-width="2"></path>
    <path d="M217.296 48.0297C214.701 50.6249 212.378 50.0798 209.973 47.6742C209.847 47.5475 209.69 47.4574 209.517 47.4134C209.344 47.3693 209.162 47.3729 208.99 47.4238C208.818 47.4746 208.662 47.5709 208.539 47.7025C208.416 47.8341 208.33 47.9962 208.29 48.1719C208.037 49.357 208.349 50.2536 209.226 50.8619C212.987 53.4611 216.214 53.1056 218.908 49.7954C219.2 49.4399 219.204 49.0844 218.92 48.7289L218.422 48.1008C218.075 47.6584 217.699 47.6347 217.296 48.0297Z" stroke="#909196" stroke-width="2"></path>
    <path d="M158.103 104.662C158.451 105.808 158.071 106.681 156.965 107.281" stroke="#382367" stroke-width="2"></path>
    <path d="M156.965 107.282C141.402 101.096 125.38 99.5318 108.9 102.589C105.736 103.17 97.9497 105.232 98.3052 109.427C98.3245 109.676 98.3935 109.919 98.5083 110.142C98.623 110.364 98.7812 110.561 98.9734 110.721C99.1656 110.881 99.388 111.001 99.6274 111.074C99.8668 111.147 100.118 111.171 100.367 111.145C106.767 110.489 112.964 111.011 118.961 112.709C124.139 114.179 128.109 114.167 133.122 114.096C133.315 114.091 133.504 114.143 133.668 114.244C133.832 114.344 133.963 114.491 134.046 114.665C134.13 114.84 134.162 115.035 134.139 115.228C134.116 115.421 134.039 115.604 133.916 115.755C133.079 116.774 131.977 117.208 130.61 117.058C129.117 116.9 128.955 117.295 130.124 118.243L144.724 130.094" stroke="#909196" stroke-width="2"></path>
    <path d="M144.724 130.094L220.318 192.651" stroke="#382367" stroke-width="2"></path>
    <path d="M220.318 192.651L237.383 206.93C237.746 207.23 237.869 207.61 237.75 208.068L237.561 208.814C237.41 209.407 237.059 209.573 236.506 209.312C235.787 208.964 235.119 208.538 234.503 208.032C200.492 179.844 166.41 151.744 132.257 123.73C127.611 119.922 123.713 117.41 120.56 116.193C96.1719 106.772 70.4681 123.931 68.9749 149.658C68.0032 166.343 66.984 183.028 65.9175 199.713" stroke="#909196" stroke-width="2"></path>
    <path d="M62.706 216.6L66.51 145.901C66.5258 145.506 66.3441 145.253 65.9649 145.143C56.7096 142.642 46.0678 139.147 37.1562 139.834C17.5318 141.351 1.8061 158.368 2.60009 178.098C2.75019 181.898 4.09326 187.653 6.62927 195.364C8.95197 202.411 11.2154 209.49 13.4196 216.6" stroke="#909196" stroke-width="2"></path>
    <path d="M3.50072 74.3965C2.9556 75.7079 3.02275 76.9917 3.70218 78.2478" stroke="#4B2593" stroke-width="2"></path>
    <path d="M3.70239 78.2475L14.2375 145.628C14.3086 146.11 14.5377 146.201 14.9248 145.9C32.3925 132.569 46.708 137.321 66.4865 142.511C66.9368 142.63 67.2252 142.464 67.3516 142.014C71.5151 127.098 80.9442 117.203 95.6388 112.329C96.0101 112.202 96.1286 111.953 95.9943 111.582C95.4018 109.931 95.3268 108.181 95.7692 106.332C95.8719 105.914 96.0812 105.566 96.3973 105.29C104.148 98.5232 120.489 98.3217 129.271 98.298C129.618 98.298 129.768 98.1242 129.721 97.7766C128.449 89.0707 127.185 80.3963 125.929 71.7535C124.933 64.8409 120.849 61.3807 113.675 61.3728C80.9442 61.3254 48.2327 61.3451 15.5411 61.432C6.47936 61.4557 2.46598 65.7771 3.50093 74.3961" stroke="#909196" stroke-width="2"></path>
    <path d="M3.7026 78.2478L3.50049 74.3965" stroke="#BB93FC" stroke-width="2"></path>
    <path d="M264.686 216.6C259.626 213.887 222.356 192.284 220.318 192.651" stroke="#A791D0" stroke-width="2"></path>
    <path d="M144.724 130.093L156.965 107.281" stroke="#A791D0" stroke-width="2"></path>
    <path d="M65.4199 206.527C66.0836 204.307 66.2495 202.036 65.9176 199.713" stroke="#BB93FC" stroke-width="2"></path>
    <path d="M290.225 106.962C275.451 112.113 263.162 108.933 253.357 97.4229C251.213 94.8869 249.897 91.3318 248.428 88.2389C248.254 87.8755 247.973 87.7254 247.586 87.7886C237.742 89.2028 231.659 85.2092 229.336 75.8081C229.319 75.7378 229.285 75.6727 229.238 75.6178C229.191 75.563 229.131 75.52 229.065 75.4923C228.998 75.4646 228.925 75.4531 228.853 75.4585C228.781 75.4639 228.711 75.4863 228.649 75.5236C213.236 84.751 204.944 98.4538 203.775 116.632C203.751 117.035 203.917 117.331 204.273 117.521L242.787 138.792C242.873 138.844 242.973 138.867 243.073 138.857C243.173 138.846 243.267 138.804 243.341 138.736C243.414 138.667 243.464 138.577 243.481 138.478C243.499 138.379 243.484 138.277 243.439 138.188C240.918 132.642 238.426 127.033 235.961 121.36C235.439 120.167 235.732 119.634 236.838 119.761C237.049 119.787 237.251 119.865 237.424 119.989C237.598 120.113 237.739 120.279 237.833 120.472C240.82 126.728 243.782 132.918 246.721 139.041C249.079 143.959 263.442 150.18 268.585 153.143C269.691 153.79 269.747 154.513 268.751 155.311C268.412 155.588 268.021 155.603 267.578 155.359C242.036 141.383 216.502 127.325 190.976 113.184C190.756 113.061 190.587 112.863 190.5 112.626C190.413 112.389 190.414 112.128 190.502 111.892C191.32 109.712 199.319 114.795 200.599 115.506C200.675 115.548 200.761 115.57 200.848 115.57C200.935 115.571 201.02 115.549 201.097 115.508C201.173 115.467 201.238 115.407 201.286 115.334C201.333 115.262 201.362 115.178 201.369 115.092C202.325 103.976 206.161 94.0534 212.876 85.3238C213.405 84.6286 213.812 83.8662 214.097 83.0367C218.323 79.0945 222.985 75.729 228.08 72.9403C228.554 72.6796 228.74 72.2806 228.637 71.7434L228.258 69.6696C228.187 69.2904 227.958 69.0732 227.571 69.0179C208.859 66.2331 198.371 48.2681 207.366 31.2512C207.547 30.8957 207.63 30.5205 207.614 30.1255C205.481 -7.67675 256.735 -8.43516 259.698 26.4163C259.719 26.6731 259.84 26.9113 260.035 27.0798C260.23 27.2482 260.483 27.3333 260.74 27.3169C274.724 26.4993 286.148 34.6048 288.08 48.4577C288.135 48.8528 288.348 49.1293 288.719 49.2873C314.471 59.9643 316.545 95.2898 290.225 106.962ZM256.64 27.3999C256.747 11.4614 241.72 0.594706 226.528 4.45788C220.895 5.8957 216.692 9.11106 213.919 14.104C213.524 14.8229 213.615 14.89 214.191 14.3054L216.941 11.5562C217.092 11.4069 217.271 11.2893 217.468 11.2106C217.664 11.1319 217.875 11.0936 218.086 11.098C218.298 11.1025 218.506 11.1495 218.698 11.2364C218.89 11.3233 219.062 11.4481 219.204 11.6036C223.743 16.5451 230.759 26.0845 236.233 28.7627C236.597 28.9444 236.917 28.8851 237.193 28.5849C243.182 21.9962 249.526 21.6604 256.225 27.5777C256.261 27.6093 256.304 27.6302 256.351 27.6378C256.398 27.6455 256.446 27.6397 256.489 27.621C256.533 27.6023 256.57 27.5716 256.597 27.5324C256.624 27.4933 256.639 27.4473 256.64 27.3999ZM235.368 35.9202L235.629 32.4007C235.661 31.9899 235.503 31.6778 235.155 31.4645C229.052 27.7554 223.032 19.8632 218.292 14.4239C218.031 14.1237 217.755 14.1079 217.462 14.3765C211.786 19.5432 210.091 20.9534 210.565 29.2367C210.589 29.6633 210.747 30.0346 211.039 30.3506C211.616 30.9747 211.825 31.6976 211.667 32.5192C211.565 33.0248 211.256 33.329 210.743 33.4317L209.534 33.6687C209.108 33.7556 208.831 34.0044 208.705 34.4152L207.2 39.4279C207.176 39.514 207.183 39.6058 207.22 39.6872C207.257 39.7685 207.322 39.8341 207.403 39.8724C207.483 39.9107 207.575 39.9192 207.662 39.8964C207.748 39.8736 207.824 39.821 207.875 39.7478C208.918 38.1955 213.575 30.5402 215.341 31.3105C215.512 31.3848 215.664 31.4966 215.785 31.6375C215.907 31.7784 215.996 31.9448 216.045 32.1245C216.094 32.3042 216.102 32.4925 216.068 32.6757C216.034 32.8589 215.96 33.0322 215.851 33.1828L210.779 40.2218C210.534 40.5616 210.557 40.8855 210.85 41.1936C211.892 42.2719 216.076 44.3102 213.563 45.981C213.145 46.2576 212.734 46.2378 212.331 45.9218L207.65 42.2364C207.583 42.184 207.503 42.1511 207.419 42.1413C207.334 42.1314 207.249 42.145 207.172 42.1805C207.095 42.216 207.029 42.2721 206.982 42.3426C206.934 42.413 206.907 42.4952 206.903 42.58C206.595 61.493 224.762 71.2813 241.531 63.3298C242.076 63.0691 242.38 63.2389 242.443 63.8393L242.55 64.8703C242.597 65.368 242.4 65.7275 241.957 65.9487C238.584 67.6314 235.017 68.6742 231.256 69.0771C230.861 69.1245 230.707 69.3378 230.794 69.717C232.797 78.8891 234.207 87.4331 246.472 85.0631C246.732 85.0142 246.962 84.8665 247.117 84.6504C247.271 84.4344 247.337 84.1664 247.302 83.9018C246.227 75.97 247.744 68.6189 251.852 61.8485C252.058 61.5009 252.129 61.1256 252.066 60.7227L250.928 53.4585C250.865 53.0556 250.885 52.6567 250.987 52.2617L252.457 46.8461C252.639 46.1825 252.39 45.9139 251.71 46.0403L249.079 46.5262C248.471 46.6368 248.199 46.384 248.262 45.7677L248.333 45.033C248.372 44.5827 248.605 44.2786 249.032 44.1206C255.147 41.7861 258.584 35.0789 254.14 29.6396C248.629 22.8968 238.248 26.8192 238.082 35.5292C238.058 36.9986 237.383 37.5674 235.925 36.8682C235.522 36.6786 235.337 36.3626 235.368 35.9202ZM293.792 55.0939C292.314 53.1188 290.339 52.0642 287.866 51.9299C286.681 51.7245 285.599 51.2781 284.619 50.5908C284.232 50.3301 284.133 49.9864 284.323 49.5598C286.823 44.0495 279.298 35.7188 275.269 33.1236C270.707 30.1966 265.184 29.9596 259.852 30.5047C259.694 30.5195 259.541 30.5653 259.401 30.6396C259.262 30.7139 259.138 30.8151 259.038 30.9375C258.938 31.0598 258.863 31.2007 258.817 31.3522C258.772 31.5037 258.757 31.6627 258.773 31.82C259.184 36.3152 258.054 40.3206 255.384 43.8362C255.131 44.1759 255.005 44.5551 255.005 44.9738C255.028 47.1068 254.708 49.1648 254.045 51.1477C253.215 53.6481 253.737 55.3309 254.211 57.7246C254.274 58.0643 254.471 58.2855 254.803 58.3882L256.296 58.8859C256.992 59.115 257.102 59.5061 256.628 60.0591C245.145 73.3906 248.878 92.5406 261.89 101.653C272.84 109.309 287.937 108.254 297.311 99.1056C310.667 86.094 308.865 66.4345 293.792 55.0939Z" fill="#20222D"></path>
    <path d="M226.528 4.45704C241.72 0.593866 256.746 11.4605 256.64 27.3991C256.638 27.4464 256.623 27.4924 256.597 27.5316C256.57 27.5708 256.533 27.6015 256.489 27.6202C256.445 27.6388 256.397 27.6447 256.351 27.637C256.304 27.6293 256.26 27.6084 256.225 27.5768C249.526 21.6596 243.182 21.9954 237.193 28.5841C236.917 28.8843 236.597 28.9435 236.233 28.7618C230.758 26.0837 223.743 16.5443 219.204 11.6027C219.062 11.4473 218.889 11.3224 218.697 11.2356C218.505 11.1487 218.297 11.1016 218.086 11.0972C217.875 11.0928 217.664 11.1311 217.467 11.2098C217.27 11.2885 217.091 11.406 216.94 11.5553L214.191 14.3046C213.614 14.8892 213.524 14.822 213.919 14.1031C216.692 9.11022 220.895 5.89486 226.528 4.45704Z" fill="white"></path>
    <path d="M235.925 36.8675C237.383 37.5667 238.058 36.9979 238.082 35.5284C238.248 26.8185 248.629 22.8961 254.14 29.6389C258.583 35.0781 255.147 41.7854 249.032 44.1199C248.605 44.2779 248.372 44.582 248.333 45.0323L248.262 45.767C248.198 46.3832 248.471 46.6361 249.079 46.5255L251.71 46.0396C252.39 45.9132 252.638 46.1818 252.457 46.8454L250.987 52.261C250.885 52.656 250.865 53.0549 250.928 53.4578L252.066 60.722C252.129 61.1249 252.058 61.5002 251.852 61.8478C247.744 68.6182 246.227 75.9693 247.302 83.901C247.337 84.1657 247.271 84.4337 247.117 84.6497C246.962 84.8658 246.732 85.0135 246.472 85.0624C234.207 87.4324 232.797 78.8884 230.794 69.7163C230.707 69.3371 230.861 69.1238 231.256 69.0764C235.017 68.6735 238.584 67.6307 241.957 65.948C242.4 65.7268 242.597 65.3673 242.55 64.8696L242.443 63.8386C242.38 63.2382 242.076 63.0684 241.531 63.3291C224.762 71.2806 206.595 61.4923 206.903 42.5793C206.907 42.4945 206.934 42.4123 206.981 42.3419C207.029 42.2714 207.095 42.2153 207.172 42.1798C207.249 42.1443 207.334 42.1307 207.419 42.1406C207.503 42.1504 207.583 42.1833 207.65 42.2357L212.331 45.9211C212.734 46.2371 213.145 46.2568 213.563 45.9803C216.076 44.3095 211.892 42.2712 210.85 41.1929C210.557 40.8848 210.533 40.5609 210.778 40.2211L215.85 33.1821C215.96 33.0315 216.034 32.8582 216.068 32.675C216.101 32.4918 216.093 32.3035 216.045 32.1238C215.996 31.9441 215.907 31.7777 215.785 31.6368C215.663 31.4959 215.512 31.3841 215.341 31.3098C213.575 30.5395 208.918 38.1948 207.875 39.7471C207.824 39.8203 207.748 39.8729 207.662 39.8957C207.575 39.9185 207.483 39.91 207.403 39.8717C207.322 39.8334 207.257 39.7678 207.22 39.6865C207.183 39.6051 207.176 39.5133 207.2 39.4272L208.705 34.4145C208.831 34.0037 209.107 33.7549 209.534 33.668L210.743 33.431C211.256 33.3283 211.564 33.0241 211.667 32.5185C211.825 31.6969 211.616 30.974 211.039 30.3499C210.747 30.0339 210.589 29.6626 210.565 29.236C210.091 20.9527 211.786 19.5425 217.462 14.3758C217.754 14.1072 218.031 14.123 218.292 14.4232C223.032 19.8625 229.052 27.7547 235.155 31.4638C235.503 31.6771 235.661 31.9892 235.629 32.4L235.368 35.9195C235.337 36.3619 235.522 36.6779 235.925 36.8675ZM248.262 34.9359C248.107 34.9461 247.953 34.9038 247.826 34.8158C247.698 34.7277 247.604 34.5992 247.559 34.451C247.514 34.3028 247.52 34.1436 247.576 33.9993C247.633 33.855 247.737 33.7341 247.871 33.6561C249.538 32.716 250.095 31.452 249.542 29.864C249.499 29.7418 249.426 29.6326 249.329 29.5472C249.232 29.4617 249.114 29.403 248.988 29.3767C248.861 29.3504 248.73 29.3575 248.606 29.3972C248.483 29.437 248.373 29.508 248.285 29.6033L242.206 36.1802C242.047 36.3502 241.944 36.5649 241.91 36.7954C241.877 37.026 241.915 37.2611 242.02 37.4692C242.125 37.6772 242.291 37.8481 242.496 37.9588C242.701 38.0695 242.935 38.1146 243.166 38.0881L251.935 37.1756C252.226 37.1456 252.493 37.004 252.681 36.7807C252.869 36.5574 252.963 36.2699 252.943 35.9788C252.789 33.8457 249.316 34.853 248.262 34.9359ZM222.463 33.2414C222.463 32.7542 222.27 32.287 221.925 31.9426C221.581 31.5981 221.113 31.4046 220.626 31.4046C220.139 31.4046 219.672 31.5981 219.327 31.9426C218.983 32.287 218.789 32.7542 218.789 33.2414C218.789 33.7285 218.983 34.1957 219.327 34.5402C219.672 34.8846 220.139 35.0781 220.626 35.0781C221.113 35.0781 221.581 34.8846 221.925 34.5402C222.27 34.1957 222.463 33.7285 222.463 33.2414ZM217.296 48.0304C214.701 50.6256 212.378 50.0805 209.973 47.6749C209.847 47.5482 209.689 47.4582 209.517 47.4141C209.344 47.3701 209.162 47.3737 208.99 47.4245C208.818 47.4754 208.662 47.5716 208.539 47.7032C208.416 47.8348 208.33 47.9969 208.29 48.1726C208.037 49.3577 208.349 50.2543 209.226 50.8626C212.987 53.4618 216.214 53.1063 218.908 49.7961C219.2 49.4406 219.204 49.0851 218.92 48.7296L218.422 48.1015C218.074 47.6591 217.699 47.6354 217.296 48.0304Z" fill="white"></path>
    <path d="M248.262 34.9361C249.317 34.8532 252.789 33.8459 252.943 35.979C252.963 36.2701 252.869 36.5576 252.681 36.7809C252.493 37.0042 252.226 37.1458 251.936 37.1758L243.166 38.0883C242.935 38.1148 242.701 38.0697 242.496 37.959C242.291 37.8483 242.125 37.6774 242.02 37.4694C241.916 37.2613 241.877 37.0261 241.911 36.7956C241.944 36.5651 242.047 36.3504 242.206 36.1804L248.286 29.6035C248.373 29.5082 248.484 29.4371 248.607 29.3974C248.73 29.3577 248.861 29.3506 248.988 29.3769C249.114 29.4032 249.232 29.4619 249.329 29.5474C249.426 29.6328 249.5 29.742 249.542 29.8642C250.095 31.4522 249.538 32.7162 247.871 33.6563C247.737 33.7343 247.633 33.8552 247.577 33.9995C247.52 34.1438 247.514 34.303 247.559 34.4512C247.605 34.5994 247.699 34.7279 247.826 34.816C247.954 34.904 248.107 34.9463 248.262 34.9361Z" fill="#20222D"></path>
    <path d="M287.866 51.9298L293.791 55.0938C308.865 66.4344 310.667 86.094 297.311 99.1055C287.937 108.254 272.84 109.309 261.89 101.653C248.878 92.5405 245.145 73.3905 256.628 60.059C257.102 59.506 256.991 59.115 256.296 58.8859L254.803 58.3881C254.471 58.2854 254.274 58.0642 254.211 57.7245C253.737 55.3308 253.215 53.6481 254.045 51.1477C254.708 49.1647 255.028 47.1067 255.005 44.9737C255.005 44.555 255.131 44.1758 255.384 43.8361C258.054 40.3205 259.184 36.3151 258.773 31.82C258.757 31.6626 258.772 31.5036 258.817 31.3522C258.863 31.2007 258.938 31.0597 259.038 30.9374C259.138 30.8151 259.262 30.7138 259.401 30.6395C259.541 30.5653 259.694 30.5194 259.851 30.5046C265.184 29.9595 270.707 30.1965 275.269 33.1235C279.298 35.7187 286.823 44.0494 284.323 49.5597C284.133 49.9863 284.232 50.33 284.619 50.5907C285.599 51.278 286.681 51.7244 287.866 51.9298Z" fill="white"></path>
    <path d="M220.626 35.0779C221.641 35.0779 222.463 34.2555 222.463 33.2411C222.463 32.2266 221.641 31.4043 220.626 31.4043C219.612 31.4043 218.79 32.2266 218.79 33.2411C218.79 34.2555 219.612 35.0779 220.626 35.0779Z" fill="#20222D"></path>
    <path d="M209.973 47.6742C212.378 50.0798 214.701 50.6249 217.296 48.0297C217.699 47.6347 218.075 47.6584 218.422 48.1008L218.92 48.7289C219.204 49.0844 219.2 49.4399 218.908 49.7954C216.214 53.1056 212.987 53.4611 209.226 50.8619C208.349 50.2536 208.037 49.357 208.29 48.1719C208.33 47.9962 208.416 47.8341 208.539 47.7025C208.662 47.5709 208.818 47.4746 208.99 47.4238C209.162 47.3729 209.344 47.3693 209.517 47.4134C209.69 47.4574 209.847 47.5475 209.973 47.6742Z" fill="#20222D"></path>
    <path d="M287.866 51.9297C290.339 52.064 292.314 53.1187 293.791 55.0937L287.866 51.9297Z" fill="#7627F8"></path>
    <path d="M158.103 104.663C158.45 105.809 158.071 106.682 156.965 107.282C141.401 101.096 125.379 99.5321 108.899 102.589C105.735 103.17 97.9493 105.232 98.3049 109.427C98.3241 109.677 98.3931 109.92 98.5079 110.142C98.6226 110.364 98.7808 110.561 98.973 110.722C99.1653 110.882 99.3876 111.002 99.627 111.075C99.8664 111.147 100.118 111.171 100.367 111.145C106.766 110.49 112.964 111.011 118.96 112.71C124.139 114.179 128.109 114.167 133.122 114.096C133.314 114.092 133.504 114.143 133.667 114.244C133.831 114.345 133.963 114.491 134.046 114.666C134.13 114.84 134.162 115.035 134.139 115.228C134.115 115.421 134.038 115.604 133.916 115.755C133.078 116.774 131.976 117.209 130.609 117.059C129.116 116.901 128.954 117.296 130.124 118.244L144.723 130.094L220.318 192.651L237.383 206.931C237.746 207.231 237.869 207.61 237.75 208.068L237.56 208.815C237.41 209.407 237.059 209.573 236.506 209.313C235.787 208.965 235.119 208.538 234.503 208.033C200.492 179.845 166.41 151.744 132.257 123.73C127.611 119.922 123.712 117.41 120.56 116.194C96.1718 106.773 70.468 123.932 68.9748 149.659C68.003 166.344 66.9839 183.029 65.9173 199.714L65.4196 206.528L65.0049 216.6H62.7059L66.5099 145.902C66.5257 145.507 66.344 145.254 65.9647 145.144C56.7095 142.643 46.0677 139.147 37.1561 139.835C17.5316 141.352 1.80596 158.368 2.59994 178.099C2.75005 181.899 4.09311 187.654 6.62912 195.365C8.95183 202.412 11.2153 209.49 13.4195 216.6H10.7887C2.59994 192.319 -8.69362 171.463 11.3219 148.687C11.5747 148.402 11.63 148.083 11.4878 147.727C11.3456 147.379 11.2508 147.028 11.2034 146.672C8.05119 126.017 4.36567 105.386 1.48599 84.6957C-0.0190252 73.7816 -2.7328 64.3014 7.51791 59.7154C9.96703 58.6252 13.85 58.0801 19.167 58.0801C50.2707 58.1038 81.3744 58.1117 112.478 58.1038C127.528 58.1038 128.287 67.738 130.289 80.8918C131.143 86.5246 131.984 92.1653 132.814 97.8139C132.869 98.2168 133.102 98.4498 133.513 98.513C141.919 99.8323 150.115 101.882 158.103 104.663ZM3.50058 74.3978C2.95546 75.7093 3.02261 76.993 3.70204 78.2491L14.2372 145.63C14.3083 146.111 14.5374 146.202 14.9245 145.902C32.3922 132.571 46.7076 137.322 66.4862 142.513C66.9365 142.631 67.2249 142.465 67.3513 142.015C71.5147 127.1 80.9438 117.205 95.6385 112.33C96.0098 112.204 96.1283 111.955 95.994 111.584C95.4015 109.933 95.3264 108.183 95.7688 106.334C95.8716 105.915 96.0809 105.568 96.3969 105.291C104.147 98.5249 120.489 98.3234 129.27 98.2997C129.618 98.2997 129.768 98.1259 129.721 97.7783C128.449 89.0724 127.185 80.398 125.928 71.7552C124.933 64.8426 120.849 61.3823 113.675 61.3744C80.9438 61.327 48.2324 61.3468 15.5407 61.4337C6.47902 61.4574 2.46564 65.7788 3.50058 74.3978Z" fill="#20222D"></path>
    <path d="M3.70239 78.2475L3.50093 74.3961C2.46598 65.7771 6.47936 61.4557 15.5411 61.432C48.2327 61.3451 80.9442 61.3254 113.675 61.3728C120.849 61.3807 124.933 64.8409 125.929 71.7535C127.185 80.3963 128.449 89.0707 129.721 97.7766C129.768 98.1242 129.618 98.298 129.271 98.298C120.489 98.3217 104.148 98.5232 96.3973 105.29C96.0812 105.566 95.8719 105.914 95.7692 106.332C95.3268 108.181 95.4018 109.931 95.9943 111.582C96.1286 111.953 96.0101 112.202 95.6388 112.329C80.9442 117.203 71.5151 127.098 67.3516 142.014C67.2252 142.464 66.9368 142.63 66.4865 142.511C46.708 137.321 32.3925 132.569 14.9248 145.9C14.5377 146.201 14.3086 146.11 14.2375 145.628L3.70239 78.2475ZM69.7429 117.114C71.1411 115.598 71.7544 113.474 71.4479 111.207C71.1414 108.941 69.9402 106.718 68.1085 105.028C66.2768 103.338 63.9647 102.319 61.6809 102.195C59.397 102.071 57.3284 102.853 55.9302 104.368C54.532 105.883 53.9187 108.008 54.2252 110.274C54.5317 112.541 55.7329 114.764 57.5646 116.454C59.3963 118.144 61.7084 119.163 63.9922 119.287C66.2761 119.41 68.3447 118.629 69.7429 117.114Z" fill="white"></path>
    <path d="M3.50072 74.3965L3.70218 78.2478C3.02275 76.9917 2.9556 75.7079 3.50072 74.3965Z" fill="#7627F8"></path>
    <path d="M290.224 106.962C301.056 129.73 312.278 152.372 323.892 174.888C324.066 175.227 324.311 175.5 324.627 175.705L325.195 176.084V216.6H264.687C259.626 213.887 222.356 192.284 220.318 192.651L144.724 130.094L156.965 107.282C158.071 106.682 158.45 105.809 158.103 104.663C159.138 104.015 160.007 103.162 160.71 102.104C160.923 101.78 161.204 101.527 161.551 101.345C167.453 98.3115 171.589 100.907 177.348 104.272C177.712 104.485 178.071 104.478 178.427 104.248C189.495 97.1936 200.634 90.3165 211.845 83.6172C212.461 83.2498 213.386 83.2024 214.097 83.0365C213.812 83.866 213.405 84.6284 212.876 85.3236C206.161 94.0533 202.325 103.976 201.369 115.091C201.362 115.178 201.333 115.262 201.286 115.334C201.238 115.407 201.173 115.467 201.097 115.508C201.02 115.549 200.935 115.571 200.848 115.57C200.761 115.57 200.675 115.548 200.599 115.506C199.319 114.795 191.32 109.711 190.502 111.892C190.414 112.128 190.413 112.389 190.5 112.626C190.587 112.863 190.756 113.061 190.976 113.183C216.502 127.325 242.036 141.383 267.578 155.358C268.021 155.603 268.412 155.588 268.751 155.311C269.747 154.513 269.691 153.79 268.585 153.142C263.442 150.18 249.079 143.958 246.721 139.041C243.782 132.918 240.82 126.728 237.833 120.471C237.739 120.279 237.598 120.113 237.424 119.989C237.251 119.865 237.049 119.786 236.838 119.76C235.732 119.634 235.439 120.167 235.961 121.36C238.426 127.032 240.918 132.642 243.439 138.187C243.484 138.277 243.499 138.379 243.481 138.478C243.464 138.577 243.414 138.667 243.341 138.736C243.267 138.804 243.173 138.846 243.073 138.856C242.973 138.867 242.873 138.844 242.787 138.792L204.273 117.521C203.917 117.331 203.751 117.035 203.775 116.632C204.944 98.4537 213.236 84.7509 228.649 75.5235C228.711 75.4861 228.781 75.4638 228.853 75.4583C228.925 75.4529 228.998 75.4645 229.065 75.4922C229.131 75.5198 229.191 75.5628 229.238 75.6177C229.285 75.6725 229.319 75.7377 229.336 75.8079C231.659 85.2091 237.742 89.2026 247.586 87.7885C247.973 87.7253 248.254 87.8754 248.428 88.2388C249.897 91.3317 251.213 94.8867 253.357 97.4227C263.162 108.933 275.451 112.113 290.224 106.962Z" fill="#4F23A0"></path>
    <path d="M156.965 107.282L144.723 130.094L130.123 118.243C128.954 117.295 129.116 116.9 130.609 117.058C131.976 117.208 133.078 116.774 133.916 115.755C134.038 115.604 134.115 115.421 134.138 115.228C134.162 115.035 134.129 114.84 134.046 114.665C133.963 114.491 133.831 114.344 133.667 114.244C133.503 114.143 133.314 114.091 133.122 114.096C128.109 114.167 124.139 114.179 118.96 112.709C112.964 111.011 106.766 110.489 100.367 111.145C100.118 111.171 99.8663 111.147 99.6269 111.074C99.3875 111.001 99.1651 110.881 98.9729 110.721C98.7807 110.561 98.6225 110.364 98.5078 110.142C98.393 109.919 98.324 109.676 98.3047 109.427C97.9492 105.232 105.735 103.17 108.899 102.589C125.379 99.5318 141.401 101.096 156.965 107.282Z" fill="white"></path>
    <path d="M220.318 192.651C222.356 192.283 259.626 213.886 264.686 216.6H65.0049L65.4197 206.527C66.0833 204.307 66.2492 202.036 65.9174 199.713C66.9839 183.028 68.0031 166.343 68.9748 149.658C70.468 123.931 96.1718 106.772 120.56 116.193C123.712 117.41 127.611 119.922 132.257 123.73C166.41 151.744 200.492 179.844 234.503 208.032C235.119 208.538 235.787 208.964 236.506 209.312C237.059 209.573 237.41 209.407 237.561 208.814L237.75 208.068C237.869 207.61 237.746 207.23 237.383 206.93L220.318 192.651Z" fill="white"></path>
    <path d="M62.706 216.6H13.4196C11.2154 209.49 8.95197 202.411 6.62927 195.364C4.09326 187.653 2.75019 181.898 2.60009 178.098C1.8061 158.368 17.5318 141.351 37.1562 139.834C46.0678 139.147 56.7096 142.642 65.9649 145.143C66.3441 145.253 66.5258 145.506 66.51 145.901L62.706 216.6Z" fill="white"></path>
    <path d="M65.9176 199.713C66.2495 202.036 66.0836 204.307 65.4199 206.527L65.9176 199.713Z" fill="#7627F8"></path>
  </g>
</svg>
