<svg width="30" height="30" viewBox="0 0 30 30" fill="none" xmlns="http://www.w3.org/2000/svg"><g clip-path="url(#clip0_2552_11666)"><path d="M0.955796 9.01001C0.645821 9.83387 0.675819 10.7471 1.03919 11.5489L5.15577 20.6317C5.3357 21.0287 5.59205 21.3863 5.9102 21.6842C6.22834 21.9821 6.60205 22.2145 7.00999 22.368C7.41792 22.5214 7.8521 22.5931 8.28772 22.5788C8.72333 22.5645 9.15187 22.4645 9.54885 22.2846L18.6317 18.168C19.0286 17.9881 19.3863 17.7317 19.6842 17.4136C19.9821 17.0954 20.2145 16.7217 20.3679 16.3138C20.5214 15.9058 20.5931 15.4717 20.5788 15.036C20.5644 14.6004 20.4645 14.1719 20.2845 13.7749L16.168 4.69209C15.988 4.29511 15.7317 3.93745 15.4135 3.63954C15.0954 3.34163 14.7217 3.1093 14.3138 2.95581C13.9058 2.80233 13.4716 2.7307 13.036 2.74501C12.6004 2.75931 12.1719 2.85928 11.7749 3.03921L2.69207 7.15579C1.89033 7.51916 1.26577 8.18614 0.955796 9.01001Z" fill="url(#paint0_linear_2552_11666)" stroke="url(#paint1_linear_2552_11666)" stroke-width="0.5" stroke-linecap="round" stroke-linejoin="round"></path><g filter="url(#filter0_d_2552_11666)"><path d="M4.80548 11.4635C4.59185 10.6055 4.7278 9.69783 5.18342 8.9401C5.63904 8.18237 6.37701 7.63667 7.23498 7.42304L17.7465 4.80577C18.1714 4.7 18.6129 4.67893 19.0458 4.74378C19.4788 4.80863 19.8947 4.95812 20.2699 5.18372C20.6451 5.40932 20.9722 5.70661 21.2325 6.05862C21.4928 6.41062 21.6812 6.81045 21.787 7.23528L24.4043 17.7468C24.51 18.1717 24.5311 18.6132 24.4663 19.0461C24.4014 19.4791 24.2519 19.895 24.0263 20.2702C23.8007 20.6454 23.5034 20.9725 23.1514 21.2328C22.7994 21.4931 22.3996 21.6815 21.9748 21.7873L11.4632 24.4046C11.0384 24.5103 10.5969 24.5314 10.1639 24.4666C9.73095 24.4017 9.315 24.2522 8.9398 24.0266C8.56461 23.801 8.23753 23.5037 7.97723 23.1517C7.71694 22.7997 7.52852 22.3999 7.42274 21.9751L4.80548 11.4635Z" fill="url(#paint2_linear_2552_11666)"></path><path d="M4.96917 8.81127C4.47938 9.62583 4.33324 10.6016 4.56288 11.5239L7.18015 22.0355C7.29386 22.4921 7.4964 22.922 7.77622 23.3004C8.05604 23.6788 8.40765 23.9984 8.81098 24.2409C9.2143 24.4834 9.66145 24.6441 10.1269 24.7138C10.5923 24.7835 11.0669 24.7609 11.5236 24.6472L22.0352 22.0299C22.4918 21.9162 22.9217 21.7136 23.3001 21.4338C23.6785 21.154 23.9981 20.8024 24.2406 20.3991C24.4831 19.9957 24.6438 19.5486 24.7135 19.0832C24.7832 18.6177 24.7606 18.1431 24.6469 17.6864L22.0296 7.17487C21.9159 6.71819 21.7133 6.28838 21.4335 5.90997C21.1537 5.53157 20.8021 5.21199 20.3988 4.96947C19.9954 4.72695 19.5483 4.56625 19.0829 4.49654C18.6174 4.42682 18.1428 4.44947 17.6861 4.56318L7.17458 7.18045C6.25227 7.41009 5.45896 7.99672 4.96917 8.81127Z" stroke="url(#paint3_linear_2552_11666)" stroke-width="0.5" stroke-linecap="round" stroke-linejoin="round"></path></g><g filter="url(#filter1_d_2552_11666)"><path d="M8.75 12.0837C8.75 11.1996 9.10123 10.3516 9.72643 9.72643C10.3516 9.10123 11.1996 8.75 12.0837 8.75H22.9163C23.354 8.75 23.7876 8.83623 24.192 9.00377C24.5965 9.1713 24.964 9.41687 25.2736 9.72643C25.5831 10.036 25.8287 10.4035 25.9962 10.808C26.1638 11.2124 26.25 11.646 26.25 12.0837V22.9163C26.25 23.354 26.1638 23.7876 25.9962 24.192C25.8287 24.5965 25.5831 24.964 25.2736 25.2736C24.964 25.5831 24.5965 25.8287 24.192 25.9962C23.7876 26.1638 23.354 26.25 22.9163 26.25H12.0837C11.646 26.25 11.2124 26.1638 10.808 25.9962C10.4035 25.8287 10.036 25.5831 9.72643 25.2736C9.41687 24.964 9.1713 24.5965 9.00377 24.192C8.83623 23.7876 8.75 23.354 8.75 22.9163V12.0837Z" fill="url(#paint4_linear_2552_11666)"></path><path d="M9.54966 9.54966C8.87757 10.2217 8.5 11.1333 8.5 12.0837V22.9163C8.5 23.3869 8.5927 23.8529 8.7728 24.2877C8.9529 24.7225 9.21687 25.1176 9.54966 25.4503C9.88244 25.7831 10.2775 26.0471 10.7123 26.2272C11.1471 26.4073 11.6131 26.5 12.0837 26.5H22.9163C23.3869 26.5 23.8529 26.4073 24.2877 26.2272C24.7225 26.0471 25.1176 25.7831 25.4503 25.4503C25.7831 25.1176 26.0471 24.7225 26.2272 24.2877C26.4073 23.8529 26.5 23.3869 26.5 22.9163V12.0837C26.5 11.6131 26.4073 11.1471 26.2272 10.7123C26.0471 10.2775 25.7831 9.88244 25.4503 9.54966C25.1176 9.21687 24.7225 8.9529 24.2877 8.7728C23.8529 8.5927 23.3869 8.5 22.9163 8.5H12.0837C11.1333 8.5 10.2217 8.87757 9.54966 9.54966Z" stroke="url(#paint5_linear_2552_11666)" stroke-width="0.5" stroke-linecap="round" stroke-linejoin="round"></path></g><path d="M22 14C22 14 18.4 17.4133 17.2 20.8267C16 24.24 13 19.12 13 19.12" stroke="black" stroke-width="2" stroke-linecap="round" stroke-linejoin="round"></path></g><defs><filter id="filter0_d_2552_11666" x="1.20654" y="1.20703" width="24.7964" height="24.7969" filterUnits="userSpaceOnUse" color-interpolation-filters="sRGB"><feFlood flood-opacity="0" result="BackgroundImageFix"></feFlood><feColorMatrix in="SourceAlpha" type="matrix" values="0 0 0 0 0 0 0 0 0 0 0 0 0 0 0 0 0 0 127 0" result="hardAlpha"></feColorMatrix><feOffset dx="-1" dy="-1"></feOffset><feGaussianBlur stdDeviation="1"></feGaussianBlur><feComposite in2="hardAlpha" operator="out"></feComposite><feColorMatrix type="matrix" values="0 0 0 0 0 0 0 0 0 0 0 0 0 0 0 0 0 0 0.08 0"></feColorMatrix><feBlend mode="normal" in2="BackgroundImageFix" result="effect1_dropShadow_2552_11666"></feBlend><feBlend mode="normal" in="SourceGraphic" in2="effect1_dropShadow_2552_11666" result="shape"></feBlend></filter><filter id="filter1_d_2552_11666" x="5.25" y="5.25" width="22.5" height="22.5" filterUnits="userSpaceOnUse" color-interpolation-filters="sRGB"><feFlood flood-opacity="0" result="BackgroundImageFix"></feFlood><feColorMatrix in="SourceAlpha" type="matrix" values="0 0 0 0 0 0 0 0 0 0 0 0 0 0 0 0 0 0 127 0" result="hardAlpha"></feColorMatrix><feOffset dx="-1" dy="-1"></feOffset><feGaussianBlur stdDeviation="1"></feGaussianBlur><feComposite in2="hardAlpha" operator="out"></feComposite><feColorMatrix type="matrix" values="0 0 0 0 0 0 0 0 0 0 0 0 0 0 0 0 0 0 0.08 0"></feColorMatrix><feBlend mode="normal" in2="BackgroundImageFix" result="effect1_dropShadow_2552_11666"></feBlend><feBlend mode="normal" in="SourceGraphic" in2="effect1_dropShadow_2552_11666" result="shape"></feBlend></filter> 	<linearGradient id="paint0_linear_2552_11666" x1="2.3616" y1="8.84344" x2="18.5821" y2="15.6419" gradientUnits="userSpaceOnUse"><stop stop-color="#FFDF7F"></stop><stop offset="1" stop-color="#FFBF00"></stop></linearGradient> 	<linearGradient id="paint1_linear_2552_11666" x1="20.4099" y1="16.3295" x2="-0.0753964" y2="7.92653" gradientUnits="userSpaceOnUse"><stop stop-color="#DDA601"></stop><stop offset="1" stop-color="#FFF4D3"></stop></linearGradient> 	<linearGradient id="paint2_linear_2552_11666" x1="7.39434" y1="9.44442" x2="16.8467" y2="16.3657" gradientUnits="userSpaceOnUse"><stop stop-color="#FFDF7F"></stop><stop offset="1" stop-color="#FFBF00"></stop></linearGradient> 	<linearGradient id="paint3_linear_2552_11666" x1="24.3008" y1="20.4353" x2="4.06138" y2="7.44033" gradientUnits="userSpaceOnUse"><stop stop-color="#DDA601"></stop><stop offset="1" stop-color="#FFF4D3"></stop></linearGradient> 	<linearGradient id="paint4_linear_2552_11666" x1="11" y1="10" x2="24" y2="24" gradientUnits="userSpaceOnUse"><stop stop-color="#FFDF7F"></stop><stop offset="1" stop-color="#FFBF00"></stop></linearGradient> 	<linearGradient id="paint5_linear_2552_11666" x1="25.5" y1="25.5" x2="9" y2="8" gradientUnits="userSpaceOnUse"><stop stop-color="#DDA601"></stop><stop offset="1" stop-color="#FFF4D3"></stop></linearGradient><clipPath id="clip0_2552_11666"><rect width="30" height="30" fill="white"></rect></clipPath></defs></svg>