<?xml version="1.0" encoding="UTF-8"?>
<svg xmlns="http://www.w3.org/2000/svg" width="720" height="720" viewBox="0 0 720 720" fill="none">
  <path d="M159.318 33.0143C168.375 33.0325 175.259 35.2772 175.259 45.8802C175.308 155.183 175.314 264.492 175.278 373.807C175.278 429.066 202.869 483.651 246.638 516.482C346.12 591.122 493.698 551.083 535.277 431.804C539.075 420.878 541.357 411.845 542.124 404.703C543.804 388.826 543.713 374.719 562.503 374.518C593.813 374.166 625.129 374.111 656.451 374.354C665.581 374.427 678.582 375.723 677.98 388.443C671.479 526.774 574.353 641.491 441.511 677.187C429.885 680.314 417.949 682.62 405.703 684.104C363.759 689.159 318.602 688.101 277.644 676.895C136.402 638.279 39.0202 512.613 42.0696 365.138C42.2157 357.875 42.2888 353.276 42.2888 351.341C42.0697 251.455 41.9783 151.576 42.0149 51.7018C42.0149 42.358 42.4166 33.5252 53.5371 33.4157C88.7913 33.0873 124.052 32.9534 159.318 33.0143Z" fill="#C021F9"></path>
  <path d="M260.128 363.564C260.052 363.506 260.006 363.429 260.001 363.347C259.995 363.266 260.03 363.185 260.098 363.122C260.166 363.058 260.263 363.016 260.369 363.004C260.476 362.991 260.585 363.01 260.675 363.055L263.645 364.668C264.167 364.945 264.113 365.048 263.484 364.979C262.398 364.866 261.28 364.394 260.128 363.564Z" fill="#C021F9"></path>
  <path d="M304.421 484.479C290.801 464.736 289.566 437.314 299.629 415.176C316.289 378.504 364.354 369.729 397.067 388.778C423.735 404.299 432.71 436.236 425.725 465.832C412.88 520.365 335.162 528.993 304.421 484.479Z" fill="#C021F9"></path>
</svg>
