<?xml version="1.0" encoding="UTF-8"?>
<svg xmlns="http://www.w3.org/2000/svg" width="716" height="443" viewBox="0 0 716 443" fill="none">
  <g clip-path="url(#clip0_2162_16)">
    <path d="M124.05 0H132.31" stroke="#808080" stroke-width="2"></path>
    <path d="M640.19 442.999L648.7 312.23C648.707 312.128 648.694 312.027 648.661 311.931C648.629 311.835 648.577 311.746 648.51 311.67C648.444 311.594 648.362 311.532 648.271 311.487C648.18 311.442 648.081 311.416 647.98 311.41L38.9802 271.709C38.5669 271.683 38.3469 271.873 38.3202 272.28L29.8202 402.749C29.7935 403.096 29.9569 403.279 30.3102 403.299C227.73 416.153 425.154 428.949 622.58 441.689C626.34 441.936 630.1 442.143 633.86 442.309C633.927 442.309 633.97 442.346 633.99 442.42C634.01 442.486 634.003 442.573 633.97 442.679C633.957 442.739 633.917 442.773 633.85 442.779L626.94 442.999" stroke="#808080" stroke-width="2"></path>
    <path d="M0 138.94V123.18" stroke="#808080" stroke-width="2"></path>
    <path d="M209.79 227.72C221.13 220.34 230.753 211.27 238.66 200.51C238.735 200.407 238.832 200.324 238.945 200.267C239.058 200.209 239.184 200.18 239.311 200.18C239.438 200.18 239.564 200.209 239.679 200.267C239.793 200.324 239.893 200.407 239.97 200.51C251.063 215.496 264.73 227.566 280.97 236.72C281.27 236.893 281.583 236.92 281.91 236.8C309.94 226.95 330.73 219.3 353.15 204.63C353.205 204.59 353.246 204.533 353.265 204.468C353.285 204.403 353.283 204.333 353.259 204.269C353.235 204.206 353.191 204.152 353.133 204.116C353.076 204.08 353.008 204.063 352.94 204.07C298.07 211.24 256.95 168.35 264.49 113.99C272.1 59.1396 329.75 32.5896 378.3 56.5796C378.68 56.7663 379.023 56.7129 379.33 56.4196L412.84 24.5196C413.14 24.2329 413.12 23.9696 412.78 23.7296C397.247 12.6963 380.843 5.91295 363.57 3.37961C313.19 -4.01039 271.56 12.2096 240.06 52.2396C239.82 52.5463 239.583 52.5429 239.35 52.2296C216.95 22.8896 184.68 4.39961 147.76 1.23961C146.267 1.11295 143.297 1.21294 138.85 1.53961" stroke="#753D13" stroke-width="2"></path>
    <path d="M138.85 1.54048C93.0165 -0.852855 56.1365 14.6038 28.2098 47.9105C6.6598 73.6005 -1.1202 104.17 0.889804 137.3C4.4398 195.88 50.2998 241.87 107.59 250.54C143.31 255.94 180.49 249.69 209.79 227.72" stroke="#808080" stroke-width="2"></path>
    <path d="M138.85 1.54004C142.54 2.99004 146.49 2.87004 149.54 3.30004C184.01 8.20004 215.76 27.76 234.69 57.37C234.877 57.6567 234.823 57.8834 234.53 58.05L194.21 80.99C193.87 81.19 193.59 81.1234 193.37 80.79C183.623 66.3834 170.683 56.76 154.55 51.92C95.1098 34.09 40.9698 76.68 49.1998 139.08C53.8198 174.18 79.7898 198.75 114.51 204.24C151.71 210.13 188.97 198.49 202.44 160.62C202.465 160.551 202.474 160.477 202.464 160.403C202.454 160.33 202.426 160.26 202.383 160.199C202.34 160.139 202.283 160.089 202.216 160.054C202.149 160.019 202.075 160.001 202 160H129.25C129.117 160 128.99 159.947 128.896 159.854C128.803 159.76 128.75 159.633 128.75 159.5V118.06C128.75 117.978 128.782 117.899 128.841 117.841C128.899 117.783 128.978 117.75 129.06 117.75H250.55C250.997 117.75 251.223 117.973 251.23 118.42C251.323 123.62 251.263 131.167 251.05 141.06C250.283 176.347 236.53 205.233 209.79 227.72" stroke="#F4BC92" stroke-width="2"></path>
    <path d="M553.4 108.21L598.25 250.83C598.337 251.11 598.527 251.25 598.82 251.25H652.01C652.37 251.25 652.6 251.077 652.7 250.73L715.25 34.51C715.292 34.3629 715.299 34.2082 715.271 34.058C715.242 33.9077 715.18 33.766 715.088 33.644C714.996 33.5219 714.877 33.4229 714.74 33.3545C714.603 33.2861 714.453 33.2504 714.3 33.25H670.26C669.907 33.25 669.68 33.42 669.58 33.76L624.6 192.87C624.584 192.937 624.546 192.996 624.492 193.039C624.439 193.082 624.372 193.106 624.304 193.107C624.235 193.108 624.168 193.086 624.113 193.045C624.058 193.004 624.018 192.946 624 192.88L574.38 33.85C574.253 33.45 573.98 33.25 573.56 33.25H533.34C533.047 33.25 532.86 33.39 532.78 33.67L483.26 193.5C483.087 194.06 482.92 194.06 482.76 193.5L471.16 152.8C471.144 152.753 471.113 152.713 471.072 152.686C471.031 152.658 470.982 152.644 470.932 152.646C470.883 152.649 470.836 152.667 470.797 152.698C470.759 152.729 470.732 152.772 470.72 152.82C466.1 175.693 455.863 195.637 440.01 212.65C439.73 212.957 439.647 213.307 439.76 213.7L450.56 250.73C450.667 251.077 450.897 251.25 451.25 251.25H507.53C507.903 251.25 508.143 251.073 508.25 250.72L552.76 108.21C552.973 107.53 553.187 107.53 553.4 108.21Z" stroke="#808080" stroke-width="2"></path>
    <path d="M489.06 116.94C468.247 91.2469 447.36 65.6169 426.4 40.0502C426.38 40.0276 426.354 40.0105 426.326 40.0004C426.297 39.9904 426.266 39.9877 426.236 39.9927C426.206 39.9977 426.178 40.0101 426.154 40.029C426.131 40.0478 426.112 40.0723 426.1 40.1002L389.85 135.6C389.824 135.663 389.818 135.732 389.835 135.798C389.852 135.864 389.89 135.923 389.944 135.965C389.997 136.007 390.063 136.03 390.131 136.031C390.199 136.032 390.265 136.011 390.32 135.97C397.593 130.91 405.357 126.784 413.61 123.59C413.983 123.444 414.163 123.57 414.15 123.97C412.1 183.18 356.75 223.36 306.09 241.46C306.021 241.484 305.961 241.529 305.92 241.588C305.878 241.648 305.857 241.72 305.86 241.793C305.862 241.865 305.887 241.936 305.932 241.993C305.978 242.05 306.04 242.091 306.11 242.11C316.663 245.297 328.213 246.52 340.76 245.78C372.61 243.89 403.55 233.07 425.58 209.85C450.713 183.364 462.99 151.804 462.41 115.17C462.403 114.837 462.567 114.674 462.9 114.68C471.733 114.84 480.457 115.924 489.07 117.93C489.133 117.945 489.199 117.944 489.263 117.928C489.326 117.912 489.384 117.881 489.433 117.838C489.482 117.795 489.52 117.741 489.544 117.681C489.567 117.62 489.576 117.555 489.57 117.49C489.543 117.184 489.373 117 489.06 116.94Z" stroke="#808080" stroke-width="2"></path>
    <path d="M94.0799 348.02C91.9265 352.633 88.2232 355.197 82.9699 355.71C67.3699 357.22 57.3499 342.22 66.7599 329.17C72.9299 320.62 87.2399 321.05 93.3399 330.51C93.5065 330.777 93.7332 330.843 94.0199 330.71L102.07 326.86C102.423 326.693 102.5 326.443 102.3 326.11C87.2699 300.62 47.0499 316.29 54.0699 345.74C60.7199 373.67 105.13 372.9 104.99 339.86C104.99 339.681 104.922 339.509 104.799 339.379C104.676 339.248 104.508 339.17 104.33 339.16L80.2399 337.64C79.9799 337.627 79.8432 337.75 79.8299 338.01L79.4899 345.75C79.4699 346.15 79.6599 346.367 80.0599 346.4L93.7399 347.43C94.1332 347.463 94.2465 347.66 94.0799 348.02Z" stroke="#808080" stroke-width="2"></path>
    <path d="M104.15 365.73C104.131 365.775 104.123 365.824 104.126 365.873C104.13 365.922 104.145 365.97 104.17 366.012C104.196 366.054 104.231 366.089 104.272 366.115C104.314 366.141 104.361 366.156 104.41 366.16L114.45 366.97C114.517 366.977 114.584 366.963 114.642 366.929C114.699 366.894 114.745 366.842 114.77 366.78L118.16 358.35C118.183 358.29 118.224 358.238 118.278 358.202C118.332 358.166 118.395 358.148 118.46 358.15L138.57 359.45C138.634 359.454 138.695 359.477 138.745 359.516C138.795 359.555 138.832 359.609 138.85 359.67L141.25 368.47C141.267 368.533 141.303 368.589 141.353 368.63C141.403 368.672 141.465 368.696 141.53 368.7L151.04 369.35C151.089 369.353 151.139 369.345 151.184 369.325C151.229 369.306 151.269 369.276 151.3 369.238C151.332 369.199 151.353 369.154 151.364 369.106C151.374 369.058 151.373 369.008 151.36 368.96L137.07 318.17C137.052 318.109 137.015 318.055 136.965 318.016C136.915 317.977 136.854 317.954 136.79 317.95L124.9 317.38C124.837 317.377 124.774 317.394 124.72 317.428C124.667 317.462 124.625 317.512 124.6 317.57L104.15 365.73Z" stroke="#808080" stroke-width="2"></path>
    <path d="M168.24 339.25C168.246 339.186 168.272 339.126 168.314 339.078C168.357 339.03 168.413 338.997 168.476 338.984C168.538 338.971 168.604 338.977 168.662 339.004C168.72 339.03 168.769 339.074 168.8 339.13L181.07 362.62C181.093 362.666 181.128 362.705 181.171 362.733C181.213 362.762 181.263 362.779 181.314 362.783C181.365 362.787 181.416 362.777 181.463 362.756C181.509 362.734 181.55 362.701 181.58 362.66L196.94 340.74C196.978 340.689 197.032 340.651 197.093 340.633C197.154 340.614 197.219 340.615 197.28 340.637C197.34 340.658 197.392 340.698 197.428 340.75C197.464 340.803 197.482 340.866 197.48 340.93L195.46 371.86C195.457 371.899 195.462 371.939 195.475 371.976C195.488 372.014 195.507 372.048 195.533 372.078C195.56 372.108 195.591 372.132 195.627 372.15C195.662 372.167 195.701 372.177 195.74 372.18L204.96 372.79C204.999 372.793 205.039 372.787 205.076 372.775C205.114 372.762 205.148 372.742 205.178 372.716C205.208 372.69 205.232 372.659 205.25 372.623C205.267 372.588 205.277 372.549 205.28 372.51L208.53 322.99C208.533 322.95 208.528 322.911 208.515 322.873C208.502 322.836 208.482 322.801 208.456 322.772C208.43 322.742 208.399 322.718 208.363 322.7C208.328 322.683 208.289 322.672 208.25 322.67L198.44 322.02C198.388 322.016 198.335 322.026 198.288 322.049C198.24 322.071 198.2 322.106 198.17 322.15L182.8 344.29C182.771 344.332 182.731 344.366 182.685 344.388C182.639 344.41 182.588 344.42 182.537 344.417C182.485 344.414 182.436 344.398 182.393 344.371C182.35 344.343 182.314 344.305 182.29 344.26L169.75 320.23C169.726 320.184 169.69 320.145 169.646 320.117C169.602 320.089 169.552 320.073 169.5 320.07L159.79 319.58C159.751 319.577 159.711 319.582 159.674 319.595C159.636 319.607 159.602 319.627 159.572 319.653C159.542 319.679 159.518 319.711 159.5 319.746C159.483 319.782 159.473 319.82 159.47 319.86L156.24 369.4C156.237 369.439 156.242 369.479 156.255 369.516C156.268 369.554 156.287 369.588 156.313 369.618C156.34 369.648 156.371 369.672 156.407 369.689C156.442 369.707 156.481 369.717 156.52 369.72L165.83 370.32C165.869 370.323 165.909 370.317 165.946 370.305C165.984 370.292 166.018 370.272 166.048 370.246C166.078 370.22 166.102 370.189 166.12 370.153C166.137 370.118 166.147 370.079 166.15 370.04L168.24 339.25Z" stroke="#808080" stroke-width="2"></path>
    <path d="M227.09 333.84C227.098 333.748 227.141 333.664 227.21 333.604C227.279 333.544 227.369 333.514 227.46 333.519L247.57 334.73C247.616 334.732 247.662 334.726 247.705 334.711C247.749 334.696 247.789 334.672 247.823 334.641C247.858 334.611 247.886 334.573 247.906 334.532C247.926 334.491 247.937 334.445 247.94 334.399L248.4 325.63C248.403 325.584 248.396 325.537 248.381 325.494C248.366 325.45 248.342 325.41 248.312 325.376C248.281 325.342 248.244 325.314 248.202 325.294C248.161 325.274 248.116 325.262 248.07 325.26L218.15 323.38C218.104 323.377 218.058 323.383 218.014 323.398C217.971 323.413 217.931 323.437 217.896 323.468C217.862 323.498 217.834 323.535 217.814 323.577C217.794 323.618 217.782 323.664 217.78 323.709L214.57 373.06C214.567 373.105 214.574 373.152 214.589 373.195C214.604 373.239 214.627 373.279 214.658 373.313C214.689 373.347 214.726 373.375 214.767 373.395C214.809 373.415 214.854 373.427 214.9 373.429L245.06 375.45C245.151 375.455 245.241 375.425 245.31 375.365C245.379 375.305 245.422 375.221 245.43 375.13L246.29 366.299C246.294 366.253 246.289 366.206 246.274 366.161C246.26 366.116 246.236 366.075 246.206 366.04C246.175 366.004 246.137 365.975 246.095 365.955C246.053 365.934 246.007 365.922 245.96 365.92L225.53 364.64C225.439 364.634 225.353 364.594 225.292 364.527C225.23 364.459 225.197 364.371 225.2 364.28L225.6 353.76C225.601 353.713 225.612 353.667 225.631 353.624C225.651 353.581 225.678 353.543 225.713 353.511C225.747 353.48 225.788 353.455 225.832 353.439C225.876 353.424 225.923 353.417 225.97 353.42L244.53 354.63C244.578 354.634 244.625 354.628 244.671 354.613C244.716 354.598 244.758 354.573 244.793 354.542C244.829 354.51 244.858 354.471 244.878 354.428C244.898 354.384 244.909 354.337 244.91 354.29L245.3 345.63C245.303 345.54 245.271 345.453 245.212 345.386C245.152 345.319 245.069 345.277 244.98 345.269L226.68 344.1C226.589 344.092 226.504 344.049 226.445 343.98C226.385 343.911 226.354 343.821 226.36 343.73L227.09 333.84Z" stroke="#808080" stroke-width="2"></path>
    <path d="M321.82 353.55C321.82 346.612 319.064 339.958 314.158 335.052C309.252 330.146 302.598 327.39 295.66 327.39C288.722 327.39 282.068 330.146 277.162 335.052C272.256 339.958 269.5 346.612 269.5 353.55C269.5 360.488 272.256 367.142 277.162 372.048C282.068 376.953 288.722 379.71 295.66 379.71C302.598 379.71 309.252 376.953 314.158 372.048C319.064 367.142 321.82 360.488 321.82 353.55Z" stroke="#808080" stroke-width="2"></path>
    <path d="M338.17 362.42C338.172 362.379 338.183 362.339 338.201 362.302C338.219 362.266 338.244 362.233 338.275 362.206C338.305 362.179 338.341 362.158 338.38 362.145C338.418 362.132 338.459 362.127 338.5 362.13L357.24 363.4C357.321 363.405 357.4 363.379 357.462 363.327C357.523 363.274 357.562 363.2 357.57 363.12L358.3 354.18C358.305 354.099 358.279 354.019 358.227 353.958C358.175 353.896 358.1 353.857 358.02 353.85L339.21 352.65C339.129 352.644 339.054 352.608 339 352.548C338.946 352.489 338.917 352.41 338.92 352.33L339.45 341.17C339.451 341.129 339.46 341.089 339.477 341.052C339.494 341.015 339.518 340.981 339.548 340.953C339.577 340.925 339.612 340.904 339.65 340.889C339.689 340.875 339.729 340.868 339.77 340.87L359.13 342.11C359.211 342.115 359.29 342.089 359.352 342.037C359.413 341.984 359.452 341.91 359.46 341.83L360.29 333C360.294 332.958 360.29 332.916 360.277 332.876C360.265 332.837 360.244 332.8 360.217 332.768C360.19 332.736 360.157 332.71 360.12 332.692C360.082 332.673 360.042 332.662 360 332.66L330.53 330.63C330.489 330.627 330.448 330.632 330.41 330.645C330.371 330.658 330.335 330.679 330.305 330.706C330.274 330.733 330.249 330.766 330.231 330.802C330.213 330.839 330.202 330.879 330.2 330.92L326.93 380.58C326.927 380.62 326.933 380.661 326.946 380.7C326.959 380.738 326.979 380.774 327.006 380.805C327.033 380.835 327.066 380.861 327.103 380.878C327.139 380.896 327.179 380.907 327.22 380.91L336.58 381.43C336.621 381.432 336.661 381.427 336.7 381.414C336.739 381.401 336.774 381.38 336.805 381.353C336.836 381.326 336.861 381.293 336.879 381.257C336.897 381.22 336.907 381.18 336.91 381.14L338.17 362.42Z" stroke="#808080" stroke-width="2"></path>
    <path d="M396.67 385.41C396.746 385.416 396.821 385.397 396.885 385.355C396.948 385.314 396.996 385.252 397.02 385.18L408.37 353.95C408.395 353.882 408.442 353.823 408.503 353.783C408.564 353.743 408.637 353.724 408.71 353.728C408.783 353.733 408.852 353.761 408.908 353.808C408.964 353.855 409.003 353.919 409.02 353.99L415.78 386.61C415.795 386.683 415.834 386.749 415.89 386.797C415.946 386.846 416.016 386.875 416.09 386.88L426.88 387.56C426.953 387.565 427.025 387.546 427.086 387.506C427.148 387.467 427.194 387.408 427.22 387.34L443.99 338.74C444.007 338.691 444.012 338.638 444.006 338.586C443.999 338.534 443.98 338.484 443.951 338.441C443.922 338.397 443.884 338.361 443.838 338.335C443.793 338.309 443.742 338.293 443.69 338.29L434.76 337.55C434.683 337.542 434.605 337.56 434.539 337.602C434.474 337.643 434.425 337.706 434.4 337.78L422.6 372.67C422.575 372.739 422.528 372.797 422.467 372.837C422.406 372.877 422.333 372.896 422.26 372.892C422.187 372.887 422.118 372.859 422.062 372.812C422.006 372.765 421.967 372.701 421.95 372.63L414.58 336.29C414.567 336.216 414.529 336.148 414.473 336.097C414.417 336.046 414.345 336.016 414.27 336.01L406.1 335.53C406.027 335.526 405.955 335.544 405.894 335.584C405.832 335.624 405.786 335.682 405.76 335.75L393.05 370.53C393.023 370.599 392.975 370.656 392.912 370.695C392.849 370.733 392.776 370.751 392.703 370.744C392.629 370.737 392.56 370.707 392.506 370.657C392.451 370.608 392.414 370.542 392.4 370.47L385.86 334.1C385.844 334.026 385.804 333.959 385.746 333.91C385.689 333.861 385.616 333.833 385.54 333.83L375.83 333.3C375.779 333.298 375.728 333.307 375.681 333.327C375.634 333.347 375.592 333.378 375.559 333.416C375.525 333.454 375.501 333.5 375.487 333.549C375.473 333.598 375.471 333.65 375.48 333.7L384.81 384.13C384.825 384.203 384.864 384.269 384.92 384.317C384.976 384.366 385.046 384.395 385.12 384.4L396.67 385.41Z" stroke="#808080" stroke-width="2"></path>
    <path d="M496.57 365.58C496.57 358.618 493.804 351.941 488.881 347.019C483.959 342.096 477.282 339.33 470.32 339.33C463.358 339.33 456.681 342.096 451.758 347.019C446.835 351.941 444.07 358.618 444.07 365.58C444.07 372.542 446.835 379.219 451.758 384.142C456.681 389.064 463.358 391.83 470.32 391.83C477.282 391.83 483.959 389.064 488.881 384.142C493.804 379.219 496.57 372.542 496.57 365.58Z" stroke="#808080" stroke-width="2"></path>
    <path d="M530.59 376.17C543.09 370.39 544.89 353.36 532.27 346.56C530.11 345.393 526.824 344.627 522.41 344.26C516.824 343.787 511.247 343.367 505.68 343C505.34 342.973 505.157 343.133 505.13 343.48L501.53 392.69C501.51 392.99 501.647 393.153 501.94 393.18L510.79 393.94C510.868 393.947 510.946 393.938 511.02 393.915C511.094 393.891 511.163 393.853 511.223 393.803C511.282 393.753 511.331 393.691 511.367 393.622C511.402 393.553 511.424 393.478 511.43 393.4L512.65 376.78C512.67 376.54 512.8 376.43 513.04 376.45L519.67 377.12C519.99 377.153 520.217 377.313 520.35 377.6L528.82 394.97C528.934 395.197 529.12 395.32 529.38 395.34L539.28 396.09C539.64 396.117 539.74 395.97 539.58 395.65L530.34 376.87C530.18 376.55 530.264 376.317 530.59 376.17Z" stroke="#808080" stroke-width="2"></path>
    <path d="M555.09 397.31C555.168 397.316 555.245 397.291 555.305 397.24C555.364 397.19 555.402 397.118 555.41 397.04L557.2 374.85C557.205 374.788 557.229 374.729 557.27 374.681C557.31 374.633 557.364 374.599 557.425 374.584C557.485 374.569 557.549 374.572 557.608 374.595C557.666 374.618 557.716 374.658 557.75 374.71L573.22 398.56C573.245 398.6 573.278 398.633 573.318 398.658C573.358 398.682 573.403 398.697 573.45 398.7L584.27 399.43C584.325 399.433 584.38 399.421 584.428 399.395C584.477 399.369 584.517 399.33 584.545 399.283C584.573 399.235 584.587 399.181 584.586 399.126C584.585 399.071 584.569 399.017 584.54 398.97L567.6 372.39C567.565 372.335 567.549 372.27 567.555 372.205C567.56 372.14 567.586 372.079 567.63 372.03L587.62 349.58C587.657 349.539 587.683 349.487 587.692 349.432C587.702 349.377 587.696 349.32 587.676 349.268C587.655 349.216 587.62 349.171 587.575 349.138C587.529 349.104 587.476 349.085 587.42 349.08L576.55 348.32C576.505 348.318 576.46 348.326 576.418 348.343C576.377 348.36 576.34 348.387 576.31 348.42L558.15 368.36C558.108 368.406 558.053 368.437 557.993 368.45C557.932 368.463 557.869 368.457 557.812 368.433C557.756 368.409 557.708 368.368 557.675 368.316C557.642 368.263 557.626 368.202 557.63 368.14L559.27 347.25C559.274 347.209 559.27 347.168 559.257 347.129C559.244 347.089 559.224 347.053 559.197 347.022C559.169 346.991 559.136 346.966 559.099 346.949C559.062 346.931 559.021 346.922 558.98 346.92L549.51 346.41C549.434 346.407 549.359 346.434 549.301 346.484C549.244 346.534 549.207 346.604 549.2 346.68L545.54 396.18C545.534 396.258 545.559 396.335 545.61 396.395C545.66 396.455 545.732 396.493 545.81 396.5L555.09 397.31Z" stroke="#808080" stroke-width="2"></path>
    <path d="M596.19 373.81C600.19 376.877 604.903 379.22 610.33 380.84C615.89 382.5 617.27 390.5 610.27 391.45C603.657 392.35 599.173 389.757 596.82 383.67C596.693 383.344 596.473 383.26 596.16 383.42L588.59 387.31C588.323 387.45 588.233 387.664 588.32 387.95C590.113 393.99 594.003 398.01 599.99 400.01C609.83 403.31 623.13 400.65 624.49 388.48C625.85 376.31 616.05 373.21 605.73 369.04C604.617 368.594 603.593 367.824 602.66 366.73C596.62 359.7 611.95 354.29 616.53 365.48C616.557 365.548 616.597 365.609 616.649 365.659C616.701 365.71 616.763 365.749 616.83 365.775C616.898 365.8 616.97 365.811 617.043 365.807C617.115 365.803 617.186 365.783 617.25 365.75L624.75 362C625.11 361.82 625.207 361.547 625.04 361.18C620.04 350.2 606.38 344.7 596.75 352.96C591.09 357.82 589.55 368.73 596.19 373.81Z" stroke="#808080" stroke-width="2"></path>
    <path d="M122.37 348.64C122.351 348.689 122.344 348.742 122.349 348.794C122.354 348.846 122.371 348.896 122.4 348.94C122.428 348.984 122.466 349.02 122.512 349.046C122.557 349.073 122.608 349.088 122.66 349.09L135.53 349.83C135.583 349.834 135.636 349.825 135.684 349.804C135.733 349.783 135.776 349.75 135.809 349.709C135.843 349.668 135.865 349.619 135.876 349.567C135.887 349.515 135.885 349.461 135.87 349.41L130.51 330.4C130.494 330.332 130.456 330.27 130.402 330.224C130.348 330.179 130.28 330.152 130.21 330.147C130.139 330.143 130.069 330.161 130.01 330.199C129.95 330.238 129.905 330.294 129.88 330.36L122.37 348.64Z" stroke="#808080" stroke-width="2"></path>
    <path d="M311.94 353.54C311.94 351.4 311.518 349.28 310.699 347.302C309.88 345.325 308.679 343.528 307.166 342.014C305.652 340.501 303.855 339.3 301.878 338.481C299.9 337.662 297.78 337.24 295.64 337.24C293.499 337.24 291.38 337.662 289.402 338.481C287.424 339.3 285.628 340.501 284.114 342.014C282.6 343.528 281.4 345.325 280.581 347.302C279.761 349.28 279.34 351.4 279.34 353.54C279.34 357.863 281.057 362.009 284.114 365.066C287.171 368.123 291.317 369.84 295.64 369.84C299.963 369.84 304.109 368.123 307.166 365.066C310.223 362.009 311.94 357.863 311.94 353.54Z" stroke="#808080" stroke-width="2"></path>
    <path d="M486.65 365.55C486.65 361.216 484.929 357.06 481.864 353.996C478.8 350.932 474.644 349.21 470.31 349.21C465.977 349.21 461.82 350.932 458.756 353.996C455.692 357.06 453.97 361.216 453.97 365.55C453.97 369.884 455.692 374.04 458.756 377.104C461.82 380.168 465.977 381.89 470.31 381.89C474.644 381.89 478.8 380.168 481.864 377.104C484.929 374.04 486.65 369.884 486.65 365.55Z" stroke="#808080" stroke-width="2"></path>
    <path d="M514.24 354.01L513.24 366.71C513.218 367.003 513.313 367.293 513.504 367.516C513.695 367.739 513.967 367.877 514.26 367.9L522.67 368.57C523.659 368.649 524.654 368.535 525.597 368.237C526.54 367.938 527.413 367.461 528.166 366.831C528.919 366.201 529.538 365.432 529.986 364.567C530.435 363.702 530.705 362.759 530.78 361.79L530.79 361.61C530.866 360.643 530.747 359.669 530.439 358.745C530.131 357.821 529.64 356.965 528.994 356.226C528.349 355.487 527.562 354.879 526.677 354.437C525.793 353.995 524.829 353.728 523.84 353.65L515.43 352.99C515.137 352.968 514.847 353.063 514.624 353.255C514.401 353.446 514.263 353.718 514.24 354.01Z" stroke="#808080" stroke-width="2"></path>
    <path d="M138.85 1.54048C142.54 2.99048 146.49 2.87048 149.54 3.30048C184.01 8.20048 215.76 27.7605 234.69 57.3705C234.876 57.6571 234.823 57.8838 234.53 58.0505L194.21 80.9905C193.87 81.1905 193.59 81.1238 193.37 80.7905C183.623 66.3838 170.683 56.7605 154.55 51.9205C95.1098 34.0905 40.9698 76.6805 49.1998 139.08C53.8198 174.18 79.7898 198.75 114.51 204.24C151.71 210.13 188.97 198.49 202.44 160.62C202.465 160.551 202.474 160.477 202.464 160.404C202.454 160.33 202.426 160.261 202.383 160.2C202.34 160.139 202.283 160.089 202.216 160.054C202.149 160.02 202.075 160.001 202 160H129.25C129.117 160 128.99 159.948 128.896 159.854C128.802 159.76 128.75 159.633 128.75 159.5V118.06C128.75 117.978 128.782 117.899 128.841 117.841C128.899 117.783 128.978 117.75 129.06 117.75H250.55C250.996 117.75 251.223 117.974 251.23 118.42C251.323 123.62 251.263 131.167 251.05 141.06C250.283 176.347 236.53 205.234 209.79 227.72C180.49 249.69 143.31 255.94 107.59 250.54C50.2998 241.87 4.4398 195.88 0.889804 137.3C-1.1202 104.17 6.6598 73.6005 28.2098 47.9105C56.1365 14.6038 93.0165 -0.852855 138.85 1.54048Z" fill="black"></path>
    <path d="M209.79 227.72C236.53 205.233 250.283 176.346 251.05 141.06C251.263 131.166 251.323 123.62 251.23 118.42C251.223 117.973 250.997 117.75 250.55 117.75H129.06C128.978 117.75 128.899 117.782 128.841 117.84C128.782 117.899 128.75 117.977 128.75 118.06V159.5C128.75 159.632 128.803 159.759 128.896 159.853C128.99 159.947 129.117 160 129.25 160H202C202.075 160 202.149 160.019 202.216 160.054C202.283 160.088 202.34 160.138 202.383 160.199C202.426 160.26 202.454 160.33 202.464 160.403C202.474 160.476 202.465 160.55 202.44 160.62C188.97 198.49 151.71 210.13 114.51 204.24C79.7898 198.75 53.8198 174.18 49.1998 139.08C40.9698 76.6796 95.1098 34.0896 154.55 51.9196C170.683 56.7596 183.623 66.3829 193.37 80.7896C193.59 81.1229 193.87 81.1896 194.21 80.9896L234.53 58.0496C234.823 57.8829 234.877 57.6563 234.69 57.3696C215.76 27.7596 184.01 8.19961 149.54 3.29961C146.49 2.86961 142.54 2.98961 138.85 1.53961C143.297 1.21294 146.266 1.11295 147.76 1.23961C184.68 4.39961 216.95 22.8896 239.35 52.2296C239.583 52.5429 239.82 52.5463 240.06 52.2396C271.56 12.2096 313.19 -4.01039 363.57 3.37961C380.843 5.91295 397.247 12.6963 412.78 23.7296C413.12 23.9696 413.14 24.2329 412.84 24.5196L379.33 56.4196C379.023 56.7129 378.68 56.7663 378.3 56.5796C329.75 32.5896 272.1 59.1396 264.49 113.99C256.95 168.35 298.07 211.24 352.94 204.07C353.008 204.063 353.075 204.08 353.133 204.116C353.191 204.152 353.235 204.206 353.259 204.269C353.282 204.333 353.285 204.403 353.265 204.468C353.245 204.533 353.205 204.59 353.15 204.63C330.73 219.3 309.94 226.95 281.91 236.8C281.583 236.92 281.27 236.893 280.97 236.72C264.73 227.566 251.063 215.496 239.97 200.51C239.893 200.407 239.793 200.324 239.679 200.267C239.564 200.209 239.438 200.18 239.311 200.18C239.183 200.18 239.058 200.209 238.945 200.267C238.832 200.324 238.734 200.407 238.66 200.51C230.753 211.27 221.13 220.34 209.79 227.72Z" fill="#E97925"></path>
    <path d="M553.4 108.21C553.187 107.53 552.973 107.53 552.76 108.21L508.25 250.72C508.143 251.073 507.903 251.25 507.53 251.25H451.25C450.897 251.25 450.667 251.077 450.56 250.73L439.76 213.7C439.647 213.307 439.73 212.957 440.01 212.65C455.863 195.637 466.1 175.693 470.72 152.82C470.732 152.772 470.759 152.729 470.797 152.698C470.836 152.667 470.883 152.649 470.932 152.646C470.982 152.644 471.031 152.658 471.072 152.686C471.113 152.713 471.144 152.753 471.16 152.8L482.76 193.5C482.92 194.06 483.087 194.06 483.26 193.5L532.78 33.67C532.86 33.39 533.047 33.25 533.34 33.25H573.56C573.98 33.25 574.253 33.45 574.38 33.85L624 192.88C624.018 192.946 624.058 193.004 624.113 193.045C624.168 193.086 624.235 193.108 624.304 193.107C624.372 193.106 624.439 193.082 624.492 193.039C624.546 192.996 624.584 192.937 624.6 192.87L669.58 33.76C669.68 33.42 669.907 33.25 670.26 33.25H714.3C714.453 33.2504 714.603 33.2861 714.74 33.3545C714.877 33.4229 714.996 33.5219 715.088 33.644C715.18 33.766 715.242 33.9077 715.271 34.058C715.299 34.2082 715.292 34.3629 715.25 34.51L652.7 250.73C652.6 251.077 652.37 251.25 652.01 251.25H598.82C598.527 251.25 598.337 251.11 598.25 250.83L553.4 108.21Z" fill="black"></path>
    <path d="M489.06 116.94C489.373 117 489.543 117.184 489.57 117.49C489.576 117.555 489.567 117.62 489.544 117.681C489.52 117.741 489.482 117.795 489.433 117.838C489.384 117.881 489.326 117.912 489.263 117.928C489.199 117.944 489.133 117.945 489.07 117.93C480.457 115.924 471.733 114.84 462.9 114.68C462.567 114.674 462.403 114.837 462.41 115.17C462.99 151.804 450.713 183.364 425.58 209.85C403.55 233.07 372.61 243.89 340.76 245.78C328.213 246.52 316.663 245.297 306.11 242.11C306.04 242.091 305.978 242.05 305.932 241.993C305.887 241.936 305.862 241.865 305.86 241.793C305.857 241.72 305.878 241.648 305.92 241.588C305.961 241.529 306.021 241.484 306.09 241.46C356.75 223.36 412.1 183.18 414.15 123.97C414.163 123.57 413.983 123.444 413.61 123.59C405.357 126.784 397.593 130.91 390.32 135.97C390.265 136.011 390.199 136.032 390.131 136.031C390.063 136.03 389.997 136.007 389.944 135.965C389.89 135.923 389.852 135.864 389.835 135.798C389.818 135.732 389.824 135.663 389.85 135.6L426.1 40.1002C426.112 40.0723 426.131 40.0478 426.154 40.029C426.178 40.0101 426.206 39.9977 426.236 39.9927C426.266 39.9877 426.297 39.9904 426.326 40.0004C426.354 40.0105 426.38 40.0276 426.4 40.0502C447.36 65.6169 468.247 91.2469 489.06 116.94Z" fill="black"></path>
    <path d="M640.19 442.999H626.94L633.85 442.779C633.917 442.773 633.957 442.739 633.97 442.679C634.003 442.573 634.01 442.486 633.99 442.42C633.97 442.346 633.927 442.309 633.86 442.309C630.1 442.143 626.34 441.936 622.58 441.689C425.154 428.949 227.73 416.153 30.3102 403.299C29.9569 403.279 29.7935 403.096 29.8202 402.749L38.3202 272.28C38.3469 271.873 38.5669 271.683 38.9802 271.709L647.98 311.41C648.081 311.416 648.18 311.442 648.271 311.487C648.362 311.532 648.444 311.594 648.51 311.67C648.577 311.746 648.629 311.835 648.661 311.931C648.694 312.027 648.707 312.128 648.7 312.23L640.19 442.999ZM94.0802 348.019C91.9269 352.633 88.2235 355.196 82.9702 355.709C67.3702 357.219 57.3502 342.22 66.7602 329.17C72.9302 320.62 87.2402 321.05 93.3402 330.51C93.5069 330.776 93.7335 330.843 94.0202 330.709L102.07 326.859C102.424 326.693 102.5 326.443 102.3 326.109C87.2702 300.619 47.0502 316.289 54.0702 345.739C60.7202 373.669 105.13 372.899 104.99 339.859C104.99 339.681 104.922 339.508 104.8 339.378C104.677 339.248 104.509 339.17 104.33 339.16L80.2402 337.64C79.9802 337.626 79.8435 337.75 79.8302 338.01L79.4902 345.75C79.4702 346.15 79.6602 346.366 80.0602 346.399L93.7402 347.429C94.1335 347.463 94.2469 347.659 94.0802 348.019ZM104.15 365.73C104.131 365.775 104.123 365.824 104.126 365.873C104.13 365.922 104.145 365.969 104.17 366.011C104.196 366.053 104.231 366.088 104.272 366.114C104.314 366.14 104.361 366.155 104.41 366.16L114.45 366.97C114.517 366.977 114.584 366.962 114.642 366.928C114.7 366.894 114.745 366.842 114.77 366.78L118.16 358.35C118.183 358.289 118.224 358.237 118.278 358.201C118.332 358.166 118.396 358.147 118.46 358.149L138.57 359.45C138.634 359.453 138.695 359.476 138.745 359.515C138.795 359.555 138.832 359.609 138.85 359.67L141.25 368.47C141.267 368.532 141.303 368.588 141.353 368.63C141.403 368.671 141.465 368.695 141.53 368.7L151.04 369.35C151.089 369.353 151.139 369.344 151.184 369.325C151.229 369.305 151.269 369.275 151.301 369.237C151.332 369.199 151.354 369.154 151.364 369.105C151.374 369.057 151.373 369.007 151.36 368.959L137.07 318.17C137.052 318.109 137.015 318.055 136.965 318.015C136.915 317.976 136.854 317.953 136.79 317.95L124.9 317.38C124.837 317.377 124.774 317.393 124.72 317.427C124.667 317.461 124.625 317.511 124.6 317.57L104.15 365.73ZM168.24 339.25C168.246 339.186 168.272 339.126 168.315 339.078C168.357 339.03 168.414 338.997 168.476 338.984C168.539 338.97 168.604 338.977 168.662 339.003C168.72 339.03 168.769 339.074 168.8 339.13L181.07 362.619C181.094 362.665 181.128 362.704 181.171 362.733C181.214 362.761 181.263 362.778 181.314 362.782C181.365 362.786 181.416 362.777 181.463 362.756C181.51 362.734 181.55 362.701 181.58 362.66L196.94 340.739C196.978 340.688 197.032 340.651 197.093 340.632C197.154 340.614 197.22 340.615 197.28 340.636C197.34 340.657 197.392 340.697 197.428 340.75C197.464 340.803 197.482 340.866 197.48 340.929L195.46 371.859C195.457 371.899 195.463 371.938 195.475 371.976C195.488 372.013 195.508 372.048 195.534 372.078C195.56 372.107 195.591 372.132 195.627 372.149C195.662 372.167 195.701 372.177 195.74 372.179L204.96 372.79C205 372.792 205.039 372.787 205.077 372.774C205.114 372.762 205.149 372.742 205.178 372.716C205.208 372.69 205.232 372.658 205.25 372.623C205.267 372.587 205.278 372.549 205.28 372.51L208.53 322.989C208.533 322.95 208.528 322.911 208.515 322.873C208.503 322.836 208.483 322.801 208.457 322.771C208.431 322.742 208.399 322.717 208.364 322.7C208.328 322.682 208.29 322.672 208.25 322.67L198.44 322.019C198.388 322.016 198.335 322.026 198.288 322.048C198.24 322.071 198.2 322.106 198.17 322.149L182.8 344.29C182.771 344.331 182.731 344.365 182.685 344.388C182.639 344.41 182.588 344.42 182.537 344.417C182.486 344.414 182.436 344.398 182.393 344.37C182.35 344.343 182.314 344.305 182.29 344.26L169.75 320.23C169.726 320.183 169.69 320.144 169.646 320.116C169.603 320.088 169.552 320.072 169.5 320.07L159.79 319.579C159.751 319.577 159.711 319.582 159.674 319.595C159.636 319.607 159.602 319.627 159.572 319.653C159.542 319.679 159.518 319.711 159.501 319.746C159.483 319.782 159.473 319.82 159.47 319.859L156.24 369.399C156.237 369.439 156.243 369.478 156.255 369.516C156.268 369.553 156.288 369.588 156.314 369.618C156.34 369.647 156.371 369.672 156.407 369.689C156.442 369.707 156.481 369.717 156.52 369.72L165.83 370.32C165.87 370.322 165.909 370.317 165.947 370.304C165.984 370.292 166.019 370.272 166.048 370.246C166.078 370.22 166.102 370.188 166.12 370.153C166.137 370.117 166.148 370.079 166.15 370.04L168.24 339.25ZM227.09 333.839C227.098 333.748 227.141 333.664 227.21 333.604C227.279 333.544 227.369 333.514 227.46 333.519L247.57 334.73C247.616 334.732 247.662 334.726 247.706 334.711C247.749 334.696 247.789 334.672 247.824 334.641C247.858 334.611 247.886 334.573 247.906 334.532C247.926 334.491 247.938 334.445 247.94 334.399L248.4 325.63C248.403 325.584 248.396 325.537 248.381 325.494C248.366 325.45 248.343 325.41 248.312 325.376C248.281 325.342 248.244 325.314 248.203 325.294C248.161 325.274 248.116 325.262 248.07 325.26L218.15 323.38C218.104 323.377 218.058 323.383 218.015 323.398C217.971 323.413 217.931 323.437 217.897 323.468C217.862 323.498 217.834 323.535 217.814 323.577C217.794 323.618 217.783 323.664 217.78 323.709L214.57 373.06C214.567 373.105 214.574 373.152 214.589 373.195C214.604 373.239 214.628 373.279 214.658 373.313C214.689 373.347 214.726 373.375 214.768 373.395C214.809 373.415 214.854 373.427 214.9 373.429L245.06 375.45C245.151 375.455 245.241 375.425 245.31 375.365C245.38 375.305 245.423 375.221 245.43 375.13L246.29 366.299C246.294 366.253 246.289 366.206 246.274 366.161C246.26 366.116 246.237 366.075 246.206 366.04C246.175 366.004 246.137 365.975 246.095 365.955C246.053 365.934 246.007 365.922 245.96 365.92L225.53 364.64C225.439 364.634 225.354 364.594 225.292 364.527C225.23 364.459 225.197 364.371 225.2 364.28L225.6 353.76C225.601 353.713 225.612 353.667 225.632 353.624C225.651 353.581 225.679 353.543 225.713 353.511C225.748 353.48 225.788 353.455 225.832 353.439C225.877 353.424 225.923 353.417 225.97 353.42L244.53 354.63C244.578 354.634 244.626 354.628 244.671 354.613C244.716 354.598 244.758 354.573 244.794 354.542C244.829 354.51 244.858 354.471 244.878 354.428C244.898 354.384 244.909 354.337 244.91 354.29L245.3 345.63C245.303 345.54 245.271 345.453 245.212 345.386C245.152 345.319 245.069 345.277 244.98 345.269L226.68 344.1C226.589 344.092 226.505 344.049 226.445 343.98C226.385 343.911 226.355 343.821 226.36 343.73L227.09 333.839ZM321.82 353.549C321.82 346.611 319.064 339.958 314.158 335.052C309.252 330.146 302.598 327.39 295.66 327.39C288.722 327.39 282.068 330.146 277.162 335.052C272.256 339.958 269.5 346.611 269.5 353.549C269.5 360.488 272.256 367.141 277.162 372.047C282.068 376.953 288.722 379.709 295.66 379.709C302.598 379.709 309.252 376.953 314.158 372.047C319.064 367.141 321.82 360.488 321.82 353.549ZM338.17 362.42C338.173 362.379 338.183 362.339 338.201 362.302C338.219 362.266 338.244 362.233 338.275 362.206C338.306 362.179 338.341 362.158 338.38 362.145C338.419 362.132 338.459 362.127 338.5 362.13L357.24 363.399C357.321 363.405 357.4 363.379 357.462 363.327C357.524 363.274 357.563 363.2 357.57 363.119L358.3 354.179C358.306 354.099 358.28 354.019 358.227 353.958C358.175 353.896 358.101 353.857 358.02 353.85L339.21 352.649C339.13 352.644 339.054 352.608 339 352.548C338.946 352.489 338.917 352.41 338.92 352.329L339.45 341.17C339.451 341.129 339.461 341.089 339.478 341.052C339.494 341.014 339.518 340.981 339.548 340.953C339.578 340.925 339.613 340.904 339.651 340.889C339.689 340.875 339.729 340.868 339.77 340.869L359.13 342.109C359.211 342.115 359.29 342.089 359.352 342.037C359.414 341.984 359.453 341.91 359.46 341.829L360.29 333C360.294 332.958 360.29 332.916 360.277 332.876C360.265 332.836 360.245 332.8 360.218 332.768C360.19 332.736 360.157 332.71 360.12 332.691C360.083 332.673 360.042 332.662 360 332.66L330.53 330.63C330.489 330.627 330.449 330.632 330.41 330.645C330.371 330.658 330.336 330.679 330.305 330.706C330.274 330.733 330.249 330.766 330.231 330.802C330.213 330.839 330.203 330.879 330.2 330.92L326.93 380.579C326.927 380.62 326.933 380.661 326.946 380.7C326.959 380.738 326.98 380.774 327.007 380.805C327.034 380.835 327.066 380.86 327.103 380.878C327.14 380.896 327.179 380.907 327.22 380.91L336.58 381.429C336.621 381.432 336.662 381.427 336.7 381.414C336.739 381.401 336.775 381.38 336.805 381.353C336.836 381.326 336.861 381.293 336.879 381.257C336.897 381.22 336.908 381.18 336.91 381.14L338.17 362.42ZM396.67 385.41C396.746 385.416 396.821 385.396 396.885 385.355C396.948 385.313 396.996 385.251 397.02 385.179L408.37 353.95C408.395 353.881 408.442 353.822 408.503 353.782C408.565 353.742 408.637 353.723 408.71 353.728C408.783 353.732 408.853 353.76 408.908 353.807C408.964 353.854 409.003 353.918 409.02 353.989L415.78 386.609C415.795 386.682 415.834 386.748 415.89 386.797C415.946 386.845 416.016 386.875 416.09 386.88L426.88 387.56C426.953 387.564 427.025 387.545 427.087 387.506C427.148 387.466 427.195 387.408 427.22 387.34L443.99 338.739C444.007 338.69 444.013 338.637 444.006 338.585C443.999 338.533 443.981 338.484 443.952 338.44C443.923 338.397 443.884 338.36 443.839 338.334C443.793 338.308 443.742 338.293 443.69 338.29L434.76 337.549C434.683 337.541 434.605 337.559 434.54 337.601C434.474 337.643 434.425 337.706 434.4 337.78L422.6 372.67C422.575 372.738 422.528 372.797 422.467 372.837C422.406 372.877 422.333 372.896 422.26 372.891C422.187 372.887 422.118 372.859 422.062 372.812C422.006 372.765 421.967 372.701 421.95 372.63L414.58 336.29C414.567 336.215 414.529 336.147 414.473 336.096C414.417 336.046 414.346 336.015 414.27 336.01L406.1 335.529C406.027 335.525 405.955 335.544 405.894 335.583C405.833 335.623 405.786 335.681 405.76 335.75L393.05 370.53C393.023 370.598 392.975 370.656 392.912 370.694C392.849 370.733 392.776 370.75 392.703 370.743C392.629 370.736 392.56 370.706 392.506 370.657C392.451 370.607 392.414 370.542 392.4 370.47L385.86 334.1C385.845 334.025 385.805 333.958 385.747 333.909C385.689 333.86 385.616 333.832 385.54 333.829L375.83 333.299C375.779 333.297 375.728 333.306 375.681 333.326C375.634 333.346 375.593 333.377 375.559 333.415C375.525 333.454 375.501 333.499 375.487 333.548C375.473 333.598 375.471 333.649 375.48 333.7L384.81 384.13C384.825 384.202 384.864 384.268 384.92 384.317C384.976 384.365 385.046 384.395 385.12 384.399L396.67 385.41ZM496.57 365.579C496.57 358.618 493.805 351.941 488.882 347.018C483.959 342.095 477.282 339.329 470.32 339.329C463.358 339.329 456.681 342.095 451.759 347.018C446.836 351.941 444.07 358.618 444.07 365.579C444.07 372.541 446.836 379.218 451.759 384.141C456.681 389.064 463.358 391.829 470.32 391.829C477.282 391.829 483.959 389.064 488.882 384.141C493.805 379.218 496.57 372.541 496.57 365.579ZM530.59 376.17C543.09 370.39 544.89 353.36 532.27 346.56C530.11 345.393 526.823 344.626 522.41 344.26C516.823 343.786 511.247 343.366 505.68 343C505.34 342.973 505.157 343.133 505.13 343.48L501.53 392.69C501.51 392.99 501.647 393.153 501.94 393.179L510.79 393.94C510.868 393.946 510.946 393.938 511.02 393.914C511.094 393.891 511.163 393.853 511.223 393.803C511.282 393.753 511.331 393.691 511.367 393.622C511.402 393.553 511.424 393.477 511.43 393.399L512.65 376.78C512.67 376.54 512.8 376.43 513.04 376.45L519.67 377.119C519.99 377.153 520.217 377.313 520.35 377.6L528.82 394.97C528.934 395.196 529.12 395.32 529.38 395.34L539.28 396.09C539.64 396.116 539.74 395.969 539.58 395.649L530.34 376.869C530.18 376.549 530.264 376.316 530.59 376.17ZM555.09 397.31C555.168 397.315 555.245 397.29 555.305 397.24C555.365 397.189 555.403 397.117 555.41 397.04L557.2 374.85C557.205 374.787 557.23 374.728 557.27 374.68C557.31 374.632 557.365 374.599 557.425 374.583C557.486 374.568 557.55 374.572 557.608 374.594C557.666 374.617 557.716 374.657 557.75 374.709L573.22 398.56C573.245 398.599 573.279 398.632 573.319 398.657C573.359 398.681 573.404 398.696 573.45 398.7L584.27 399.429C584.325 399.433 584.38 399.42 584.429 399.394C584.477 399.368 584.518 399.329 584.545 399.282C584.573 399.234 584.588 399.18 584.587 399.125C584.586 399.07 584.57 399.016 584.54 398.97L567.6 372.39C567.565 372.334 567.55 372.269 567.555 372.204C567.56 372.14 567.587 372.078 567.63 372.03L587.62 349.579C587.658 349.538 587.683 349.487 587.693 349.431C587.703 349.376 587.697 349.319 587.676 349.267C587.655 349.215 587.62 349.17 587.575 349.137C587.53 349.104 587.476 349.084 587.42 349.079L576.55 348.32C576.505 348.317 576.46 348.325 576.419 348.342C576.377 348.359 576.34 348.386 576.31 348.42L558.15 368.359C558.108 368.405 558.053 368.436 557.993 368.449C557.933 368.462 557.87 368.456 557.813 368.432C557.756 368.408 557.708 368.367 557.675 368.315C557.642 368.262 557.627 368.201 557.63 368.14L559.27 347.25C559.274 347.208 559.27 347.167 559.257 347.128C559.245 347.089 559.224 347.052 559.197 347.021C559.17 346.99 559.137 346.965 559.099 346.948C559.062 346.93 559.021 346.921 558.98 346.92L549.51 346.41C549.434 346.407 549.359 346.433 549.302 346.483C549.244 346.533 549.208 346.603 549.2 346.679L545.54 396.179C545.535 396.258 545.56 396.335 545.61 396.394C545.661 396.454 545.732 396.492 545.81 396.5L555.09 397.31ZM596.19 373.81C600.19 376.876 604.904 379.22 610.33 380.84C615.89 382.5 617.27 390.5 610.27 391.45C603.657 392.35 599.174 389.756 596.82 383.67C596.694 383.343 596.473 383.26 596.16 383.42L588.59 387.31C588.324 387.45 588.234 387.663 588.32 387.95C590.114 393.99 594.004 398.01 599.99 400.01C609.83 403.31 623.13 400.65 624.49 388.48C625.85 376.31 616.05 373.21 605.73 369.04C604.617 368.593 603.593 367.823 602.66 366.73C596.62 359.7 611.95 354.29 616.53 365.48C616.557 365.547 616.598 365.608 616.649 365.658C616.701 365.709 616.763 365.748 616.831 365.774C616.898 365.799 616.971 365.81 617.043 365.806C617.115 365.802 617.186 365.783 617.25 365.75L624.75 362C625.11 361.82 625.207 361.546 625.04 361.179C620.04 350.199 606.38 344.699 596.75 352.959C591.09 357.819 589.55 368.73 596.19 373.81Z" fill="black"></path>
    <path d="M93.7399 347.43L80.0599 346.4C79.6599 346.367 79.4699 346.15 79.4899 345.75L79.8299 338.01C79.8432 337.75 79.9799 337.627 80.2399 337.64L104.33 339.16C104.508 339.17 104.676 339.248 104.799 339.379C104.922 339.509 104.99 339.681 104.99 339.86C105.13 372.9 60.7199 373.67 54.0699 345.74C47.0499 316.29 87.2699 300.62 102.3 326.11C102.5 326.443 102.423 326.693 102.07 326.86L94.0199 330.71C93.7332 330.843 93.5065 330.777 93.3399 330.51C87.2399 321.05 72.9299 320.62 66.7599 329.17C57.3499 342.22 67.3699 357.22 82.9699 355.71C88.2232 355.197 91.9265 352.633 94.0799 348.02C94.2465 347.66 94.1332 347.463 93.7399 347.43Z" fill="white"></path>
    <path d="M104.15 365.73L124.6 317.57C124.625 317.512 124.667 317.462 124.72 317.428C124.774 317.394 124.837 317.377 124.9 317.38L136.79 317.95C136.854 317.954 136.915 317.977 136.965 318.016C137.015 318.055 137.052 318.109 137.07 318.17L151.36 368.96C151.373 369.008 151.374 369.058 151.364 369.106C151.353 369.154 151.332 369.199 151.3 369.238C151.269 369.276 151.229 369.306 151.184 369.325C151.139 369.345 151.089 369.353 151.04 369.35L141.53 368.7C141.465 368.696 141.403 368.672 141.353 368.63C141.303 368.589 141.267 368.533 141.25 368.47L138.85 359.67C138.832 359.609 138.795 359.555 138.745 359.516C138.695 359.477 138.634 359.454 138.57 359.45L118.46 358.15C118.395 358.148 118.332 358.166 118.278 358.202C118.224 358.238 118.183 358.29 118.16 358.35L114.77 366.78C114.745 366.842 114.699 366.894 114.642 366.929C114.584 366.963 114.517 366.977 114.45 366.97L104.41 366.16C104.361 366.156 104.314 366.141 104.272 366.115C104.231 366.089 104.196 366.054 104.17 366.012C104.145 365.97 104.13 365.922 104.126 365.873C104.123 365.824 104.131 365.775 104.15 365.73ZM122.37 348.64C122.351 348.689 122.344 348.741 122.349 348.793C122.354 348.845 122.372 348.895 122.4 348.939C122.428 348.983 122.467 349.02 122.512 349.046C122.557 349.072 122.608 349.087 122.66 349.09L135.53 349.83C135.583 349.834 135.636 349.825 135.685 349.804C135.733 349.782 135.776 349.75 135.809 349.709C135.843 349.667 135.866 349.619 135.876 349.567C135.887 349.515 135.885 349.461 135.87 349.41L130.51 330.4C130.494 330.331 130.456 330.27 130.402 330.224C130.348 330.178 130.28 330.151 130.21 330.147C130.139 330.143 130.069 330.161 130.01 330.199C129.95 330.238 129.905 330.294 129.88 330.36L122.37 348.64Z" fill="white"></path>
    <path d="M168.24 339.25L166.15 370.04C166.147 370.079 166.137 370.118 166.12 370.153C166.102 370.189 166.078 370.22 166.048 370.246C166.018 370.272 165.984 370.292 165.946 370.305C165.909 370.317 165.869 370.323 165.83 370.32L156.52 369.72C156.481 369.717 156.442 369.707 156.407 369.689C156.371 369.672 156.34 369.648 156.313 369.618C156.287 369.588 156.268 369.554 156.255 369.516C156.242 369.479 156.237 369.439 156.24 369.4L159.47 319.86C159.473 319.82 159.483 319.782 159.5 319.746C159.518 319.711 159.542 319.679 159.572 319.653C159.602 319.627 159.636 319.607 159.674 319.595C159.711 319.582 159.751 319.577 159.79 319.58L169.5 320.07C169.552 320.073 169.602 320.089 169.646 320.117C169.69 320.145 169.726 320.184 169.75 320.23L182.29 344.26C182.314 344.305 182.35 344.343 182.393 344.371C182.436 344.398 182.485 344.414 182.537 344.417C182.588 344.42 182.639 344.41 182.685 344.388C182.731 344.366 182.771 344.332 182.8 344.29L198.17 322.15C198.2 322.106 198.24 322.071 198.288 322.049C198.335 322.026 198.388 322.016 198.44 322.02L208.25 322.67C208.289 322.672 208.328 322.683 208.363 322.7C208.399 322.718 208.43 322.742 208.456 322.772C208.482 322.801 208.502 322.836 208.515 322.873C208.528 322.911 208.533 322.95 208.53 322.99L205.28 372.51C205.277 372.549 205.267 372.588 205.25 372.623C205.232 372.659 205.208 372.69 205.178 372.716C205.148 372.742 205.114 372.762 205.076 372.775C205.039 372.787 204.999 372.793 204.96 372.79L195.74 372.18C195.701 372.177 195.662 372.167 195.627 372.15C195.591 372.132 195.56 372.108 195.533 372.078C195.507 372.048 195.488 372.014 195.475 371.976C195.462 371.939 195.457 371.899 195.46 371.86L197.48 340.93C197.482 340.866 197.464 340.803 197.428 340.75C197.392 340.698 197.34 340.658 197.28 340.637C197.219 340.615 197.154 340.614 197.093 340.633C197.032 340.651 196.978 340.689 196.94 340.74L181.58 362.66C181.55 362.701 181.509 362.734 181.463 362.756C181.416 362.777 181.365 362.787 181.314 362.783C181.263 362.779 181.213 362.762 181.171 362.733C181.128 362.705 181.093 362.666 181.07 362.62L168.8 339.13C168.769 339.074 168.72 339.03 168.662 339.004C168.604 338.977 168.538 338.971 168.476 338.984C168.413 338.997 168.357 339.03 168.314 339.078C168.272 339.126 168.246 339.186 168.24 339.25Z" fill="white"></path>
    <path d="M227.09 333.84L226.36 343.73C226.354 343.821 226.385 343.911 226.445 343.98C226.504 344.049 226.589 344.092 226.68 344.1L244.98 345.269C245.069 345.277 245.152 345.319 245.212 345.386C245.271 345.453 245.303 345.54 245.3 345.63L244.91 354.29C244.909 354.337 244.898 354.384 244.878 354.428C244.858 354.471 244.829 354.51 244.793 354.542C244.758 354.573 244.716 354.598 244.671 354.613C244.625 354.628 244.578 354.634 244.53 354.63L225.97 353.42C225.923 353.417 225.876 353.424 225.832 353.439C225.788 353.455 225.747 353.48 225.713 353.511C225.678 353.543 225.651 353.581 225.631 353.624C225.612 353.667 225.601 353.713 225.6 353.76L225.2 364.28C225.197 364.371 225.23 364.459 225.292 364.527C225.353 364.594 225.439 364.634 225.53 364.64L245.96 365.92C246.007 365.922 246.053 365.934 246.095 365.955C246.137 365.975 246.175 366.004 246.206 366.04C246.236 366.075 246.26 366.116 246.274 366.161C246.289 366.206 246.294 366.253 246.29 366.299L245.43 375.13C245.422 375.221 245.379 375.305 245.31 375.365C245.241 375.425 245.151 375.455 245.06 375.45L214.9 373.429C214.854 373.427 214.809 373.415 214.767 373.395C214.726 373.375 214.689 373.347 214.658 373.313C214.627 373.279 214.604 373.239 214.589 373.195C214.574 373.152 214.567 373.105 214.57 373.06L217.78 323.709C217.782 323.664 217.794 323.618 217.814 323.577C217.834 323.535 217.862 323.498 217.896 323.468C217.931 323.437 217.971 323.413 218.014 323.398C218.058 323.383 218.104 323.377 218.15 323.38L248.07 325.26C248.116 325.262 248.161 325.274 248.202 325.294C248.244 325.314 248.281 325.342 248.312 325.376C248.342 325.41 248.366 325.45 248.381 325.494C248.396 325.537 248.403 325.584 248.4 325.63L247.94 334.399C247.937 334.445 247.926 334.491 247.906 334.532C247.886 334.573 247.858 334.611 247.823 334.641C247.789 334.672 247.749 334.696 247.705 334.711C247.662 334.726 247.616 334.732 247.57 334.73L227.46 333.519C227.369 333.514 227.279 333.544 227.21 333.604C227.141 333.664 227.098 333.748 227.09 333.84Z" fill="white"></path>
    <path d="M321.82 353.55C321.82 360.488 319.064 367.142 314.158 372.048C309.252 376.953 302.598 379.71 295.66 379.71C288.722 379.71 282.068 376.953 277.162 372.048C272.256 367.142 269.5 360.488 269.5 353.55C269.5 346.612 272.256 339.958 277.162 335.052C282.068 330.146 288.722 327.39 295.66 327.39C302.598 327.39 309.252 330.146 314.158 335.052C319.064 339.958 321.82 346.612 321.82 353.55ZM311.94 353.54C311.94 351.399 311.518 349.279 310.699 347.302C309.88 345.324 308.679 343.527 307.166 342.014C305.652 340.5 303.855 339.3 301.878 338.48C299.9 337.661 297.781 337.24 295.64 337.24C293.499 337.24 291.38 337.661 289.402 338.48C287.425 339.3 285.628 340.5 284.114 342.014C282.601 343.527 281.4 345.324 280.581 347.302C279.762 349.279 279.34 351.399 279.34 353.54C279.34 357.863 281.057 362.009 284.114 365.065C287.171 368.122 291.317 369.84 295.64 369.84C299.963 369.84 304.109 368.122 307.166 365.065C310.223 362.009 311.94 357.863 311.94 353.54Z" fill="white"></path>
    <path d="M122.37 348.64L129.88 330.36C129.905 330.294 129.95 330.238 130.01 330.199C130.069 330.161 130.139 330.143 130.21 330.147C130.28 330.152 130.348 330.179 130.402 330.224C130.456 330.27 130.494 330.332 130.51 330.4L135.87 349.41C135.885 349.461 135.887 349.515 135.876 349.567C135.865 349.619 135.843 349.668 135.809 349.709C135.776 349.75 135.733 349.783 135.684 349.804C135.636 349.825 135.583 349.834 135.53 349.83L122.66 349.09C122.608 349.088 122.557 349.073 122.512 349.046C122.466 349.02 122.428 348.984 122.4 348.94C122.371 348.896 122.354 348.846 122.349 348.794C122.344 348.742 122.351 348.689 122.37 348.64Z" fill="black"></path>
    <path d="M338.17 362.42L336.91 381.14C336.907 381.18 336.897 381.22 336.879 381.257C336.861 381.293 336.836 381.326 336.805 381.353C336.774 381.38 336.739 381.401 336.7 381.414C336.661 381.427 336.621 381.432 336.58 381.43L327.22 380.91C327.179 380.907 327.139 380.896 327.103 380.878C327.066 380.861 327.033 380.835 327.006 380.805C326.979 380.774 326.959 380.738 326.946 380.7C326.933 380.661 326.927 380.62 326.93 380.58L330.2 330.92C330.202 330.879 330.213 330.839 330.231 330.802C330.249 330.766 330.274 330.733 330.305 330.706C330.335 330.679 330.371 330.658 330.41 330.645C330.448 330.632 330.489 330.627 330.53 330.63L360 332.66C360.042 332.662 360.082 332.673 360.12 332.692C360.157 332.71 360.19 332.736 360.217 332.768C360.244 332.8 360.265 332.837 360.277 332.876C360.29 332.916 360.294 332.958 360.29 333L359.46 341.83C359.452 341.91 359.413 341.984 359.352 342.037C359.29 342.089 359.211 342.115 359.13 342.11L339.77 340.87C339.729 340.868 339.689 340.875 339.65 340.889C339.612 340.904 339.577 340.925 339.548 340.953C339.518 340.981 339.494 341.015 339.477 341.052C339.46 341.089 339.451 341.129 339.45 341.17L338.92 352.33C338.917 352.41 338.946 352.489 339 352.548C339.054 352.608 339.129 352.644 339.21 352.65L358.02 353.85C358.1 353.857 358.175 353.896 358.227 353.958C358.279 354.019 358.305 354.099 358.3 354.18L357.57 363.12C357.562 363.2 357.523 363.274 357.462 363.327C357.4 363.379 357.321 363.405 357.24 363.4L338.5 362.13C338.459 362.127 338.418 362.132 338.38 362.145C338.341 362.158 338.305 362.179 338.275 362.206C338.244 362.233 338.219 362.266 338.201 362.302C338.183 362.339 338.172 362.379 338.17 362.42Z" fill="white"></path>
    <path d="M396.67 385.41L385.12 384.4C385.046 384.395 384.976 384.366 384.92 384.317C384.864 384.269 384.825 384.203 384.81 384.13L375.48 333.7C375.471 333.65 375.473 333.598 375.487 333.549C375.501 333.5 375.525 333.454 375.559 333.416C375.592 333.378 375.634 333.347 375.681 333.327C375.728 333.307 375.779 333.298 375.83 333.3L385.54 333.83C385.616 333.833 385.689 333.861 385.746 333.91C385.804 333.959 385.844 334.026 385.86 334.1L392.4 370.47C392.414 370.542 392.451 370.608 392.506 370.657C392.56 370.707 392.629 370.737 392.703 370.744C392.776 370.751 392.849 370.733 392.912 370.695C392.975 370.656 393.023 370.599 393.05 370.53L405.76 335.75C405.786 335.682 405.832 335.624 405.894 335.584C405.955 335.544 406.027 335.526 406.1 335.53L414.27 336.01C414.345 336.016 414.417 336.046 414.473 336.097C414.529 336.148 414.567 336.216 414.58 336.29L421.95 372.63C421.967 372.701 422.006 372.765 422.062 372.812C422.118 372.859 422.187 372.887 422.26 372.892C422.333 372.896 422.406 372.877 422.467 372.837C422.528 372.797 422.575 372.739 422.6 372.67L434.4 337.78C434.425 337.706 434.474 337.643 434.539 337.602C434.605 337.56 434.683 337.542 434.76 337.55L443.69 338.29C443.742 338.293 443.793 338.309 443.838 338.335C443.884 338.361 443.922 338.397 443.951 338.441C443.98 338.484 443.999 338.534 444.006 338.586C444.012 338.638 444.007 338.691 443.99 338.74L427.22 387.34C427.194 387.408 427.148 387.467 427.086 387.506C427.025 387.546 426.953 387.565 426.88 387.56L416.09 386.88C416.016 386.875 415.946 386.846 415.89 386.797C415.834 386.749 415.795 386.683 415.78 386.61L409.02 353.99C409.003 353.919 408.964 353.855 408.908 353.808C408.852 353.761 408.783 353.733 408.71 353.728C408.637 353.724 408.564 353.743 408.503 353.783C408.442 353.823 408.395 353.882 408.37 353.95L397.02 385.18C396.996 385.252 396.948 385.314 396.885 385.355C396.821 385.397 396.746 385.416 396.67 385.41Z" fill="white"></path>
    <path d="M295.64 369.84C304.642 369.84 311.94 362.542 311.94 353.54C311.94 344.538 304.642 337.24 295.64 337.24C286.638 337.24 279.34 344.538 279.34 353.54C279.34 362.542 286.638 369.84 295.64 369.84Z" fill="black"></path>
    <path d="M496.57 365.58C496.57 372.542 493.804 379.219 488.881 384.142C483.959 389.064 477.282 391.83 470.32 391.83C463.358 391.83 456.681 389.064 451.758 384.142C446.835 379.219 444.07 372.542 444.07 365.58C444.07 358.618 446.835 351.941 451.758 347.019C456.681 342.096 463.358 339.33 470.32 339.33C477.282 339.33 483.959 342.096 488.881 347.019C493.804 351.941 496.57 358.618 496.57 365.58ZM486.65 365.55C486.65 361.216 484.928 357.06 481.864 353.996C478.8 350.932 474.643 349.21 470.31 349.21C465.976 349.21 461.82 350.932 458.756 353.996C455.691 357.06 453.97 361.216 453.97 365.55C453.97 369.884 455.691 374.04 458.756 377.104C461.82 380.169 465.976 381.89 470.31 381.89C474.643 381.89 478.8 380.169 481.864 377.104C484.928 374.04 486.65 369.884 486.65 365.55Z" fill="white"></path>
    <path d="M530.34 376.87L539.58 395.65C539.74 395.97 539.64 396.117 539.28 396.09L529.38 395.34C529.12 395.32 528.934 395.197 528.82 394.97L520.35 377.6C520.217 377.313 519.99 377.153 519.67 377.12L513.04 376.45C512.8 376.43 512.67 376.54 512.65 376.78L511.43 393.4C511.424 393.478 511.402 393.553 511.367 393.622C511.331 393.691 511.282 393.753 511.223 393.803C511.163 393.853 511.094 393.891 511.02 393.915C510.946 393.938 510.868 393.947 510.79 393.94L501.94 393.18C501.647 393.153 501.51 392.99 501.53 392.69L505.13 343.48C505.157 343.133 505.34 342.973 505.68 343C511.247 343.367 516.824 343.787 522.41 344.26C526.824 344.627 530.11 345.393 532.27 346.56C544.89 353.36 543.09 370.39 530.59 376.17C530.264 376.317 530.18 376.55 530.34 376.87ZM514.24 354.01L513.24 366.71C513.218 367.003 513.313 367.293 513.504 367.516C513.696 367.739 513.967 367.877 514.26 367.9L522.67 368.57C523.659 368.648 524.654 368.535 525.597 368.236C526.54 367.938 527.413 367.46 528.166 366.83C528.919 366.201 529.538 365.431 529.987 364.567C530.435 363.702 530.705 362.758 530.78 361.79L530.79 361.61C530.866 360.642 530.747 359.669 530.439 358.745C530.131 357.821 529.64 356.965 528.995 356.226C528.349 355.487 527.562 354.879 526.678 354.437C525.793 353.995 524.829 353.727 523.84 353.65L515.43 352.99C515.137 352.968 514.848 353.063 514.624 353.254C514.401 353.445 514.263 353.717 514.24 354.01Z" fill="white"></path>
    <path d="M555.09 397.31L545.81 396.5C545.732 396.493 545.66 396.455 545.61 396.395C545.559 396.335 545.534 396.258 545.54 396.18L549.2 346.68C549.207 346.604 549.244 346.534 549.301 346.484C549.359 346.434 549.434 346.407 549.51 346.41L558.98 346.92C559.021 346.922 559.062 346.931 559.099 346.949C559.136 346.966 559.169 346.991 559.197 347.022C559.224 347.053 559.244 347.089 559.257 347.129C559.27 347.168 559.274 347.209 559.27 347.25L557.63 368.14C557.626 368.202 557.642 368.263 557.675 368.316C557.708 368.368 557.756 368.409 557.812 368.433C557.869 368.457 557.932 368.463 557.993 368.45C558.053 368.437 558.108 368.406 558.15 368.36L576.31 348.42C576.34 348.387 576.377 348.36 576.418 348.343C576.46 348.326 576.505 348.318 576.55 348.32L587.42 349.08C587.476 349.085 587.529 349.104 587.575 349.138C587.62 349.171 587.655 349.216 587.676 349.268C587.696 349.32 587.702 349.377 587.692 349.432C587.683 349.487 587.657 349.539 587.62 349.58L567.63 372.03C567.586 372.079 567.56 372.14 567.555 372.205C567.549 372.27 567.565 372.335 567.6 372.39L584.54 398.97C584.569 399.017 584.585 399.071 584.586 399.126C584.587 399.181 584.573 399.235 584.545 399.283C584.517 399.33 584.477 399.369 584.428 399.395C584.38 399.421 584.325 399.433 584.27 399.43L573.45 398.7C573.403 398.697 573.358 398.682 573.318 398.658C573.278 398.633 573.245 398.6 573.22 398.56L557.75 374.71C557.716 374.658 557.666 374.618 557.608 374.595C557.549 374.572 557.485 374.569 557.425 374.584C557.364 374.599 557.31 374.633 557.27 374.681C557.229 374.729 557.205 374.788 557.2 374.85L555.41 397.04C555.402 397.118 555.364 397.19 555.305 397.24C555.245 397.291 555.168 397.316 555.09 397.31Z" fill="white"></path>
    <path d="M470.31 381.89C479.335 381.89 486.65 374.574 486.65 365.55C486.65 356.526 479.335 349.21 470.31 349.21C461.286 349.21 453.97 356.526 453.97 365.55C453.97 374.574 461.286 381.89 470.31 381.89Z" fill="black"></path>
    <path d="M596.19 373.81C589.55 368.73 591.09 357.82 596.75 352.96C606.38 344.7 620.04 350.2 625.04 361.18C625.207 361.547 625.11 361.82 624.75 362L617.25 365.75C617.186 365.783 617.115 365.803 617.043 365.807C616.97 365.811 616.898 365.8 616.83 365.775C616.763 365.749 616.701 365.71 616.649 365.659C616.597 365.609 616.557 365.548 616.53 365.48C611.95 354.29 596.62 359.7 602.66 366.73C603.593 367.824 604.617 368.594 605.73 369.04C616.05 373.21 625.85 376.31 624.49 388.48C623.13 400.65 609.83 403.31 599.99 400.01C594.003 398.01 590.113 393.99 588.32 387.95C588.233 387.664 588.323 387.45 588.59 387.31L596.16 383.42C596.473 383.26 596.693 383.344 596.82 383.67C599.173 389.757 603.657 392.35 610.27 391.45C617.27 390.5 615.89 382.5 610.33 380.84C604.903 379.22 600.19 376.877 596.19 373.81Z" fill="white"></path>
    <path d="M514.24 354.01C514.263 353.718 514.401 353.446 514.624 353.255C514.847 353.063 515.137 352.968 515.43 352.99L523.84 353.65C524.829 353.728 525.793 353.995 526.677 354.437C527.562 354.879 528.349 355.487 528.994 356.226C529.64 356.965 530.131 357.821 530.439 358.745C530.747 359.669 530.866 360.643 530.79 361.61L530.78 361.79C530.705 362.759 530.435 363.702 529.986 364.567C529.538 365.432 528.919 366.201 528.166 366.831C527.413 367.461 526.54 367.938 525.597 368.237C524.654 368.535 523.659 368.649 522.67 368.57L514.26 367.9C513.967 367.877 513.695 367.739 513.504 367.516C513.313 367.293 513.218 367.003 513.24 366.71L514.24 354.01Z" fill="black"></path>
  </g>
  <defs>
    <clipPath id="clip0_2162_16">
      <rect width="716" height="443" fill="white"></rect>
    </clipPath>
  </defs>
</svg>
