<?xml version="1.0" encoding="UTF-8"?>
<svg xmlns="http://www.w3.org/2000/svg" width="700" height="440" viewBox="0 0 700 440" fill="none">
  <path fill-rule="evenodd" clip-rule="evenodd" d="M119.65 194.996C119.65 190.758 122.475 187.934 126.821 187.934C128.45 187.934 130.297 188.694 132.145 190.107C137.36 193.909 142.684 195.756 148.225 195.756C153.875 195.756 157.786 192.606 157.786 188.259C157.786 185.76 156.591 183.479 154.092 181.414C151.702 179.35 147.138 177.068 140.511 174.461C128.45 169.68 122.366 162.4 122.366 152.622C122.366 146.32 124.756 141.105 129.646 137.084C134.535 133.064 140.945 131 148.877 131C156.591 131 163.328 133.064 169.195 137.084C171.911 138.823 173.215 140.996 173.215 143.604C173.215 147.841 170.39 150.775 166.479 150.775C164.849 150.775 163.11 150.123 161.263 148.71C157.46 145.885 153.223 144.473 148.768 144.473C143.01 144.473 139.424 147.732 139.424 151.318C139.424 155.773 142.575 158.598 153.114 162.618C167.565 168.268 174.845 176.199 174.845 186.412C174.845 192.931 172.346 198.364 167.239 202.71C162.132 207.056 155.505 209.229 147.356 209.229C137.686 209.229 129.428 206.513 122.8 201.08C120.736 199.342 119.65 197.278 119.65 194.996ZM191.699 200.211V140.344C191.699 135.563 195.176 132.087 199.957 132.087H239.941C244.178 132.087 247.112 135.02 247.112 139.258C247.112 143.604 244.178 146.537 239.941 146.537H208.323V165.66H234.725C238.745 165.66 241.679 168.593 241.679 172.614C241.679 176.634 238.745 179.676 234.725 179.676H208.323V200.211C208.323 205.1 204.846 208.577 199.957 208.577C195.176 208.577 191.699 205.1 191.699 200.211ZM261.275 139.801V199.777C261.275 204.666 264.751 208.143 269.532 208.143H308.212C312.558 208.143 315.6 205.1 315.6 200.754C315.6 196.3 312.558 193.257 308.212 193.257H277.898V139.801C277.898 135.02 274.421 131.543 269.532 131.543C264.751 131.543 261.275 135.02 261.275 139.801ZM324.662 194.996C324.662 190.758 327.487 187.934 331.833 187.934C333.463 187.934 335.31 188.694 337.157 190.107C342.372 193.909 347.696 195.756 353.237 195.756C358.887 195.756 362.799 192.606 362.799 188.259C362.799 185.76 361.603 183.479 359.104 181.414C356.714 179.35 352.151 177.068 345.523 174.461C333.463 169.68 327.378 162.4 327.378 152.622C327.378 146.32 329.768 141.105 334.658 137.084C339.547 133.064 345.958 131 353.889 131C361.603 131 368.34 133.064 374.207 137.084C376.923 138.823 378.227 140.996 378.227 143.604C378.227 147.841 375.402 150.775 371.491 150.775C369.861 150.775 368.123 150.123 366.275 148.71C362.473 145.885 358.235 144.473 353.78 144.473C348.022 144.473 344.436 147.732 344.436 151.318C344.436 155.773 347.587 158.598 358.127 162.618C372.577 168.268 379.857 176.199 379.857 186.412C379.857 192.931 377.358 198.364 372.251 202.71C367.145 207.056 360.517 209.229 352.368 209.229C342.698 209.229 334.44 206.513 327.813 201.08C325.748 199.342 324.662 197.278 324.662 194.996ZM261.925 224.593C262.178 224.056 262.304 223.486 262.304 222.886C262.304 222.285 262.178 221.731 261.925 221.225C261.703 220.688 261.387 220.229 260.976 219.849C260.596 219.47 260.122 219.169 259.553 218.948C259.015 218.727 258.446 218.616 257.845 218.616C257.212 218.616 256.627 218.742 256.09 218.996C255.552 219.217 255.077 219.517 254.666 219.897C254.255 220.276 253.939 220.735 253.718 221.273C253.496 221.779 253.385 222.316 253.385 222.886C253.385 224.056 253.812 225.068 254.666 225.922C255.52 226.744 256.58 227.155 257.845 227.155C258.446 227.155 259.015 227.044 259.553 226.823C260.122 226.602 260.596 226.301 260.976 225.922C261.387 225.542 261.703 225.099 261.925 224.593ZM261.735 230.428H253.955V254.053H261.735V230.428ZM187.417 227.108C188.555 227.614 189.473 228.309 190.168 229.195L195.339 223.739C193.853 222.38 192.113 221.352 190.121 220.656C188.16 219.96 186.231 219.612 184.333 219.612C182.752 219.612 181.186 219.818 179.637 220.229C178.087 220.608 176.695 221.225 175.462 222.079C174.229 222.933 173.232 224.024 172.473 225.352C171.714 226.681 171.335 228.278 171.335 230.144C171.335 231.662 171.572 232.959 172.046 234.034C172.552 235.077 173.201 235.979 173.991 236.738C174.814 237.465 175.731 238.066 176.743 238.541C177.787 239.015 178.846 239.426 179.921 239.774C181.028 240.122 182.009 240.454 182.863 240.77C183.748 241.055 184.476 241.387 185.045 241.766C185.646 242.114 186.104 242.51 186.421 242.952C186.737 243.395 186.895 243.933 186.895 244.565C186.895 245.23 186.768 245.799 186.515 246.273C186.262 246.748 185.915 247.127 185.472 247.412C185.061 247.696 184.57 247.902 184.001 248.028C183.432 248.155 182.847 248.218 182.246 248.218C180.918 248.218 179.573 247.886 178.214 247.222C176.885 246.526 175.81 245.672 174.988 244.66L169.674 250.068C171.161 251.618 173.027 252.82 175.272 253.674C177.518 254.496 179.842 254.907 182.246 254.907C183.89 254.907 185.488 254.686 187.037 254.243C188.587 253.8 189.963 253.12 191.165 252.203C192.366 251.286 193.315 250.132 194.011 248.74C194.738 247.317 195.102 245.641 195.102 243.711C195.102 242.035 194.77 240.644 194.106 239.537C193.442 238.398 192.604 237.449 191.591 236.69C190.579 235.931 189.457 235.33 188.223 234.888C186.99 234.413 185.804 233.986 184.665 233.607C183.875 233.354 183.163 233.117 182.531 232.895C181.898 232.642 181.345 232.373 180.87 232.089C180.427 231.804 180.08 231.472 179.827 231.093C179.605 230.713 179.494 230.239 179.494 229.669C179.494 229.005 179.637 228.468 179.921 228.056C180.238 227.614 180.617 227.266 181.06 227.013C181.503 226.728 181.993 226.538 182.531 226.444C183.1 226.349 183.653 226.301 184.191 226.301C185.235 226.301 186.31 226.57 187.417 227.108ZM224.032 247.412C224.727 245.83 225.075 244.075 225.075 242.146C225.075 240.217 224.727 238.477 224.032 236.928C223.336 235.378 222.387 234.065 221.185 232.99C219.983 231.915 218.592 231.093 217.011 230.523C215.429 229.954 213.737 229.669 211.935 229.669C210.163 229.669 208.471 229.954 206.858 230.523C205.277 231.093 203.886 231.915 202.684 232.99C201.514 234.065 200.581 235.378 199.885 236.928C199.189 238.477 198.841 240.217 198.841 242.146C198.841 244.075 199.189 245.83 199.885 247.412C200.581 248.961 201.514 250.29 202.684 251.397C203.886 252.472 205.277 253.31 206.858 253.911C208.471 254.512 210.163 254.812 211.935 254.812C213.737 254.812 215.429 254.512 217.011 253.911C218.592 253.31 219.983 252.472 221.185 251.397C222.387 250.29 223.336 248.961 224.032 247.412ZM217.2 239.916C217.453 240.644 217.58 241.387 217.58 242.146C217.58 242.905 217.453 243.648 217.2 244.376C216.979 245.103 216.631 245.767 216.157 246.368C215.682 246.937 215.097 247.396 214.401 247.744C213.706 248.092 212.899 248.266 211.982 248.266C211.065 248.266 210.258 248.092 209.563 247.744C208.867 247.396 208.282 246.937 207.807 246.368C207.333 245.767 206.969 245.103 206.716 244.376C206.495 243.648 206.384 242.905 206.384 242.146C206.384 241.387 206.495 240.644 206.716 239.916C206.969 239.189 207.317 238.556 207.76 238.019C208.234 237.449 208.819 236.991 209.515 236.643C210.211 236.295 211.017 236.121 211.935 236.121C212.852 236.121 213.658 236.295 214.354 236.643C215.05 236.991 215.635 237.449 216.109 238.019C216.584 238.556 216.947 239.189 217.2 239.916ZM246.273 238.066C245.83 237.497 245.229 237.038 244.47 236.69C243.711 236.343 242.936 236.169 242.146 236.169C241.323 236.169 240.58 236.343 239.916 236.69C239.252 237.007 238.683 237.449 238.208 238.019C237.734 238.556 237.354 239.189 237.07 239.916C236.817 240.644 236.69 241.419 236.69 242.241C236.69 243.063 236.817 243.838 237.07 244.565C237.323 245.293 237.686 245.941 238.161 246.51C238.667 247.048 239.252 247.475 239.916 247.791C240.612 248.108 241.387 248.266 242.241 248.266C243.031 248.266 243.806 248.123 244.565 247.839C245.356 247.522 245.988 247.08 246.463 246.51L250.78 251.776C249.799 252.725 248.534 253.468 246.984 254.006C245.435 254.543 243.79 254.812 242.051 254.812C240.185 254.812 238.445 254.528 236.832 253.958C235.22 253.389 233.812 252.567 232.61 251.492C231.44 250.385 230.507 249.056 229.811 247.507C229.147 245.957 228.815 244.202 228.815 242.241C228.815 240.312 229.147 238.572 229.811 237.023C230.507 235.473 231.44 234.16 232.61 233.085C233.812 231.978 235.22 231.14 236.832 230.571C238.445 229.97 240.169 229.669 242.003 229.669C242.857 229.669 243.695 229.748 244.518 229.907C245.372 230.065 246.178 230.286 246.937 230.571C247.728 230.824 248.439 231.156 249.072 231.567C249.736 231.946 250.305 232.373 250.78 232.848L246.273 238.066ZM284.169 239.537C284.169 238.303 283.774 237.244 282.983 236.358C282.224 235.473 281.07 235.03 279.52 235.03C278.761 235.03 278.065 235.157 277.432 235.41C276.8 235.631 276.247 235.947 275.772 236.358C275.298 236.769 274.918 237.26 274.634 237.829C274.349 238.367 274.191 238.936 274.159 239.537H284.169ZM291.332 242.525V243.474C291.332 243.791 291.316 244.091 291.285 244.376H274.159C274.222 245.04 274.412 245.641 274.728 246.178C275.076 246.716 275.503 247.19 276.009 247.602C276.547 247.981 277.132 248.281 277.765 248.503C278.429 248.724 279.109 248.835 279.804 248.835C281.038 248.835 282.082 248.614 282.935 248.171C283.789 247.696 284.485 247.095 285.023 246.368L290.431 249.784C289.324 251.397 287.853 252.646 286.019 253.531C284.216 254.385 282.113 254.812 279.71 254.812C277.939 254.812 276.262 254.543 274.681 254.006C273.1 253.437 271.708 252.63 270.506 251.586C269.336 250.511 268.403 249.199 267.707 247.649C267.043 246.099 266.711 244.328 266.711 242.336C266.711 240.407 267.043 238.667 267.707 237.117C268.372 235.536 269.273 234.208 270.411 233.132C271.55 232.026 272.894 231.172 274.444 230.571C275.993 229.97 277.67 229.669 279.472 229.669C281.212 229.669 282.809 229.97 284.264 230.571C285.719 231.14 286.968 231.978 288.012 233.085C289.055 234.192 289.862 235.536 290.431 237.117C291.032 238.699 291.332 240.501 291.332 242.525ZM280.563 226.918H274.681L279.615 220.087H287.49L280.563 226.918ZM305.218 247.791C304.807 247.222 304.601 246.384 304.601 245.277V236.263H310.152V230.428H304.601V224.214H296.963V230.428H293.216V236.263H297.011V246.226C297.011 247.491 297.153 248.645 297.438 249.689C297.723 250.701 298.181 251.586 298.814 252.345C299.478 253.073 300.348 253.642 301.423 254.053C302.498 254.433 303.826 254.623 305.408 254.623C306.23 254.623 307.052 254.543 307.875 254.385C308.697 254.259 309.377 254.101 309.914 253.911L309.82 248.218C309.535 248.345 309.171 248.44 308.728 248.503C308.317 248.566 307.922 248.598 307.542 248.598C306.436 248.598 305.661 248.329 305.218 247.791ZM330.08 239.537C330.08 238.303 329.684 237.244 328.894 236.358C328.135 235.473 326.98 235.03 325.431 235.03C324.671 235.03 323.976 235.157 323.343 235.41C322.711 235.631 322.157 235.947 321.683 236.358C321.208 236.769 320.829 237.26 320.544 237.829C320.26 238.367 320.101 238.936 320.07 239.537H330.08ZM337.243 242.525V243.474C337.243 243.791 337.227 244.091 337.195 244.376H320.07C320.133 245.04 320.323 245.641 320.639 246.178C320.987 246.716 321.414 247.19 321.92 247.602C322.458 247.981 323.043 248.281 323.675 248.503C324.339 248.724 325.019 248.835 325.715 248.835C326.949 248.835 327.992 248.614 328.846 248.171C329.7 247.696 330.396 247.095 330.933 246.368L336.342 249.784C335.235 251.397 333.764 252.646 331.93 253.531C330.127 254.385 328.024 254.812 325.62 254.812C323.849 254.812 322.173 254.543 320.592 254.006C319.01 253.437 317.619 252.63 316.417 251.586C315.247 250.511 314.314 249.199 313.618 247.649C312.954 246.099 312.622 244.328 312.622 242.336C312.622 240.407 312.954 238.667 313.618 237.117C314.282 235.536 315.184 234.208 316.322 233.132C317.461 232.026 318.805 231.172 320.354 230.571C321.904 229.97 323.58 229.669 325.383 229.669C327.122 229.669 328.72 229.97 330.174 230.571C331.629 231.14 332.879 231.978 333.922 233.085C334.966 234.192 335.772 235.536 336.342 237.117C336.942 238.699 337.243 240.501 337.243 242.525ZM326.474 226.918H320.592L325.525 220.087H333.4L326.474 226.918ZM364.08 234.318V227.392H378.169V220.466H356.063V254.053H364.08V241.007H377.078V234.318H364.08ZM396.3 236.785C395.952 236.69 395.604 236.627 395.256 236.596C394.94 236.564 394.624 236.548 394.307 236.548C393.264 236.548 392.378 236.738 391.651 237.117C390.955 237.497 390.386 237.955 389.943 238.493C389.532 239.031 389.231 239.616 389.042 240.248C388.852 240.881 388.757 241.434 388.757 241.909V254.053H380.977V230.428H388.472V233.844H388.567C389.168 232.642 390.022 231.662 391.129 230.903C392.236 230.144 393.517 229.764 394.972 229.764C395.288 229.764 395.588 229.78 395.873 229.812C396.189 229.843 396.442 229.891 396.632 229.954L396.3 236.785ZM411.996 243.759H412.992V244.565C412.992 246.052 412.565 247.238 411.711 248.123C410.889 248.977 409.687 249.404 408.106 249.404C407.726 249.404 407.331 249.373 406.92 249.309C406.508 249.214 406.145 249.072 405.829 248.882C405.512 248.693 405.243 248.44 405.022 248.123C404.832 247.807 404.737 247.428 404.737 246.985C404.737 246.289 404.959 245.736 405.402 245.324C405.844 244.882 406.398 244.55 407.062 244.328C407.758 244.107 408.533 243.964 409.386 243.901C410.272 243.806 411.142 243.759 411.996 243.759ZM403.551 230.666C401.717 231.33 400.104 232.326 398.713 233.654L402.65 237.876C403.377 237.212 404.247 236.643 405.259 236.169C406.303 235.694 407.378 235.457 408.485 235.457C409.687 235.457 410.699 235.742 411.521 236.311C412.344 236.849 412.755 237.702 412.755 238.873V239.252C411.047 239.252 409.292 239.347 407.489 239.537C405.686 239.727 404.042 240.106 402.555 240.675C401.1 241.245 399.899 242.051 398.95 243.095C398.033 244.138 397.574 245.514 397.574 247.222C397.574 248.614 397.843 249.784 398.381 250.733C398.918 251.681 399.598 252.44 400.42 253.01C401.274 253.579 402.207 253.99 403.219 254.243C404.231 254.496 405.212 254.623 406.161 254.623C407.584 254.623 408.896 254.354 410.098 253.816C411.332 253.278 412.249 252.519 412.85 251.539H412.992V254.053H420.108V242.146C420.108 239.995 419.902 238.145 419.491 236.596C419.112 235.014 418.495 233.718 417.641 232.706C416.787 231.662 415.664 230.903 414.273 230.428C412.913 229.922 411.237 229.669 409.244 229.669C407.315 229.669 405.417 230.001 403.551 230.666ZM441.427 241.15C441.427 240.486 441.364 239.853 441.238 239.252C441.143 238.651 440.969 238.129 440.716 237.687C440.463 237.212 440.099 236.849 439.625 236.596C439.182 236.311 438.613 236.169 437.917 236.169C437.221 236.169 436.604 236.311 436.067 236.596C435.561 236.849 435.134 237.212 434.786 237.687C434.438 238.161 434.169 238.715 433.979 239.347C433.821 239.948 433.742 240.58 433.742 241.245V254.053H425.915V230.428H433.458V233.702H433.552C433.837 233.196 434.201 232.706 434.644 232.231C435.118 231.725 435.656 231.298 436.257 230.95C436.889 230.602 437.569 230.318 438.296 230.096C439.024 229.875 439.799 229.764 440.621 229.764C442.202 229.764 443.546 230.049 444.653 230.618C445.76 231.187 446.646 231.931 447.31 232.848C448.006 233.733 448.496 234.761 448.781 235.931C449.097 237.102 449.255 238.272 449.255 239.442V254.053H441.427V241.15ZM471.846 263.067C472.289 262.466 472.51 261.707 472.51 260.79C472.51 259.999 472.352 259.335 472.036 258.797C471.751 258.291 471.372 257.896 470.897 257.611C470.455 257.327 469.933 257.121 469.332 256.995C468.763 256.9 468.193 256.852 467.624 256.852H467.197C467.071 256.852 466.928 256.868 466.77 256.9L468.43 254.765C469.949 254.638 471.356 254.322 472.653 253.816C473.981 253.278 475.072 252.598 475.926 251.776L471.609 246.51C471.135 247.08 470.502 247.522 469.711 247.839C468.952 248.123 468.177 248.266 467.387 248.266C466.533 248.266 465.758 248.108 465.062 247.791C464.398 247.475 463.813 247.048 463.307 246.51C462.833 245.941 462.469 245.293 462.216 244.565C461.963 243.838 461.836 243.063 461.836 242.241C461.836 241.419 461.963 240.644 462.216 239.916C462.501 239.189 462.88 238.556 463.354 238.019C463.829 237.449 464.398 237.007 465.062 236.69C465.726 236.343 466.47 236.169 467.292 236.169C468.083 236.169 468.857 236.343 469.616 236.69C470.375 237.038 470.976 237.497 471.419 238.066L475.926 232.848C475.452 232.373 474.882 231.946 474.218 231.567C473.586 231.156 472.874 230.824 472.083 230.571C471.324 230.286 470.518 230.065 469.664 229.907C468.842 229.748 468.004 229.669 467.15 229.669C465.315 229.669 463.592 229.97 461.979 230.571C460.366 231.14 458.958 231.978 457.757 233.085C456.586 234.16 455.653 235.473 454.958 237.023C454.294 238.572 453.961 240.312 453.961 242.241C453.961 243.98 454.23 245.562 454.768 246.985C455.306 248.376 456.049 249.61 456.998 250.685C457.946 251.729 459.069 252.598 460.366 253.294C461.694 253.958 463.133 254.401 464.683 254.623L461.931 258.275L463.402 259.651C463.687 259.556 464.003 259.477 464.351 259.414C464.699 259.382 465.015 259.366 465.299 259.366C465.774 259.366 466.264 259.446 466.77 259.604C467.276 259.793 467.529 260.173 467.529 260.742C467.529 261.375 467.26 261.786 466.723 261.976C466.185 262.197 465.663 262.308 465.157 262.308C464.525 262.308 463.845 262.229 463.117 262.071C462.421 261.912 461.773 261.691 461.172 261.406L459.891 264.253C460.619 264.601 461.488 264.885 462.501 265.107C463.544 265.328 464.556 265.439 465.537 265.439C466.296 265.439 467.071 265.36 467.861 265.202C468.683 265.075 469.443 264.838 470.138 264.49C470.834 264.142 471.403 263.668 471.846 263.067ZM492.953 243.759H491.957C491.103 243.759 490.233 243.806 489.348 243.901C488.494 243.964 487.719 244.107 487.023 244.328C486.359 244.55 485.806 244.882 485.363 245.324C484.92 245.736 484.699 246.289 484.699 246.985C484.699 247.428 484.794 247.807 484.984 248.123C485.205 248.44 485.474 248.693 485.79 248.882C486.106 249.072 486.47 249.214 486.881 249.309C487.292 249.373 487.688 249.404 488.067 249.404C489.648 249.404 490.85 248.977 491.672 248.123C492.526 247.238 492.953 246.052 492.953 244.565V243.759ZM478.674 233.654C480.066 232.326 481.679 231.33 483.513 230.666C485.379 230.001 487.276 229.669 489.206 229.669C491.198 229.669 492.874 229.922 494.234 230.428C495.626 230.903 496.749 231.662 497.602 232.706C498.456 233.718 499.073 235.014 499.453 236.596C499.864 238.145 500.069 239.995 500.069 242.146V254.053H492.953V251.539H492.811C492.21 252.519 491.293 253.278 490.06 253.816C488.858 254.354 487.545 254.623 486.122 254.623C485.173 254.623 484.193 254.496 483.181 254.243C482.169 253.99 481.236 253.579 480.382 253.01C479.56 252.44 478.88 251.681 478.342 250.733C477.804 249.784 477.536 248.614 477.536 247.222C477.536 245.514 477.994 244.138 478.911 243.095C479.86 242.051 481.062 241.245 482.517 240.675C484.003 240.106 485.648 239.727 487.45 239.537C489.253 239.347 491.008 239.252 492.716 239.252V238.873C492.716 237.702 492.305 236.849 491.483 236.311C490.66 235.742 489.648 235.457 488.447 235.457C487.34 235.457 486.264 235.694 485.221 236.169C484.209 236.643 483.339 237.212 482.612 237.876L478.674 233.654ZM513.941 224.593C514.194 224.056 514.32 223.486 514.32 222.886C514.32 222.285 514.194 221.731 513.941 221.225C513.719 220.688 513.403 220.229 512.992 219.849C512.613 219.47 512.138 219.169 511.569 218.948C511.031 218.727 510.462 218.616 509.861 218.616C509.229 218.616 508.643 218.742 508.106 218.996C507.568 219.217 507.094 219.517 506.683 219.897C506.271 220.276 505.955 220.735 505.734 221.273C505.512 221.779 505.402 222.316 505.402 222.886C505.402 224.056 505.829 225.068 506.683 225.922C507.537 226.744 508.596 227.155 509.861 227.155C510.462 227.155 511.031 227.044 511.569 226.823C512.138 226.602 512.613 226.301 512.992 225.922C513.403 225.542 513.719 225.099 513.941 224.593ZM533.813 237.402C533.181 236.801 532.437 236.295 531.584 235.884C530.73 235.473 529.828 235.267 528.879 235.267C528.152 235.267 527.472 235.41 526.84 235.694C526.239 235.979 525.938 236.469 525.938 237.165C525.938 237.829 526.27 238.303 526.934 238.588C527.63 238.873 528.737 239.189 530.255 239.537C531.141 239.727 532.026 239.995 532.912 240.343C533.829 240.691 534.651 241.15 535.379 241.719C536.106 242.288 536.691 242.984 537.134 243.806C537.577 244.629 537.798 245.609 537.798 246.748C537.798 248.234 537.498 249.499 536.897 250.543C536.296 251.555 535.505 252.377 534.525 253.01C533.576 253.642 532.501 254.101 531.299 254.385C530.097 254.67 528.895 254.812 527.694 254.812C525.764 254.812 523.867 254.512 522.001 253.911C520.166 253.278 518.633 252.361 517.399 251.159L521.764 246.558C522.459 247.317 523.313 247.949 524.325 248.455C525.337 248.961 526.413 249.214 527.551 249.214C528.184 249.214 528.8 249.072 529.401 248.788C530.034 248.471 530.35 247.934 530.35 247.175C530.35 246.447 529.971 245.91 529.212 245.562C528.453 245.214 527.267 244.85 525.654 244.471C524.831 244.281 524.009 244.028 523.187 243.711C522.364 243.395 521.621 242.968 520.957 242.431C520.325 241.893 519.803 241.229 519.392 240.438C518.98 239.647 518.775 238.699 518.775 237.592C518.775 236.169 519.075 234.967 519.676 233.986C520.277 232.974 521.052 232.152 522.001 231.52C522.95 230.887 523.993 230.428 525.132 230.144C526.302 229.828 527.456 229.669 528.595 229.669C530.366 229.669 532.09 229.954 533.766 230.523C535.474 231.061 536.913 231.883 538.083 232.99L533.813 237.402ZM557.375 236.358C558.166 237.244 558.561 238.303 558.561 239.537H548.552C548.583 238.936 548.741 238.367 549.026 237.829C549.311 237.26 549.69 236.769 550.165 236.358C550.639 235.947 551.193 235.631 551.825 235.41C552.458 235.157 553.153 235.03 553.912 235.03C555.462 235.03 556.616 235.473 557.375 236.358ZM505.971 230.428V254.053H513.751V230.428H505.971ZM565.725 243.474V242.525C565.725 240.501 565.424 238.699 564.823 237.117C564.254 235.536 563.448 234.192 562.404 233.085C561.36 231.978 560.111 231.14 558.656 230.571C557.201 229.97 555.604 229.669 553.865 229.669C552.062 229.669 550.386 229.97 548.836 230.571C547.287 231.172 545.943 232.026 544.804 233.132C543.665 234.208 542.764 235.536 542.1 237.117C541.436 238.667 541.104 240.407 541.104 242.336C541.104 244.328 541.436 246.099 542.1 247.649C542.796 249.199 543.729 250.511 544.899 251.586C546.101 252.63 547.492 253.437 549.073 254.006C550.655 254.543 552.331 254.812 554.102 254.812C556.506 254.812 558.609 254.385 560.412 253.531C562.246 252.646 563.716 251.397 564.823 249.784L559.415 246.368C558.878 247.095 558.182 247.696 557.328 248.171C556.474 248.614 555.43 248.835 554.197 248.835C553.501 248.835 552.821 248.724 552.157 248.503C551.525 248.281 550.939 247.981 550.402 247.602C549.896 247.19 549.469 246.716 549.121 246.178C548.805 245.641 548.615 245.04 548.552 244.376H565.677C565.709 244.091 565.725 243.791 565.725 243.474ZM211.449 293.076V259.489H219.608V286.008H232.607V293.076H211.449ZM250.997 289.803V293.076H258.492V269.451H250.712V282.212C250.712 283.572 250.348 284.758 249.621 285.77C248.925 286.782 247.897 287.288 246.537 287.288C245.81 287.288 245.225 287.162 244.782 286.909C244.339 286.624 243.976 286.245 243.691 285.77C243.438 285.296 243.264 284.758 243.169 284.157C243.074 283.557 243.027 282.924 243.027 282.26V269.451H235.199V284.063C235.199 285.264 235.342 286.45 235.626 287.621C235.942 288.759 236.433 289.787 237.097 290.704C237.793 291.59 238.678 292.317 239.753 292.886C240.86 293.456 242.204 293.74 243.786 293.74C244.608 293.74 245.383 293.63 246.11 293.408C246.869 293.187 247.549 292.902 248.15 292.554C248.783 292.206 249.32 291.795 249.763 291.321C250.238 290.846 250.617 290.34 250.902 289.803H250.997ZM273.021 275.286V284.3C273.021 285.407 273.226 286.245 273.637 286.814C274.08 287.352 274.855 287.621 275.962 287.621C276.342 287.621 276.737 287.589 277.148 287.526C277.591 287.462 277.954 287.368 278.239 287.241L278.334 292.934C277.796 293.124 277.116 293.282 276.294 293.408C275.472 293.566 274.65 293.645 273.827 293.645C272.246 293.645 270.918 293.456 269.842 293.076C268.767 292.665 267.897 292.096 267.233 291.368C266.601 290.609 266.142 289.724 265.857 288.712C265.573 287.668 265.43 286.514 265.43 285.249V275.286H261.635V269.451H265.383V263.237H273.021V269.451H278.128H278.571H281.876V263.237H289.513V269.451H295.064V275.286H289.513V284.3C289.513 285.407 289.719 286.245 290.13 286.814C290.573 287.352 291.348 287.621 292.455 287.621C292.834 287.621 293.229 287.589 293.641 287.526C294.083 287.462 294.447 287.368 294.732 287.241L294.827 292.934C294.289 293.124 293.609 293.282 292.787 293.408C291.964 293.566 291.142 293.645 290.32 293.645C288.739 293.645 287.41 293.456 286.335 293.076C285.26 292.665 284.39 292.096 283.726 291.368C283.093 290.609 282.635 289.724 282.35 288.712C282.065 287.668 281.923 286.514 281.923 285.249V275.286H278.571H278.128H273.021ZM314.992 278.56C314.992 277.326 314.596 276.267 313.806 275.381C313.047 274.496 311.892 274.053 310.343 274.053C309.584 274.053 308.888 274.179 308.255 274.432C307.623 274.654 307.069 274.97 306.595 275.381C306.121 275.792 305.741 276.282 305.456 276.852C305.172 277.389 305.014 277.959 304.982 278.56H314.992ZM322.155 281.548V282.497C322.155 282.813 322.139 283.114 322.108 283.398H304.982C305.045 284.063 305.235 284.663 305.551 285.201C305.899 285.739 306.326 286.213 306.832 286.624C307.37 287.004 307.955 287.304 308.587 287.526C309.252 287.747 309.932 287.858 310.627 287.858C311.861 287.858 312.904 287.636 313.758 287.194C314.612 286.719 315.308 286.118 315.846 285.391L321.254 288.807C320.147 290.419 318.676 291.669 316.842 292.554C315.039 293.408 312.936 293.835 310.532 293.835C308.761 293.835 307.085 293.566 305.504 293.029C303.923 292.459 302.531 291.653 301.329 290.609C300.159 289.534 299.226 288.221 298.53 286.672C297.866 285.122 297.534 283.351 297.534 281.359C297.534 279.429 297.866 277.69 298.53 276.14C299.194 274.559 300.096 273.231 301.234 272.155C302.373 271.048 303.717 270.194 305.267 269.594C306.816 268.993 308.492 268.692 310.295 268.692C312.035 268.692 313.632 268.993 315.087 269.594C316.541 270.163 317.791 271.001 318.834 272.108C319.878 273.215 320.684 274.559 321.254 276.14C321.855 277.721 322.155 279.524 322.155 281.548ZM357.097 275.713C357.856 276.061 358.457 276.52 358.9 277.089L363.407 271.871C362.932 271.396 362.363 270.969 361.699 270.59C361.066 270.179 360.355 269.847 359.564 269.594C358.805 269.309 357.998 269.088 357.145 268.929C356.322 268.771 355.484 268.692 354.63 268.692C352.796 268.692 351.072 268.993 349.459 269.594C347.846 270.163 346.439 271.001 345.237 272.108C344.067 273.183 343.134 274.496 342.438 276.045C341.774 277.595 341.442 279.334 341.442 281.264C341.442 283.224 341.774 284.98 342.438 286.529C343.134 288.079 344.067 289.407 345.237 290.514C346.439 291.59 347.846 292.412 349.459 292.981C351.072 293.55 352.812 293.835 354.678 293.835C356.417 293.835 358.062 293.566 359.611 293.029C361.161 292.491 362.426 291.748 363.407 290.799L359.09 285.533C358.615 286.102 357.983 286.545 357.192 286.862C356.433 287.146 355.658 287.288 354.867 287.288C354.014 287.288 353.239 287.13 352.543 286.814C351.879 286.498 351.294 286.071 350.788 285.533C350.313 284.964 349.95 284.316 349.697 283.588C349.444 282.861 349.317 282.086 349.317 281.264C349.317 280.441 349.444 279.667 349.697 278.939C349.981 278.212 350.361 277.579 350.835 277.042C351.31 276.472 351.879 276.029 352.543 275.713C353.207 275.365 353.95 275.191 354.773 275.191C355.563 275.191 356.338 275.365 357.097 275.713ZM391.535 281.169C391.535 283.098 391.187 284.853 390.491 286.435C389.795 287.984 388.847 289.313 387.645 290.419C386.443 291.495 385.051 292.333 383.47 292.934C381.889 293.535 380.197 293.835 378.394 293.835C376.623 293.835 374.931 293.535 373.318 292.934C371.737 292.333 370.345 291.495 369.143 290.419C367.973 289.313 367.04 287.984 366.344 286.435C365.649 284.853 365.301 283.098 365.301 281.169C365.301 279.24 365.649 277.5 366.344 275.95C367.04 274.401 367.973 273.088 369.143 272.013C370.345 270.938 371.737 270.115 373.318 269.546C374.931 268.977 376.623 268.692 378.394 268.692C380.197 268.692 381.889 268.977 383.47 269.546C385.051 270.115 386.443 270.938 387.645 272.013C388.847 273.088 389.795 274.401 390.491 275.95C391.187 277.5 391.535 279.24 391.535 281.169ZM384.039 281.169C384.039 280.41 383.913 279.667 383.66 278.939C383.407 278.212 383.043 277.579 382.569 277.042C382.094 276.472 381.509 276.014 380.814 275.666C380.118 275.318 379.311 275.144 378.394 275.144C377.477 275.144 376.67 275.318 375.975 275.666C375.279 276.014 374.694 276.472 374.219 277.042C373.777 277.579 373.429 278.212 373.176 278.939C372.954 279.667 372.844 280.41 372.844 281.169C372.844 281.928 372.954 282.671 373.176 283.398C373.429 284.126 373.792 284.79 374.267 285.391C374.741 285.96 375.326 286.419 376.022 286.767C376.718 287.115 377.524 287.288 378.442 287.288C379.359 287.288 380.165 287.115 380.861 286.767C381.557 286.419 382.142 285.96 382.616 285.391C383.091 284.79 383.439 284.126 383.66 283.398C383.913 282.671 384.039 281.928 384.039 281.169ZM411.784 278.275C411.91 278.876 411.974 279.508 411.974 280.173V293.076H419.801V278.465C419.801 277.295 419.643 276.124 419.327 274.954C419.042 273.784 418.552 272.756 417.856 271.871C417.192 270.953 416.306 270.21 415.199 269.641C414.092 269.072 412.748 268.787 411.167 268.787C410.345 268.787 409.57 268.898 408.842 269.119C408.115 269.341 407.435 269.625 406.803 269.973C406.202 270.321 405.664 270.748 405.19 271.254C404.747 271.728 404.383 272.219 404.099 272.725H404.004V269.451H396.461V293.076H404.288V280.267C404.288 279.603 404.367 278.971 404.526 278.37C404.715 277.737 404.984 277.184 405.332 276.709C405.68 276.235 406.107 275.871 406.613 275.618C407.15 275.334 407.767 275.191 408.463 275.191C409.159 275.191 409.728 275.334 410.171 275.618C410.645 275.871 411.009 276.235 411.262 276.709C411.515 277.152 411.689 277.674 411.784 278.275ZM434.138 275.286V284.3C434.138 285.407 434.343 286.245 434.754 286.814C435.197 287.352 435.972 287.621 437.079 287.621C437.458 287.621 437.854 287.589 438.265 287.526C438.708 287.462 439.071 287.368 439.356 287.241L439.451 292.934C438.913 293.124 438.233 293.282 437.411 293.408C436.589 293.566 435.766 293.645 434.944 293.645C433.363 293.645 432.035 293.456 430.959 293.076C429.884 292.665 429.014 292.096 428.35 291.368C427.718 290.609 427.259 289.724 426.974 288.712C426.69 287.668 426.547 286.514 426.547 285.249V275.286H422.752V269.451H426.5V263.237H434.138V269.451H439.688V275.286H434.138ZM457.624 275.618C457.972 275.65 458.319 275.713 458.667 275.808L458.999 268.977C458.81 268.914 458.557 268.866 458.24 268.834C457.956 268.803 457.655 268.787 457.339 268.787C455.884 268.787 454.603 269.167 453.496 269.926C452.389 270.685 451.536 271.665 450.935 272.867H450.84V269.451H443.344V293.076H451.124V280.932C451.124 280.457 451.219 279.904 451.409 279.271C451.599 278.639 451.899 278.054 452.31 277.516C452.753 276.978 453.322 276.52 454.018 276.14C454.746 275.761 455.631 275.571 456.675 275.571C456.991 275.571 457.307 275.587 457.624 275.618ZM477.591 278.56C477.591 277.326 477.196 276.267 476.405 275.381C475.646 274.496 474.492 274.053 472.942 274.053C472.183 274.053 471.487 274.179 470.855 274.432C470.222 274.654 469.669 274.97 469.194 275.381C468.72 275.792 468.341 276.282 468.056 276.852C467.771 277.389 467.613 277.959 467.581 278.56H477.591ZM484.755 281.548V282.497C484.755 282.813 484.739 283.114 484.707 283.398H467.581C467.645 284.063 467.834 284.663 468.151 285.201C468.499 285.739 468.926 286.213 469.432 286.624C469.969 287.004 470.554 287.304 471.187 287.526C471.851 287.747 472.531 287.858 473.227 287.858C474.46 287.858 475.504 287.636 476.358 287.194C477.212 286.719 477.907 286.118 478.445 285.391L483.853 288.807C482.746 290.419 481.276 291.669 479.441 292.554C477.639 293.408 475.535 293.835 473.132 293.835C471.361 293.835 469.685 293.566 468.103 293.029C466.522 292.459 465.13 291.653 463.929 290.609C462.758 289.534 461.825 288.221 461.13 286.672C460.466 285.122 460.133 283.351 460.133 281.359C460.133 279.429 460.466 277.69 461.13 276.14C461.794 274.559 462.695 273.231 463.834 272.155C464.972 271.048 466.316 270.194 467.866 269.594C469.416 268.993 471.092 268.692 472.895 268.692C474.634 268.692 476.231 268.993 477.686 269.594C479.141 270.163 480.39 271.001 481.434 272.108C482.477 273.215 483.284 274.559 483.853 276.14C484.454 277.721 484.755 279.524 484.755 281.548ZM509.409 257.212H501.534V293.076H509.409V257.212ZM531.841 278.56C531.841 277.326 531.445 276.267 530.655 275.381C529.896 274.496 528.741 274.053 527.192 274.053C526.433 274.053 525.737 274.179 525.104 274.432C524.472 274.654 523.918 274.97 523.444 275.381C522.97 275.792 522.59 276.282 522.306 276.852C522.021 277.389 521.863 277.959 521.831 278.56H531.841ZM539.004 281.548V282.497C539.004 282.813 538.988 283.114 538.957 283.398H521.831C521.894 284.063 522.084 284.663 522.4 285.201C522.748 285.739 523.175 286.213 523.681 286.624C524.219 287.004 524.804 287.304 525.436 287.526C526.101 287.747 526.781 287.858 527.476 287.858C528.71 287.858 529.753 287.636 530.607 287.194C531.461 286.719 532.157 286.118 532.695 285.391L538.103 288.807C536.996 290.419 535.525 291.669 533.691 292.554C531.888 293.408 529.785 293.835 527.382 293.835C525.61 293.835 523.934 293.566 522.353 293.029C520.772 292.459 519.38 291.653 518.178 290.609C517.008 289.534 516.075 288.221 515.379 286.672C514.715 285.122 514.383 283.351 514.383 281.359C514.383 279.429 514.715 277.69 515.379 276.14C516.043 274.559 516.945 273.231 518.083 272.155C519.222 271.048 520.566 270.194 522.116 269.594C523.665 268.993 525.342 268.692 527.144 268.692C528.884 268.692 530.481 268.993 531.936 269.594C533.391 270.163 534.64 271.001 535.683 272.108C536.727 273.215 537.534 274.559 538.103 276.14C538.704 277.721 539.004 279.524 539.004 281.548ZM571.107 266.13C572.245 266.636 573.162 267.332 573.858 268.218L579.029 262.762C577.543 261.402 575.803 260.374 573.811 259.679C571.85 258.983 569.921 258.635 568.023 258.635C566.442 258.635 564.876 258.841 563.327 259.252C561.777 259.631 560.385 260.248 559.152 261.102C557.918 261.956 556.922 263.047 556.163 264.375C555.404 265.704 555.025 267.301 555.025 269.167C555.025 270.685 555.262 271.981 555.736 273.057C556.242 274.1 556.891 275.002 557.681 275.761C558.504 276.488 559.421 277.089 560.433 277.563C561.476 278.038 562.536 278.449 563.611 278.797C564.718 279.145 565.699 279.477 566.552 279.793C567.438 280.078 568.165 280.41 568.735 280.789C569.336 281.137 569.794 281.532 570.11 281.975C570.427 282.418 570.585 282.956 570.585 283.588C570.585 284.252 570.458 284.822 570.205 285.296C569.952 285.77 569.604 286.15 569.162 286.435C568.75 286.719 568.26 286.925 567.691 287.051C567.122 287.178 566.537 287.241 565.936 287.241C564.607 287.241 563.263 286.909 561.903 286.245C560.575 285.549 559.5 284.695 558.677 283.683L553.364 289.091C554.851 290.641 556.717 291.843 558.962 292.697C561.208 293.519 563.532 293.93 565.936 293.93C567.58 293.93 569.177 293.709 570.727 293.266C572.277 292.823 573.653 292.143 574.854 291.226C576.056 290.309 577.005 289.154 577.701 287.763C578.428 286.34 578.792 284.663 578.792 282.734C578.792 281.058 578.46 279.667 577.796 278.56C577.131 277.421 576.293 276.472 575.281 275.713C574.269 274.954 573.147 274.353 571.913 273.911C570.68 273.436 569.494 273.009 568.355 272.63C567.564 272.377 566.853 272.139 566.22 271.918C565.588 271.665 565.034 271.396 564.56 271.112C564.117 270.827 563.769 270.495 563.516 270.115C563.295 269.736 563.184 269.261 563.184 268.692C563.184 268.028 563.327 267.49 563.611 267.079C563.927 266.636 564.307 266.289 564.75 266.036C565.193 265.751 565.683 265.561 566.22 265.466C566.79 265.371 567.343 265.324 567.881 265.324C568.924 265.324 570 265.593 571.107 266.13ZM584.144 293.076V259.489H592.304V293.076H584.144ZM628.944 283.825C630.051 281.675 630.604 279.129 630.604 276.188C630.604 273.025 630.051 270.368 628.944 268.218C627.837 266.067 626.382 264.359 624.579 263.094C622.777 261.798 620.721 260.88 618.412 260.343C616.104 259.774 613.763 259.489 611.391 259.489H599.247V293.076H611.771C614.08 293.076 616.357 292.76 618.602 292.127C620.848 291.463 622.856 290.451 624.627 289.091C626.43 287.7 627.869 285.944 628.944 283.825ZM621.211 271.491C621.844 272.725 622.16 274.29 622.16 276.188C622.16 278.054 621.844 279.619 621.211 280.884C620.61 282.149 619.788 283.161 618.744 283.92C617.732 284.679 616.546 285.233 615.186 285.581C613.858 285.897 612.467 286.055 611.012 286.055H607.169V266.415H611.201C612.593 266.415 613.937 266.573 615.234 266.889C616.562 267.206 617.732 267.743 618.744 268.502C619.788 269.23 620.61 270.226 621.211 271.491ZM657.597 293.076L654.988 286.482H641.99L639.523 293.076H630.699L644.789 259.489H652.664L666.611 293.076H657.597ZM648.584 268.455L644.314 279.983H652.758L648.584 268.455ZM179.761 291.485V293.076H183.458V274.566H179.442V282.18H179.393C179.051 281.772 178.569 281.397 177.949 281.054C177.329 280.711 176.57 280.54 175.672 280.54C174.79 280.54 173.99 280.711 173.272 281.054C172.57 281.397 171.966 281.862 171.46 282.45C170.971 283.037 170.587 283.723 170.31 284.506C170.048 285.274 169.918 286.082 169.918 286.93C169.918 287.779 170.048 288.595 170.31 289.379C170.571 290.162 170.946 290.856 171.436 291.46C171.942 292.048 172.554 292.521 173.272 292.88C173.99 293.239 174.807 293.419 175.721 293.419C176.537 293.419 177.304 293.256 178.022 292.929C178.757 292.586 179.32 292.105 179.712 291.485H179.761ZM179.393 285.804C179.54 286.18 179.614 286.563 179.614 286.955C179.614 287.347 179.54 287.73 179.393 288.106C179.263 288.481 179.067 288.816 178.806 289.11C178.561 289.403 178.259 289.64 177.9 289.82C177.541 289.999 177.133 290.089 176.676 290.089C176.202 290.089 175.786 289.999 175.427 289.82C175.068 289.64 174.766 289.403 174.521 289.11C174.276 288.816 174.088 288.481 173.958 288.106C173.844 287.714 173.786 287.322 173.786 286.93C173.786 286.539 173.844 286.155 173.958 285.78C174.088 285.404 174.276 285.078 174.521 284.8C174.766 284.506 175.068 284.27 175.427 284.09C175.786 283.911 176.202 283.821 176.676 283.821C177.133 283.821 177.541 283.911 177.9 284.09C178.259 284.27 178.561 284.506 178.806 284.8C179.067 285.094 179.263 285.429 179.393 285.804ZM195.044 285.584C195.044 284.947 194.84 284.4 194.432 283.943C194.04 283.486 193.445 283.258 192.645 283.258C192.253 283.258 191.894 283.323 191.567 283.454C191.241 283.568 190.955 283.731 190.71 283.943C190.466 284.155 190.27 284.408 190.123 284.702C189.976 284.98 189.894 285.274 189.878 285.584H195.044ZM198.741 287.126V287.616C198.741 287.779 198.733 287.934 198.717 288.081H189.878C189.911 288.424 190.009 288.734 190.172 289.012C190.351 289.289 190.572 289.534 190.833 289.746C191.11 289.942 191.412 290.097 191.739 290.211C192.082 290.326 192.433 290.383 192.792 290.383C193.428 290.383 193.967 290.268 194.408 290.04C194.848 289.795 195.207 289.485 195.485 289.11L198.276 290.872C197.705 291.705 196.946 292.35 195.999 292.807C195.069 293.247 193.983 293.468 192.743 293.468C191.829 293.468 190.963 293.329 190.147 293.052C189.331 292.758 188.613 292.342 187.993 291.803C187.389 291.248 186.907 290.57 186.548 289.771C186.205 288.971 186.034 288.057 186.034 287.028C186.034 286.033 186.205 285.135 186.548 284.335C186.891 283.519 187.356 282.833 187.944 282.278C188.531 281.707 189.225 281.266 190.025 280.956C190.825 280.646 191.69 280.491 192.62 280.491C193.518 280.491 194.342 280.646 195.093 280.956C195.844 281.25 196.489 281.682 197.028 282.254C197.566 282.825 197.982 283.519 198.276 284.335C198.586 285.151 198.741 286.082 198.741 287.126ZM77.5266 216.559C68.9569 229.108 43.6048 243.977 32 249.843L42.7121 254.434L40.4167 266.294C68.5743 255.582 89.3865 232.245 96.2728 221.915C105.072 228.801 123.053 238.366 142.947 238.748C158.862 239.055 159.781 232.245 159.781 229.184C159.781 225.358 155.955 221.915 141.417 221.915C123.969 221.915 110.031 211.075 105.242 205.847C110.197 196.347 114.468 185.18 114.637 175.241C115.019 152.669 97.8032 149.608 90.5342 149.608C83.2652 149.608 70.2576 156.112 69.8751 173.328C69.569 187.101 78.9294 202.021 83.6478 207.76L77.5266 216.559ZM87.4736 174.857C87.4736 181.285 90.7892 187.482 92.4471 189.778C93.7223 187.483 96.3494 181.285 96.6554 174.857C96.9615 168.429 93.9774 167.078 92.4471 167.206C90.7892 167.078 87.4736 168.43 87.4736 174.857Z" fill="black"></path>
</svg>
