<?xml version="1.0" encoding="UTF-8"?>
<svg xmlns="http://www.w3.org/2000/svg" width="700" height="440" viewBox="0 0 700 440" fill="none">
  <path fill-rule="evenodd" clip-rule="evenodd" d="M547.006 123.342V110.218C565.022 109.563 574.019 106.982 587.002 100.219L595.751 110.218C578.263 120.745 567.398 122.605 547.006 123.342ZM602.002 131.466V145.214H562.005V172.713H597V185.212L562.005 185.212V213.957H602.002V227.706H562.005V227.707H545.757V131.466L547.006 131.466L562.005 131.466H602.002ZM312.026 132.714H295.778V227.706H312.026V185.212L355.774 185.212V227.706H372.023V132.714H355.774V172.713H312.026V132.714ZM388.268 132.714H404.517V193.959H388.268V132.714ZM462.014 132.714H445.765V193.959H462.014V132.714ZM513.259 132.714H529.508V197.709H513.259V132.714ZM179.536 210.211H154.539V235.209H179.536V210.211ZM207.035 157.714L154.54 157.714V182.712H207.035V235.207C207.034 252.704 197.035 263.951 176.413 263.951V288.949C211.275 287.126 230.847 271.196 232.033 235.207V235.206L232.033 235.204V182.712L232.033 157.714H207.035ZM124.544 235.207H99.5461V265.202H99.5434L99.5434 290.199H99.5461V290.202H124.544V290.199H154.539V265.202H124.544V235.207ZM232.033 132.714H257.031V157.712H232.033V132.714ZM154.54 182.712C133.917 182.712 123.918 193.961 123.918 211.459H98.9199C100.105 175.468 119.677 159.537 154.54 157.714V182.712ZM445.763 193.96C445.763 219.582 404.517 218.957 404.517 193.96H388.268C388.268 217.083 405.734 228.332 425.765 228.332C445.763 228.332 462.012 217.083 462.012 193.96H445.763ZM488.261 197.709C488.261 219.582 513.259 219.582 513.259 197.709H529.507C529.507 218.73 517.602 228.957 502.01 228.957C486.393 228.957 473.262 218.73 473.262 197.709H488.261ZM415.982 287.445C417.331 284.791 418.006 281.62 418.006 277.932C418.006 274.244 417.331 271.079 415.982 268.436C414.632 265.782 412.783 263.747 410.433 262.33C408.094 260.902 405.435 260.188 402.455 260.188C399.464 260.188 396.793 260.902 394.443 262.33C392.105 263.747 390.26 265.782 388.911 268.436C387.562 271.079 386.887 274.244 386.887 277.932C386.887 281.609 387.562 284.774 388.911 287.428C390.26 290.081 392.105 292.122 394.443 293.55C396.793 294.967 399.464 295.675 402.455 295.675C405.435 295.675 408.094 294.967 410.433 293.55C412.783 292.122 414.632 290.087 415.982 287.445ZM411.478 270.831C412.389 272.754 412.845 275.121 412.845 277.932C412.845 280.743 412.389 283.116 411.478 285.05C410.579 286.972 409.342 288.434 407.768 289.435C406.205 290.424 404.434 290.919 402.455 290.919C400.465 290.919 398.688 290.424 397.125 289.435C395.562 288.434 394.325 286.972 393.414 285.05C392.515 283.116 392.065 280.743 392.065 277.932C392.065 275.121 392.515 272.754 393.414 270.831C394.325 268.897 395.562 267.435 397.125 266.446C398.688 265.445 400.465 264.945 402.455 264.945C404.434 264.945 406.205 265.445 407.768 266.446C409.342 267.435 410.579 268.897 411.478 270.831ZM301.242 295.203H295.71L308.14 260.661H314.162L326.592 295.203H321.06L317.902 286.062H304.406L301.242 295.203ZM311.294 266.935L316.387 281.676H305.923L311.025 266.935H311.294ZM345.23 260.661L354.844 288.794H355.232L364.846 260.661H370.48L358.049 295.203H352.028L339.597 260.661H345.23ZM467.442 271.894H462.18C461.977 270.769 461.601 269.78 461.05 268.925C460.499 268.071 459.824 267.345 459.026 266.749C458.227 266.154 457.333 265.704 456.344 265.4C455.366 265.097 454.326 264.945 453.224 264.945C451.233 264.945 449.451 265.445 447.877 266.446C446.314 267.447 445.077 268.914 444.166 270.848C443.267 272.782 442.817 275.143 442.817 277.932C442.817 280.743 443.267 283.116 444.166 285.05C445.077 286.984 446.32 288.445 447.894 289.435C449.468 290.424 451.239 290.919 453.207 290.919C454.298 290.919 455.332 290.773 456.31 290.481C457.3 290.177 458.194 289.733 458.992 289.148C459.79 288.563 460.465 287.849 461.016 287.006C461.578 286.152 461.966 285.173 462.18 284.071L467.442 284.088C467.161 285.786 466.616 287.349 465.806 288.777C465.008 290.194 463.979 291.419 462.719 292.454C461.471 293.477 460.043 294.27 458.435 294.832C456.827 295.394 455.073 295.675 453.173 295.675C450.182 295.675 447.517 294.967 445.178 293.55C442.84 292.122 440.996 290.081 439.646 287.428C438.308 284.774 437.639 281.609 437.639 277.932C437.639 274.244 438.314 271.079 439.663 268.436C441.012 265.782 442.856 263.747 445.195 262.33C447.534 260.902 450.193 260.188 453.173 260.188C455.006 260.188 456.715 260.453 458.3 260.981C459.897 261.498 461.331 262.263 462.601 263.275C463.872 264.276 464.923 265.501 465.755 266.952C466.588 268.391 467.15 270.038 467.442 271.894ZM485.081 295.203H490.613L493.777 286.062H507.273L510.431 295.203H515.963L503.533 260.661H497.512L485.081 295.203ZM505.758 281.676L500.666 266.935H500.396L495.294 281.676H505.758ZM529.415 265.147V260.661H556.149V265.147H545.371V295.203H540.176V265.147H529.415ZM592.918 266.024C594.223 266.901 594.965 268.138 595.145 269.735H600.171C600.126 267.88 599.586 266.238 598.552 264.81C597.517 263.371 596.1 262.241 594.301 261.42C592.513 260.599 590.45 260.188 588.111 260.188C585.795 260.188 583.715 260.605 581.871 261.437C580.027 262.257 578.565 263.41 577.485 264.894C576.406 266.378 575.866 268.116 575.866 270.106C575.866 272.512 576.67 274.446 578.278 275.908C579.897 277.37 582.09 278.477 584.856 279.231L588.938 280.344C590.175 280.67 591.282 281.047 592.26 281.474C593.25 281.901 594.031 282.441 594.605 283.093C595.19 283.745 595.482 284.583 595.482 285.606C595.482 286.731 595.15 287.714 594.487 288.558C593.823 289.39 592.913 290.042 591.754 290.514C590.607 290.975 589.298 291.206 587.825 291.206C586.486 291.206 585.255 291.009 584.131 290.615C583.018 290.211 582.101 289.598 581.382 288.777C580.673 287.945 580.268 286.905 580.167 285.657H574.939C575.051 287.737 575.641 289.536 576.71 291.054C577.778 292.561 579.256 293.725 581.145 294.545C583.034 295.366 585.272 295.777 587.858 295.777C590.557 295.777 592.856 295.338 594.757 294.461C596.668 293.584 598.124 292.386 599.125 290.868C600.137 289.351 600.643 287.613 600.643 285.657C600.643 284.105 600.334 282.773 599.715 281.659C599.108 280.546 598.31 279.613 597.32 278.86C596.331 278.106 595.257 277.499 594.099 277.038C592.941 276.577 591.811 276.212 590.709 275.942L587.335 275.065C586.661 274.896 585.958 274.682 585.227 274.424C584.496 274.154 583.81 273.822 583.169 273.429C582.54 273.024 582.028 272.523 581.635 271.927C581.252 271.332 581.061 270.623 581.061 269.802C581.061 268.824 581.342 267.953 581.904 267.188C582.478 266.412 583.282 265.805 584.316 265.366C585.351 264.917 586.576 264.692 587.993 264.692C589.972 264.692 591.614 265.136 592.918 266.024Z" fill="black"></path>
</svg>
