<?xml version="1.0" encoding="UTF-8"?>
<svg xmlns="http://www.w3.org/2000/svg" width="700" height="440" viewBox="0 0 700 440" fill="none">
  <path d="M357.416 39.9406L357.322 39.9064C355.947 39.4058 354.426 40.1149 353.926 41.4902L324.806 121.496C324.306 122.871 325.015 124.392 326.39 124.892L326.484 124.926C327.859 125.427 329.38 124.718 329.88 123.343L359 43.3371C359.501 41.9618 358.791 40.4411 357.416 39.9406Z" fill="black"></path>
  <path d="M291.533 61.5938H291.473C290.319 61.5938 289.383 62.5295 289.383 63.6838V114.784C289.383 115.938 290.319 116.874 291.473 116.874H291.533C292.687 116.874 293.623 115.938 293.623 114.784V63.6838C293.623 62.5295 292.687 61.5938 291.533 61.5938Z" fill="black"></path>
  <path d="M265.261 71.1427L265.005 71.1879C264.309 71.3106 263.844 71.9745 263.966 72.6707L271.965 118.031C272.087 118.727 272.751 119.192 273.447 119.069L273.704 119.024C274.4 118.901 274.865 118.237 274.742 117.541L266.744 72.181C266.621 71.4848 265.957 71.02 265.261 71.1427Z" fill="black"></path>
  <path d="M209.138 77.9928L208.982 78.0828C208.336 78.4556 208.115 79.2813 208.488 79.9269L237.928 130.919C238.3 131.564 239.126 131.785 239.772 131.413L239.928 131.323C240.573 130.95 240.794 130.124 240.422 129.479L210.982 78.4869C210.609 77.8413 209.783 77.62 209.138 77.9928Z" fill="black"></path>
  <path d="M316.3 81.1824L315.984 81.1268C314.951 80.9446 313.966 81.6346 313.783 82.668L307.647 117.471C307.464 118.505 308.154 119.49 309.188 119.672L309.503 119.728C310.536 119.91 311.522 119.22 311.704 118.187L317.841 83.3834C318.023 82.35 317.333 81.3646 316.3 81.1824Z" fill="black"></path>
  <path d="M244.581 91.6667L244.45 91.7145C243.744 91.9714 243.38 92.7519 243.637 93.4577L254.363 122.926C254.62 123.632 255.4 123.996 256.106 123.739L256.237 123.691C256.943 123.434 257.307 122.654 257.05 121.948L246.325 92.4795C246.068 91.7737 245.287 91.4098 244.581 91.6667Z" fill="black"></path>
  <path d="M363.362 96.6312L363.154 96.5112C362.217 95.97 361.018 96.2912 360.477 97.2287L342.107 129.046C341.566 129.984 341.887 131.183 342.824 131.724L343.032 131.844C343.97 132.385 345.168 132.064 345.71 131.126L364.08 99.3087C364.621 98.3712 364.3 97.1725 363.362 96.6312Z" fill="black"></path>
  <path d="M391.2 102.297L390.955 102.091C390.409 101.633 389.596 101.704 389.138 102.25L372.669 121.876C372.211 122.422 372.283 123.235 372.828 123.693L373.074 123.899C373.619 124.357 374.433 124.286 374.891 123.74L391.359 104.114C391.817 103.568 391.746 102.755 391.2 102.297Z" fill="black"></path>
  <path d="M196.673 106.675L196.657 106.688C196.046 107.188 195.956 108.089 196.457 108.7L223.185 141.356C223.685 141.968 224.586 142.057 225.198 141.557L225.213 141.545C225.824 141.044 225.914 140.143 225.414 139.532L198.685 106.876C198.185 106.265 197.284 106.175 196.673 106.675Z" fill="black"></path>
  <path d="M211.053 152.264L171.418 119.006C171.079 118.722 170.574 118.767 170.29 119.105L170.278 119.12C169.994 119.459 170.038 119.963 170.376 120.247L210.011 153.505C210.35 153.789 210.854 153.745 211.138 153.407L211.151 153.391C211.435 153.053 211.391 152.548 211.053 152.264Z" fill="black"></path>
  <path d="M364.873 133.579L364.751 133.476C364.172 132.989 363.308 133.063 362.821 133.642L357.848 139.547C357.361 140.126 357.435 140.99 358.014 141.477L358.136 141.58C358.715 142.068 359.579 141.994 360.066 141.415L365.039 135.51C365.526 134.931 365.452 134.067 364.873 133.579Z" fill="black"></path>
  <path d="M386.29 140.263L371.414 152.746C371.08 153.027 371.036 153.525 371.316 153.859L371.342 153.89C371.623 154.224 372.121 154.268 372.455 153.987L387.332 141.504C387.666 141.224 387.709 140.725 387.429 140.391L387.403 140.361C387.123 140.026 386.625 139.983 386.29 140.263Z" fill="black"></path>
  <path d="M496.043 142.516H490.243C484.472 142.516 479.793 147.194 479.793 152.966V154.766C479.793 160.537 484.472 165.216 490.243 165.216H496.043C501.814 165.216 506.493 160.537 506.493 154.766V152.966C506.493 147.194 501.814 142.516 496.043 142.516Z" fill="black"></path>
  <path d="M418.226 146.759L381.142 168.169C380.769 168.384 380.641 168.861 380.857 169.234L380.877 169.269C381.092 169.642 381.569 169.77 381.942 169.554L419.026 148.144C419.399 147.929 419.526 147.452 419.311 147.079L419.291 147.044C419.076 146.671 418.599 146.543 418.226 146.759Z" fill="black"></path>
  <path d="M200.119 167.144L170.778 150.204C170.4 149.985 169.917 150.115 169.699 150.493L169.679 150.527C169.461 150.905 169.59 151.388 169.968 151.607L199.309 168.547C199.687 168.765 200.17 168.635 200.388 168.257L200.408 168.223C200.626 167.845 200.497 167.362 200.119 167.144Z" fill="black"></path>
  <path d="M139.194 229.888C143.014 246.908 161.704 250.758 175.294 242.868C181.514 239.248 188.074 239.488 191.584 246.448C195.764 254.738 188.154 260.238 181.514 263.078C154.024 274.858 121.524 262.748 114.354 232.118C106.714 199.498 132.384 167.288 166.934 174.078C193.254 179.258 204.154 204.228 201.574 228.748C201.527 229.155 201.3 229.358 200.894 229.358H139.624C139.257 229.358 139.114 229.535 139.194 229.888ZM138.954 213.188L176.504 213.128C176.527 213.128 176.55 213.118 176.567 213.102C176.584 213.085 176.594 213.062 176.594 213.038C176.59 210.556 176.098 208.1 175.146 205.809C174.193 203.518 172.8 201.437 171.045 199.686C169.29 197.934 167.207 196.547 164.916 195.601C162.626 194.656 160.171 194.173 157.694 194.178C152.693 194.189 147.902 196.188 144.373 199.735C140.844 203.283 138.866 208.09 138.874 213.098V213.108C138.876 213.128 138.885 213.148 138.899 213.162C138.914 213.177 138.933 213.186 138.954 213.188Z" fill="black"></path>
  <path d="M406.503 229.835C410.123 245.105 424.883 249.815 438.513 244.895C444.993 242.555 449.273 237.105 456.273 243.025C460.843 246.895 461.573 253.685 457.213 257.945C455.319 259.792 452.243 261.585 447.983 263.325C413.393 277.465 375.893 253.825 380.883 214.355C384.203 188.055 405.283 170.275 432.063 173.765C459.923 177.385 471.063 203.055 469.003 228.555C468.988 228.772 468.89 228.976 468.731 229.125C468.571 229.273 468.361 229.355 468.143 229.355H406.883C406.556 229.355 406.429 229.515 406.503 229.835ZM444.003 212.425C440.073 187.795 409.273 188.255 406.153 212.565C406.106 212.925 406.263 213.105 406.623 213.105H443.423C443.883 213.105 444.076 212.878 444.003 212.425Z" fill="black"></path>
  <path d="M254.564 173.685C272.524 174.045 288.864 186.794 293.394 204.284C294.327 207.898 294.814 214.528 294.854 224.175C294.907 237.735 294.904 251.301 294.844 264.875C294.844 265.195 294.684 265.354 294.364 265.354H268.894C268.829 265.354 268.766 265.342 268.706 265.317C268.647 265.293 268.593 265.256 268.547 265.211C268.502 265.165 268.466 265.111 268.441 265.052C268.416 264.993 268.404 264.929 268.404 264.864C268.35 249.944 268.34 235.064 268.374 220.224C268.387 215.271 268.09 211.901 267.484 210.114C263.264 197.644 245.894 196.764 240.274 208.584C239.334 210.558 238.867 213.645 238.874 217.845C238.887 233.518 238.884 249.188 238.864 264.854C238.864 265.188 238.697 265.354 238.364 265.354H212.894C212.758 265.354 212.629 265.301 212.533 265.205C212.437 265.109 212.384 264.98 212.384 264.845C212.364 249.291 212.35 233.775 212.344 218.295C212.344 212.815 212.77 208.421 213.624 205.114C218.544 186.014 234.954 173.295 254.564 173.685Z" fill="black"></path>
  <path d="M321.573 241.596C328.113 244.866 345.313 250.976 351.093 244.156C355.413 239.066 349.093 234.486 344.883 233.306C339.329 231.753 332.733 229.61 325.093 226.876C299.753 217.806 301.193 185.036 325.663 176.086C336.493 172.126 348.773 173.436 359.613 177.136C363.506 178.47 366.239 180.076 367.813 181.956C374.833 190.346 365.623 201.446 355.143 197.526C349.573 195.436 336.213 190.406 331.303 196.496C328.223 200.306 331.423 203.946 335.273 205.696C351.253 212.916 375.413 215.006 375.653 238.316C375.803 253.756 365.883 263.406 351.293 266.036C338.659 268.316 326.173 266.503 313.833 260.596C298.683 253.326 308.623 235.126 321.573 241.596Z" fill="black"></path>
  <path d="M560.003 246.035C567.333 243.025 564.583 236.555 558.713 234.275C547.043 229.755 528.953 227.395 521.973 215.055C517.133 206.515 517.973 195.005 523.353 186.765C533.823 170.755 557.713 171.895 573.203 177.765C576.076 178.851 578.139 180.088 579.393 181.475C585.183 187.875 580.673 198.065 572.133 198.595C569.353 198.765 566.353 197.385 563.683 196.315C558.663 194.315 551.883 192.605 546.983 194.245C537.373 197.465 543.493 204.695 549.433 206.815C564.393 212.145 586.243 216.455 587.643 236.405C588.463 248.235 582.583 258.965 571.603 263.565C557.183 269.595 540.953 267.475 526.813 261.155C523.263 259.575 520.513 258.115 518.923 254.475C515.043 245.575 524.433 236.955 533.433 241.525C540.443 245.075 552.173 249.245 560.003 246.035Z" fill="black"></path>
  <path d="M480.874 265.366C480.733 265.366 480.598 265.311 480.499 265.211C480.4 265.112 480.344 264.977 480.344 264.836V187.976C480.344 184.552 481.685 181.269 484.072 178.848C486.46 176.427 489.698 175.066 493.074 175.066H493.414C496.79 175.066 500.028 176.427 502.415 178.848C504.803 181.269 506.144 184.552 506.144 187.976V264.836C506.144 264.977 506.088 265.112 505.989 265.211C505.889 265.311 505.754 265.366 505.614 265.366H480.874Z" fill="black"></path>
  <path d="M133.343 300.463C133.364 300.472 133.383 300.486 133.398 300.503C133.413 300.521 133.423 300.541 133.429 300.563C133.435 300.586 133.436 300.609 133.431 300.631C133.426 300.654 133.417 300.675 133.403 300.693C131.689 303.093 129.366 304.15 126.433 303.863C126.352 303.856 126.274 303.827 126.208 303.779C126.143 303.731 126.091 303.666 126.059 303.591C126.027 303.516 126.017 303.434 126.028 303.353C126.039 303.273 126.072 303.197 126.123 303.133L129.193 299.223C129.399 298.963 129.656 298.897 129.963 299.023L133.343 300.463Z" fill="black"></path>
  <path d="M546.044 304.486C546.504 304.7 546.61 305.026 546.364 305.466C544.957 307.96 542.84 309.103 540.014 308.896C539.933 308.891 539.855 308.864 539.787 308.819C539.72 308.773 539.666 308.711 539.629 308.638C539.593 308.564 539.576 308.482 539.581 308.4C539.585 308.317 539.61 308.237 539.654 308.166L542.584 303.616C542.679 303.469 542.824 303.361 542.991 303.311C543.158 303.261 543.336 303.274 543.494 303.346L546.044 304.486Z" fill="black"></path>
  <path d="M177.475 304.344H173.775C173.416 304.344 173.125 304.635 173.125 304.994V326.194C173.125 326.553 173.416 326.844 173.775 326.844H177.475C177.834 326.844 178.125 326.553 178.125 326.194V304.994C178.125 304.635 177.834 304.344 177.475 304.344Z" fill="black"></path>
  <path d="M263.011 304.334L258.952 304.377C258.62 304.38 258.354 304.651 258.358 304.983L258.392 308.283C258.396 308.614 258.667 308.88 258.999 308.876L263.058 308.834C263.39 308.83 263.656 308.559 263.652 308.228L263.618 304.928C263.614 304.596 263.343 304.331 263.011 304.334Z" fill="black"></path>
  <path d="M324.795 304.355H321.215C320.889 304.355 320.625 304.62 320.625 304.945V326.265C320.625 326.591 320.889 326.855 321.215 326.855H324.795C325.121 326.855 325.385 326.591 325.385 326.265V304.945C325.385 304.62 325.121 304.355 324.795 304.355Z" fill="black"></path>
  <path d="M365.283 325.755C362.336 327.669 359.643 327.842 357.203 326.275C348.213 320.495 356.393 304.565 365.253 311.645C365.666 311.979 365.873 311.879 365.873 311.345V304.985C365.873 304.565 366.08 304.355 366.493 304.355H370.123C370.623 304.355 370.873 304.605 370.873 305.105V326.105C370.873 326.605 370.623 326.855 370.123 326.855H366.783C366.645 326.855 366.51 326.819 366.391 326.751C366.272 326.682 366.173 326.584 366.103 326.465L365.743 325.855C365.63 325.662 365.476 325.629 365.283 325.755ZM362.069 323.085C363.082 323.098 364.059 322.644 364.786 321.824C365.512 321.004 365.928 319.884 365.943 318.712C365.95 318.132 365.858 317.556 365.673 317.017C365.487 316.479 365.212 315.988 364.862 315.573C364.512 315.159 364.095 314.828 363.635 314.6C363.174 314.372 362.679 314.252 362.177 314.246C361.164 314.233 360.187 314.687 359.46 315.507C358.734 316.327 358.318 317.447 358.303 318.619C358.296 319.199 358.388 319.775 358.573 320.314C358.759 320.852 359.034 321.343 359.384 321.758C359.733 322.172 360.151 322.503 360.611 322.731C361.072 322.959 361.567 323.079 362.069 323.085Z" fill="black"></path>
  <path d="M455.295 304.355H451.715C451.389 304.355 451.125 304.62 451.125 304.945V326.265C451.125 326.591 451.389 326.855 451.715 326.855H455.295C455.621 326.855 455.885 326.591 455.885 326.265V304.945C455.885 304.62 455.621 304.355 455.295 304.355Z" fill="black"></path>
  <path d="M463.689 304.341L459.289 304.372C459.052 304.374 458.861 304.568 458.862 304.805L458.888 308.445C458.889 308.682 459.083 308.874 459.321 308.872L463.721 308.841C463.958 308.84 464.149 308.646 464.148 308.408L464.122 304.768C464.121 304.531 463.927 304.34 463.689 304.341Z" fill="black"></path>
  <path d="M478.343 325.575C475.91 327.329 473.503 327.762 471.123 326.875C461.353 323.255 466.623 304.465 478.213 311.695C478.263 311.725 478.32 311.742 478.378 311.743C478.436 311.743 478.493 311.729 478.544 311.701C478.595 311.672 478.637 311.631 478.667 311.581C478.697 311.531 478.712 311.474 478.713 311.415L478.583 305.005C478.576 304.572 478.79 304.355 479.223 304.355H482.873C483.206 304.355 483.373 304.522 483.373 304.855V326.225C483.373 326.645 483.163 326.855 482.743 326.855H479.363C478.843 326.855 478.596 326.599 478.623 326.085C478.623 325.965 478.63 325.852 478.643 325.745C478.676 325.465 478.576 325.409 478.343 325.575ZM474.976 323.052C475.999 323.009 476.96 322.508 477.649 321.659C478.338 320.809 478.698 319.682 478.65 318.524C478.626 317.95 478.502 317.387 478.286 316.865C478.07 316.344 477.766 315.874 477.391 315.484C477.015 315.093 476.577 314.79 476.1 314.59C475.623 314.39 475.116 314.298 474.61 314.319C473.587 314.362 472.625 314.863 471.936 315.712C471.248 316.562 470.888 317.689 470.936 318.847C470.96 319.42 471.084 319.984 471.3 320.506C471.516 321.027 471.82 321.497 472.195 321.887C472.57 322.278 473.009 322.581 473.486 322.781C473.963 322.981 474.469 323.073 474.976 323.052Z" fill="black"></path>
  <path d="M519.334 304.338L515.114 304.374C514.827 304.377 514.596 304.612 514.598 304.899L514.628 308.359C514.631 308.646 514.866 308.877 515.153 308.874L519.373 308.837C519.66 308.835 519.891 308.6 519.888 308.313L519.858 304.853C519.856 304.566 519.621 304.335 519.334 304.338Z" fill="black"></path>
  <path d="M423.894 319.586C421.194 318.396 416.734 317.756 414.914 316.036C412.814 314.036 412.844 309.936 414.644 307.636C417.794 303.576 424.864 304.866 428.484 307.496C428.851 307.763 428.908 308.083 428.654 308.456L426.684 311.296C426.644 311.353 426.592 311.402 426.532 311.438C426.472 311.474 426.406 311.498 426.336 311.507C426.267 311.517 426.196 311.512 426.129 311.492C426.061 311.473 425.999 311.44 425.944 311.396C424.038 309.856 421.844 309.309 419.364 309.756C419.016 309.817 418.699 309.992 418.464 310.255C418.228 310.518 418.088 310.852 418.065 311.205C418.042 311.558 418.137 311.91 418.337 312.204C418.536 312.497 418.827 312.716 419.164 312.826C421.914 313.716 427.994 314.786 429.094 317.966C432.884 328.936 418.284 328.516 412.774 324.156C412.461 323.903 412.434 323.623 412.694 323.316L415.004 320.576C415.258 320.269 415.531 320.249 415.824 320.516C418.058 322.496 420.638 323.193 423.564 322.606C423.898 322.542 424.202 322.372 424.432 322.122C424.662 321.872 424.806 321.555 424.843 321.218C424.88 320.88 424.808 320.54 424.637 320.246C424.466 319.952 424.206 319.721 423.894 319.586Z" fill="black"></path>
  <path d="M124.375 318.835V322.125C124.375 322.253 124.426 322.375 124.516 322.465C124.606 322.555 124.728 322.605 124.855 322.605H135.645C135.708 322.605 135.77 322.618 135.829 322.642C135.887 322.666 135.94 322.701 135.984 322.746C136.029 322.791 136.064 322.844 136.088 322.902C136.113 322.96 136.125 323.022 136.125 323.085V326.375C136.125 326.438 136.113 326.501 136.088 326.559C136.064 326.617 136.029 326.67 135.984 326.715C135.94 326.759 135.887 326.795 135.829 326.819C135.77 326.843 135.708 326.855 135.645 326.855H120.105C120.042 326.855 119.98 326.843 119.921 326.819C119.863 326.795 119.81 326.759 119.766 326.715C119.721 326.67 119.686 326.617 119.662 326.559C119.637 326.501 119.625 326.438 119.625 326.375V305.835C119.625 305.772 119.637 305.71 119.662 305.652C119.686 305.594 119.721 305.541 119.766 305.496C119.81 305.451 119.863 305.416 119.921 305.392C119.98 305.368 120.042 305.355 120.105 305.355H135.395C135.458 305.355 135.52 305.368 135.579 305.392C135.637 305.416 135.69 305.451 135.734 305.496C135.779 305.541 135.814 305.594 135.838 305.652C135.863 305.71 135.875 305.772 135.875 305.835V309.375C135.875 309.503 135.824 309.625 135.734 309.715C135.644 309.805 135.522 309.855 135.395 309.855H124.855C124.792 309.855 124.73 309.868 124.671 309.892C124.613 309.916 124.56 309.951 124.516 309.996C124.471 310.041 124.436 310.094 124.412 310.152C124.387 310.21 124.375 310.272 124.375 310.335V313.375C124.375 313.503 124.426 313.625 124.516 313.715C124.606 313.805 124.728 313.855 124.855 313.855H134.145C134.272 313.855 134.394 313.906 134.484 313.996C134.574 314.086 134.625 314.208 134.625 314.335V317.875C134.625 318.003 134.574 318.125 134.484 318.215C134.394 318.305 134.272 318.355 134.145 318.355H124.855C124.728 318.355 124.606 318.406 124.516 318.496C124.426 318.586 124.375 318.708 124.375 318.835Z" fill="black"></path>
  <path d="M212.125 314.625V326.525C212.125 326.608 212.092 326.687 212.034 326.745C211.976 326.803 211.897 326.835 211.815 326.835L207.435 326.865C207.353 326.865 207.274 326.833 207.216 326.775C207.158 326.717 207.125 326.638 207.125 326.555V305.665C207.125 305.583 207.158 305.504 207.216 305.446C207.274 305.388 207.353 305.355 207.435 305.355H211.695C211.741 305.356 211.787 305.367 211.829 305.388C211.87 305.409 211.907 305.439 211.935 305.475L221.135 317.695C221.174 317.749 221.229 317.788 221.292 317.808C221.355 317.828 221.422 317.827 221.485 317.806C221.547 317.785 221.601 317.744 221.639 317.69C221.677 317.636 221.696 317.571 221.695 317.505L221.585 305.665C221.585 305.583 221.618 305.504 221.676 305.446C221.734 305.388 221.813 305.355 221.895 305.355H226.065C226.147 305.355 226.226 305.388 226.284 305.446C226.342 305.504 226.375 305.583 226.375 305.665V326.545C226.375 326.628 226.342 326.707 226.284 326.765C226.226 326.823 226.147 326.855 226.065 326.855H222.265C222.219 326.855 222.173 326.844 222.131 326.823C222.09 326.802 222.053 326.772 222.025 326.735L212.685 314.435C212.646 314.382 212.591 314.343 212.528 314.323C212.465 314.303 212.398 314.304 212.335 314.325C212.273 314.346 212.219 314.387 212.181 314.441C212.143 314.495 212.124 314.56 212.125 314.625Z" fill="black"></path>
  <path d="M247.375 309.855V306.735C247.375 306.315 247.585 306.105 248.005 306.105H251.625C252.125 306.105 252.375 306.355 252.375 306.855V309.855C252.375 310.189 252.542 310.355 252.875 310.355H255.495C255.915 310.355 256.125 310.565 256.125 310.985V313.855C256.125 314.355 255.875 314.605 255.375 314.605H253.125C252.618 314.605 252.368 314.855 252.375 315.355L252.385 322.155C252.385 322.265 252.409 322.373 252.455 322.472C252.5 322.571 252.566 322.66 252.648 322.732C252.731 322.804 252.827 322.857 252.932 322.889C253.037 322.921 253.147 322.93 253.255 322.915L255.695 322.595C255.982 322.562 256.125 322.689 256.125 322.975V325.655C256.125 326.049 255.948 326.329 255.595 326.495C252.045 328.205 247.685 327.385 247.485 322.795C247.372 320.295 247.332 317.795 247.365 315.295C247.366 315.204 247.349 315.112 247.314 315.027C247.28 314.942 247.228 314.865 247.162 314.801C247.097 314.736 247.019 314.686 246.934 314.652C246.848 314.619 246.757 314.603 246.665 314.605C246.565 314.605 246.465 314.605 246.365 314.605C245.872 314.625 245.625 314.389 245.625 313.895V310.975C245.625 310.562 245.835 310.355 246.255 310.355H246.875C247.208 310.355 247.375 310.189 247.375 309.855Z" fill="black"></path>
  <path d="M528.874 310.355H531.374C531.874 310.355 532.124 310.605 532.124 311.105V313.855C532.124 314.355 531.874 314.605 531.374 314.605H529.124C528.618 314.605 528.368 314.855 528.374 315.355L528.384 322.155C528.385 322.265 528.409 322.373 528.454 322.472C528.499 322.571 528.566 322.66 528.648 322.732C528.73 322.804 528.827 322.857 528.931 322.889C529.036 322.921 529.146 322.93 529.254 322.915L531.694 322.595C531.981 322.562 532.124 322.689 532.124 322.975V325.815C532.124 326.149 531.978 326.385 531.684 326.525C528.804 327.899 526.211 327.522 523.904 325.395C523.692 325.196 523.567 324.92 523.554 324.625L523.294 315.495C523.281 315.155 523.111 314.929 522.784 314.815C521.151 314.282 520.728 312.952 521.514 310.825C521.681 310.392 522.108 310.239 522.794 310.365C523.181 310.432 523.374 310.269 523.374 309.875V306.605C523.374 306.272 523.541 306.105 523.874 306.105H527.624C528.124 306.105 528.374 306.355 528.374 306.855V309.855C528.374 310.189 528.541 310.355 528.874 310.355Z" fill="black"></path>
  <path d="M143.774 327.044C130.454 323.034 140.024 303.094 152.484 312.374C152.844 312.64 152.871 312.937 152.564 313.264L150.184 315.744C150.08 315.851 149.938 315.914 149.788 315.918C149.639 315.921 149.494 315.866 149.384 315.764C144.214 310.984 139.514 319.074 144.054 322.454C145.774 323.74 147.541 323.477 149.354 321.664C149.415 321.6 149.488 321.55 149.569 321.516C149.65 321.482 149.738 321.464 149.826 321.464C149.915 321.464 150.003 321.482 150.085 321.516C150.167 321.55 150.241 321.6 150.304 321.664L152.454 323.804C152.517 323.867 152.566 323.942 152.599 324.025C152.632 324.108 152.647 324.197 152.644 324.287C152.641 324.377 152.621 324.465 152.583 324.547C152.545 324.629 152.491 324.703 152.424 324.764C149.731 327.21 146.848 327.97 143.774 327.044Z" fill="black"></path>
  <path d="M171.075 318.643C171.083 319.784 170.858 320.915 170.412 321.973C169.966 323.03 169.308 323.993 168.476 324.806C167.644 325.619 166.654 326.266 165.563 326.71C164.472 327.154 163.3 327.387 162.116 327.395C160.931 327.404 159.757 327.187 158.66 326.758C157.562 326.329 156.563 325.696 155.72 324.895C154.877 324.094 154.206 323.14 153.745 322.089C153.285 321.038 153.043 319.91 153.035 318.769C153.027 317.627 153.253 316.496 153.699 315.438C154.145 314.381 154.802 313.418 155.634 312.606C156.466 311.793 157.456 311.146 158.547 310.701C159.639 310.257 160.81 310.024 161.994 310.016C163.179 310.008 164.353 310.224 165.451 310.653C166.548 311.082 167.547 311.715 168.39 312.516C169.233 313.318 169.904 314.271 170.365 315.322C170.826 316.373 171.067 317.501 171.075 318.643ZM166.315 318.716C166.315 318.158 166.205 317.605 165.992 317.089C165.778 316.574 165.465 316.105 165.07 315.71C164.676 315.316 164.207 315.003 163.692 314.789C163.176 314.576 162.623 314.466 162.065 314.466C160.938 314.466 159.857 314.913 159.06 315.71C158.263 316.507 157.815 317.588 157.815 318.716C157.815 319.843 158.263 320.924 159.06 321.721C159.857 322.518 160.938 322.966 162.065 322.966C162.623 322.966 163.176 322.856 163.692 322.642C164.207 322.429 164.676 322.116 165.07 321.721C165.465 321.326 165.778 320.858 165.992 320.342C166.205 319.826 166.315 319.274 166.315 318.716Z" fill="black"></path>
  <path d="M186.865 320.354C184.725 320.354 184.505 321.001 186.205 322.294C188.285 323.867 190.338 323.757 192.365 321.964C192.492 321.851 192.657 321.787 192.828 321.785C192.998 321.784 193.164 321.843 193.295 321.954L195.445 323.754C195.751 324.007 195.768 324.274 195.495 324.554C188.445 331.914 177.105 324.424 181.045 314.944C184.645 306.264 197.375 309.654 196.465 319.614C196.447 319.816 196.354 320.005 196.204 320.142C196.054 320.279 195.858 320.355 195.655 320.354H186.865ZM185.325 317.394L191.465 317.334C191.51 317.334 191.553 317.316 191.585 317.284C191.617 317.252 191.635 317.209 191.635 317.164L191.625 317.084C191.621 316.688 191.536 316.298 191.376 315.934C191.216 315.57 190.983 315.241 190.69 314.964C190.397 314.687 190.051 314.469 189.671 314.321C189.291 314.174 188.884 314.1 188.475 314.104H188.235C187.407 314.112 186.617 314.437 186.038 315.007C185.458 315.577 185.137 316.346 185.145 317.144L185.155 317.224C185.155 317.269 185.172 317.312 185.204 317.344C185.236 317.376 185.279 317.394 185.325 317.394Z" fill="black"></path>
  <path d="M239.334 316.596C239.024 313.446 234.014 314.346 232.054 315.186C231.654 315.353 231.391 315.23 231.264 314.816L230.414 312.036C230.371 311.897 230.382 311.746 230.445 311.613C230.508 311.48 230.618 311.374 230.754 311.316C234.434 309.786 241.094 309.146 243.334 313.236C244.834 315.976 244.154 322.926 244.104 326.156C244.098 326.443 243.954 326.623 243.674 326.696C242.114 327.103 240.618 326.973 239.184 326.306C239.03 326.232 238.859 326.196 238.687 326.202C238.515 326.207 238.346 326.253 238.194 326.336C234.354 328.456 228.424 326.996 229.004 321.606C229.594 316.166 234.464 316.636 238.844 317.076C239.204 317.116 239.368 316.956 239.334 316.596ZM239.54 321.151C239.491 320.894 239.366 320.655 239.173 320.446C238.98 320.237 238.722 320.064 238.414 319.935C238.107 319.806 237.755 319.724 237.38 319.694C237.005 319.665 236.614 319.688 236.228 319.762C235.843 319.836 235.47 319.96 235.133 320.127C234.796 320.294 234.5 320.5 234.262 320.734C234.024 320.968 233.85 321.225 233.748 321.491C233.646 321.756 233.619 322.025 233.668 322.282C233.718 322.538 233.843 322.778 234.036 322.986C234.229 323.195 234.487 323.369 234.794 323.498C235.102 323.627 235.453 323.708 235.828 323.738C236.204 323.768 236.595 323.745 236.981 323.67C237.366 323.596 237.738 323.472 238.076 323.305C238.413 323.138 238.709 322.932 238.947 322.698C239.184 322.464 239.359 322.207 239.461 321.942C239.563 321.676 239.59 321.407 239.54 321.151Z" fill="black"></path>
  <path d="M283.399 317.913C283.499 319.048 283.365 320.193 283.006 321.282C282.646 322.37 282.069 323.381 281.305 324.257C280.542 325.133 279.608 325.857 278.557 326.386C277.506 326.916 276.359 327.242 275.18 327.345C272.8 327.553 270.437 326.842 268.612 325.368C266.787 323.893 265.648 321.777 265.448 319.484C265.348 318.348 265.482 317.203 265.842 316.115C266.201 315.026 266.779 314.015 267.542 313.139C268.305 312.263 269.239 311.54 270.29 311.01C271.341 310.48 272.488 310.154 273.667 310.051C276.048 309.843 278.41 310.554 280.235 312.029C282.061 313.503 283.199 315.62 283.399 317.913ZM275.122 323.007C275.655 322.924 276.166 322.731 276.626 322.437C277.085 322.144 277.483 321.757 277.798 321.297C278.113 320.838 278.339 320.316 278.462 319.76C278.585 319.204 278.603 318.627 278.515 318.059C278.338 316.914 277.74 315.882 276.853 315.19C275.966 314.498 274.862 314.203 273.785 314.37C273.252 314.452 272.741 314.646 272.282 314.939C271.822 315.232 271.424 315.62 271.109 316.079C270.794 316.539 270.568 317.061 270.445 317.617C270.322 318.172 270.304 318.75 270.392 319.317C270.569 320.462 271.167 321.495 272.054 322.187C272.941 322.879 274.045 323.174 275.122 323.007Z" fill="black"></path>
  <path d="M291.065 311.716C293.725 309.356 297.695 309.416 299.635 312.386C301.415 315.136 300.645 322.746 300.615 326.176C300.608 326.629 300.378 326.856 299.925 326.856H296.415C296.022 326.856 295.832 326.663 295.845 326.276C295.918 323.376 295.912 320.513 295.825 317.686C295.685 313.276 290.155 313.746 290.295 317.606C290.402 320.519 290.418 323.433 290.345 326.346C290.338 326.686 290.165 326.856 289.825 326.856H286.125C285.625 326.856 285.375 326.606 285.375 326.106V311.106C285.375 310.606 285.625 310.356 286.125 310.356H289.565C289.865 310.356 290.062 310.499 290.155 310.786L290.385 311.536C290.512 311.949 290.738 312.009 291.065 311.716Z" fill="black"></path>
  <path d="M312.833 316.576C312.483 313.426 307.493 314.326 305.583 315.266C305.243 315.439 305.01 315.342 304.883 314.976L303.873 312.006C303.76 311.659 303.873 311.419 304.213 311.286C308.083 309.816 314.893 309.086 316.953 313.436C318.313 316.336 317.653 323.046 317.603 326.356C317.597 326.822 317.363 327.029 316.903 326.976L312.133 326.476C311.753 326.436 311.387 326.496 311.033 326.656C306.923 328.506 302.083 326.376 302.283 321.486C302.483 316.516 308.193 316.646 312.353 317.066C312.713 317.099 312.873 316.936 312.833 316.576ZM313.044 321.169C312.948 320.649 312.543 320.209 311.917 319.945C311.29 319.68 310.495 319.613 309.704 319.758C309.313 319.83 308.935 319.952 308.591 320.117C308.247 320.281 307.945 320.486 307.702 320.718C307.459 320.951 307.279 321.207 307.173 321.472C307.066 321.737 307.036 322.006 307.083 322.263C307.178 322.782 307.584 323.222 308.21 323.486C308.836 323.751 309.632 323.818 310.423 323.673C310.814 323.601 311.192 323.479 311.536 323.315C311.879 323.15 312.181 322.945 312.425 322.713C312.668 322.48 312.848 322.224 312.954 321.959C313.06 321.694 313.091 321.426 313.044 321.169Z" fill="black"></path>
  <path d="M332.713 320.905C333.633 324.105 337.853 323.775 339.943 321.905C340.064 321.796 340.223 321.736 340.387 321.74C340.55 321.744 340.706 321.81 340.823 321.926L342.783 323.886C343.016 324.126 343.013 324.362 342.773 324.595C337.383 329.925 328.413 327.185 327.613 319.625C326.283 307.085 345.553 306.796 343.753 319.826C343.731 319.972 343.657 320.107 343.543 320.204C343.429 320.301 343.284 320.355 343.133 320.356H333.123C332.743 320.356 332.606 320.539 332.713 320.905ZM332.763 317.306L338.903 317.426C338.948 317.426 338.991 317.408 339.023 317.376C339.055 317.344 339.073 317.301 339.073 317.255V317.166C339.088 316.37 338.775 315.601 338.201 315.027C337.627 314.453 336.84 314.122 336.013 314.106H335.773C335.363 314.097 334.955 314.167 334.574 314.31C334.192 314.453 333.843 314.668 333.548 314.941C333.253 315.214 333.016 315.54 332.852 315.901C332.688 316.263 332.6 316.651 332.593 317.046V317.136C332.593 317.158 332.597 317.18 332.606 317.201C332.614 317.221 332.627 317.24 332.643 317.256C332.658 317.271 332.677 317.284 332.698 317.293C332.718 317.301 332.74 317.306 332.763 317.306Z" fill="black"></path>
  <path d="M377.985 321.218C380.085 323.911 382.508 324.138 385.255 321.898C385.366 321.807 385.507 321.76 385.651 321.765C385.794 321.771 385.931 321.829 386.035 321.928L388.015 323.788C388.275 324.028 388.282 324.278 388.035 324.538C382.165 330.788 372.415 326.398 372.875 317.868C373.445 307.108 390.115 307.188 389.035 319.958C389.008 320.245 388.852 320.388 388.565 320.388L378.435 320.298C378.328 320.298 378.224 320.328 378.133 320.384C378.043 320.441 377.97 320.522 377.923 320.617C377.876 320.713 377.857 320.82 377.868 320.927C377.879 321.033 377.92 321.134 377.985 321.218ZM378.045 317.398L384.165 317.378C384.213 317.378 384.259 317.359 384.292 317.325C384.326 317.291 384.345 317.246 384.345 317.198V317.118C384.342 316.319 384.013 315.553 383.428 314.989C382.843 314.425 382.051 314.108 381.225 314.108H380.985C380.575 314.108 380.168 314.186 379.789 314.339C379.41 314.491 379.065 314.715 378.775 314.996C378.486 315.278 378.256 315.612 378.1 315.979C377.944 316.347 377.864 316.74 377.865 317.138V317.218C377.865 317.266 377.884 317.311 377.918 317.345C377.952 317.379 377.997 317.398 378.045 317.398Z" fill="black"></path>
  <path d="M398.264 321.396C394.624 320.426 388.274 318.526 391.124 313.156C393.364 308.946 399.104 309.686 402.574 311.806C402.887 311.993 402.957 312.246 402.784 312.566L401.594 314.756C401.507 314.915 401.367 315.039 401.197 315.104C401.027 315.17 400.838 315.174 400.664 315.116L396.754 313.826C396.487 313.758 396.205 313.793 395.963 313.924C395.72 314.055 395.536 314.271 395.445 314.531C395.355 314.791 395.365 315.075 395.474 315.328C395.583 315.581 395.783 315.783 396.034 315.896C398.564 316.826 402.244 317.806 403.154 320.596C405.714 328.486 394.304 328.006 390.274 325.096C390.142 324.999 390.051 324.857 390.018 324.698C389.984 324.539 390.012 324.374 390.094 324.236L391.454 321.866C391.494 321.797 391.548 321.738 391.612 321.692C391.677 321.647 391.751 321.615 391.83 321.6C391.908 321.585 391.989 321.586 392.067 321.605C392.146 321.623 392.219 321.657 392.284 321.706C394.024 323.026 395.984 323.533 398.164 323.226C398.377 323.197 398.573 323.095 398.719 322.937C398.864 322.779 398.95 322.575 398.962 322.36C398.973 322.144 398.91 321.931 398.783 321.755C398.656 321.579 398.473 321.452 398.264 321.396Z" fill="black"></path>
  <path d="M448.914 318.27C448.967 319.407 448.787 320.544 448.385 321.616C447.982 322.688 447.364 323.674 446.566 324.518C445.768 325.362 444.806 326.046 443.735 326.533C442.664 327.02 441.504 327.299 440.322 327.355C439.14 327.41 437.959 327.242 436.847 326.858C435.734 326.474 434.712 325.883 433.838 325.118C432.965 324.353 432.257 323.43 431.755 322.401C431.253 321.371 430.967 320.256 430.914 319.119C430.86 317.981 431.04 316.844 431.442 315.772C431.845 314.7 432.463 313.714 433.261 312.871C434.059 312.027 435.021 311.342 436.092 310.855C437.163 310.369 438.323 310.09 439.505 310.034C440.687 309.978 441.868 310.147 442.98 310.531C444.093 310.914 445.115 311.506 445.989 312.27C446.862 313.035 447.57 313.959 448.072 314.988C448.574 316.017 448.86 317.133 448.914 318.27ZM440.461 323.04C441.543 322.903 442.522 322.315 443.184 321.406C443.846 320.496 444.136 319.339 443.991 318.189C443.846 317.039 443.277 315.991 442.41 315.274C441.542 314.558 440.447 314.232 439.366 314.369C438.284 314.505 437.305 315.093 436.643 316.003C435.981 316.912 435.691 318.069 435.836 319.219C435.981 320.369 436.55 321.418 437.418 322.134C438.285 322.851 439.38 323.176 440.461 323.04Z" fill="black"></path>
  <path d="M495.453 326.265C495.401 326.231 495.341 326.211 495.278 326.208C495.215 326.204 495.151 326.217 495.093 326.245C483.903 331.195 480.133 314.795 495.363 317.135C495.796 317.201 495.97 317.021 495.883 316.594C495.233 313.434 490.693 314.274 488.683 315.224C488.27 315.424 487.99 315.308 487.843 314.874L486.873 311.974C486.753 311.621 486.866 311.381 487.213 311.254C491.033 309.824 497.463 309.104 499.713 313.154C501.283 315.974 500.633 322.355 500.613 326.055C500.613 326.355 500.47 326.551 500.183 326.645C498.383 327.225 496.806 327.098 495.453 326.265ZM496.033 321.156C495.985 320.899 495.861 320.659 495.668 320.449C495.476 320.239 495.218 320.064 494.909 319.933C494.601 319.802 494.248 319.719 493.87 319.687C493.493 319.655 493.099 319.676 492.71 319.748C492.322 319.82 491.946 319.942 491.605 320.107C491.264 320.272 490.965 320.476 490.724 320.709C490.483 320.941 490.305 321.197 490.2 321.462C490.095 321.727 490.066 321.996 490.113 322.253C490.161 322.51 490.285 322.75 490.477 322.96C490.67 323.17 490.928 323.345 491.237 323.476C491.545 323.607 491.898 323.69 492.275 323.722C492.653 323.754 493.047 323.733 493.435 323.661C493.824 323.589 494.2 323.467 494.541 323.302C494.881 323.137 495.181 322.933 495.422 322.7C495.663 322.468 495.841 322.212 495.946 321.947C496.051 321.682 496.08 321.413 496.033 321.156Z" fill="black"></path>
  <path d="M508.185 312.158C508.169 312.243 508.183 312.33 508.226 312.405C508.268 312.48 508.336 312.537 508.417 312.566C508.498 312.595 508.587 312.594 508.667 312.563C508.747 312.532 508.814 312.474 508.855 312.398C509.682 310.825 511.032 310.068 512.905 310.128C513.392 310.142 513.635 310.392 513.635 310.878L513.615 314.488C513.612 314.647 513.552 314.799 513.448 314.916C513.343 315.034 513.2 315.109 513.045 315.128C506.875 315.948 508.455 322.258 508.355 326.348C508.348 326.688 508.175 326.858 507.835 326.858H504.125C503.625 326.858 503.375 326.608 503.375 326.108V311.108C503.375 310.608 503.625 310.358 504.125 310.358H507.945C508.338 310.358 508.495 310.552 508.415 310.938L508.185 312.158Z" fill="black"></path>
  <path d="M538.924 320.347C538.808 320.347 538.695 320.38 538.596 320.441C538.498 320.502 538.419 320.59 538.368 320.694C538.317 320.798 538.296 320.915 538.308 321.03C538.319 321.146 538.363 321.255 538.434 321.347C540.408 323.88 542.751 324.08 545.464 321.947C545.758 321.72 546.045 321.727 546.325 321.967L548.404 323.737C548.48 323.802 548.54 323.882 548.581 323.972C548.622 324.062 548.642 324.16 548.641 324.259C548.64 324.358 548.618 324.456 548.575 324.545C548.533 324.635 548.471 324.714 548.394 324.777C543.674 328.757 536.744 328.227 533.974 322.487C531.774 317.937 534.414 311.147 539.754 310.177C545.894 309.057 550.004 313.637 549.494 319.777C549.461 320.164 549.251 320.357 548.864 320.357L538.924 320.347ZM538.344 317.437L544.484 317.297C544.528 317.294 544.569 317.275 544.598 317.244C544.628 317.212 544.645 317.17 544.644 317.127V317.037C544.636 316.643 544.546 316.254 544.381 315.894C544.216 315.533 543.979 315.207 543.682 314.935C543.386 314.663 543.037 314.45 542.655 314.308C542.272 314.166 541.864 314.097 541.454 314.107H541.214C540.387 314.126 539.602 314.46 539.03 315.036C538.458 315.612 538.146 316.382 538.164 317.177V317.267C538.164 317.29 538.169 317.313 538.178 317.334C538.187 317.356 538.201 317.375 538.218 317.391C538.235 317.407 538.255 317.419 538.276 317.427C538.298 317.435 538.321 317.438 538.344 317.437Z" fill="black"></path>
  <path d="M555.554 314.634C555.498 314.755 555.469 314.886 555.468 315.018C555.467 315.151 555.494 315.283 555.548 315.404C555.602 315.525 555.682 315.633 555.781 315.721C555.88 315.81 555.997 315.875 556.124 315.914C558.714 316.704 562.314 317.704 563.384 320.374C564.534 323.244 562.924 325.964 559.994 326.814C556.674 327.781 553.521 327.178 550.534 325.004C550.188 324.751 550.138 324.451 550.384 324.104L551.934 321.914C552.038 321.774 552.193 321.681 552.365 321.655C552.538 321.628 552.714 321.671 552.854 321.774C554.481 322.994 556.318 323.521 558.364 323.354C558.611 323.333 558.842 323.223 559.016 323.047C559.189 322.87 559.294 322.636 559.311 322.389C559.328 322.142 559.256 321.897 559.108 321.698C558.96 321.499 558.746 321.359 558.504 321.304C543.764 317.954 553.334 305.534 562.944 311.834C563.304 312.074 563.371 312.378 563.144 312.744L561.694 315.064C561.615 315.191 561.49 315.282 561.347 315.32C561.203 315.357 561.052 315.337 560.924 315.264C559.271 314.364 558.008 313.908 557.134 313.894C556.314 313.881 555.788 314.128 555.554 314.634Z" fill="black"></path>
  <path d="M262.795 310.355H259.215C258.889 310.355 258.625 310.62 258.625 310.945V326.265C258.625 326.591 258.889 326.855 259.215 326.855H262.795C263.121 326.855 263.385 326.591 263.385 326.265V310.945C263.385 310.62 263.121 310.355 262.795 310.355Z" fill="black"></path>
  <path d="M463.285 310.355H459.465C459.139 310.355 458.875 310.62 458.875 310.945V326.265C458.875 326.591 459.139 326.855 459.465 326.855H463.285C463.611 326.855 463.875 326.591 463.875 326.265V310.945C463.875 310.62 463.611 310.355 463.285 310.355Z" fill="black"></path>
  <path d="M519.045 310.355H515.465C515.139 310.355 514.875 310.62 514.875 310.945V326.265C514.875 326.591 515.139 326.855 515.465 326.855H519.045C519.371 326.855 519.635 326.591 519.635 326.265V310.945C519.635 310.62 519.371 310.355 519.045 310.355Z" fill="black"></path>
  <path d="M567.385 326.855H566.625C566.125 326.855 565.875 326.605 565.875 326.105V322.355C565.875 322.022 566.042 321.855 566.375 321.855H570.615C570.949 321.855 571.119 322.022 571.125 322.355C571.175 326.245 571.825 331.055 566.645 331.805C566.019 331.892 565.545 331.775 565.225 331.455C564.912 331.149 564.802 330.769 564.895 330.315C564.969 329.962 565.179 329.742 565.525 329.655C566.645 329.375 567.439 328.709 567.905 327.655C567.944 327.569 567.96 327.474 567.952 327.38C567.944 327.285 567.913 327.194 567.862 327.115C567.81 327.035 567.74 326.97 567.656 326.925C567.573 326.88 567.48 326.856 567.385 326.855Z" fill="black"></path>
  <path d="M130.874 348.125V341.725C130.874 341.312 131.084 341.105 131.504 341.105H134.874C135.374 341.105 135.624 341.355 135.624 341.855V362.845C135.624 363.345 135.377 363.595 134.884 363.595L131.614 363.625C131.18 363.625 130.947 363.409 130.914 362.975L130.864 362.325C130.858 362.253 130.831 362.184 130.788 362.127C130.744 362.069 130.684 362.025 130.616 361.999C130.547 361.973 130.473 361.967 130.4 361.98C130.327 361.994 130.259 362.027 130.204 362.075C124.154 367.505 117.364 360.695 118.324 353.835C119.164 347.825 124.974 344.395 130.254 348.435C130.667 348.749 130.874 348.645 130.874 348.125ZM126.931 359.694C127.438 359.708 127.943 359.608 128.417 359.401C128.891 359.194 129.326 358.882 129.695 358.485C130.065 358.087 130.363 357.611 130.572 357.084C130.78 356.557 130.896 355.99 130.912 355.413C130.928 354.837 130.844 354.264 130.665 353.726C130.486 353.188 130.216 352.696 129.869 352.279C129.522 351.861 129.106 351.526 128.644 351.292C128.182 351.059 127.683 350.931 127.176 350.917C126.67 350.903 126.165 351.003 125.69 351.21C125.216 351.417 124.782 351.729 124.412 352.126C124.042 352.524 123.745 353 123.536 353.527C123.327 354.054 123.211 354.621 123.195 355.198C123.179 355.774 123.263 356.347 123.442 356.885C123.621 357.423 123.892 357.915 124.239 358.332C124.586 358.75 125.002 359.085 125.464 359.318C125.926 359.552 126.424 359.68 126.931 359.694Z" fill="black"></path>
  <path d="M168.935 341.105H165.055C164.818 341.105 164.625 341.298 164.625 341.535V363.175C164.625 363.413 164.818 363.605 165.055 363.605H168.935C169.172 363.605 169.365 363.413 169.365 363.175V341.535C169.365 341.298 169.172 341.105 168.935 341.105Z" fill="black"></path>
  <path d="M262.383 362.255C258.543 364.609 255.397 364.509 252.943 361.955C246.213 354.935 253.863 341.515 262.193 348.425C262.255 348.474 262.328 348.504 262.406 348.513C262.483 348.522 262.562 348.509 262.632 348.476C262.703 348.443 262.763 348.39 262.805 348.325C262.848 348.259 262.872 348.183 262.873 348.105V341.605C262.873 341.272 263.04 341.105 263.373 341.105H267.123C267.623 341.105 267.873 341.355 267.873 341.855V362.845C267.873 363.345 267.627 363.595 267.133 363.595L263.543 363.625C263.097 363.625 262.873 363.402 262.873 362.955V362.535C262.873 362.149 262.71 362.055 262.383 362.255ZM259.145 359.695C259.649 359.688 260.147 359.567 260.609 359.34C261.072 359.112 261.491 358.782 261.842 358.369C262.193 357.955 262.469 357.466 262.654 356.93C262.84 356.393 262.931 355.82 262.923 355.242C262.907 354.075 262.486 352.962 261.755 352.147C261.023 351.332 260.04 350.882 259.022 350.896C258.518 350.903 258.02 351.024 257.557 351.251C257.094 351.479 256.676 351.809 256.325 352.222C255.974 352.636 255.698 353.125 255.512 353.661C255.327 354.198 255.236 354.771 255.244 355.349C255.26 356.516 255.68 357.629 256.412 358.444C257.143 359.259 258.126 359.709 259.145 359.695Z" fill="black"></path>
  <path d="M172.304 351.336L172.884 342.535C172.891 342.419 172.943 342.309 173.029 342.229C173.114 342.15 173.227 342.105 173.344 342.105H177.784C177.857 342.105 177.93 342.122 177.996 342.155C178.062 342.188 178.119 342.237 178.162 342.296C178.205 342.356 178.233 342.425 178.244 342.498C178.255 342.571 178.248 342.646 178.224 342.715L175.144 351.556C175.112 351.647 175.053 351.726 174.974 351.782C174.895 351.837 174.8 351.867 174.704 351.866L172.754 351.825C172.692 351.824 172.63 351.81 172.574 351.785C172.517 351.759 172.466 351.723 172.424 351.677C172.382 351.631 172.35 351.577 172.329 351.518C172.308 351.46 172.3 351.398 172.304 351.336Z" fill="black"></path>
  <path d="M185.625 355.265V358.695C185.625 358.804 185.668 358.908 185.745 358.985C185.822 359.062 185.926 359.105 186.035 359.105H196.965C197.074 359.105 197.178 359.149 197.255 359.226C197.332 359.302 197.375 359.407 197.375 359.515V363.195C197.375 363.304 197.332 363.408 197.255 363.485C197.178 363.562 197.074 363.605 196.965 363.605H181.285C181.176 363.605 181.072 363.562 180.995 363.485C180.918 363.408 180.875 363.304 180.875 363.195V342.515C180.875 342.407 180.918 342.302 180.995 342.226C181.072 342.149 181.176 342.105 181.285 342.105H196.715C196.824 342.105 196.928 342.149 197.005 342.226C197.082 342.302 197.125 342.407 197.125 342.515V345.945C197.125 346.054 197.082 346.158 197.005 346.235C196.928 346.312 196.824 346.355 196.715 346.355H186.035C185.981 346.355 185.928 346.366 185.878 346.387C185.828 346.407 185.783 346.437 185.745 346.476C185.707 346.514 185.677 346.559 185.656 346.609C185.636 346.658 185.625 346.712 185.625 346.765V350.195C185.625 350.304 185.668 350.408 185.745 350.485C185.822 350.562 185.926 350.605 186.035 350.605H195.465C195.574 350.605 195.678 350.649 195.755 350.726C195.832 350.802 195.875 350.907 195.875 351.015V354.445C195.875 354.554 195.832 354.658 195.755 354.735C195.678 354.812 195.574 354.855 195.465 354.855H186.035C185.981 354.855 185.928 354.866 185.878 354.887C185.828 354.907 185.783 354.937 185.745 354.976C185.707 355.014 185.677 355.059 185.656 355.109C185.636 355.158 185.625 355.212 185.625 355.265Z" fill="black"></path>
  <path d="M363.094 351.105H362.654C362.361 351.105 362.161 350.969 362.054 350.695C361.234 348.609 361.688 347.285 363.414 346.725C363.721 346.625 363.874 346.415 363.874 346.095V343.355C363.874 343.022 364.041 342.855 364.374 342.855H368.124C368.458 342.855 368.624 343.022 368.624 343.355V346.605C368.624 346.738 368.677 346.865 368.771 346.959C368.864 347.053 368.992 347.105 369.124 347.105H372.124C372.458 347.105 372.624 347.272 372.624 347.605V350.355C372.624 350.855 372.374 351.105 371.874 351.105H369.174C368.841 351.105 368.668 351.272 368.654 351.605C368.594 353.505 368.581 355.382 368.614 357.235C368.634 358.182 368.878 358.845 369.344 359.225C370.044 359.805 370.898 359.725 371.904 358.985C371.971 358.935 372.051 358.905 372.134 358.897C372.217 358.89 372.301 358.906 372.376 358.943C372.45 358.98 372.513 359.038 372.557 359.109C372.601 359.18 372.624 359.262 372.624 359.345V362.145C372.624 362.339 372.572 362.529 372.473 362.694C372.375 362.86 372.233 362.995 372.064 363.085C369.034 364.695 363.824 364.145 363.994 359.615C364.094 356.915 363.968 354.232 363.614 351.565C363.574 351.259 363.401 351.105 363.094 351.105Z" fill="black"></path>
  <path d="M143.583 357.064C143.448 357.064 143.315 357.104 143.201 357.179C143.088 357.254 142.999 357.36 142.945 357.483C142.892 357.607 142.877 357.744 142.901 357.875C142.926 358.007 142.989 358.128 143.083 358.224C145.143 360.384 147.457 360.521 150.023 358.634C150.35 358.394 150.67 358.404 150.983 358.664L152.963 360.334C153.021 360.383 153.068 360.443 153.103 360.51C153.137 360.578 153.157 360.651 153.163 360.726C153.169 360.802 153.159 360.878 153.135 360.949C153.111 361.021 153.073 361.087 153.023 361.144C149.123 365.734 141.233 364.384 138.693 359.554C135.703 353.884 139.803 346.134 146.713 346.684C151.793 347.084 154.473 351.634 154.053 356.494C154.013 356.914 153.783 357.124 153.363 357.124L143.583 357.064ZM143.073 353.854L148.913 353.894C148.966 353.894 149.017 353.873 149.055 353.835C149.092 353.798 149.113 353.747 149.113 353.694V353.614C149.116 353.223 149.041 352.835 148.892 352.472C148.743 352.11 148.524 351.78 148.246 351.501C147.968 351.222 147.638 351.001 147.274 350.848C146.91 350.696 146.519 350.617 146.123 350.614H145.903C145.508 350.611 145.116 350.686 144.75 350.833C144.384 350.98 144.05 351.198 143.769 351.473C143.488 351.747 143.264 352.075 143.11 352.435C142.956 352.796 142.876 353.183 142.873 353.574V353.654C142.873 353.707 142.894 353.758 142.932 353.795C142.969 353.833 143.02 353.854 143.073 353.854Z" fill="black"></path>
  <path d="M205.215 348.466L206.885 347.246C207.152 347.053 207.448 346.926 207.775 346.866C217.465 345.016 215.135 357.706 215.125 362.916C215.125 363.376 214.895 363.606 214.435 363.606H210.675C210.295 363.606 210.108 363.42 210.115 363.046C210.142 360.126 210.138 357.236 210.105 354.376C210.055 350.086 205.055 350.066 204.865 354.186C204.725 357.153 204.625 360.13 204.565 363.116C204.558 363.443 204.392 363.606 204.065 363.606H200.505C200.085 363.606 199.875 363.4 199.875 362.986V347.856C199.875 347.356 200.125 347.106 200.625 347.106H203.115C203.422 347.106 203.718 347.17 204.005 347.296C204.492 347.516 204.702 347.78 204.635 348.086C204.618 348.16 204.624 348.237 204.653 348.307C204.681 348.377 204.73 348.436 204.793 348.478C204.856 348.519 204.93 348.54 205.006 348.538C205.081 348.536 205.154 348.511 205.215 348.466Z" fill="black"></path>
  <path d="M232.003 361.455C223.553 368.575 212.213 358.685 218.633 350.185C221.943 345.805 227.893 345.595 232.103 348.995C232.171 349.05 232.227 349.119 232.266 349.197C232.306 349.275 232.329 349.361 232.334 349.449C232.338 349.536 232.325 349.624 232.294 349.706C232.263 349.788 232.215 349.862 232.153 349.925L229.703 352.405C229.397 352.718 229.093 352.718 228.793 352.405C224.803 348.255 219.793 353.665 222.643 357.935C224.203 360.255 227.203 360.135 229.103 358.275C229.403 357.981 229.697 357.988 229.983 358.295L232.063 360.525C232.37 360.851 232.35 361.161 232.003 361.455Z" fill="black"></path>
  <path d="M276.225 348.817C277.178 347.43 278.528 346.687 280.275 346.587C280.352 346.583 280.43 346.594 280.502 346.621C280.575 346.648 280.641 346.689 280.698 346.743C280.754 346.796 280.798 346.86 280.829 346.931C280.859 347.003 280.875 347.079 280.875 347.157V351.127C280.875 351.513 280.682 351.723 280.295 351.757C274.105 352.267 275.775 359.007 275.545 363.147C275.525 363.453 275.365 363.607 275.065 363.607H271.255C270.835 363.607 270.625 363.4 270.625 362.987V347.607C270.625 347.273 270.792 347.107 271.125 347.107H274.935C275.355 347.107 275.575 347.313 275.595 347.727L275.635 348.647C275.64 348.715 275.667 348.78 275.71 348.833C275.753 348.886 275.811 348.925 275.876 348.944C275.941 348.962 276.009 348.96 276.072 348.937C276.134 348.915 276.188 348.872 276.225 348.817Z" fill="black"></path>
  <path d="M286.473 357.817C288.203 360.797 290.753 359.997 293.283 358.857C294.616 358.257 295.49 358.887 295.903 360.747C296.006 361.206 295.934 361.687 295.701 362.096C295.468 362.505 295.091 362.812 294.643 362.957C279.383 367.957 276.913 348.617 288.583 346.637C294.333 345.667 298.103 351.057 297.473 356.577C297.433 356.931 297.233 357.107 296.873 357.107H286.873C286.79 357.108 286.709 357.131 286.638 357.173C286.567 357.215 286.508 357.275 286.468 357.347C286.427 357.419 286.406 357.5 286.407 357.583C286.408 357.665 286.431 357.746 286.473 357.817ZM286.373 353.877H292.693C292.738 353.877 292.781 353.859 292.813 353.828C292.845 353.796 292.863 353.752 292.863 353.707V353.637C292.863 352.836 292.525 352.068 291.923 351.502C291.321 350.935 290.504 350.617 289.653 350.617H289.413C288.562 350.617 287.745 350.935 287.143 351.502C286.541 352.068 286.203 352.836 286.203 353.637V353.707C286.203 353.752 286.221 353.796 286.253 353.828C286.285 353.859 286.328 353.877 286.373 353.877Z" fill="black"></path>
  <path d="M315.005 352.845C314.045 355.265 314.675 360.315 314.585 363.105C314.572 363.438 314.402 363.605 314.075 363.605H310.565C310.172 363.605 309.968 363.408 309.955 363.015C309.855 360.325 311.415 349.385 306.125 351.325C304.992 351.738 304.458 352.745 304.525 354.345C304.645 357.271 304.672 360.188 304.605 363.095C304.598 363.435 304.422 363.605 304.075 363.605H300.375C299.875 363.605 299.625 363.355 299.625 362.855V347.855C299.625 347.355 299.875 347.105 300.375 347.105H303.765C304.045 347.105 304.225 347.238 304.305 347.505L304.485 348.065C304.618 348.485 304.855 348.558 305.195 348.285C308.055 345.958 310.848 346.055 313.575 348.575C313.855 348.835 314.148 348.845 314.455 348.605C317.405 346.295 321.615 345.555 323.705 348.775C325.685 351.815 324.885 359.075 324.865 363.075C324.865 363.428 324.688 363.605 324.335 363.605H320.435C320.115 363.605 319.948 363.445 319.935 363.125C319.808 359.505 319.795 356.581 319.895 354.355C320.035 351.025 316.225 349.775 315.005 352.845Z" fill="black"></path>
  <path d="M333.584 357.106C333.34 357.108 333.104 357.189 332.912 357.338C332.719 357.487 332.581 357.696 332.518 357.931C332.456 358.166 332.472 358.416 332.566 358.641C332.659 358.866 332.823 359.054 333.034 359.176C335.041 360.323 337.064 360.169 339.104 358.716C339.444 358.476 339.777 358.486 340.104 358.746L341.684 360.006C341.856 360.141 341.991 360.317 342.078 360.518C342.164 360.719 342.199 360.938 342.179 361.155C342.16 361.373 342.085 361.582 341.964 361.764C341.843 361.946 341.678 362.094 341.484 362.196C323.944 371.366 322.394 343.646 336.804 346.886C340.917 347.819 343.057 350.849 343.224 355.976C343.228 356.123 343.202 356.269 343.149 356.406C343.096 356.543 343.015 356.668 342.913 356.773C342.81 356.879 342.687 356.962 342.552 357.02C342.417 357.077 342.271 357.106 342.124 357.106H333.584ZM332.054 353.896L338.094 353.876C338.144 353.876 338.193 353.856 338.228 353.82C338.264 353.785 338.284 353.736 338.284 353.686V353.616C338.281 352.817 337.955 352.051 337.375 351.487C336.796 350.923 336.012 350.606 335.194 350.606H334.954C334.547 350.606 334.145 350.685 333.769 350.837C333.394 350.989 333.053 351.213 332.765 351.494C332.478 351.776 332.251 352.11 332.096 352.477C331.942 352.845 331.863 353.239 331.864 353.636V353.706C331.864 353.756 331.884 353.805 331.92 353.84C331.955 353.876 332.004 353.896 332.054 353.896Z" fill="black"></path>
  <path d="M350.685 348.515C352.735 345.755 357.375 346.305 359.195 348.655C361.255 351.325 360.375 359.545 360.375 363.095C360.375 363.435 360.205 363.605 359.865 363.605H356.145C356.011 363.605 355.883 363.553 355.788 363.459C355.693 363.366 355.638 363.239 355.635 363.105C355.615 360.295 357.035 350.645 352.555 351.135C351.888 351.209 351.271 351.526 350.822 352.026C350.374 352.526 350.126 353.174 350.125 353.845V362.975C350.125 363.395 349.918 363.605 349.505 363.605H345.755C345.335 363.605 345.125 363.398 345.125 362.985V347.735C345.125 347.315 345.335 347.105 345.755 347.105H349.375C349.875 347.105 350.125 347.355 350.125 347.855V348.325C350.125 348.952 350.312 349.015 350.685 348.515Z" fill="black"></path>
  <path d="M243.184 362.644C231.304 369.654 228.594 349.224 243.164 353.874C243.29 353.913 243.426 353.909 243.551 353.864C243.675 353.818 243.781 353.733 243.852 353.622C243.923 353.511 243.955 353.381 243.942 353.251C243.93 353.121 243.874 352.999 243.784 352.904C241.717 350.691 239.237 350.344 236.344 351.864C236.274 351.899 236.199 351.919 236.122 351.922C236.045 351.925 235.968 351.912 235.897 351.884C235.826 351.856 235.762 351.812 235.71 351.757C235.657 351.702 235.618 351.636 235.594 351.564L234.594 348.674C234.474 348.328 234.584 348.084 234.924 347.944C239.574 346.064 247.304 345.794 248.294 352.164C248.52 353.658 248.51 357.281 248.264 363.034C248.25 363.414 248.054 363.604 247.674 363.604H244.594C244.207 363.604 243.924 363.438 243.744 363.104L243.564 362.754C243.47 362.588 243.344 362.551 243.184 362.644ZM243.62 357.829C243.528 357.301 243.134 356.848 242.526 356.57C241.918 356.291 241.144 356.21 240.376 356.344C239.608 356.478 238.908 356.817 238.43 357.285C237.952 357.753 237.735 358.312 237.827 358.84C237.919 359.367 238.313 359.82 238.921 360.099C239.53 360.377 240.303 360.458 241.071 360.324C241.839 360.19 242.539 359.852 243.017 359.384C243.495 358.916 243.712 358.356 243.62 357.829Z" fill="black"></path>
  <path d="M167.873 384.605V378.235C167.873 377.815 168.083 377.605 168.503 377.605H172.123C172.623 377.605 172.873 377.855 172.873 378.355V399.355C172.873 399.855 172.623 400.105 172.123 400.105H169.783C169.436 400.105 169.099 400.059 168.773 399.965C168.079 399.772 167.773 399.502 167.853 399.155C167.875 399.069 167.869 398.978 167.835 398.895C167.801 398.813 167.741 398.744 167.664 398.698C167.587 398.653 167.497 398.634 167.409 398.645C167.32 398.655 167.237 398.694 167.173 398.755C162.493 403.085 156.513 399.175 155.493 393.925C154.113 386.795 160.233 380.225 167.343 384.895C167.696 385.129 167.873 385.032 167.873 384.605ZM164.131 396.315C164.63 396.311 165.123 396.193 165.582 395.968C166.041 395.743 166.458 395.415 166.807 395.003C167.156 394.592 167.432 394.104 167.618 393.569C167.804 393.033 167.898 392.46 167.893 391.882C167.882 390.715 167.472 389.6 166.752 388.781C166.033 387.962 165.062 387.507 164.054 387.516C163.555 387.52 163.062 387.638 162.603 387.863C162.144 388.088 161.728 388.416 161.379 388.828C161.029 389.239 160.754 389.727 160.567 390.262C160.381 390.798 160.288 391.371 160.293 391.949C160.303 393.116 160.713 394.231 161.433 395.05C162.153 395.869 163.123 396.324 164.131 396.315Z" fill="black"></path>
  <path d="M205.955 377.605H202.055C201.818 377.605 201.625 377.798 201.625 378.035V399.675C201.625 399.913 201.818 400.105 202.055 400.105H205.955C206.192 400.105 206.385 399.913 206.385 399.675V378.035C206.385 377.798 206.192 377.605 205.955 377.605Z" fill="black"></path>
  <path d="M353.261 377.584L349.202 377.627C348.87 377.63 348.604 377.901 348.608 378.233L348.642 381.533C348.646 381.864 348.917 382.13 349.249 382.126L353.308 382.084C353.64 382.08 353.906 381.809 353.902 381.478L353.868 378.178C353.864 377.846 353.593 377.581 353.261 377.584Z" fill="black"></path>
  <path d="M459.845 377.588L455.625 377.624C455.338 377.627 455.108 377.862 455.11 378.149L455.14 381.609C455.143 381.896 455.378 382.127 455.665 382.124L459.885 382.087C460.172 382.085 460.403 381.85 460.4 381.563L460.37 378.103C460.367 377.816 460.132 377.585 459.845 377.588Z" fill="black"></path>
  <path d="M484.603 377.605H480.883C480.596 377.605 480.363 377.838 480.363 378.125V399.585C480.363 399.873 480.596 400.105 480.883 400.105H484.603C484.89 400.105 485.123 399.873 485.123 399.585V378.125C485.123 377.838 484.89 377.605 484.603 377.605Z" fill="black"></path>
  <path d="M412.354 393.004C409.044 391.134 402.534 391.314 401.854 386.494C400.484 376.894 411.414 376.884 416.924 380.824C417.244 381.051 417.287 381.324 417.054 381.644L414.954 384.534C414.901 384.605 414.835 384.663 414.758 384.706C414.682 384.75 414.598 384.777 414.511 384.786C414.423 384.796 414.335 384.787 414.252 384.761C414.168 384.735 414.09 384.692 414.024 384.634C412.164 383.054 410.054 382.471 407.694 382.884C407.378 382.939 407.092 383.107 406.888 383.356C406.684 383.606 406.576 383.921 406.584 384.244C406.654 386.784 412.804 387.634 414.564 388.424C419.804 390.764 418.574 398.464 413.304 400.064C409.044 401.371 404.984 400.468 401.124 397.354C401.064 397.307 401.014 397.248 400.977 397.18C400.94 397.113 400.916 397.039 400.908 396.963C400.899 396.887 400.906 396.81 400.928 396.736C400.95 396.663 400.986 396.594 401.034 396.534L403.284 393.784C403.511 393.504 403.761 393.481 404.034 393.714C405.734 395.144 413.494 398.394 412.834 393.704C412.794 393.391 412.634 393.158 412.354 393.004Z" fill="black"></path>
  <path d="M214.933 379.025C214.995 379.037 215.05 379.074 215.086 379.126C215.121 379.179 215.135 379.243 215.123 379.305L215.093 379.455C214.575 382.025 213.856 384.444 213.095 386.182C212.334 387.92 211.592 388.835 211.033 388.725L210.343 388.585C209.785 388.469 209.456 387.339 209.428 385.441C209.4 383.544 209.675 381.035 210.193 378.465L210.223 378.315C210.235 378.253 210.271 378.198 210.324 378.163C210.376 378.127 210.441 378.114 210.503 378.125L214.933 379.025Z" fill="black"></path>
  <path d="M222.365 378.605H218.645C218.358 378.605 218.125 378.838 218.125 379.125V399.585C218.125 399.873 218.358 400.105 218.645 400.105H222.365C222.652 400.105 222.885 399.873 222.885 399.585V379.125C222.885 378.838 222.652 378.605 222.365 378.605Z" fill="black"></path>
  <path d="M142.124 388.355L142.134 395.635C142.134 395.71 142.149 395.785 142.179 395.853C142.21 395.922 142.254 395.983 142.31 396.033C142.366 396.083 142.431 396.121 142.503 396.144C142.574 396.167 142.65 396.174 142.724 396.165L145.214 395.865C145.297 395.856 145.382 395.863 145.461 395.889C145.541 395.914 145.615 395.956 145.677 396.011C145.74 396.067 145.79 396.136 145.824 396.212C145.857 396.289 145.875 396.372 145.874 396.455V399.085C145.874 399.372 145.747 399.579 145.494 399.705C142.974 400.955 138.804 401.175 137.604 397.965C136.604 395.295 137.214 391.995 137.064 388.465C137.051 388.085 136.854 387.889 136.474 387.875L135.664 387.835C135.237 387.815 135.034 387.592 135.054 387.165L135.154 384.205C135.159 384.045 135.227 383.892 135.343 383.78C135.458 383.668 135.613 383.605 135.774 383.605H136.374C136.874 383.605 137.124 383.355 137.124 382.855V380.105C137.124 379.605 137.374 379.355 137.874 379.355H141.624C141.957 379.355 142.124 379.522 142.124 379.855V383.105C142.124 383.439 142.291 383.605 142.624 383.605H145.244C145.664 383.605 145.874 383.815 145.874 384.235V387.225C145.874 387.645 145.664 387.855 145.244 387.855H142.624C142.291 387.855 142.124 388.022 142.124 388.355Z" fill="black"></path>
  <path d="M249.825 388.385L249.985 395.615C249.987 395.696 250.007 395.775 250.041 395.847C250.076 395.92 250.126 395.984 250.187 396.036C250.248 396.088 250.32 396.127 250.397 396.149C250.475 396.171 250.556 396.177 250.635 396.165L253.085 395.845C253.445 395.799 253.625 395.955 253.625 396.315V398.905C253.625 399.305 253.445 399.592 253.085 399.765C249.585 401.445 244.735 400.475 245.035 395.825C245.185 393.435 245.145 391.025 245.115 388.625C245.109 388.272 244.932 388.055 244.585 387.975L243.385 387.705C243.266 387.677 243.16 387.608 243.087 387.509C243.013 387.41 242.977 387.288 242.985 387.165L243.185 384.175C243.196 384.021 243.264 383.876 243.378 383.77C243.491 383.664 243.64 383.605 243.795 383.605H244.375C244.875 383.605 245.125 383.355 245.125 382.855V379.985C245.125 379.565 245.335 379.355 245.755 379.355H248.995C249.229 379.355 249.453 379.447 249.618 379.61C249.783 379.773 249.875 379.995 249.875 380.225V382.855C249.875 383.355 250.125 383.605 250.625 383.605H253.255C253.669 383.605 253.875 383.815 253.875 384.235V387.105C253.875 387.605 253.625 387.855 253.125 387.855H250.345C249.992 387.855 249.819 388.032 249.825 388.385Z" fill="black"></path>
  <path d="M342.625 388.355V395.325C342.625 395.421 342.644 395.516 342.682 395.604C342.719 395.692 342.774 395.772 342.843 395.838C342.913 395.905 342.994 395.956 343.084 395.99C343.174 396.024 343.269 396.04 343.365 396.035L345.765 395.925C345.844 395.921 345.922 395.933 345.996 395.961C346.07 395.988 346.138 396.03 346.195 396.084C346.252 396.139 346.297 396.204 346.328 396.276C346.359 396.349 346.375 396.427 346.375 396.505V399.085C346.375 399.405 346.232 399.639 345.945 399.785C343.118 401.185 340.602 400.842 338.395 398.755C338.234 398.601 338.106 398.414 338.018 398.208C337.93 398.002 337.885 397.78 337.885 397.555L337.875 388.355C337.875 388.022 337.708 387.855 337.375 387.855H336.625C336.125 387.855 335.875 387.605 335.875 387.105V384.105C335.875 383.772 336.042 383.605 336.375 383.605H337.125C337.625 383.605 337.875 383.355 337.875 382.855V380.105C337.875 379.605 338.125 379.355 338.625 379.355H341.875C342.375 379.355 342.625 379.605 342.625 380.105V383.105C342.625 383.439 342.792 383.605 343.125 383.605H345.755C346.168 383.605 346.375 383.815 346.375 384.235V387.225C346.375 387.645 346.168 387.855 345.755 387.855H343.125C342.792 387.855 342.625 388.022 342.625 388.355Z" fill="black"></path>
  <path d="M124.625 393.604C124.402 393.606 124.185 393.678 124.005 393.811C123.825 393.944 123.692 394.13 123.624 394.343C123.557 394.556 123.558 394.785 123.628 394.997C123.698 395.209 123.834 395.393 124.015 395.524C126.175 397.05 128.305 396.974 130.405 395.294C130.738 395.02 131.068 395.02 131.395 395.294L133.455 397.004C133.524 397.06 133.58 397.13 133.618 397.21C133.657 397.29 133.677 397.378 133.678 397.468C133.679 397.557 133.661 397.646 133.624 397.729C133.587 397.811 133.533 397.884 133.465 397.944C129.075 401.764 122.135 401.644 119.255 396.244C112.765 384.064 134.095 376.134 134.635 392.814C134.655 393.34 134.402 393.604 133.875 393.604H124.625ZM123.345 390.684L129.485 390.534C129.528 390.531 129.569 390.512 129.599 390.481C129.629 390.449 129.645 390.407 129.645 390.364V390.274C129.625 389.479 129.277 388.726 128.679 388.178C128.081 387.631 127.281 387.334 126.455 387.354H126.215C125.805 387.363 125.4 387.451 125.024 387.611C124.649 387.771 124.31 388 124.026 388.286C123.743 388.572 123.521 388.909 123.373 389.278C123.226 389.646 123.155 390.039 123.165 390.434L123.175 390.524C123.178 390.567 123.197 390.608 123.228 390.638C123.26 390.667 123.302 390.684 123.345 390.684Z" fill="black"></path>
  <path d="M179.944 394.396C181.917 397.163 184.331 397.416 187.184 395.156C187.431 394.956 187.674 394.96 187.914 395.166L190.084 397.056C190.391 397.316 190.394 397.583 190.094 397.856C182.084 405.186 170.764 396.646 176.174 387.136C180.624 379.296 191.814 383.826 191.064 392.986C191.031 393.4 190.807 393.606 190.394 393.606H180.354C180.262 393.606 180.171 393.631 180.093 393.678C180.014 393.726 179.95 393.794 179.907 393.876C179.865 393.958 179.846 394.05 179.852 394.141C179.859 394.233 179.891 394.321 179.944 394.396ZM180.034 390.656L186.174 390.636C186.222 390.636 186.267 390.617 186.301 390.584C186.335 390.55 186.354 390.504 186.354 390.456V390.376C186.351 389.572 186.021 388.801 185.437 388.233C184.852 387.665 184.06 387.346 183.234 387.346H182.974C182.563 387.346 182.157 387.425 181.778 387.579C181.398 387.732 181.054 387.957 180.764 388.24C180.474 388.524 180.245 388.86 180.089 389.23C179.932 389.6 179.853 389.996 179.854 390.396V390.476C179.854 390.5 179.859 390.523 179.868 390.545C179.877 390.567 179.89 390.587 179.907 390.604C179.923 390.62 179.943 390.634 179.965 390.643C179.987 390.652 180.01 390.656 180.034 390.656Z" fill="black"></path>
  <path d="M232.015 384.946L233.205 384.006C233.492 383.78 233.812 383.627 234.165 383.547C244.005 381.337 241.685 394.386 241.595 399.596C241.595 399.936 241.422 400.106 241.075 400.106H237.425C237.105 400.106 236.942 399.943 236.935 399.617C236.885 397.057 238.275 387.107 233.635 387.897C233.003 388.005 232.429 388.333 232.016 388.824C231.602 389.314 231.375 389.935 231.375 390.577V399.476C231.375 399.896 231.165 400.106 230.745 400.106H226.995C226.582 400.106 226.375 399.9 226.375 399.487V384.106C226.375 383.773 226.542 383.606 226.875 383.606H230.685C231.145 383.606 231.375 383.837 231.375 384.297C231.375 384.417 231.375 384.533 231.375 384.647C231.382 385.18 231.595 385.28 232.015 384.946Z" fill="black"></path>
  <path d="M259.954 394.398C261.874 397.138 264.257 397.411 267.104 395.218C267.437 394.958 267.761 394.974 268.074 395.268L269.924 396.998C269.99 397.061 270.043 397.137 270.079 397.221C270.115 397.305 270.134 397.395 270.134 397.486C270.134 397.577 270.115 397.666 270.079 397.749C270.043 397.832 269.99 397.906 269.924 397.968C263.864 403.678 253.874 399.598 254.904 390.878C256.174 380.058 271.704 380.708 271.074 393.168C271.069 393.286 271.018 393.398 270.932 393.48C270.847 393.562 270.733 393.608 270.614 393.608H260.364C260.272 393.607 260.181 393.632 260.103 393.68C260.024 393.727 259.96 393.796 259.917 393.877C259.875 393.959 259.856 394.051 259.862 394.143C259.869 394.234 259.901 394.323 259.954 394.398ZM260.034 390.658L266.174 390.638C266.222 390.638 266.267 390.619 266.301 390.585C266.335 390.551 266.354 390.505 266.354 390.458V390.378C266.351 389.573 266.021 388.802 265.437 388.234C264.852 387.666 264.06 387.348 263.234 387.348H262.974C262.563 387.348 262.157 387.427 261.778 387.58C261.398 387.733 261.054 387.958 260.764 388.242C260.474 388.525 260.245 388.861 260.089 389.231C259.932 389.601 259.853 389.998 259.854 390.398V390.478C259.854 390.501 259.859 390.525 259.868 390.547C259.877 390.568 259.89 390.588 259.907 390.605C259.923 390.622 259.943 390.635 259.965 390.644C259.987 390.653 260.01 390.658 260.034 390.658Z" fill="black"></path>
  <path d="M283.295 384.395L283.395 387.545C283.408 387.919 283.245 388.175 282.905 388.315C282.015 388.695 280.965 388.685 280.225 389.215C277.135 391.425 278.225 396.325 278.075 399.625C278.055 399.945 277.888 400.105 277.575 400.105H273.875C273.375 400.105 273.125 399.855 273.125 399.355V384.225C273.125 383.812 273.335 383.605 273.755 383.605H277.375C277.875 383.605 278.125 383.855 278.125 384.355V385.335C278.126 385.4 278.147 385.464 278.185 385.516C278.224 385.568 278.278 385.607 278.34 385.627C278.402 385.647 278.469 385.647 278.531 385.627C278.593 385.607 278.647 385.568 278.685 385.515C280.675 382.565 282.775 383.725 285.315 383.595C286.362 383.549 287.398 383.565 288.425 383.645C288.838 383.679 289.112 383.892 289.245 384.285L292.225 393.375C292.242 393.434 292.278 393.486 292.327 393.522C292.376 393.558 292.436 393.578 292.498 393.578C292.56 393.578 292.621 393.558 292.673 393.522C292.724 393.486 292.764 393.434 292.785 393.375L295.895 384.225C296.035 383.812 296.322 383.605 296.755 383.605H300.585C301.032 383.605 301.172 383.812 301.005 384.225L295.295 398.815C295.074 399.385 294.686 399.875 294.182 400.22C293.678 400.565 293.081 400.75 292.47 400.75C291.859 400.75 291.262 400.565 290.758 400.22C290.254 399.875 289.866 399.385 289.645 398.815L283.975 384.255C283.947 384.175 283.891 384.107 283.817 384.065C283.744 384.023 283.657 384.009 283.573 384.026C283.49 384.044 283.416 384.09 283.365 384.158C283.313 384.226 283.289 384.311 283.295 384.395Z" fill="black"></path>
  <path d="M305.925 394.404C307.852 397.138 310.208 397.394 312.995 395.174C313.092 395.097 313.213 395.054 313.338 395.054C313.463 395.054 313.585 395.097 313.685 395.174L315.925 396.924C316.298 397.218 316.315 397.531 315.975 397.864C312.808 400.931 309.352 401.598 305.605 399.865C298.335 396.515 299.545 384.584 307.775 383.394C313.725 382.524 317.515 387.154 317.035 393.004C317.002 393.404 316.785 393.604 316.385 393.604H306.335C306.243 393.603 306.152 393.627 306.073 393.675C305.994 393.723 305.93 393.792 305.888 393.874C305.845 393.957 305.826 394.05 305.833 394.144C305.84 394.237 305.871 394.328 305.925 394.404ZM305.825 390.624L312.185 390.604C312.23 390.604 312.273 390.587 312.305 390.555C312.337 390.523 312.355 390.48 312.355 390.434V390.354C312.352 389.558 312.01 388.795 311.402 388.232C310.795 387.67 309.973 387.354 309.115 387.354H308.895C308.469 387.355 308.047 387.433 307.653 387.585C307.259 387.737 306.901 387.959 306.6 388.24C306.299 388.52 306.061 388.853 305.899 389.22C305.736 389.586 305.654 389.978 305.655 390.374V390.454C305.655 390.5 305.673 390.543 305.705 390.575C305.737 390.607 305.78 390.624 305.825 390.624Z" fill="black"></path>
  <path d="M325.135 384.635C328.255 381.985 333.735 383.265 334.075 387.935C334.348 391.808 334.445 395.688 334.365 399.575C334.358 399.928 334.182 400.105 333.835 400.105H330.065C329.672 400.105 329.468 399.908 329.455 399.515C329.288 395.102 329.262 392.305 329.375 391.125C329.815 386.705 324.115 386.805 324.155 390.595C324.188 393.608 324.162 396.615 324.075 399.615C324.062 399.942 323.895 400.105 323.575 400.105H319.875C319.375 400.105 319.125 399.855 319.125 399.355V384.225C319.125 383.812 319.335 383.605 319.755 383.605H323.285C323.585 383.605 323.805 383.735 323.945 383.995L324.185 384.445C324.425 384.905 324.742 384.968 325.135 384.635Z" fill="black"></path>
  <path d="M373.672 391.187C373.769 392.323 373.634 393.467 373.273 394.555C372.912 395.643 372.334 396.653 371.57 397.528C370.806 398.402 369.872 399.124 368.821 399.652C367.771 400.18 366.624 400.503 365.446 400.604C363.068 400.808 360.709 400.092 358.888 398.615C357.068 397.137 355.934 395.018 355.738 392.725C355.64 391.589 355.776 390.444 356.136 389.357C356.497 388.269 357.076 387.259 357.84 386.384C358.604 385.51 359.537 384.788 360.588 384.26C361.639 383.732 362.786 383.409 363.963 383.308C366.342 383.104 368.7 383.819 370.521 385.297C372.342 386.775 373.475 388.893 373.672 391.187ZM368.935 391.956C368.935 391.399 368.825 390.848 368.612 390.333C368.399 389.819 368.087 389.351 367.693 388.958C367.299 388.564 366.832 388.252 366.317 388.039C365.803 387.826 365.252 387.716 364.695 387.716C363.57 387.716 362.492 388.163 361.697 388.958C360.901 389.753 360.455 390.831 360.455 391.956C360.455 393.08 360.901 394.159 361.697 394.954C362.492 395.749 363.57 396.196 364.695 396.196C365.819 396.196 366.898 395.749 367.693 394.954C368.488 394.159 368.935 393.08 368.935 391.956Z" fill="black"></path>
  <path d="M381.065 384.943C393.125 378.243 390.945 393.883 390.845 399.593C390.838 399.933 390.665 400.103 390.325 400.103H386.675C386.355 400.103 386.192 399.94 386.185 399.613C386.125 396.62 386.028 393.647 385.895 390.693C385.695 386.353 380.615 387.263 380.655 390.853C380.688 393.78 380.662 396.7 380.575 399.613C380.562 399.94 380.395 400.103 380.075 400.103H376.375C375.875 400.103 375.625 399.853 375.625 399.353V384.353C375.625 383.853 375.875 383.603 376.375 383.603H379.955C380.295 383.603 380.472 383.773 380.485 384.113L380.515 384.633C380.528 385.033 380.712 385.137 381.065 384.943Z" fill="black"></path>
  <path d="M437.188 391.278C437.36 393.571 436.58 395.841 435.019 397.589C433.458 399.337 431.243 400.42 428.863 400.599C427.685 400.687 426.501 400.552 425.379 400.199C424.258 399.846 423.22 399.284 422.327 398.544C421.433 397.804 420.7 396.9 420.17 395.885C419.64 394.87 419.324 393.763 419.238 392.628C419.066 390.335 419.846 388.065 421.407 386.317C422.968 384.569 425.183 383.487 427.563 383.308C428.742 383.219 429.925 383.355 431.047 383.707C432.168 384.06 433.206 384.622 434.099 385.363C434.993 386.103 435.726 387.006 436.256 388.021C436.786 389.036 437.102 390.143 437.188 391.278ZM432.453 391.963C432.453 390.841 432.007 389.765 431.214 388.972C430.421 388.179 429.345 387.733 428.223 387.733C427.101 387.733 426.025 388.179 425.232 388.972C424.439 389.765 423.993 390.841 423.993 391.963C423.993 393.085 424.439 394.161 425.232 394.954C426.025 395.747 427.101 396.193 428.223 396.193C429.345 396.193 430.421 395.747 431.214 394.954C432.007 394.161 432.453 393.085 432.453 391.963Z" fill="black"></path>
  <path d="M453.424 397.958C445.664 405.088 434.104 396.238 439.574 387.568C442.754 382.518 448.854 381.938 453.384 385.658C453.508 385.761 453.588 385.906 453.608 386.064C453.629 386.222 453.588 386.381 453.494 386.508C452.854 387.381 452.164 388.108 451.424 388.688C450.724 389.228 450.151 389.188 449.704 388.568C449.498 388.281 449.231 388.078 448.904 387.958C439.624 384.468 443.334 402.068 450.304 394.928C450.37 394.86 450.448 394.807 450.534 394.77C450.62 394.732 450.713 394.713 450.807 394.712C450.901 394.711 450.994 394.729 451.081 394.764C451.168 394.799 451.248 394.852 451.314 394.918L453.444 397.058C453.504 397.117 453.551 397.188 453.583 397.266C453.614 397.344 453.63 397.428 453.628 397.512C453.626 397.596 453.607 397.679 453.572 397.756C453.537 397.833 453.487 397.901 453.424 397.958Z" fill="black"></path>
  <path d="M472.584 389.835C472.254 386.685 467.214 387.625 465.284 388.505C464.911 388.678 464.657 388.565 464.524 388.165L463.624 385.365C463.511 385.025 463.617 384.785 463.944 384.645C468.474 382.695 476.564 382.235 477.054 388.945C477.314 392.385 477.427 395.845 477.394 399.325C477.391 399.475 477.339 399.62 477.247 399.737C477.155 399.854 477.027 399.938 476.884 399.975C475.277 400.381 473.754 400.241 472.314 399.555C472.047 399.428 471.781 399.431 471.514 399.565C466.954 401.915 460.754 399.675 462.254 393.885C463.394 389.505 468.114 389.955 472.104 390.325C472.464 390.358 472.624 390.195 472.584 389.835ZM472.742 394.367C472.635 393.845 472.221 393.408 471.59 393.153C470.959 392.898 470.164 392.845 469.38 393.006C468.595 393.167 467.885 393.529 467.406 394.012C466.927 394.495 466.719 395.06 466.826 395.582C466.933 396.104 467.347 396.541 467.978 396.796C468.609 397.052 469.404 397.105 470.188 396.944C470.973 396.783 471.683 396.421 472.162 395.938C472.641 395.454 472.85 394.89 472.742 394.367Z" fill="black"></path>
  <path d="M490.855 398.845C483.255 393.845 488.585 380.955 498.135 383.795C502.008 384.948 503.818 388.065 503.565 393.145C503.552 393.451 503.392 393.605 503.085 393.605H492.925C492.797 393.603 492.672 393.64 492.566 393.71C492.459 393.78 492.375 393.88 492.325 393.999C492.275 394.117 492.261 394.248 492.284 394.375C492.307 394.503 492.366 394.621 492.455 394.715C494.695 397.055 497.125 397.221 499.745 395.215C499.879 395.11 500.048 395.058 500.219 395.069C500.39 395.08 500.552 395.153 500.675 395.275L502.315 396.925C502.401 397.01 502.469 397.113 502.513 397.227C502.557 397.34 502.577 397.461 502.572 397.583C502.566 397.705 502.535 397.824 502.48 397.932C502.426 398.041 502.349 398.137 502.255 398.215C498.568 401.208 494.768 401.418 490.855 398.845ZM492.395 390.645L498.715 390.565C498.76 390.565 498.803 390.547 498.835 390.515C498.867 390.483 498.885 390.44 498.885 390.395V390.325C498.88 389.93 498.792 389.541 498.626 389.179C498.46 388.817 498.219 388.489 497.917 388.214C497.616 387.939 497.259 387.723 496.867 387.577C496.475 387.431 496.057 387.359 495.635 387.365H495.395C494.544 387.376 493.732 387.702 493.138 388.272C492.543 388.842 492.215 389.609 492.225 390.405V390.475C492.225 390.52 492.243 390.563 492.275 390.595C492.307 390.627 492.35 390.645 492.395 390.645Z" fill="black"></path>
  <path d="M353.045 383.605H349.465C349.139 383.605 348.875 383.87 348.875 384.195V399.515C348.875 399.841 349.139 400.105 349.465 400.105H353.045C353.371 400.105 353.635 399.841 353.635 399.515V384.195C353.635 383.87 353.371 383.605 353.045 383.605Z" fill="black"></path>
  <path d="M459.545 383.605H455.965C455.639 383.605 455.375 383.87 455.375 384.195V399.515C455.375 399.841 455.639 400.105 455.965 400.105H459.545C459.871 400.105 460.135 399.841 460.135 399.515V384.195C460.135 383.87 459.871 383.605 459.545 383.605Z" fill="black"></path>
</svg>
