<?xml version="1.0" encoding="UTF-8"?>
<svg xmlns="http://www.w3.org/2000/svg" width="700" height="440" viewBox="0 0 700 440" fill="none">
  <path d="M182.442 236.301C160.674 273.616 109.875 278.393 82.4939 243.977C82.4449 243.914 82.374 243.872 82.2952 243.858C82.2165 243.845 82.1355 243.861 82.0681 243.904C82.0007 243.947 81.9519 244.013 81.931 244.091C81.9102 244.168 81.9189 244.25 81.9555 244.321C93.1296 267.219 110.563 281.265 134.255 286.459C169.977 294.284 205.94 275.094 218.611 241.4C231.087 208.244 219.012 171.273 189.098 152.484C166.979 138.583 142.844 137.17 116.692 148.245C116.611 148.279 116.545 148.342 116.508 148.422C116.471 148.501 116.464 148.592 116.49 148.676C116.515 148.761 116.571 148.832 116.647 148.877C116.722 148.923 116.812 148.938 116.898 148.921C145.494 143.582 171.421 156.551 181.858 184.254C184.539 191.357 183.439 196.547 176.003 199.17C161.553 204.265 134.358 214.19 94.4203 228.946C94.0537 229.084 93.9773 229.317 94.1912 229.645C111.835 256.522 149.504 256.133 166.414 228.797C168.446 225.521 170.092 223.481 171.352 222.679C176.359 219.494 184.527 223.596 184.585 229.897C184.607 231.684 183.893 233.819 182.442 236.301Z" stroke="black" stroke-width="2"></path>
  <path d="M162.542 184.631C152.586 165.659 130.074 161.283 111.64 169.406C95.5623 176.486 87.4968 190.287 87.4434 210.81C87.4434 211.948 87.978 212.322 89.0473 211.933L162.256 185.388C162.327 185.363 162.393 185.322 162.447 185.269C162.502 185.216 162.544 185.151 162.571 185.079C162.598 185.007 162.61 184.93 162.605 184.853C162.6 184.776 162.578 184.7 162.542 184.631Z" stroke="black" stroke-width="2"></path>
  <path d="M360.891 182.214C325.158 208.335 351.6 264.691 394.07 252.558C416.181 246.245 426.939 224.661 419.251 202.928C417.602 198.242 414.027 197.692 409.57 199.284C397.297 203.646 385.053 208.079 372.84 212.586C362.3 216.481 367.513 227.159 375.475 224.294C386.642 220.269 397.793 216.214 408.929 212.127C409.008 212.097 409.093 212.085 409.177 212.093C409.261 212.101 409.343 212.128 409.415 212.172C409.487 212.217 409.548 212.277 409.592 212.349C409.637 212.42 409.665 212.502 409.674 212.586C410.911 224.21 406.573 232.86 396.659 238.535C377.801 249.316 354.979 234.686 355.93 213.25C356.744 195.217 375.006 181.87 393.004 188.481C403.395 192.296 405.584 180.037 398.881 177.757C384.385 172.808 371.721 174.294 360.891 182.214Z" stroke="black" stroke-width="2"></path>
  <path d="M320.391 200.234C309.423 204.114 298.478 208.082 287.556 212.138C278.677 215.426 283.168 226.012 289.79 223.87C295.274 222.105 307.735 217.568 327.174 210.259C332.89 208.117 336.545 206.719 333.727 199.41C319.188 161.843 264.517 170.871 260.072 208.964C255.042 252.019 311.043 271.449 333.704 234.501C339.1 225.691 328.205 220.009 324.401 226.711C320.651 233.333 315.598 237.908 309.244 240.436C281.931 251.308 258.823 215.655 280.018 194.827C291.704 183.336 311.959 184.791 320.643 199.559C320.834 199.887 320.75 200.112 320.391 200.234Z" stroke="black" stroke-width="2"></path>
  <path d="M446.737 180.986C446.737 179.467 446.133 178.01 445.059 176.936C443.985 175.861 442.527 175.258 441.008 175.258H440.779C439.26 175.258 437.803 175.861 436.729 176.936C435.654 178.01 435.051 179.467 435.051 180.986V248.489C435.051 250.008 435.654 251.465 436.729 252.54C437.803 253.614 439.26 254.217 440.779 254.217H441.008C442.527 254.217 443.985 253.614 445.059 252.54C446.133 251.465 446.737 250.008 446.737 248.489V180.986Z" stroke="black" stroke-width="2"></path>
  <path d="M558.268 229.405C558.235 229.355 558.214 229.299 558.206 229.24C558.198 229.181 558.204 229.121 558.222 229.065C558.241 229.009 558.273 228.957 558.314 228.915C558.356 228.872 558.407 228.84 558.463 228.821C575.526 222.626 592.509 216.512 609.411 210.478C614.452 208.691 618.29 206.606 616.216 200.534C602.377 160.103 544.486 171.193 541.988 212.094C540.877 230.253 553.044 247.713 570.367 252.49C587.517 257.233 604.026 251.115 614.395 236.611C616.526 233.625 617.576 231.585 617.545 230.493C617.328 223.837 609.629 221.007 606.386 226.987C595.904 246.315 570.642 247.724 558.268 229.405Z" stroke="black" stroke-width="2"></path>
  <path d="M460.861 182.433L461.09 248.606C461.093 249.451 461.263 250.286 461.588 251.064C461.914 251.843 462.39 252.55 462.989 253.145C463.588 253.739 464.298 254.21 465.079 254.53C465.86 254.851 466.697 255.014 467.541 255.011L495.22 254.919C505.918 254.882 516.164 250.684 523.703 243.248C531.242 235.812 535.457 225.747 535.422 215.268C535.404 210.078 534.343 204.943 532.299 200.156C530.255 195.369 527.269 191.022 523.51 187.366C519.752 183.709 515.295 180.814 510.393 178.845C505.492 176.876 500.243 175.872 494.945 175.891L467.266 175.983C466.422 175.986 465.586 176.155 464.808 176.481C464.029 176.806 463.322 177.282 462.728 177.881C462.133 178.48 461.662 179.19 461.342 179.971C461.022 180.752 460.858 181.589 460.861 182.433Z" stroke="black" stroke-width="2"></path>
  <path d="M546.914 280.947L547.315 278.758C547.342 278.608 547.415 278.47 547.524 278.363C547.633 278.257 547.772 278.186 547.923 278.163L550.466 277.784C550.667 277.772 550.854 277.681 550.987 277.531C551.12 277.38 551.188 277.183 551.176 276.983C551.164 276.782 551.073 276.594 550.922 276.461C550.772 276.328 550.575 276.26 550.374 276.272C546.548 276.15 544.902 277.727 545.437 281.004C545.521 281.516 545.303 281.749 544.783 281.703C544.218 281.657 543.718 281.836 543.283 282.241C542.817 282.684 542.893 282.993 543.512 283.169L544.818 283.559C545.123 283.65 545.276 283.853 545.276 284.166V295.497C545.277 295.59 545.302 295.682 545.349 295.762C545.397 295.842 545.465 295.909 545.547 295.954C545.628 296 545.72 296.023 545.814 296.021C545.907 296.019 545.998 295.992 546.078 295.943L546.605 295.634C546.865 295.481 546.995 295.256 546.995 294.958V283.708C546.995 283.181 547.235 283.024 547.716 283.238C548.488 283.597 549.202 283.52 549.859 283.009C550.493 282.52 550.413 282.199 549.618 282.046L547.384 281.622C547.002 281.554 546.846 281.328 546.914 280.947Z" stroke="black" stroke-width="2"></path>
  <path d="M402.961 282.138C399.788 271.437 384.986 277.773 388.652 289.47C391.424 298.361 403.878 296.688 403.122 287.019C403.083 286.537 402.828 286.301 402.354 286.308L396.397 286.32C396.228 286.318 396.064 286.384 395.942 286.502C395.819 286.62 395.748 286.781 395.743 286.95C395.739 287.118 395.801 287.281 395.917 287.401C396.033 287.521 396.193 287.59 396.362 287.591L400.75 287.809C401.132 287.832 401.327 288.034 401.334 288.416C401.403 290.868 400.315 292.468 398.069 293.217C387.655 296.699 386.269 276.043 398.046 278.85C400.498 279.434 400.372 282.035 401.598 282.791C401.858 282.944 402.186 282.963 402.583 282.848C402.655 282.827 402.722 282.792 402.781 282.745C402.839 282.698 402.887 282.639 402.922 282.573C402.957 282.507 402.979 282.434 402.986 282.359C402.992 282.285 402.984 282.209 402.961 282.138Z" stroke="black" stroke-width="2"></path>
  <path d="M479.309 277.201L479.331 295.509C479.331 295.578 479.359 295.645 479.409 295.695C479.458 295.744 479.525 295.772 479.595 295.772L485.461 295.761C487.815 295.757 490.072 294.871 491.735 293.296C493.398 291.721 494.331 289.587 494.328 287.363V285.301C494.327 284.199 494.096 283.109 493.648 282.092C493.201 281.075 492.546 280.151 491.72 279.374C490.894 278.596 489.915 277.979 488.837 277.559C487.759 277.139 486.604 276.924 485.438 276.926L479.572 276.937C479.502 276.937 479.435 276.965 479.386 277.014C479.336 277.064 479.309 277.131 479.309 277.201Z" stroke="black" stroke-width="2"></path>
  <path d="M505.028 292.725C498.051 292.061 499.277 282.563 499.758 277.786C499.769 277.686 499.76 277.586 499.732 277.49C499.704 277.394 499.657 277.304 499.594 277.226C499.531 277.149 499.454 277.084 499.366 277.037C499.278 276.989 499.181 276.959 499.082 276.949L497.844 276.823C497.287 276.77 496.989 277.026 496.951 277.591C496.515 284.327 495.484 294.604 504.959 295.589C505.486 295.643 505.75 295.406 505.75 294.879V293.516C505.75 293.035 505.509 292.771 505.028 292.725Z" stroke="black" stroke-width="2"></path>
  <path d="M524.883 280.524C521.114 273.341 509.451 277.752 513.221 284.053C515.271 287.478 523.371 286.997 523.566 290.686C523.749 294.112 519.384 295.154 516.829 294.284C515.122 293.699 514.492 292.244 513.163 291.018C512.713 290.598 512.457 290.694 512.396 291.305C511.662 298.133 527.599 298.167 524.815 289.048C524.651 288.513 524.366 288.022 523.983 287.613C523.6 287.204 523.128 286.888 522.604 286.688L515.89 284.179C515.603 284.072 515.34 283.908 515.119 283.696C514.898 283.484 514.722 283.229 514.603 282.947C514.484 282.665 514.424 282.361 514.427 282.055C514.429 281.748 514.494 281.446 514.618 281.166C516.314 277.328 522.008 277.545 523.337 281.693C523.368 281.788 523.423 281.875 523.497 281.943C523.571 282.011 523.661 282.059 523.759 282.082C523.857 282.105 523.959 282.102 524.056 282.074C524.153 282.046 524.24 281.994 524.311 281.922L524.735 281.509C525.025 281.219 525.074 280.891 524.883 280.524Z" stroke="black" stroke-width="2"></path>
  <path d="M555.85 281.728L555.884 278.864C555.89 278.633 555.804 278.414 555.645 278.255C555.486 278.096 555.267 278.01 555.036 278.016C554.806 278.022 554.582 278.12 554.414 278.287C554.246 278.455 554.149 278.679 554.143 278.91C554.127 279.643 554.154 280.373 554.223 281.098C554.246 281.32 554.154 281.473 553.948 281.557L552.562 282.118C552.458 282.159 552.371 282.233 552.312 282.328C552.254 282.423 552.228 282.534 552.239 282.645C552.249 282.756 552.295 282.86 552.37 282.943C552.444 283.026 552.544 283.082 552.653 283.103L553.41 283.252C553.875 283.344 554.112 283.626 554.12 284.1C554.189 287.778 552.333 296.851 558.737 296.015C558.92 295.992 559.054 295.935 559.138 295.843C559.23 295.736 559.287 295.61 559.31 295.465C559.323 295.389 559.32 295.311 559.3 295.236C559.28 295.161 559.245 295.092 559.196 295.032C559.147 294.972 559.086 294.924 559.017 294.89C558.947 294.856 558.871 294.837 558.794 294.835C554.486 294.663 555.85 286.701 555.896 283.779C555.898 283.674 555.925 283.57 555.974 283.477C556.023 283.384 556.093 283.303 556.179 283.241C556.264 283.179 556.362 283.137 556.466 283.119C556.57 283.101 556.677 283.108 556.778 283.138L557.981 283.516C558.101 283.553 558.229 283.562 558.353 283.542C558.478 283.521 558.595 283.471 558.697 283.396C558.798 283.322 558.881 283.224 558.938 283.111C558.994 282.999 559.024 282.874 559.023 282.748V282.45C559.023 281.977 558.79 281.767 558.324 281.82L556.239 282.072C555.98 282.103 555.85 281.988 555.85 281.728Z" stroke="black" stroke-width="2"></path>
  <path d="M408.207 282.369L407.508 281.567C407.431 281.475 407.327 281.41 407.211 281.379C407.095 281.348 406.973 281.354 406.86 281.395C406.748 281.436 406.65 281.511 406.582 281.61C406.513 281.708 406.477 281.825 406.477 281.945L406.328 294.204C406.328 294.555 406.492 294.792 406.821 294.914L407.394 295.12C407.461 295.144 407.532 295.152 407.603 295.144C407.673 295.135 407.74 295.11 407.799 295.071C407.857 295.031 407.905 294.979 407.938 294.918C407.971 294.857 407.989 294.789 407.989 294.719L408.276 284.695C408.291 284.153 408.562 283.813 409.089 283.675L412.4 282.839C412.557 282.798 412.694 282.704 412.791 282.574C412.887 282.444 412.935 282.284 412.929 282.123C412.922 281.961 412.86 281.806 412.754 281.685C412.647 281.563 412.502 281.481 412.343 281.453C411.113 281.254 410.09 281.571 409.273 282.404C408.906 282.778 408.551 282.766 408.207 282.369Z" stroke="black" stroke-width="2"></path>
  <path d="M419.51 295.324C421.102 295.344 422.638 294.626 423.78 293.329C424.921 292.032 425.575 290.263 425.598 288.409C425.621 286.556 425.01 284.771 423.9 283.447C422.791 282.122 421.273 281.367 419.681 281.348C418.089 281.329 416.553 282.046 415.411 283.343C414.269 284.64 413.615 286.409 413.592 288.263C413.57 290.116 414.181 291.901 415.29 293.225C416.4 294.55 417.918 295.305 419.51 295.324Z" stroke="black" stroke-width="2"></path>
  <path d="M436.127 292.405C428.394 297.721 430.135 285.348 430.204 282.415C430.219 281.957 429.998 281.728 429.54 281.728H429.024C428.65 281.728 428.455 281.915 428.44 282.289C428.291 287.559 426.79 295.98 434.248 295.121C434.587 295.084 434.899 294.92 435.119 294.662C436.143 293.501 436.922 293.559 437.456 294.834C437.498 294.941 437.577 295.03 437.677 295.085C437.778 295.141 437.895 295.159 438.008 295.137C438.121 295.115 438.222 295.055 438.295 294.966C438.368 294.877 438.408 294.766 438.407 294.651L438.522 282.22C438.522 282.108 438.498 281.997 438.45 281.896C438.402 281.794 438.333 281.704 438.246 281.633C438.159 281.562 438.058 281.511 437.949 281.484C437.84 281.456 437.727 281.454 437.617 281.476C437.044 281.59 436.78 281.957 436.826 282.576C437.071 285.608 436.994 288.629 436.597 291.638C436.551 291.966 436.395 292.222 436.127 292.405Z" stroke="black" stroke-width="2"></path>
  <path d="M444.171 293.436C447.826 296.953 452.156 295.085 453.187 290.594C454.436 285.129 450.598 278.015 444.389 283.056C443.938 283.422 443.69 283.315 443.644 282.735L443.575 281.853C443.566 281.738 443.513 281.631 443.425 281.555C443.338 281.478 443.223 281.437 443.105 281.44C442.991 281.44 442.873 281.44 442.75 281.44C442.674 281.439 442.598 281.453 442.528 281.481C442.457 281.509 442.392 281.551 442.338 281.604C442.283 281.657 442.24 281.721 442.211 281.791C442.181 281.862 442.166 281.937 442.166 282.013V299.439C442.166 299.714 442.296 299.897 442.556 299.989C442.937 300.126 443.247 300.111 443.484 299.943C443.728 299.767 443.869 299.427 443.907 298.923C444.022 297.167 443.835 295.509 443.346 293.951C443.314 293.845 443.318 293.732 443.357 293.628C443.396 293.525 443.468 293.437 443.562 293.378C443.655 293.32 443.766 293.293 443.876 293.304C443.986 293.314 444.09 293.36 444.171 293.436Z" stroke="black" stroke-width="2"></path>
  <path d="M458.788 288.887H466.499C466.642 288.887 466.784 288.856 466.914 288.796C467.045 288.736 467.161 288.649 467.254 288.54C467.348 288.431 467.417 288.304 467.456 288.166C467.496 288.028 467.505 287.883 467.484 287.741C466.949 284.014 465.296 281.956 462.523 281.566C454.24 280.397 453.129 294.249 461.343 295.154C464.131 295.459 466.01 294.459 466.98 292.152C467.031 292.03 467.04 291.896 467.005 291.768C466.971 291.641 466.896 291.529 466.791 291.449C466.686 291.369 466.558 291.326 466.427 291.327C466.295 291.328 466.167 291.372 466.063 291.453L463.852 293.229C463.577 293.45 463.268 293.588 462.924 293.641C460.327 294.023 458.563 293 457.631 290.571C457.196 289.448 457.582 288.887 458.788 288.887Z" stroke="black" stroke-width="2"></path>
  <path d="M534.422 296.242C535.233 296.246 536.037 296.061 536.788 295.695C537.539 295.33 538.223 294.793 538.8 294.114C539.377 293.435 539.836 292.628 540.151 291.739C540.466 290.849 540.63 289.895 540.635 288.931C540.646 286.983 540.005 285.112 538.854 283.729C537.703 282.345 536.137 281.563 534.499 281.555C533.688 281.551 532.884 281.736 532.133 282.101C531.382 282.467 530.698 283.004 530.121 283.683C529.544 284.362 529.085 285.169 528.77 286.058C528.455 286.948 528.29 287.902 528.285 288.866C528.275 290.814 528.916 292.685 530.067 294.068C531.218 295.451 532.784 296.233 534.422 296.242Z" stroke="black" stroke-width="2"></path>
  <path d="M574.617 292.609L572.039 282.287C571.976 282.04 571.835 281.821 571.635 281.663C571.435 281.506 571.189 281.418 570.935 281.414C570.681 281.41 570.432 281.49 570.228 281.642C570.024 281.793 569.875 282.008 569.805 282.253L566.838 292.586C566.693 293.106 566.536 293.11 566.368 292.598C565.314 289.398 564.34 286.171 563.446 282.917C563.263 282.245 562.916 281.848 562.404 281.726C562.287 281.698 562.166 281.702 562.051 281.736C561.936 281.77 561.833 281.833 561.751 281.92C561.67 282.006 561.613 282.112 561.587 282.227C561.561 282.342 561.566 282.461 561.602 282.573L565.417 294.889C565.491 295.122 565.637 295.326 565.835 295.47C566.032 295.614 566.271 295.691 566.515 295.689C566.76 295.688 566.998 295.609 567.194 295.463C567.39 295.317 567.534 295.112 567.605 294.878L570.607 284.853C570.63 284.79 570.672 284.736 570.727 284.698C570.782 284.66 570.848 284.64 570.915 284.642C570.982 284.643 571.046 284.665 571.1 284.705C571.154 284.745 571.194 284.801 571.214 284.865L574.044 295.359C574.103 295.581 574.232 295.777 574.413 295.919C574.594 296.06 574.815 296.139 575.045 296.143C575.274 296.147 575.499 296.075 575.684 295.94C575.869 295.805 576.005 295.613 576.072 295.393L580.001 282.676C580.162 282.165 579.971 281.916 579.429 281.932L578.455 281.966C578.404 281.966 578.355 281.983 578.315 282.017C578.275 282.05 578.248 282.097 578.237 282.149C577.389 285.693 576.373 289.191 575.19 292.644C575.168 292.705 575.128 292.758 575.074 292.794C575.019 292.831 574.955 292.848 574.89 292.844C574.825 292.84 574.763 292.815 574.714 292.773C574.665 292.73 574.63 292.673 574.617 292.609Z" stroke="black" stroke-width="2"></path>
  <path d="M591.756 294.812L592.535 296.084C592.586 296.171 592.664 296.239 592.758 296.276C592.851 296.313 592.955 296.317 593.052 296.289C593.15 296.26 593.237 296.2 593.298 296.117C593.36 296.034 593.394 295.934 593.394 295.832V285.074C593.394 284.68 593.265 284.297 593.027 283.985C591.003 281.343 588.296 280.781 584.904 282.301C583.705 282.844 583.224 283.581 583.461 284.512C583.606 285.093 583.931 285.215 584.435 284.879C586.642 283.359 588.487 282.882 589.968 283.447C591.458 284.02 591.989 285.081 591.561 286.632C591.461 286.983 591.241 287.289 590.94 287.496C590.639 287.703 590.275 287.799 589.911 287.766C577.309 286.712 583.644 301.159 590.965 294.697C591.021 294.646 591.087 294.609 591.159 294.587C591.231 294.565 591.308 294.559 591.383 294.57C591.458 294.581 591.531 294.608 591.595 294.65C591.659 294.692 591.714 294.747 591.756 294.812Z" stroke="black" stroke-width="2"></path>
  <path d="M600.095 284.511C601.111 283.64 602.291 283.293 603.635 283.468C603.716 283.478 603.798 283.471 603.876 283.446C603.954 283.422 604.025 283.381 604.086 283.327C604.146 283.273 604.195 283.206 604.228 283.132C604.261 283.057 604.278 282.977 604.277 282.896V282.472C604.277 282.082 604.086 281.849 603.704 281.773C602.07 281.429 600.89 281.964 600.164 283.377C600.122 283.461 600.051 283.528 599.964 283.565C599.877 283.602 599.78 283.607 599.69 283.58C599.599 283.553 599.522 283.494 599.47 283.415C599.418 283.336 599.396 283.241 599.408 283.148C599.507 282.2 599.133 281.719 598.285 281.704C597.888 281.704 597.689 281.899 597.689 282.288V295.452C597.69 295.589 597.728 295.723 597.799 295.841C597.869 295.959 597.97 296.055 598.09 296.121C598.211 296.186 598.347 296.218 598.484 296.213C598.621 296.209 598.754 296.167 598.87 296.094C599.404 295.765 599.633 295.177 599.557 294.329C599.282 291.412 599.274 288.502 599.534 285.599C599.572 285.164 599.759 284.801 600.095 284.511Z" stroke="black" stroke-width="2"></path>
  <path d="M608.001 289.461H617.201C617.697 289.461 617.96 289.213 617.991 288.716C618.186 284.5 615.356 281.235 611.014 281.739C604.804 282.461 603.98 293.299 609.582 295.59C612.309 296.713 616.754 296.14 617.418 292.623C617.432 292.562 617.427 292.498 617.404 292.439C617.381 292.381 617.34 292.331 617.288 292.296C617.236 292.262 617.174 292.244 617.112 292.245C617.049 292.246 616.988 292.266 616.937 292.302C612.801 295.109 608.07 295.957 607.451 290.079C607.405 289.667 607.588 289.461 608.001 289.461Z" stroke="black" stroke-width="2"></path>
  <path d="M602.594 199.389C588.055 175.765 551.027 189.295 554.052 216.963C554.105 217.414 554.346 217.563 554.774 217.41L602.284 200.282C602.758 200.114 602.861 199.816 602.594 199.389Z" stroke="black" stroke-width="2"></path>
  <path d="M472.57 188.651L472.479 242.13C472.479 242.377 472.576 242.613 472.75 242.787C472.924 242.961 473.16 243.058 473.407 243.058L495.025 243.104C498.781 243.111 502.501 242.404 505.972 241.025C509.444 239.646 512.6 237.622 515.26 235.067C517.919 232.513 520.031 229.479 521.473 226.138C522.916 222.797 523.661 219.215 523.667 215.597V215.368C523.679 208.06 520.677 201.048 515.323 195.872C509.969 190.696 502.701 187.781 495.117 187.768L473.498 187.723C473.252 187.723 473.016 187.82 472.842 187.994C472.668 188.168 472.57 188.405 472.57 188.651Z" stroke="black" stroke-width="2"></path>
  <path d="M482.148 279.986L482.332 292.657C482.335 292.725 482.364 292.789 482.413 292.836C482.462 292.883 482.527 292.909 482.595 292.909L485.471 292.875C486.305 292.863 487.128 292.684 487.893 292.35C488.659 292.015 489.352 291.531 489.933 290.925C490.514 290.318 490.971 289.601 491.279 288.816C491.586 288.03 491.739 287.19 491.726 286.344V286.023C491.714 285.178 491.538 284.343 491.208 283.567C490.878 282.79 490.4 282.087 489.802 281.498C489.204 280.908 488.498 280.444 487.723 280.132C486.949 279.819 486.121 279.664 485.288 279.676L482.412 279.722C482.342 279.722 482.275 279.75 482.226 279.799C482.176 279.849 482.148 279.916 482.148 279.986Z" stroke="black" stroke-width="2"></path>
  <path d="M419.519 293.814C420.65 293.83 421.742 293.266 422.555 292.246C423.369 291.225 423.837 289.833 423.858 288.375C423.878 286.917 423.448 285.512 422.664 284.469C421.879 283.427 420.803 282.833 419.673 282.817C418.543 282.801 417.451 283.365 416.637 284.385C415.824 285.405 415.355 286.798 415.335 288.256C415.314 289.714 415.744 291.119 416.529 292.161C417.313 293.204 418.389 293.798 419.519 293.814Z" stroke="black" stroke-width="2"></path>
  <path d="M447.864 293.735C448.955 293.73 449.998 293.151 450.764 292.126C451.53 291.102 451.956 289.715 451.949 288.272C451.945 287.557 451.835 286.85 451.625 286.191C451.415 285.532 451.108 284.934 450.724 284.43C450.339 283.927 449.884 283.528 449.383 283.258C448.883 282.987 448.347 282.849 447.807 282.852C446.716 282.857 445.673 283.436 444.907 284.461C444.141 285.485 443.715 286.872 443.723 288.315C443.727 289.03 443.837 289.737 444.047 290.396C444.257 291.055 444.563 291.653 444.948 292.157C445.332 292.66 445.788 293.058 446.288 293.329C446.789 293.6 447.324 293.738 447.864 293.735Z" stroke="black" stroke-width="2"></path>
  <path d="M457.917 287.455H465.364C465.44 287.455 465.513 287.425 465.567 287.371C465.62 287.317 465.651 287.244 465.651 287.168V286.974C465.651 286.441 465.551 285.914 465.358 285.422C465.166 284.93 464.883 284.482 464.526 284.106C464.17 283.729 463.747 283.431 463.281 283.227C462.816 283.023 462.317 282.918 461.813 282.918H461.469C460.965 282.918 460.466 283.023 460 283.227C459.534 283.431 459.111 283.729 458.755 284.106C458.399 284.482 458.116 284.93 457.923 285.422C457.73 285.914 457.631 286.441 457.631 286.974V287.168C457.631 287.244 457.661 287.317 457.715 287.371C457.768 287.425 457.841 287.455 457.917 287.455Z" stroke="black" stroke-width="2"></path>
  <path d="M534.371 294.636C535.562 294.657 536.715 294.068 537.576 292.997C538.437 291.927 538.936 290.464 538.962 288.93C538.989 287.396 538.542 285.916 537.718 284.817C536.895 283.717 535.764 283.088 534.573 283.067C533.382 283.046 532.229 283.636 531.368 284.706C530.507 285.776 530.008 287.239 529.982 288.773C529.955 290.307 530.402 291.787 531.225 292.887C532.049 293.986 533.18 294.616 534.371 294.636Z" stroke="black" stroke-width="2"></path>
  <path d="M590.404 288.819L584.744 290.343C584.623 290.375 584.509 290.43 584.409 290.506C584.309 290.583 584.226 290.678 584.163 290.786C584.1 290.895 584.059 291.015 584.043 291.139C584.027 291.264 584.035 291.39 584.068 291.511L584.126 291.706C584.4 292.713 585.047 293.574 585.926 294.1C586.804 294.626 587.842 294.775 588.811 294.513L588.995 294.467C589.965 294.205 590.787 293.554 591.282 292.656C591.776 291.758 591.901 290.687 591.63 289.678L591.572 289.484C591.506 289.241 591.345 289.034 591.126 288.909C590.907 288.785 590.647 288.752 590.404 288.819Z" stroke="black" stroke-width="2"></path>
  <path d="M607.794 287.947L616.043 287.615C616.092 287.612 616.139 287.59 616.173 287.554C616.207 287.518 616.226 287.47 616.226 287.42V287.34C616.204 286.78 616.072 286.23 615.837 285.721C615.603 285.213 615.271 284.755 614.86 284.376C614.45 283.996 613.968 283.701 613.444 283.508C612.919 283.314 612.362 283.227 611.804 283.25H611.666C611.108 283.272 610.559 283.404 610.052 283.639C609.545 283.874 609.089 284.207 608.71 284.618C608.331 285.03 608.037 285.513 607.844 286.039C607.652 286.565 607.565 287.124 607.588 287.683L607.599 287.764C607.602 287.813 607.624 287.86 607.66 287.894C607.696 287.928 607.744 287.947 607.794 287.947Z" stroke="black" stroke-width="2"></path>
  <path d="M82.4939 243.977C109.875 278.393 160.674 273.616 182.442 236.301C183.893 233.819 184.607 231.684 184.585 229.897C184.527 223.596 176.359 219.494 171.352 222.679C170.092 223.481 168.446 225.521 166.414 228.797C149.504 256.133 111.835 256.522 94.1912 229.645C93.9773 229.317 94.0537 229.084 94.4203 228.946C134.358 214.19 161.553 204.265 176.003 199.17C183.439 196.547 184.539 191.357 181.858 184.254C171.421 156.551 145.494 143.582 116.898 148.921C116.812 148.938 116.722 148.923 116.647 148.877C116.571 148.832 116.515 148.761 116.49 148.676C116.464 148.592 116.471 148.501 116.508 148.422C116.545 148.342 116.611 148.279 116.692 148.245C142.844 137.17 166.979 138.583 189.098 152.484C219.012 171.273 231.087 208.244 218.611 241.4C205.94 275.094 169.977 294.284 134.255 286.459C110.563 281.265 93.1296 267.219 81.9555 244.321C81.9189 244.25 81.9102 244.168 81.931 244.091C81.9519 244.013 82.0007 243.947 82.0681 243.904C82.1355 243.861 82.2165 243.845 82.2952 243.858C82.374 243.872 82.4449 243.914 82.4939 243.977Z" fill="black"></path>
  <path d="M111.64 169.406C130.074 161.283 152.586 165.659 162.542 184.631C162.578 184.7 162.6 184.776 162.605 184.853C162.61 184.93 162.598 185.007 162.571 185.079C162.544 185.151 162.502 185.216 162.447 185.269C162.393 185.322 162.327 185.363 162.256 185.388L89.0473 211.933C87.978 212.322 87.4434 211.948 87.4434 210.81C87.4968 190.287 95.5623 176.486 111.64 169.406Z" fill="black"></path>
  <path d="M360.891 182.214C371.721 174.294 384.385 172.808 398.881 177.757C405.584 180.037 403.395 192.296 393.004 188.481C375.006 181.87 356.744 195.217 355.93 213.25C354.979 234.686 377.801 249.316 396.659 238.535C406.573 232.86 410.911 224.21 409.674 212.586C409.665 212.502 409.637 212.42 409.592 212.349C409.548 212.277 409.487 212.217 409.415 212.172C409.343 212.128 409.261 212.101 409.177 212.093C409.093 212.085 409.008 212.097 408.929 212.127C397.793 216.214 386.642 220.269 375.475 224.294C367.513 227.159 362.3 216.481 372.84 212.586C385.053 208.079 397.297 203.646 409.57 199.284C414.027 197.692 417.602 198.242 419.251 202.928C426.939 224.661 416.181 246.245 394.07 252.558C351.6 264.691 325.158 208.335 360.891 182.214Z" fill="black"></path>
  <path d="M320.643 199.559C311.959 184.791 291.704 183.336 280.018 194.827C258.823 215.655 281.931 251.308 309.244 240.436C315.598 237.908 320.651 233.333 324.401 226.711C328.205 220.009 339.1 225.691 333.704 234.501C311.043 271.449 255.042 252.019 260.072 208.964C264.517 170.871 319.188 161.843 333.727 199.41C336.545 206.719 332.89 208.117 327.174 210.259C307.735 217.568 295.274 222.105 289.79 223.87C283.168 226.012 278.677 215.426 287.556 212.138C298.478 208.082 309.423 204.114 320.391 200.234C320.75 200.112 320.834 199.887 320.643 199.559Z" fill="black"></path>
  <path d="M441.008 175.258H440.779C437.615 175.258 435.051 177.822 435.051 180.986V248.489C435.051 251.653 437.615 254.217 440.779 254.217H441.008C444.172 254.217 446.737 251.653 446.737 248.489V180.986C446.737 177.822 444.172 175.258 441.008 175.258Z" fill="black"></path>
  <path d="M558.266 229.405C570.64 247.724 595.902 246.315 606.384 226.987C609.627 221.007 617.326 223.837 617.543 230.493C617.574 231.585 616.524 233.625 614.393 236.611C604.024 251.115 587.515 257.233 570.365 252.49C553.042 247.713 540.875 230.253 541.986 212.094C544.484 171.193 602.375 160.103 616.214 200.534C618.288 206.606 614.45 208.691 609.409 210.478C592.507 216.512 575.524 222.626 558.461 228.821C558.405 228.84 558.354 228.872 558.312 228.915C558.271 228.957 558.239 229.009 558.22 229.065C558.202 229.121 558.196 229.181 558.204 229.24C558.212 229.299 558.233 229.355 558.266 229.405ZM602.592 199.388C588.054 175.765 551.026 189.295 554.05 216.963C554.104 217.413 554.344 217.562 554.772 217.41L602.283 200.282C602.757 200.114 602.86 199.816 602.592 199.388Z" fill="black"></path>
  <path d="M460.863 182.433C460.86 181.589 461.024 180.752 461.344 179.971C461.664 179.19 462.135 178.48 462.73 177.881C463.324 177.282 464.031 176.806 464.81 176.481C465.588 176.155 466.424 175.986 467.268 175.983L494.947 175.891C500.245 175.872 505.494 176.876 510.395 178.845C515.296 180.814 519.754 183.709 523.512 187.366C527.271 191.022 530.257 195.369 532.301 200.156C534.345 204.943 535.406 210.078 535.423 215.268C535.459 225.747 531.244 235.812 523.705 243.248C516.166 250.684 505.92 254.882 495.222 254.919L467.543 255.011C466.699 255.014 465.862 254.851 465.081 254.53C464.3 254.21 463.59 253.739 462.991 253.145C462.392 252.55 461.916 251.843 461.59 251.064C461.265 250.286 461.095 249.451 461.092 248.606L460.863 182.433ZM472.572 188.654L472.48 242.133C472.48 242.38 472.578 242.616 472.752 242.79C472.926 242.964 473.162 243.061 473.408 243.061L495.027 243.107C498.783 243.114 502.502 242.407 505.974 241.028C509.446 239.649 512.602 237.625 515.262 235.07C517.921 232.516 520.033 229.482 521.475 226.141C522.918 222.8 523.663 219.218 523.669 215.6V215.371C523.681 208.063 520.679 201.051 515.325 195.875C509.971 190.699 502.703 187.784 495.119 187.771L473.5 187.726C473.254 187.726 473.018 187.823 472.844 187.997C472.67 188.171 472.572 188.408 472.572 188.654Z" fill="black"></path>
  <path d="M547.384 281.622L549.618 282.046C550.413 282.199 550.493 282.52 549.859 283.009C549.202 283.52 548.488 283.597 547.716 283.238C547.235 283.024 546.995 283.181 546.995 283.708V294.958C546.995 295.256 546.865 295.481 546.605 295.634L546.078 295.943C545.998 295.992 545.907 296.019 545.814 296.021C545.72 296.023 545.628 296 545.547 295.954C545.465 295.909 545.397 295.842 545.349 295.762C545.302 295.682 545.277 295.59 545.276 295.497V284.166C545.276 283.853 545.123 283.65 544.818 283.559L543.512 283.169C542.893 282.993 542.817 282.684 543.283 282.241C543.718 281.836 544.218 281.657 544.783 281.703C545.303 281.749 545.521 281.516 545.437 281.004C544.902 277.727 546.548 276.15 550.374 276.272C550.575 276.26 550.772 276.328 550.922 276.461C551.073 276.594 551.164 276.782 551.176 276.983C551.188 277.183 551.12 277.38 550.987 277.531C550.854 277.681 550.667 277.772 550.466 277.784L547.923 278.163C547.772 278.186 547.633 278.257 547.524 278.363C547.415 278.47 547.342 278.608 547.315 278.758L546.914 280.947C546.846 281.328 547.002 281.554 547.384 281.622Z" fill="black"></path>
  <path d="M388.652 289.47C384.986 277.773 399.788 271.437 402.961 282.138C402.984 282.209 402.992 282.285 402.986 282.359C402.979 282.434 402.957 282.507 402.922 282.573C402.887 282.639 402.839 282.698 402.781 282.745C402.722 282.792 402.655 282.827 402.583 282.848C402.186 282.963 401.858 282.944 401.598 282.791C400.372 282.035 400.498 279.434 398.046 278.85C386.269 276.043 387.655 296.699 398.069 293.217C400.315 292.468 401.403 290.868 401.334 288.416C401.327 288.034 401.132 287.832 400.75 287.809L396.362 287.591C396.193 287.59 396.033 287.521 395.917 287.401C395.801 287.281 395.739 287.118 395.743 286.95C395.748 286.781 395.819 286.62 395.942 286.502C396.064 286.384 396.228 286.318 396.397 286.32L402.354 286.308C402.828 286.301 403.083 286.537 403.122 287.019C403.878 296.688 391.424 298.361 388.652 289.47Z" fill="black"></path>
  <path d="M479.309 277.201C479.309 277.131 479.336 277.064 479.386 277.014C479.435 276.965 479.502 276.937 479.572 276.937L485.438 276.926C486.604 276.924 487.759 277.139 488.837 277.559C489.915 277.979 490.894 278.596 491.72 279.374C492.546 280.151 493.201 281.075 493.648 282.092C494.096 283.109 494.327 284.199 494.328 285.301V287.363C494.331 289.587 493.398 291.721 491.735 293.296C490.072 294.871 487.815 295.757 485.461 295.761L479.595 295.772C479.525 295.772 479.458 295.744 479.409 295.695C479.359 295.645 479.331 295.578 479.331 295.509L479.309 277.201ZM482.15 279.985L482.333 292.656C482.336 292.724 482.365 292.788 482.414 292.835C482.463 292.882 482.529 292.908 482.597 292.908L485.472 292.874C486.306 292.862 487.129 292.683 487.895 292.349C488.66 292.014 489.353 291.53 489.934 290.923C490.515 290.317 490.972 289.6 491.28 288.815C491.588 288.029 491.74 287.189 491.728 286.343V286.022C491.716 285.177 491.539 284.342 491.209 283.566C490.879 282.789 490.401 282.086 489.804 281.497C489.206 280.907 488.499 280.443 487.725 280.131C486.95 279.818 486.122 279.663 485.289 279.675L482.413 279.721C482.343 279.721 482.276 279.749 482.227 279.798C482.178 279.848 482.15 279.915 482.15 279.985Z" fill="black"></path>
  <path d="M499.758 277.786C499.277 282.563 498.051 292.061 505.028 292.725C505.509 292.771 505.75 293.035 505.75 293.516V294.879C505.75 295.406 505.486 295.643 504.959 295.589C495.484 294.604 496.515 284.327 496.951 277.591C496.989 277.026 497.287 276.77 497.844 276.823L499.082 276.949C499.181 276.959 499.278 276.989 499.366 277.037C499.454 277.084 499.531 277.149 499.594 277.226C499.657 277.304 499.704 277.394 499.732 277.49C499.76 277.586 499.769 277.686 499.758 277.786Z" fill="black"></path>
  <path d="M513.219 284.053C509.449 277.752 521.112 273.341 524.882 280.524C525.072 280.891 525.023 281.219 524.733 281.509L524.309 281.922C524.238 281.994 524.151 282.046 524.054 282.074C523.957 282.102 523.855 282.105 523.757 282.082C523.659 282.059 523.569 282.011 523.495 281.943C523.421 281.875 523.366 281.788 523.335 281.693C522.006 277.545 516.312 277.328 514.616 281.166C514.492 281.446 514.427 281.748 514.425 282.055C514.422 282.361 514.482 282.665 514.601 282.947C514.72 283.229 514.896 283.484 515.117 283.696C515.339 283.908 515.601 284.072 515.888 284.179L522.602 286.688C523.126 286.888 523.598 287.204 523.981 287.613C524.364 288.022 524.649 288.513 524.813 289.048C527.597 298.167 511.66 298.133 512.394 291.305C512.455 290.694 512.711 290.598 513.161 291.018C514.49 292.244 515.12 293.699 516.827 294.284C519.382 295.154 523.747 294.112 523.564 290.686C523.369 286.997 515.269 287.478 513.219 284.053Z" fill="black"></path>
  <path d="M556.239 282.072L558.324 281.82C558.79 281.767 559.023 281.977 559.023 282.45V282.748C559.024 282.874 558.994 282.999 558.938 283.111C558.881 283.224 558.798 283.322 558.697 283.396C558.595 283.471 558.478 283.521 558.353 283.542C558.229 283.562 558.101 283.553 557.981 283.516L556.778 283.138C556.677 283.108 556.57 283.101 556.466 283.119C556.362 283.137 556.264 283.179 556.179 283.241C556.093 283.303 556.023 283.384 555.974 283.477C555.925 283.57 555.898 283.674 555.896 283.779C555.85 286.701 554.486 294.663 558.794 294.835C558.871 294.837 558.947 294.856 559.017 294.89C559.086 294.924 559.147 294.972 559.196 295.032C559.245 295.092 559.28 295.161 559.3 295.236C559.32 295.311 559.323 295.389 559.31 295.465C559.287 295.61 559.23 295.736 559.138 295.843C559.054 295.935 558.92 295.992 558.737 296.015C552.333 296.851 554.189 287.778 554.12 284.1C554.112 283.626 553.875 283.344 553.41 283.252L552.653 283.103C552.544 283.082 552.444 283.026 552.37 282.943C552.295 282.86 552.249 282.756 552.239 282.645C552.228 282.534 552.254 282.423 552.312 282.328C552.371 282.233 552.458 282.159 552.562 282.118L553.948 281.557C554.154 281.473 554.246 281.32 554.223 281.098C554.154 280.373 554.127 279.643 554.143 278.91C554.149 278.679 554.246 278.455 554.414 278.287C554.582 278.12 554.806 278.022 555.036 278.016C555.267 278.01 555.486 278.096 555.645 278.255C555.804 278.414 555.89 278.633 555.884 278.864L555.85 281.728C555.85 281.988 555.98 282.103 556.239 282.072Z" fill="black"></path>
  <path d="M409.273 282.404C410.09 281.571 411.113 281.254 412.343 281.453C412.502 281.481 412.647 281.563 412.754 281.685C412.86 281.806 412.922 281.961 412.929 282.123C412.935 282.284 412.887 282.444 412.791 282.574C412.694 282.704 412.557 282.798 412.4 282.839L409.089 283.675C408.562 283.813 408.291 284.153 408.276 284.695L407.989 294.719C407.989 294.789 407.971 294.857 407.938 294.918C407.905 294.979 407.857 295.031 407.799 295.071C407.74 295.11 407.673 295.135 407.603 295.144C407.532 295.152 407.461 295.144 407.394 295.12L406.821 294.914C406.492 294.792 406.328 294.555 406.328 294.204L406.477 281.945C406.477 281.825 406.513 281.708 406.582 281.61C406.65 281.511 406.748 281.436 406.86 281.395C406.973 281.354 407.095 281.348 407.211 281.379C407.327 281.41 407.431 281.475 407.508 281.567L408.207 282.369C408.551 282.766 408.906 282.778 409.273 282.404Z" fill="black"></path>
  <path d="M419.51 295.324C417.918 295.305 416.4 294.55 415.29 293.225C414.181 291.901 413.57 290.116 413.592 288.263C413.615 286.409 414.269 284.64 415.411 283.343C416.553 282.046 418.089 281.329 419.681 281.348C421.273 281.367 422.791 282.122 423.9 283.447C425.01 284.771 425.621 286.556 425.598 288.409C425.575 290.263 424.921 292.032 423.78 293.329C422.638 294.626 421.102 295.344 419.51 295.324ZM419.519 293.812C420.649 293.828 421.741 293.263 422.554 292.243C423.368 291.223 423.836 289.831 423.857 288.373C423.877 286.914 423.448 285.509 422.663 284.467C421.878 283.425 420.802 282.83 419.672 282.814C418.542 282.799 417.45 283.363 416.636 284.383C415.823 285.403 415.354 286.795 415.334 288.254C415.313 289.712 415.743 291.117 416.528 292.159C417.312 293.202 418.388 293.796 419.519 293.812Z" fill="black"></path>
  <path d="M436.597 291.638C436.994 288.629 437.071 285.608 436.826 282.576C436.78 281.957 437.044 281.59 437.617 281.476C437.727 281.454 437.84 281.456 437.949 281.484C438.058 281.511 438.159 281.562 438.246 281.633C438.333 281.704 438.402 281.794 438.45 281.896C438.498 281.997 438.522 282.108 438.522 282.22L438.407 294.651C438.408 294.766 438.368 294.877 438.295 294.966C438.222 295.055 438.121 295.115 438.008 295.137C437.895 295.159 437.778 295.141 437.677 295.085C437.577 295.03 437.498 294.941 437.456 294.834C436.922 293.559 436.143 293.501 435.119 294.662C434.899 294.92 434.587 295.084 434.248 295.121C426.79 295.98 428.291 287.559 428.44 282.289C428.455 281.915 428.65 281.728 429.024 281.728H429.54C429.998 281.728 430.219 281.957 430.204 282.415C430.135 285.348 428.394 297.721 436.127 292.405C436.395 292.222 436.551 291.966 436.597 291.638Z" fill="black"></path>
  <path d="M444.171 293.436C444.09 293.36 443.986 293.314 443.876 293.304C443.766 293.293 443.655 293.32 443.562 293.378C443.468 293.437 443.396 293.525 443.357 293.628C443.318 293.732 443.314 293.845 443.346 293.951C443.835 295.509 444.022 297.167 443.907 298.923C443.869 299.427 443.728 299.767 443.484 299.943C443.247 300.111 442.937 300.126 442.556 299.989C442.296 299.897 442.166 299.714 442.166 299.439V282.013C442.166 281.937 442.181 281.862 442.211 281.791C442.24 281.721 442.283 281.657 442.338 281.604C442.392 281.551 442.457 281.509 442.528 281.481C442.598 281.453 442.674 281.439 442.75 281.44C442.873 281.44 442.991 281.44 443.105 281.44C443.223 281.437 443.338 281.478 443.425 281.555C443.513 281.631 443.566 281.738 443.575 281.853L443.644 282.735C443.69 283.315 443.938 283.422 444.389 283.056C450.598 278.015 454.436 285.129 453.187 290.594C452.156 295.085 447.826 296.953 444.171 293.436ZM447.866 293.733C448.956 293.728 450 293.149 450.766 292.124C451.532 291.1 451.958 289.713 451.95 288.27C451.946 287.555 451.836 286.848 451.626 286.189C451.416 285.53 451.11 284.932 450.725 284.428C450.341 283.925 449.885 283.526 449.385 283.256C448.884 282.985 448.349 282.847 447.809 282.85C446.718 282.855 445.675 283.434 444.909 284.459C444.143 285.483 443.717 286.87 443.724 288.313C443.728 289.028 443.838 289.735 444.048 290.394C444.258 291.053 444.564 291.651 444.949 292.155C445.334 292.658 445.789 293.056 446.289 293.327C446.79 293.598 447.326 293.736 447.866 293.733Z" fill="black"></path>
  <path d="M458.788 288.887C457.582 288.887 457.196 289.448 457.631 290.571C458.563 293 460.327 294.023 462.924 293.641C463.268 293.588 463.577 293.45 463.852 293.229L466.063 291.453C466.167 291.372 466.295 291.328 466.427 291.327C466.558 291.326 466.686 291.369 466.791 291.449C466.896 291.529 466.971 291.641 467.005 291.768C467.04 291.896 467.031 292.03 466.98 292.152C466.01 294.459 464.131 295.459 461.343 295.154C453.129 294.249 454.24 280.397 462.523 281.566C465.296 281.956 466.949 284.014 467.484 287.741C467.505 287.883 467.496 288.028 467.456 288.166C467.417 288.304 467.348 288.431 467.254 288.54C467.161 288.649 467.045 288.736 466.914 288.796C466.784 288.856 466.642 288.887 466.499 288.887H458.788ZM457.918 287.455H465.364C465.44 287.455 465.513 287.425 465.567 287.371C465.621 287.317 465.651 287.244 465.651 287.168V286.974C465.651 286.441 465.552 285.914 465.359 285.422C465.166 284.929 464.883 284.482 464.527 284.106C464.17 283.729 463.747 283.43 463.282 283.227C462.816 283.023 462.317 282.918 461.813 282.918H461.469C460.965 282.918 460.466 283.023 460 283.227C459.535 283.43 459.112 283.729 458.755 284.106C458.399 284.482 458.116 284.929 457.923 285.422C457.73 285.914 457.631 286.441 457.631 286.974V287.168C457.631 287.244 457.661 287.317 457.715 287.371C457.769 287.425 457.842 287.455 457.918 287.455Z" fill="black"></path>
  <path d="M534.422 296.242C532.784 296.233 531.218 295.451 530.067 294.068C528.916 292.685 528.275 290.814 528.285 288.866C528.29 287.902 528.455 286.948 528.77 286.058C529.085 285.169 529.544 284.362 530.121 283.683C530.698 283.004 531.382 282.467 532.133 282.101C532.884 281.736 533.688 281.551 534.499 281.555C536.137 281.563 537.703 282.345 538.854 283.729C540.005 285.112 540.646 286.983 540.635 288.931C540.63 289.895 540.466 290.849 540.151 291.739C539.836 292.628 539.377 293.435 538.8 294.114C538.223 294.793 537.539 295.33 536.788 295.695C536.037 296.061 535.233 296.246 534.422 296.242ZM534.371 294.637C535.562 294.658 536.714 294.069 537.576 292.998C538.437 291.928 538.935 290.465 538.962 288.931C538.989 287.397 538.541 285.917 537.718 284.818C536.895 283.718 535.764 283.089 534.573 283.068C533.382 283.047 532.229 283.637 531.368 284.707C530.507 285.777 530.008 287.24 529.981 288.774C529.955 290.308 530.402 291.788 531.225 292.888C532.048 293.987 533.18 294.616 534.371 294.637Z" fill="black"></path>
  <path d="M574.617 292.609C574.63 292.673 574.665 292.73 574.714 292.773C574.763 292.815 574.825 292.84 574.89 292.844C574.955 292.848 575.019 292.831 575.074 292.794C575.128 292.758 575.168 292.705 575.19 292.644C576.373 289.191 577.389 285.693 578.237 282.149C578.248 282.097 578.275 282.05 578.315 282.017C578.355 281.983 578.404 281.966 578.455 281.966L579.429 281.932C579.971 281.916 580.162 282.165 580.001 282.676L576.072 295.393C576.005 295.613 575.869 295.805 575.684 295.94C575.499 296.075 575.274 296.147 575.045 296.143C574.815 296.139 574.594 296.06 574.413 295.919C574.232 295.777 574.103 295.581 574.044 295.359L571.214 284.865C571.194 284.801 571.154 284.745 571.1 284.705C571.046 284.665 570.982 284.643 570.915 284.642C570.848 284.64 570.782 284.66 570.727 284.698C570.672 284.736 570.63 284.79 570.607 284.853L567.605 294.878C567.534 295.112 567.39 295.317 567.194 295.463C566.998 295.609 566.76 295.688 566.515 295.689C566.271 295.691 566.032 295.614 565.835 295.47C565.637 295.326 565.491 295.122 565.417 294.889L561.602 282.573C561.566 282.461 561.561 282.342 561.587 282.227C561.613 282.112 561.67 282.006 561.751 281.92C561.833 281.833 561.936 281.77 562.051 281.736C562.166 281.702 562.287 281.698 562.404 281.726C562.916 281.848 563.263 282.245 563.446 282.917C564.34 286.171 565.314 289.398 566.368 292.598C566.536 293.11 566.693 293.106 566.838 292.586L569.805 282.253C569.875 282.008 570.024 281.793 570.228 281.642C570.432 281.49 570.681 281.41 570.935 281.414C571.189 281.418 571.435 281.506 571.635 281.663C571.835 281.821 571.976 282.04 572.039 282.287L574.617 292.609Z" fill="black"></path>
  <path d="M591.756 294.812C591.714 294.747 591.659 294.692 591.595 294.65C591.531 294.608 591.458 294.581 591.383 294.57C591.308 294.559 591.231 294.565 591.159 294.587C591.087 294.609 591.021 294.646 590.965 294.697C583.644 301.159 577.309 286.712 589.911 287.766C590.275 287.799 590.639 287.703 590.94 287.496C591.241 287.289 591.461 286.983 591.561 286.632C591.989 285.081 591.458 284.02 589.968 283.447C588.487 282.882 586.642 283.359 584.435 284.879C583.931 285.215 583.606 285.093 583.461 284.512C583.224 283.581 583.705 282.844 584.904 282.301C588.296 280.781 591.003 281.343 593.027 283.985C593.265 284.297 593.394 284.68 593.394 285.074V295.832C593.394 295.934 593.36 296.034 593.298 296.117C593.237 296.2 593.15 296.26 593.052 296.289C592.955 296.317 592.851 296.313 592.758 296.276C592.664 296.239 592.586 296.171 592.535 296.084L591.756 294.812ZM590.404 288.82L584.744 290.344C584.623 290.376 584.509 290.431 584.409 290.507C584.309 290.584 584.226 290.679 584.163 290.787C584.1 290.896 584.059 291.016 584.043 291.14C584.027 291.265 584.035 291.391 584.068 291.512L584.125 291.707C584.4 292.714 585.047 293.575 585.926 294.101C586.804 294.627 587.842 294.776 588.811 294.514L588.994 294.468C589.965 294.206 590.787 293.555 591.281 292.657C591.775 291.759 591.901 290.688 591.63 289.679L591.572 289.485C591.505 289.242 591.345 289.035 591.125 288.91C590.906 288.786 590.647 288.753 590.404 288.82Z" fill="black"></path>
  <path d="M599.534 285.599C599.274 288.502 599.282 291.412 599.557 294.329C599.633 295.177 599.404 295.765 598.87 296.094C598.754 296.167 598.621 296.209 598.484 296.213C598.347 296.218 598.211 296.186 598.09 296.121C597.97 296.055 597.869 295.959 597.799 295.841C597.728 295.723 597.69 295.589 597.689 295.452V282.288C597.689 281.899 597.888 281.704 598.285 281.704C599.133 281.719 599.507 282.2 599.408 283.148C599.396 283.241 599.418 283.336 599.47 283.415C599.522 283.494 599.599 283.553 599.69 283.58C599.78 283.607 599.877 283.602 599.964 283.565C600.051 283.528 600.122 283.461 600.164 283.377C600.89 281.964 602.07 281.429 603.704 281.773C604.086 281.849 604.277 282.082 604.277 282.472V282.896C604.278 282.977 604.261 283.057 604.228 283.132C604.195 283.206 604.146 283.273 604.086 283.327C604.025 283.381 603.954 283.422 603.876 283.446C603.798 283.471 603.716 283.478 603.635 283.468C602.291 283.293 601.111 283.64 600.095 284.511C599.759 284.801 599.572 285.164 599.534 285.599Z" fill="black"></path>
  <path d="M607.451 290.079C608.07 295.957 612.801 295.109 616.937 292.302C616.988 292.266 617.049 292.246 617.112 292.245C617.174 292.244 617.236 292.262 617.288 292.296C617.34 292.331 617.381 292.381 617.404 292.439C617.427 292.498 617.432 292.562 617.418 292.623C616.754 296.14 612.309 296.713 609.582 295.59C603.98 293.299 604.804 282.461 611.014 281.739C615.356 281.235 618.186 284.5 617.991 288.716C617.96 289.213 617.697 289.461 617.201 289.461H608.001C607.588 289.461 607.405 289.667 607.451 290.079ZM607.795 287.948L616.043 287.616C616.093 287.613 616.14 287.592 616.174 287.555C616.208 287.519 616.227 287.471 616.227 287.421V287.341C616.205 286.781 616.073 286.232 615.838 285.723C615.604 285.214 615.272 284.757 614.861 284.377C614.45 283.997 613.969 283.702 613.444 283.509C612.92 283.316 612.363 283.228 611.804 283.251H611.667C611.109 283.273 610.56 283.406 610.053 283.64C609.546 283.875 609.089 284.208 608.711 284.62C608.332 285.032 608.038 285.514 607.845 286.04C607.653 286.566 607.565 287.125 607.588 287.685L607.6 287.765C607.603 287.815 607.625 287.861 607.661 287.896C607.697 287.93 607.745 287.949 607.795 287.948Z" fill="black"></path>
</svg>
