<?xml version="1.0" encoding="UTF-8"?>
<svg xmlns="http://www.w3.org/2000/svg" width="700" height="440" viewBox="0 0 700 440" fill="none">
  <path fill-rule="evenodd" clip-rule="evenodd" d="M352.082 103.819L352.084 103.82L352.089 103.823C358.777 107.466 365.455 111.104 372.141 114.724C374.181 115.829 375.114 117.165 375.109 119.61C375.051 148.712 375.056 177.815 375.061 206.918V206.961C375.062 213.705 375.063 220.45 375.064 227.194C375.064 231.217 374.504 231.525 370.926 229.565C369.186 228.611 367.447 227.658 365.707 226.704C354.259 220.429 342.811 214.155 331.335 207.933C329.404 206.886 328.598 205.475 328.6 203.33C328.611 186.962 328.615 170.594 328.619 154.226C328.624 134.628 328.628 115.031 328.645 95.4338C328.646 94.7738 328.802 94.1139 328.966 93.4197L328.966 93.4191C329.053 93.0538 329.141 92.6791 329.211 92.2898C329.65 92.168 330.083 92.168 330.646 92.168C337.821 96.0497 344.958 99.9378 352.082 103.819ZM296.342 311.17C296.185 311.119 296.067 311.052 295.967 310.994C295.871 310.939 295.79 310.892 295.704 310.878C285.171 309.144 278.323 300.627 277.265 290.193C276.704 284.659 277.5 279.321 280.241 274.38C287.829 260.699 306.868 259.107 316.766 271.325C324.587 280.979 323.664 296.749 314.753 305.357C311.515 308.485 307.587 310.233 303.113 311.065C300.863 311.17 298.675 311.17 296.342 311.17ZM304.154 301.284C306.442 300.345 308.263 298.821 309.421 296.65C312.642 290.61 312.813 284.403 309.754 278.31C307.581 273.981 303.805 271.955 298.916 272.202C294.193 272.44 290.959 274.908 289.02 279.099C286.951 283.569 286.862 288.231 288.106 292.928C290.059 300.304 296.7 303.824 304.154 301.284ZM454.51 310.262C455.525 310.577 456.548 310.868 457.713 311.171C459.942 311.171 462.025 311.171 464.173 311.064C464.862 310.879 465.539 310.74 466.206 310.603L466.207 310.603C466.88 310.464 467.541 310.328 468.191 310.151C470.564 309.502 472.832 308.63 474.413 306.571C475.868 304.676 475.857 302.599 474.344 300.541C473.188 298.968 471.311 298.522 469.162 299.345C468.567 299.573 467.979 299.82 467.391 300.066C466.783 300.321 466.175 300.576 465.559 300.81C460.656 302.678 454.976 301.389 451.897 297.607C448.975 294.018 448.272 289.785 448.633 285.298C448.898 282.013 449.867 278.957 452.022 276.433C455.455 272.414 459.917 271.787 464.78 272.976C465.622 273.182 466.44 273.49 467.257 273.798C467.994 274.076 468.73 274.353 469.487 274.557C472.122 275.266 474.099 274.032 474.783 271.396C475.343 269.236 474.174 266.912 471.871 265.575C469.018 263.919 465.883 263.265 462.647 263.07C454.314 262.569 447.447 265.379 442.616 272.36C438.535 278.258 437.451 284.909 438.697 291.84C440.341 300.988 445.385 307.431 454.51 310.262ZM572.5 279.401C572.51 278.761 572.521 278.12 572.545 277.201C572.548 276.323 572.549 275.472 572.55 274.635V274.615C572.552 272.712 572.555 270.886 572.572 269.008L572.608 268.829L572.608 268.828C572.705 268.352 572.787 267.948 572.933 267.491C573.081 267.201 573.204 266.931 573.326 266.665C573.381 266.544 573.436 266.424 573.493 266.303C573.536 266.211 573.581 266.118 573.627 266.024C573.731 265.949 573.778 265.886 573.848 265.792L573.871 265.761L573.889 265.737C573.947 265.676 573.991 265.623 574.034 265.57L574.034 265.569C574.089 265.501 574.144 265.433 574.23 265.35C574.655 265.222 575.07 265.076 575.479 264.932C576.433 264.595 577.354 264.27 578.287 264.227C580.935 264.103 583.59 264.134 586.245 264.166H586.246H586.246H586.247H586.247H586.248H586.25L586.716 264.171L587.266 264.177C587.593 264.181 587.919 264.184 588.246 264.187C588.668 264.19 589.09 264.191 589.513 264.192C591.217 264.195 592.925 264.199 594.613 264.373C597.238 264.643 598.596 266.442 598.465 269.101C598.347 271.507 596.647 273.149 594.089 273.201C592.253 273.239 590.416 273.229 588.579 273.219L588.017 273.216L587.532 273.214C587.072 273.212 586.612 273.21 586.152 273.21L585.237 273.21L583.707 273.21L582.419 273.21C582.419 274.04 582.423 274.853 582.428 275.654C582.438 277.582 582.448 279.443 582.396 281.302C582.362 282.478 582.773 282.825 583.917 282.804C587.029 282.748 590.144 282.739 593.255 282.821C596.833 282.916 598.868 286.307 597.269 289.423C596.322 291.269 594.636 291.811 592.721 291.825C590.331 291.842 587.942 291.838 585.47 291.835H585.466L585.448 291.835C584.399 291.833 583.335 291.832 582.249 291.832C582.249 292.66 582.255 293.474 582.261 294.278C582.275 296.184 582.289 298.034 582.222 299.882C582.172 301.27 582.534 301.809 584.026 301.764C586.359 301.694 588.695 301.718 591.031 301.743C591.964 301.752 592.897 301.762 593.831 301.766C596.816 301.777 597.881 302.496 598.999 305.251C598.999 305.785 598.999 306.319 598.926 307.062C597.944 309.881 596.009 310.693 593.384 310.638C591.25 310.594 589.115 310.6 586.98 310.606H586.978C584.443 310.613 581.908 310.62 579.375 310.543C578.172 310.506 576.975 310.23 575.779 309.955L575.778 309.954L575.777 309.954L575.777 309.954L575.776 309.954L575.775 309.954L575.775 309.954L575.774 309.954L575.774 309.954C575.216 309.825 574.659 309.697 574.1 309.592C574.099 309.598 574.102 309.59 574.081 309.497C573.868 309.255 573.675 309.107 573.475 308.959C573.467 308.959 573.48 308.966 573.47 308.867C573.358 308.693 573.249 308.555 573.145 308.422L573.105 308.372L573.064 308.319C573.047 308.296 573.029 308.273 573.011 308.249C572.988 308.218 572.965 308.187 572.942 308.155C572.945 308.145 572.944 308.133 572.942 308.12L572.94 308.114C572.939 308.109 572.938 308.104 572.937 308.099L572.933 308.087L572.926 308.065C572.921 308.05 572.915 308.033 572.911 308.016C572.909 308.01 572.908 308.005 572.907 308C572.904 307.987 572.902 307.973 572.901 307.959C572.887 307.903 572.874 307.864 572.861 307.824L572.85 307.79C572.844 307.774 572.839 307.757 572.834 307.738C572.826 307.712 572.818 307.682 572.81 307.646C572.791 307.582 572.773 307.521 572.755 307.462L572.72 307.349L572.72 307.349C572.653 307.133 572.589 306.929 572.531 306.655C572.538 305.757 572.537 304.971 572.535 304.198V304.195V304.193V304.19V304.187V304.185V304.182V304.17L572.535 303.876C572.523 295.718 572.512 287.559 572.5 279.401ZM106.268 262.903C103.402 262.599 101.577 263.847 100.853 266.604C100.851 271.076 100.85 275.548 100.845 280.165L100.843 280.397C100.807 284.039 100.772 287.55 100.648 291.288C100.555 296.62 100.555 301.715 100.66 306.844C101.372 308.66 102.604 309.737 104.452 310.059C107.854 310.654 110.319 308.604 110.381 305.016C110.437 301.79 110.436 298.563 110.436 295.335C110.436 294.047 110.436 292.759 110.439 291.47C110.445 289.376 110.452 287.282 110.459 285.187C110.479 279.445 110.499 273.702 110.483 267.96C110.475 264.976 108.903 263.182 106.268 262.903ZM312.424 170.389V170.415V170.465C312.423 179.452 312.422 188.376 312.416 197.3C312.414 199.852 312.294 199.905 309.968 200.929L309.919 200.95C306.086 202.637 302.27 204.361 298.453 206.086C296.797 206.834 295.14 207.583 293.482 208.328C284.363 212.429 275.243 216.528 266.123 220.626C264.513 221.349 262.903 222.073 261.294 222.796L261.288 222.799C255.814 225.26 250.34 227.721 244.858 230.163C242.364 231.275 241.703 230.808 241.703 228.059C241.702 225.505 241.701 222.952 241.7 220.398C241.695 210.338 241.69 200.278 241.709 190.218C241.712 188.912 241.881 187.602 242.049 186.302V186.302V186.302V186.302V186.302V186.301V186.301V186.301L242.062 186.205C242.292 184.424 243.245 183.183 244.92 182.44C252.024 179.292 259.115 176.116 266.206 172.941L266.341 172.88C269.625 171.41 272.906 169.934 276.187 168.457L276.205 168.45C278.683 167.335 281.161 166.22 283.64 165.108C289.012 162.697 294.386 160.289 299.76 157.88L299.832 157.848C302.466 156.668 305.099 155.487 307.732 154.307C307.814 154.27 307.895 154.23 307.977 154.19L307.977 154.19C308.129 154.115 308.281 154.04 308.441 153.986C311.338 152.99 312.406 153.749 312.422 156.812C312.426 157.73 312.426 158.648 312.425 159.615C312.425 160.07 312.424 160.535 312.425 161.017C312.424 164.116 312.424 167.205 312.424 170.286V170.312V170.338V170.363V170.389ZM391.21 186.808L391.212 192.793L391.211 202.913C391.21 211.357 391.209 219.743 391.209 228.13C391.209 230.782 392.063 231.368 394.436 230.111C396.288 229.131 398.094 228.066 399.9 227.001L399.9 227L399.9 227L399.9 227L399.901 227L399.901 227L399.901 227C400.726 226.513 401.551 226.027 402.381 225.548C407.754 222.448 413.128 219.347 418.502 216.247L418.892 216.022L419.57 215.631C428.722 210.351 437.874 205.071 447.026 199.79C449.003 198.648 449.061 197.778 447.117 196.638C440.151 192.553 433.166 188.501 426.172 184.464C423.202 182.749 420.221 181.052 417.24 179.355L417.237 179.353L417.222 179.345L417.213 179.34L417.211 179.339L417.21 179.338L417.208 179.337L417.206 179.336C415.26 178.228 413.313 177.12 411.37 176.007C409.592 174.989 407.819 173.965 406.045 172.94L406.044 172.939L406.043 172.939C402.436 170.856 398.83 168.773 395.193 166.745C392.632 165.316 391.201 166.298 391.203 169.288C391.205 174.969 391.207 180.65 391.21 186.393L391.21 186.611L391.21 186.808ZM245.307 285.458C245.033 283.589 244.788 281.855 244.544 280.12L244.216 280.093C243.958 280.969 243.699 281.845 243.441 282.721L243.439 282.726C242.868 284.658 242.297 286.589 241.737 288.524C240.019 294.452 238.31 300.383 236.604 306.315C235.775 309.198 234.092 310.528 231.225 310.542C228.313 310.556 226.662 309.294 225.83 306.359C224.414 301.37 223.004 296.378 221.594 291.387C220.608 287.894 219.621 284.401 218.632 280.909C218.538 280.577 218.397 280.259 218.034 279.947L217.442 283.931L217.396 284.246C216.959 287.185 216.523 290.125 216.087 293.064C215.892 294.376 215.7 295.688 215.508 297C215.069 299.999 214.63 302.997 214.161 305.99C213.613 309.483 211.499 311.009 208.147 310.423C205.389 309.941 203.907 307.608 204.445 304.417C206.438 292.603 208.456 280.792 210.485 268.984C211.058 265.646 213.422 263.432 216.5 263.252C219.828 263.056 222.693 265.049 223.664 268.299C224.674 271.682 225.669 275.071 226.664 278.459C227.189 280.246 227.713 282.034 228.24 283.821C229.177 286.997 230.121 290.171 231.388 293.371C231.637 292.563 231.888 291.756 232.139 290.949C232.692 289.17 233.244 287.392 233.782 285.609C234.547 283.071 235.306 280.533 236.066 277.994C237.029 274.771 237.993 271.548 238.969 268.328C239.892 265.279 242.87 263.145 245.885 263.312C249.141 263.492 251.617 265.654 252.165 268.98C254.121 280.853 256.056 292.729 257.941 304.613C258.585 308.674 256.248 311.009 252.178 310.551C250.189 310.327 248.914 309.373 248.533 307.293C247.978 304.264 247.542 301.213 247.107 298.163L247.107 298.162C246.985 297.311 246.863 296.459 246.739 295.609C246.458 293.681 246.189 291.752 245.917 289.797L245.917 289.795L245.916 289.791C245.717 288.364 245.516 286.923 245.307 285.458ZM157.873 293.052C155.622 285.393 153.372 277.735 151.084 269.958C150.982 269.634 150.888 269.32 150.797 269.014L150.797 269.013L150.797 269.013C150.605 268.369 150.425 267.762 150.192 267.176C149.111 264.455 146.154 262.725 143.19 263.032C140.255 263.337 137.876 265.444 137.39 268.277C135.337 280.239 133.298 292.204 131.277 304.171C130.742 307.338 132.257 309.726 134.991 310.167C138.368 310.711 140.488 309.172 141.007 305.726C141.504 302.421 141.987 299.113 142.469 295.806C142.833 293.311 143.197 290.817 143.567 288.324C143.856 286.38 144.161 284.437 144.467 282.495C144.605 281.616 144.743 280.737 144.88 279.858C145.342 280.315 145.512 280.782 145.646 281.258C146.444 284.077 147.239 286.897 148.035 289.716L148.036 289.721L148.036 289.721L148.037 289.722L148.037 289.722C149.579 295.187 151.12 300.651 152.676 306.111C153.485 308.95 155.082 310.219 157.762 310.282C160.827 310.354 162.489 309.195 163.374 306.202C164.505 302.371 165.611 298.532 166.716 294.693C167.29 292.7 167.864 290.708 168.442 288.716C169.027 286.695 169.62 284.677 170.249 282.53L170.251 282.525L170.257 282.503L170.257 282.503L170.258 282.502L170.283 282.417C170.569 281.441 170.863 280.439 171.168 279.397C171.239 279.693 171.301 279.932 171.354 280.136L171.354 280.136C171.447 280.492 171.511 280.74 171.547 280.993C171.815 282.876 172.079 284.761 172.342 286.646L172.343 286.648L172.343 286.651L172.343 286.654L172.344 286.657C172.712 289.289 173.081 291.921 173.46 294.552L173.492 294.773L173.493 294.777C174.075 298.808 174.657 302.839 175.307 306.859C175.598 308.657 176.664 309.827 178.517 310.226C182.748 311.137 185.479 308.502 184.77 304.102C182.955 292.836 181.122 281.572 179.26 270.314L179.233 270.15C179.024 268.881 178.803 267.542 178.204 266.449C176.867 264.011 174.636 262.87 171.838 263.139C168.858 263.424 166.802 265.064 165.909 267.898C164.611 272.017 163.369 276.154 162.127 280.29C161.549 282.215 160.97 284.141 160.387 286.064C159.898 287.676 159.4 289.285 158.902 290.894C158.676 291.627 158.449 292.36 158.223 293.093L157.873 293.052ZM409.444 273.602C412.093 281.035 414.718 288.403 417.337 295.755L419.929 303.029C419.977 303.166 420.028 303.302 420.079 303.438C420.174 303.691 420.269 303.944 420.349 304.202C421.269 307.151 420.201 309.496 417.558 310.345C414.898 311.2 412.316 309.876 411.389 307.145C410.84 305.524 410.301 303.896 409.854 302.245C409.593 301.279 409.104 300.915 408.101 300.921C402.857 300.952 397.613 300.944 392.37 300.904C391.527 300.897 391.217 301.238 390.996 301.995C390.487 303.736 389.91 305.459 389.303 307.169C388.334 309.903 385.661 311.125 382.874 310.154C380.329 309.268 379.094 306.639 380.1 303.937L380.94 301.679C385.164 290.326 389.389 278.972 393.722 267.66C394.83 264.767 397.03 262.907 400.347 262.848C403.553 262.79 405.896 264.36 407.188 267.508C407.741 268.857 408.233 270.231 408.737 271.644L408.737 271.644L408.738 271.645L408.738 271.646C408.968 272.29 409.201 272.942 409.444 273.602ZM398.289 279.468L394.21 291.776H406.493L400.679 273.504L400.288 273.528L400.276 273.561C399.638 275.452 399 277.344 398.289 279.468ZM360.849 263.477C360.493 263.478 360.127 263.479 359.744 263.478C358.42 263.463 357.112 263.447 355.813 263.431L355.808 263.431L355.804 263.431C352.935 263.396 350.116 263.362 347.297 263.342C345.521 263.329 343.779 263.415 342.392 264.818C341.104 266.122 340.902 267.75 340.896 269.421C340.85 281.407 340.817 293.393 340.819 305.378C340.819 308.429 342.802 310.293 345.836 310.263C348.777 310.235 350.647 308.359 350.67 305.354C350.693 302.503 350.697 299.651 350.702 296.798C350.704 295.655 350.705 294.512 350.708 293.369C350.715 290.985 350.855 290.91 353.3 290.959C356.097 291.015 358.899 291.039 361.693 290.921C363.518 290.843 364.758 289.764 365.326 288.006C366.332 284.892 364.342 282.04 361.051 281.96C359.624 281.926 358.197 281.925 356.769 281.924H356.768C355.238 281.922 353.708 281.921 352.18 281.879C351.699 281.866 350.829 281.399 350.818 281.118C350.739 278.923 350.745 276.725 350.752 274.454C350.754 273.807 350.756 273.154 350.756 272.493C351.77 272.493 352.383 272.492 352.996 272.493C354 272.494 355.004 272.499 356.009 272.504C358.325 272.516 360.642 272.528 362.958 272.492C365.526 272.451 367.242 270.552 367.214 267.933C367.187 265.341 365.538 263.586 363.013 263.497C362.308 263.472 361.603 263.474 360.849 263.477ZM550.259 301.513C550.425 301.555 550.534 301.615 550.625 301.665C550.684 301.697 550.736 301.725 550.792 301.742C553.352 302.519 554.715 304.339 554.398 306.574C554.058 308.977 552.273 310.504 549.589 310.525L548.899 310.53C544.519 310.564 540.136 310.597 535.759 310.465C534.466 310.425 533.18 310.158 531.857 309.883C531.274 309.761 530.683 309.638 530.082 309.533L530.049 309.524C529.969 309.504 529.948 309.498 529.914 309.41C528.579 307.912 528.34 306.173 528.35 304.383C528.367 301.556 528.395 298.729 528.424 295.902C528.452 293.021 528.481 290.141 528.498 287.261C528.512 284.654 528.516 282.048 528.52 279.442C528.526 275.714 528.531 271.986 528.568 268.259C528.591 266.036 530.099 264.246 532.056 263.845C534.527 263.34 536.699 264.161 537.612 266.207C538.058 267.206 538.213 268.41 538.21 269.52C538.197 274.985 538.162 280.45 538.127 285.915C538.098 290.519 538.069 295.123 538.052 299.727C538.051 300.117 538.214 300.507 538.377 300.897L538.377 300.898C538.453 301.079 538.529 301.261 538.588 301.443L538.593 301.443C539.427 301.464 540.262 301.486 541.37 301.522C542.485 301.518 543.325 301.5 544.165 301.481L544.169 301.481L544.18 301.481C546.158 301.497 548.136 301.512 550.259 301.513ZM505.427 266.087C505.276 265.732 505.124 265.373 504.992 265.006C503.197 263.3 501.205 263.132 499.14 264.003C497.125 264.853 496.418 266.57 496.46 268.67C496.472 269.279 496.463 269.887 496.454 270.496C496.449 270.821 496.444 271.147 496.442 271.472C496.426 274.57 496.407 277.667 496.388 280.764C496.337 289.134 496.286 297.503 496.288 305.872C496.289 309.009 498.3 310.856 501.287 310.825C504.278 310.795 506.129 308.922 506.141 305.756C506.189 293.405 506.231 281.055 506.173 268.704C506.169 267.841 505.804 266.979 505.427 266.087Z" fill="black"></path>
</svg>
