<?xml version="1.0" encoding="UTF-8"?>
<svg xmlns="http://www.w3.org/2000/svg" width="700" height="440" viewBox="0 0 700 440" fill="none">
  <path fill-rule="evenodd" clip-rule="evenodd" d="M30.6314 161.248H30.6315C54.7045 161.249 78.6761 161.249 102.673 161.268C102.702 161.288 102.771 161.276 102.771 161.276C102.771 161.276 102.708 161.164 102.573 161.088C77.4097 161.004 52.3817 160.996 27.3537 161.001C27.0456 161.001 26.7376 161.118 26.5057 161.206L26.5057 161.206C26.4662 161.221 26.429 161.235 26.3943 161.248L30.6314 161.248ZM102.741 162.303C102.666 161.99 102.678 161.718 102.696 161.367C102.701 161.288 102.77 161.276 102.883 161.27C105.977 161.265 109.055 161.263 112.123 161.26C117.294 161.255 122.437 161.25 127.581 161.238C127.951 161.237 128.321 161.174 128.691 161.111L128.691 161.111C128.863 161.082 129.035 161.053 129.207 161.029C129.314 161.155 129.436 161.275 129.559 161.395C129.823 161.655 130.087 161.915 130.198 162.228C130.728 163.725 131.231 165.231 131.735 166.737L131.735 166.737L131.735 166.738L131.735 166.738C132.266 168.328 132.797 169.917 133.359 171.495C133.879 172.956 134.438 174.403 134.997 175.851C135.49 177.13 135.984 178.41 136.452 179.699C136.915 180.977 137.349 182.267 137.783 183.556L137.783 183.557L137.783 183.557C138.191 184.767 138.598 185.977 139.03 187.179C139.521 188.546 140.048 189.9 140.574 191.254L140.575 191.255C140.856 191.979 141.138 192.703 141.414 193.429C141.572 193.844 141.73 194.258 141.889 194.672C142.482 196.226 143.075 197.779 143.639 199.343C144.02 200.399 144.381 201.463 144.741 202.527L144.741 202.527C145.038 203.401 145.334 204.274 145.642 205.144C146.1 206.442 146.574 207.734 147.048 209.026L147.048 209.026L147.048 209.026L147.048 209.027L147.048 209.027L147.048 209.027L147.049 209.028L147.049 209.028L147.049 209.028L147.049 209.029L147.049 209.029L147.049 209.029L147.049 209.03L147.049 209.03L147.049 209.03L147.05 209.031L147.05 209.031L147.05 209.031C147.271 209.634 147.492 210.236 147.711 210.839C148.983 214.336 150.256 217.834 151.528 221.332C151.849 222.218 152.169 223.104 152.488 223.99L152.488 223.992C153.192 225.944 153.895 227.895 154.625 229.837C155.072 231.024 155.541 232.204 156.009 233.383C156.606 234.887 157.204 236.391 157.756 237.911C158.349 239.541 158.903 241.185 159.457 242.829L159.457 242.83L159.457 242.83L159.457 242.83L159.457 242.83L159.457 242.831L159.457 242.831L159.458 242.831L159.458 242.832L159.458 242.832L159.458 242.832L159.458 242.832L159.458 242.833L159.458 242.833L159.458 242.833L159.458 242.833L159.458 242.834L159.458 242.834C159.948 244.288 160.438 245.741 160.954 247.185C161.609 249.017 162.293 250.839 162.977 252.661L162.978 252.663L162.979 252.666C163.497 254.047 164.016 255.429 164.521 256.814C164.964 258.026 165.39 259.243 165.817 260.46L165.817 260.461L165.817 260.462L165.817 260.462L165.817 260.463L165.818 260.463L165.818 260.464L165.818 260.464L165.818 260.465L165.818 260.465L165.818 260.466L165.819 260.466L165.819 260.467L165.819 260.468L165.819 260.468C166.252 261.703 166.684 262.937 167.133 264.166C167.871 266.185 168.621 268.201 169.371 270.216C169.961 271.802 170.551 273.387 171.136 274.975C171.287 275.387 171.408 275.81 171.544 276.285L171.544 276.286L171.544 276.287C171.612 276.523 171.683 276.773 171.764 277.041L170.389 277.041C168.387 277.041 166.384 277.037 164.382 277.033C158.602 277.021 152.823 277.01 147.045 277.094C145.579 277.115 145.13 276.393 144.747 275.36C143.493 271.976 142.262 268.584 141.031 265.191L141.031 265.19L140.493 263.708C140.21 262.927 139.93 262.144 139.649 261.362C139.012 259.58 138.375 257.798 137.695 256.032C137.548 255.652 137.048 255.361 136.649 255.143C136.489 255.056 136.269 255.078 136.049 255.1C135.951 255.11 135.852 255.12 135.759 255.12L96.4208 255.12H94.9074L86.7593 276.916H60.3941L68.4975 254.592H94.5163C94.6945 254.068 94.8671 253.548 95.0384 253.032L95.0414 253.023L95.0416 253.022L95.0418 253.022L95.0419 253.022C95.4219 251.876 95.7958 250.75 96.211 249.639C96.6692 248.413 97.148 247.195 97.6269 245.977L97.627 245.977L97.6271 245.977L97.6272 245.977L97.6272 245.976L97.6273 245.976L97.6274 245.976L97.6275 245.976L97.6276 245.975L97.6277 245.975L97.6278 245.975L97.6279 245.975L97.628 245.974L97.6281 245.974L97.6282 245.974L97.6283 245.974L97.6283 245.973L97.6284 245.973L97.6286 245.973L97.6288 245.972L97.6291 245.971L97.6293 245.971L97.6295 245.97L97.6297 245.97L97.6299 245.969L97.6301 245.969L97.6303 245.968L97.6305 245.968L97.6307 245.967L97.6309 245.967L97.6311 245.966L97.6313 245.965L97.6315 245.965L97.6317 245.964L97.6319 245.964C98.1662 244.605 98.7005 243.246 99.2058 241.877C99.7445 240.417 100.261 238.949 100.777 237.481C101.319 235.94 101.86 234.399 102.428 232.867C102.657 232.251 103.117 231.876 103.964 231.881C109.954 231.919 115.945 231.916 121.935 231.912C123.683 231.911 125.431 231.91 127.179 231.91H128.697C128.317 230.905 127.937 229.908 127.56 228.917L127.56 228.917L127.56 228.916L127.56 228.916C126.72 226.712 125.892 224.535 125.088 222.349C124.342 220.319 123.609 218.284 122.877 216.25C122.067 213.999 121.257 211.748 120.428 209.504C119.465 206.898 118.473 204.302 117.481 201.707L117.48 201.705L117.479 201.703L117.478 201.701L117.478 201.699L117.477 201.697L117.476 201.695C117.067 200.625 116.658 199.555 116.251 198.484C115.784 197.257 115.316 196.031 114.848 194.804L114.844 194.794L114.298 193.365C113.959 192.477 113.616 191.59 113.273 190.704C112.488 188.672 111.703 186.641 110.964 184.594C110.484 183.263 110.041 181.918 109.599 180.573L109.599 180.573L109.599 180.573L109.599 180.573L109.599 180.573L109.599 180.573L109.599 180.573L109.599 180.573L109.599 180.573L109.599 180.573L109.598 180.573L109.598 180.573L109.598 180.573L109.598 180.572L109.598 180.572L109.598 180.572L109.598 180.572L109.598 180.572C109.175 179.286 108.752 177.999 108.295 176.725C107.961 175.792 107.576 174.877 107.192 173.963C106.872 173.202 106.552 172.442 106.261 171.671C105.836 170.543 105.417 169.413 104.996 168.28L104.996 168.278L104.995 168.278L104.995 168.278C104.261 166.297 103.523 164.307 102.741 162.303ZM101.158 166.335L101.158 166.335L101.158 166.336L101.158 166.336L101.158 166.336L101.157 166.337L101.157 166.337L101.157 166.337L101.157 166.338L101.157 166.338L101.157 166.338L101.157 166.339L101.156 166.339L101.156 166.34L101.156 166.34L101.156 166.34L101.156 166.341L101.156 166.341L101.156 166.341C99.9621 169.59 98.7685 172.838 97.5913 176.093C96.6746 178.627 95.773 181.168 94.9456 183.732C94.59 184.834 94.0435 185.265 92.8268 185.261C81.9771 185.225 71.1272 185.228 60.2773 185.231C57.5864 185.232 54.8955 185.233 52.2047 185.233C50.5359 185.233 50.5334 185.237 50.5331 186.95C50.5328 188.734 50.5344 190.517 50.536 192.301V192.302C50.5405 197.265 50.5449 202.228 50.5087 207.19C50.5001 208.362 50.8238 208.731 52.0253 208.726C60.2567 208.693 68.4882 208.696 76.7198 208.699C79.1489 208.7 81.578 208.701 84.0072 208.701L85.72 208.701C85.4988 209.329 85.2861 209.936 85.0783 210.53L85.0764 210.535L85.0761 210.536C84.6334 211.801 84.213 213.002 83.7801 214.198C82.1573 218.683 80.5248 223.165 78.891 227.646C78.7798 227.951 78.672 228.257 78.5642 228.564L78.564 228.565L78.5639 228.565C78.2178 229.55 77.8714 230.535 77.4125 231.464C77.2274 231.839 76.4916 232.137 76.0062 232.14C69.6532 232.173 63.3001 232.172 56.947 232.17L56.8722 232.17C55.4267 232.17 53.9812 232.169 52.5357 232.169C50.5332 232.169 50.5327 232.17 50.5327 234.201L50.5327 247.473V247.582C50.5327 256.83 50.5327 266.078 50.5322 275.326C50.5321 277.039 50.5297 277.042 48.8767 277.042C47.0158 277.042 45.1549 277.041 43.294 277.04H43.2907C38.017 277.036 32.7432 277.032 27.4696 277.066C26.354 277.073 25.9991 276.78 26 275.625C26.0218 246.948 26.0238 218.272 26.0259 189.596C26.0266 180.585 26.0272 171.574 26.0285 162.563C26.0286 162.182 26.1036 161.801 26.3291 161.335C51.8908 161.25 77.267 161.25 102.667 161.348C102.678 161.72 102.665 161.992 102.653 162.264C102.156 163.619 101.658 164.974 101.16 166.329L101.16 166.33L101.16 166.33L101.16 166.33L101.159 166.331L101.159 166.331L101.159 166.332L101.159 166.333L101.159 166.333L101.159 166.333L101.159 166.333L101.158 166.334L101.158 166.334L101.158 166.334L101.158 166.334L101.158 166.335L101.158 166.335ZM572.156 246.809V272.401V277.475H583.164V228.818C582.39 228.818 581.619 228.818 580.852 228.817H580.851H580.85H580.85H580.849H580.849H580.848H580.847H580.847H580.846H580.846H580.845H580.845H580.844H580.844H580.843H580.843C577.826 228.815 574.852 228.814 571.878 228.84C571.587 228.842 571.223 229.091 571.026 229.333C570.504 229.973 570.011 230.647 569.585 231.355C568.963 232.388 568.353 233.429 567.743 234.47L567.741 234.473L567.739 234.477L567.738 234.479L567.737 234.481L567.736 234.482L567.735 234.483L567.735 234.484L567.735 234.485L567.734 234.485L567.734 234.486L567.734 234.487L567.733 234.488L567.733 234.488L567.732 234.489L567.732 234.49L567.732 234.49L567.731 234.491C566.908 235.897 566.084 237.302 565.229 238.689C563.76 241.073 562.261 243.439 560.759 245.81L560.759 245.811L560.758 245.812L560.757 245.813L560.757 245.814L560.756 245.815L560.755 245.817L560.754 245.818C560.112 246.832 559.468 247.848 558.826 248.866C558.657 248.588 558.488 248.311 558.32 248.035C558.154 247.762 557.988 247.49 557.823 247.218L557.819 247.21C557.083 245.999 556.356 244.8 555.605 243.616C554.947 242.577 554.277 241.547 553.606 240.517L553.604 240.514L553.602 240.511L553.601 240.509L553.6 240.508C552.644 239.039 551.688 237.569 550.769 236.077C550.074 234.95 549.416 233.8 548.757 232.65L548.757 232.649L548.757 232.649L548.756 232.648L548.756 232.647L548.756 232.647L548.755 232.646L548.755 232.646L548.755 232.645L548.754 232.644L548.754 232.644L548.753 232.643L548.753 232.643L548.753 232.642L548.752 232.641L548.751 232.639L548.75 232.637C548.168 231.62 547.585 230.604 546.978 229.602C546.765 229.25 546.261 228.859 545.886 228.853C542.95 228.81 540.013 228.814 537.062 228.818H537.062H537.061H537.061H537.061H537.06H537.06H537.06H537.059H537.059H537.059H537.058H537.058H537.057H537.057H537.057H537.055C536.222 228.819 535.388 228.82 534.553 228.82V277.491H545.369V246.909L558.726 267.117L572.156 246.809ZM432.556 228.815C435.158 229.329 437.639 229.821 440.109 230.361C443.11 231.016 445.575 232.736 447.93 234.564C449.15 235.51 450.239 236.699 451.146 237.953C452.417 239.708 453.671 241.534 454.545 243.501C455.299 245.195 455.652 247.091 455.997 248.939L456.032 249.128C456.254 250.32 456.279 251.555 456.304 252.779C456.308 252.957 456.311 253.135 456.315 253.313C456.426 257.999 455.112 262.35 452.649 266.254C451.099 268.711 449.03 270.766 446.618 272.571C443.663 274.783 440.347 275.952 436.95 276.982C435.329 277.474 433.533 277.518 431.814 277.533C426.84 277.575 421.866 277.568 416.862 277.561H416.862H416.861H416.86H416.86H416.859H416.859H416.858H416.858H416.857H416.857H416.856H416.855H416.855H416.854H416.854H416.849H416.844H416.84H416.835H416.83H416.826C414.974 277.559 413.119 277.556 411.257 277.556V228.815L432.556 228.815ZM437.477 265.834C437.803 265.589 438.132 265.347 438.46 265.106L438.46 265.105C439.187 264.57 439.914 264.034 440.614 263.465C442.515 261.919 443.568 259.778 444.149 257.507C444.817 254.896 444.885 252.232 444.246 249.514C443.387 245.86 441.519 242.987 438.389 241.014C436.711 239.955 434.871 239.113 432.785 239.118C430.399 239.123 428.013 239.122 425.63 239.121H425.623H425.622H425.62H425.618H425.616H425.615H425.613H425.611C424.61 239.12 423.608 239.12 422.608 239.12V267.499C423.44 267.499 424.264 267.508 425.085 267.518H425.085C426.958 267.54 428.807 267.561 430.65 267.467C432.935 267.35 435.22 267.018 437.477 265.834ZM452.362 196.326C453.847 196.323 455.339 196.32 456.84 196.32C457.227 196.32 457.603 196.316 457.969 196.311L457.97 196.311C458.783 196.302 459.554 196.292 460.321 196.333C461.38 196.39 461.783 195.984 461.758 194.914C461.72 193.351 461.728 191.787 461.735 190.223C461.738 189.551 461.742 188.88 461.741 188.209C461.74 186.266 461.739 186.264 459.848 186.264C458.347 186.263 456.846 186.262 455.345 186.261C450.268 186.258 445.191 186.254 440.113 186.28C439.125 186.286 438.734 186.02 438.768 184.972C438.838 182.826 438.861 180.672 438.762 178.527C438.703 177.253 439.153 176.945 440.372 176.953C444.545 176.981 448.717 176.981 452.89 176.981C456.413 176.981 459.937 176.982 463.46 176.998C464.489 177.003 464.914 176.767 464.876 175.65C464.798 173.331 464.812 171.007 464.87 168.688C464.898 167.595 464.558 167.158 463.407 167.161C451.927 167.191 440.447 167.187 428.968 167.164C428.052 167.162 427.673 167.384 427.675 168.384C427.701 183.815 427.7 199.245 427.677 214.675C427.676 215.629 427.983 215.938 428.937 215.936C440.545 215.911 452.154 215.912 463.763 215.932C464.767 215.934 465.139 215.564 465.118 214.565C465.087 213.05 465.093 211.534 465.099 210.018V210.015C465.102 209.339 465.105 208.664 465.104 207.989C465.102 206.126 465.101 206.122 463.243 206.122C461.551 206.122 459.859 206.12 458.167 206.119C452.163 206.115 446.159 206.112 440.155 206.142C439.079 206.147 438.737 205.808 438.768 204.743C438.835 202.467 438.851 200.186 438.764 197.911C438.717 196.696 439.051 196.276 440.33 196.292C444.324 196.341 448.318 196.334 452.362 196.326ZM514.368 233.459V238.582H488.644V247.887H511.216V257.917H488.671V267.688H514.801V277.475H477.564V228.9H514.368V233.459ZM674.493 228.815H665.024H638.015V277.476H674.999V267.692H649.128V257.874H671.677V247.891H649.099V238.588H674.493V228.815ZM380.409 250.293C384.281 259.382 388.091 268.39 391.946 277.504H380.266C379.91 276.635 379.55 275.766 379.19 274.896L379.188 274.89L379.187 274.887L379.186 274.884L379.185 274.882C378.237 272.592 377.287 270.295 376.385 267.979C376.031 267.072 375.601 266.692 374.582 266.701C368.692 266.75 362.802 266.754 356.912 266.694C356.026 266.685 355.605 266.994 355.316 267.723C355.112 268.237 354.909 268.751 354.705 269.265L354.704 269.268L354.702 269.272L354.701 269.276L354.699 269.279L354.698 269.283L354.696 269.286L354.696 269.289C353.747 271.683 352.799 274.078 351.835 276.466C351.563 277.139 351.205 277.606 350.28 277.586C347.895 277.532 345.508 277.54 343.031 277.549L343.027 277.549C342.073 277.553 341.106 277.556 340.12 277.556C340.254 277.161 340.377 276.775 340.497 276.399C340.751 275.604 340.992 274.849 341.298 274.121C342.633 270.938 344.01 267.773 345.395 264.612C345.94 263.368 346.496 262.128 347.051 260.888L347.052 260.887L347.052 260.885L347.054 260.882L347.054 260.88L347.055 260.878L347.057 260.875L347.058 260.871L347.061 260.866L347.063 260.861L347.065 260.855L347.068 260.848L347.07 260.846L347.07 260.844L347.071 260.842L347.072 260.841L347.073 260.839L347.074 260.837L347.075 260.835L347.075 260.833L347.076 260.831L347.077 260.83L347.078 260.828C347.798 259.221 348.518 257.614 349.215 255.998C349.705 254.861 350.167 253.712 350.629 252.562L350.629 252.561L350.63 252.559L350.631 252.558L350.631 252.556L350.632 252.555L350.633 252.553L350.633 252.552L350.634 252.55L350.635 252.549L350.635 252.547L350.636 252.546L350.636 252.544L350.637 252.543L350.637 252.542L350.638 252.541L350.638 252.54L350.639 252.539L350.639 252.539L350.639 252.538L350.64 252.537L350.64 252.536C351.038 251.547 351.435 250.557 351.851 249.576C352.44 248.184 353.043 246.799 353.646 245.413L353.647 245.413L353.647 245.412L353.647 245.411L353.648 245.411L353.648 245.41L353.648 245.409L353.648 245.408L353.649 245.408L353.649 245.407L353.649 245.406L353.649 245.405C354.297 243.918 354.945 242.431 355.575 240.936C355.99 239.953 356.379 238.958 356.768 237.964C357.101 237.11 357.435 236.256 357.785 235.409C358.659 233.297 359.536 231.183 360.505 229.114C360.683 228.735 361.302 228.344 361.726 228.335C364.077 228.285 366.43 228.29 368.772 228.296C369.51 228.297 370.247 228.299 370.982 228.299C371.346 229.114 371.712 229.923 372.076 230.73C372.89 232.532 373.699 234.321 374.47 236.126C375.521 238.584 376.543 241.055 377.566 243.525L377.568 243.531C378.017 244.617 378.467 245.703 378.919 246.788C379.394 247.93 379.871 249.071 380.409 250.293ZM364.357 256.925H371.856L365.808 242.07L359.739 256.925H364.357ZM562.919 176.224C565.679 176.036 568.192 177.046 570.779 178.094C571.213 178.336 571.644 178.566 572.07 178.793C573.085 179.333 574.07 179.857 574.975 180.494C575.872 181.125 576.289 181.064 576.869 180.15C578.154 178.129 579.512 176.152 580.906 174.203L580.949 174.143C581.494 173.381 581.764 173.002 581.703 172.689C581.642 172.38 581.259 172.133 580.496 171.644L580.292 171.513C577.022 169.409 573.599 167.718 569.649 167.071C566.494 166.554 563.399 166.171 560.227 166.663C555.714 167.363 551.749 169.107 549.045 172.938C548.111 174.262 547.286 175.81 546.949 177.372C546.541 179.268 546.59 181.29 546.637 183.253L546.638 183.258C546.739 187.453 548.823 190.575 552.353 192.662C555.162 194.323 558.276 195.18 561.389 196.037C562.359 196.304 563.329 196.571 564.29 196.862C566.354 197.488 568.414 198.231 570.337 199.198C573.09 200.582 572.563 204.447 570.354 205.636C566.772 207.564 563.24 206.949 559.669 205.862C556.725 204.966 554.153 203.376 551.8 201.411C551.184 200.897 550.721 201.011 550.21 201.686C548.947 203.353 547.62 204.973 546.272 206.572L546.222 206.631C545.325 207.696 544.882 208.222 544.934 208.694C544.984 209.154 545.507 209.562 546.539 210.369L546.652 210.457C550.413 213.398 554.693 215.123 559.327 216.087C564.747 217.215 570.042 216.955 575.121 214.614C577.897 213.335 580.148 211.441 581.599 208.668C583.04 205.916 583.371 202.978 583.24 199.946C583.056 195.673 580.977 192.362 577.44 190.252C574.116 188.269 570.373 187.122 566.579 186.182C564.111 185.571 561.708 184.64 559.346 183.679C557.582 182.961 556.599 179.763 558.483 177.981C559.741 176.791 561.282 176.335 562.919 176.224ZM513.13 178.065C510.543 177.016 508.03 176.007 505.27 176.194C503.633 176.305 502.092 176.762 500.834 177.952C498.95 179.734 499.933 182.932 501.697 183.649C504.059 184.61 506.462 185.541 508.93 186.153C512.724 187.093 516.467 188.24 519.791 190.223C523.328 192.333 525.407 195.644 525.591 199.917C525.722 202.948 525.391 205.886 523.951 208.638C522.499 211.412 520.248 213.305 517.472 214.585C512.393 216.926 507.098 217.185 501.678 216.058C497.044 215.094 492.764 213.368 489.003 210.428L488.89 210.34C487.858 209.533 487.335 209.125 487.285 208.664C487.233 208.193 487.676 207.667 488.573 206.602L488.623 206.543C489.971 204.943 491.298 203.323 492.561 201.657C493.072 200.982 493.535 200.867 494.151 201.382C496.504 203.347 499.076 204.937 502.02 205.833C505.591 206.919 509.123 207.534 512.705 205.607C514.914 204.417 515.441 200.552 512.688 199.168C510.765 198.201 508.705 197.459 506.641 196.833C505.68 196.541 504.71 196.274 503.74 196.007C500.627 195.15 497.513 194.293 494.704 192.632C491.174 190.545 489.09 187.423 488.989 183.228L488.988 183.223C488.941 181.26 488.892 179.239 489.3 177.342C489.637 175.781 490.462 174.233 491.396 172.909C494.1 169.078 498.065 167.334 502.578 166.633C505.75 166.141 508.845 166.525 512 167.042C515.95 167.688 519.373 169.379 522.643 171.484L522.847 171.615L522.847 171.615L522.848 171.615C523.61 172.104 523.993 172.35 524.054 172.659C524.115 172.973 523.845 173.351 523.3 174.113L523.257 174.174C521.863 176.122 520.505 178.099 519.22 180.12C518.64 181.034 518.223 181.096 517.326 180.464C516.421 179.828 515.436 179.304 514.421 178.763L514.421 178.763L514.42 178.763C513.994 178.536 513.563 178.307 513.13 178.065ZM289.501 259.155C288.534 256.88 288.468 254.478 288.644 251.938C288.473 248.491 289.776 245.616 291.808 243.175C294.239 240.255 297.321 238.276 301.35 238.338C301.647 238.343 301.946 238.333 302.245 238.323C302.854 238.302 303.463 238.281 304.05 238.385C304.129 238.4 304.209 238.413 304.289 238.427L304.51 238.465L304.514 238.466C305.749 238.679 307.023 238.899 308.101 239.455C310.101 240.487 311.978 241.781 313.81 243.098C314.535 243.619 314.894 243.531 315.391 242.936C315.865 242.368 316.332 241.793 316.798 241.217C318.083 239.633 319.369 238.049 320.806 236.618C321.774 235.654 321.371 235.04 320.752 234.55C319.108 233.249 317.39 232.022 315.608 230.917C312.719 229.127 309.426 228.287 306.124 228.127C302.684 227.961 299.234 227.867 295.737 228.706C291.358 229.756 287.67 231.751 284.423 234.719C281.805 237.111 279.859 240.019 278.683 243.344C277.856 245.683 277.133 248.12 276.831 250.57C276.356 254.417 276.865 258.288 278.162 261.924C279.322 265.178 281.064 268.206 283.501 270.733C286.83 274.185 290.825 276.443 295.496 277.668C299.002 278.588 302.565 278.609 306.023 278.204C309.262 277.824 312.47 276.88 315.408 275.077C317.913 273.54 319.96 271.624 322.049 269.548C321.481 268.956 320.924 268.369 320.372 267.788C319.008 266.35 317.675 264.946 316.295 263.59C315.544 262.851 314.668 262.063 313.634 263.471C313.29 263.94 312.76 264.276 312.234 264.609C312.036 264.735 311.838 264.86 311.651 264.991C308.418 267.272 304.857 268.489 300.876 267.997C296.518 267.459 293.06 265.413 290.811 261.542C290.71 261.369 290.607 261.196 290.504 261.022C290.141 260.413 289.777 259.802 289.501 259.155ZM218.391 274.155C218.347 274.274 218.304 274.392 218.261 274.508L218.256 274.52C217.993 275.234 217.746 275.904 217.409 276.525C217.184 276.94 216.71 277.503 216.337 277.511C213.578 277.568 210.818 277.563 207.972 277.558H207.968C207.143 277.557 206.311 277.555 205.469 277.555C205.914 276.508 206.355 275.474 206.792 274.448C207.834 271.999 208.856 269.598 209.871 267.193C210.244 266.308 210.607 265.418 210.971 264.528C211.319 263.674 211.668 262.82 212.025 261.97C212.096 261.801 212.167 261.632 212.238 261.464L212.238 261.463C212.824 260.067 213.411 258.67 214.081 257.315C214.209 257.056 214.842 256.942 215.243 256.941C220.884 256.922 226.525 256.923 232.166 256.924H232.173C233.407 256.924 234.642 256.925 235.877 256.925H237.342L226.221 228.404C226.391 228.39 226.548 228.375 226.698 228.36C226.999 228.33 227.267 228.304 227.535 228.303C228.331 228.3 229.128 228.308 229.926 228.317C231.666 228.335 233.407 228.353 235.141 228.257C236.403 228.187 236.881 228.852 237.271 229.749L237.665 230.656C239.694 235.323 241.723 239.991 243.696 244.682C244.273 246.053 244.805 247.443 245.336 248.833L245.337 248.834L245.337 248.834C245.836 250.14 246.336 251.445 246.872 252.735C247.351 253.885 247.875 255.015 248.399 256.146L248.4 256.147L248.4 256.148L248.4 256.148C248.869 257.159 249.338 258.17 249.774 259.195C250.739 261.463 251.684 263.739 252.629 266.016C253.398 267.87 254.168 269.724 254.949 271.574C255.503 272.887 256.086 274.188 256.701 275.563C256.99 276.208 257.286 276.869 257.59 277.556H252.967C252.386 277.556 251.805 277.555 251.224 277.553C249.742 277.551 248.259 277.548 246.777 277.563C246.064 277.57 245.754 277.445 245.492 276.595C245.104 275.331 244.55 274.118 243.997 272.905C243.748 272.36 243.499 271.815 243.265 271.265C243.083 270.838 242.909 270.407 242.735 269.977L242.735 269.976L242.735 269.975L242.734 269.974L242.734 269.973L242.733 269.972C242.396 269.137 242.059 268.303 241.667 267.495C241.501 267.153 240.993 266.759 240.639 266.756C237.875 266.737 235.112 266.736 232.349 266.735C228.922 266.734 225.495 266.733 222.068 266.695C221.018 266.684 220.899 267.337 220.792 267.93L220.792 267.93C220.751 268.159 220.711 268.379 220.619 268.549C219.951 269.788 219.476 271.131 218.987 272.512L218.987 272.513C218.821 272.981 218.654 273.453 218.477 273.927L218.432 274.046L218.391 274.155ZM237.57 187.04H226.985C226.488 187.04 226.002 187.035 225.525 187.029L225.525 187.029C224.434 187.017 223.387 187.006 222.343 187.059C221.291 187.113 221.012 186.698 221.036 185.711C221.091 183.392 221.111 181.068 221.029 178.75C220.988 177.573 221.346 177.201 222.547 177.213C225.659 177.242 228.772 177.242 231.884 177.241C234.748 177.24 237.612 177.24 240.475 177.263C241.44 177.27 241.956 177 242.279 176.083C243.172 173.543 244.12 171.022 245.078 168.506C245.433 167.571 245.255 167.168 244.173 167.17C233.081 167.19 221.988 167.189 210.896 167.168C210.024 167.167 209.685 167.414 209.686 168.336C209.708 183.809 209.708 199.282 209.687 214.755C209.686 215.66 209.998 215.95 210.886 215.937C212.784 215.911 214.682 215.915 216.58 215.919C217.52 215.921 218.459 215.923 219.399 215.921C221.005 215.919 221.05 215.873 221.052 214.237C221.054 211.291 221.053 208.345 221.053 205.399C221.053 203.273 221.053 201.148 221.054 199.022C221.054 197.359 221.057 197.357 222.777 197.356C223.681 197.355 224.586 197.348 225.49 197.34H225.49C227.768 197.32 230.047 197.301 232.32 197.398C233.715 197.458 234.256 196.778 234.648 195.713C235.135 194.392 235.591 193.059 236.04 191.724C236.385 190.697 236.719 189.666 237.074 188.57L237.074 188.568C237.234 188.074 237.398 187.566 237.57 187.04ZM320.631 211.886V211.978L320.631 214.192C320.63 215.921 320.628 215.923 318.854 215.923C318.089 215.924 317.325 215.919 316.56 215.914C314.746 215.902 312.932 215.89 311.12 215.949C309.893 215.99 309.506 215.636 309.511 214.373C309.546 205.256 309.543 196.139 309.539 187.021C309.538 184.454 309.537 181.886 309.537 179.318C309.537 177.5 309.536 177.499 307.71 177.498C306.699 177.498 305.688 177.496 304.677 177.494H304.677C301.864 177.488 299.05 177.482 296.237 177.517C295.207 177.53 294.781 177.267 294.811 176.156C294.881 173.58 294.867 171.001 294.816 168.424C294.798 167.467 295.127 167.165 296.078 167.166C308.755 167.19 321.432 167.191 334.109 167.165C335.077 167.163 335.373 167.476 335.354 168.426C335.302 171.045 335.297 173.667 335.356 176.286C335.378 177.27 335.029 177.526 334.09 177.516C330.094 177.473 326.097 177.481 322.101 177.52C321.667 177.524 321.235 177.778 320.792 178.037L320.734 178.071L320.653 178.119C320.638 189.437 320.635 200.653 320.631 211.862V211.868V211.874V211.88V211.886ZM271.352 201.483C271.354 199.942 271.356 198.393 271.356 196.837C271.356 194.57 271.355 192.311 271.353 190.058C271.349 182.912 271.345 175.822 271.383 168.733C271.39 167.473 271.008 167.115 269.777 167.153C267.028 167.237 264.275 167.209 261.525 167.163C260.587 167.147 260.246 167.437 260.248 168.409C260.271 183.835 260.271 199.262 260.248 214.689C260.246 215.658 260.58 215.952 261.521 215.936C264.314 215.89 267.11 215.874 269.902 215.943C271.018 215.971 271.391 215.654 271.38 214.498C271.341 210.18 271.346 205.861 271.352 201.491V201.489V201.487V201.485V201.483ZM604.659 252.024V228.896H615.672V277.463H604.659V252.024ZM102.882 161.27C102.77 161.276 102.706 161.164 102.694 161.101C111.444 161.023 120.206 161.008 129.087 161.011C129.037 161.022 128.984 161.034 128.931 161.045C128.535 161.132 128.057 161.237 127.58 161.238C122.437 161.249 117.293 161.254 112.122 161.259C109.054 161.262 105.976 161.265 102.882 161.27ZM359.583 167.179V215.921H370.287V185.034L393.782 215.921H403.181V167.179H392.216V197.024L369.634 167.179H359.583Z" fill="black"></path>
</svg>
