<?xml version="1.0" encoding="UTF-8"?>
<svg xmlns="http://www.w3.org/2000/svg" width="700" height="440" viewBox="0 0 700 440" fill="none">
  <path d="M327.651 40.1974C327.552 47.3868 328.844 54.9445 331.526 62.8705L326.777 63.563C326.227 63.64 325.865 63.9368 325.689 64.4535L319.934 80.7286L311.986 104.836C311.81 105.375 311.585 105.397 311.31 104.902C311.002 104.353 310.584 104.006 310.057 103.863L321.121 72.3684C321.308 71.8188 321.248 71.3021 320.94 70.8184L316.29 63.3817C321.215 59.754 322.374 53.6419 319.769 45.0453C322.792 41.3407 325.419 39.7247 327.651 40.1974Z" fill="black"></path>
  <path d="M327.652 40.1992L334.478 44.4535C335.009 44.782 335.639 44.8998 336.243 44.7833L346.104 42.9859C346.235 42.9614 346.37 42.9679 346.498 43.0048C346.626 43.0418 346.744 43.1081 346.84 43.1984C346.937 43.2886 347.01 43.4002 347.054 43.5238C347.098 43.6475 347.111 43.7796 347.093 43.9094L344.817 60.8276C344.729 61.4432 344.955 61.9049 345.493 62.2127L354.645 67.5883C354.866 67.7201 355.048 67.9077 355.174 68.1322C355.299 68.3567 355.364 68.6103 355.36 68.8675C355.357 69.1247 355.286 69.3765 355.155 69.5977C355.023 69.8188 354.836 70.0016 354.612 70.1277L340.332 78.1251C339.706 77.4435 338.353 77.0093 336.276 76.8224C335.737 76.7784 335.396 76.4981 335.253 75.9814L331.527 62.8723C328.845 54.9463 327.553 47.3886 327.652 40.1992ZM340.926 65.6095C340.926 65.328 340.87 65.0493 340.763 64.7892C340.655 64.5291 340.497 64.2928 340.298 64.0938C340.099 63.8947 339.863 63.7368 339.603 63.6291C339.342 63.5214 339.064 63.4659 338.782 63.4659C338.501 63.4659 338.222 63.5214 337.962 63.6291C337.702 63.7368 337.465 63.8947 337.266 64.0938C337.067 64.2928 336.909 64.5291 336.802 64.7892C336.694 65.0493 336.639 65.328 336.639 65.6095C336.639 66.1781 336.864 66.7233 337.266 67.1253C337.668 67.5273 338.214 67.7532 338.782 67.7532C339.351 67.7532 339.896 67.5273 340.298 67.1253C340.7 66.7233 340.926 66.1781 340.926 65.6095Z" fill="black"></path>
  <path d="M319.769 45.0469C322.374 53.6434 321.215 59.7555 316.29 63.3832L308.177 50.6368C308.081 50.4819 308.026 50.305 308.017 50.1228C308.008 49.9407 308.046 49.7593 308.127 49.5958C308.208 49.4324 308.329 49.2923 308.479 49.1888C308.629 49.0853 308.803 49.0218 308.985 49.0044C312.865 48.6746 316.46 47.3554 319.769 45.0469Z" fill="black"></path>
  <path d="M331.526 62.8711L335.252 75.9802C335.395 76.4969 335.736 76.7772 336.275 76.8212C338.352 77.0081 339.704 77.4423 340.331 78.1239C343.09 85.1814 346.009 92.1235 349.087 98.9501C355.897 114.12 359.393 130.692 364.092 146.456C364.223 146.895 364.238 147.359 364.137 147.804C364.036 148.249 363.822 148.66 363.515 148.996L349.466 164.545C349.104 159.384 352.138 158.378 354.149 155.262C356.425 151.733 358.574 148.314 360.597 145.005C360.756 144.744 360.854 144.45 360.884 144.145C360.913 143.84 360.873 143.533 360.767 143.245C360.661 142.958 360.491 142.699 360.27 142.487C360.049 142.275 359.783 142.115 359.492 142.021L350.093 139.02C349.532 138.844 349.147 138.481 348.939 137.931C347.784 134.831 348.279 131.896 347.191 129.01C345.432 124.393 343.563 119.82 341.584 115.291C339.853 111.367 337.083 107.854 334.939 103.979C332.663 99.8241 331.026 96.9934 330.025 95.4873C326.782 90.5735 323.418 85.6541 319.934 80.7292L325.688 64.4541C325.864 63.9374 326.227 63.6406 326.777 63.5637L331.526 62.8711Z" fill="black"></path>
  <path d="M338.78 67.7482C339.964 67.7482 340.924 66.7885 340.924 65.6046C340.924 64.4207 339.964 63.4609 338.78 63.4609C337.596 63.4609 336.637 64.4207 336.637 65.6046C336.637 66.7885 337.596 67.7482 338.78 67.7482Z" fill="white"></path>
  <path d="M319.934 80.7266C323.419 85.6514 326.783 90.5708 330.026 95.4847C331.026 96.9907 332.664 99.8214 334.939 103.977C337.083 107.852 339.853 111.364 341.585 115.289C343.563 119.818 345.432 124.391 347.191 129.008C348.279 131.893 347.785 134.829 348.939 137.929C349.148 138.478 349.533 138.841 350.093 139.017L359.492 142.018C359.783 142.113 360.049 142.272 360.27 142.484C360.491 142.696 360.661 142.956 360.767 143.243C360.874 143.53 360.914 143.837 360.884 144.142C360.855 144.447 360.756 144.741 360.597 145.003C358.574 148.312 356.425 151.73 354.15 155.259C352.138 158.376 349.104 159.381 349.467 164.543C348.159 166.488 346.768 167.874 345.295 168.698L333.736 154.698C326.656 145.871 319.318 137.346 311.722 129.123C309.348 126.551 304.269 124.655 303.609 121.373L310.057 103.861C310.584 104.004 311.002 104.351 311.31 104.9C311.585 105.395 311.81 105.373 311.986 104.834L319.934 80.7266Z" fill="black"></path>
  <path d="M251.286 97.4968C250.737 98.5741 250.616 99.3381 250.924 99.7888C254.287 104.648 257.333 109.54 260.059 114.464L245.301 123.913C245.214 123.97 245.112 124.001 245.008 124C244.903 124 244.802 123.968 244.715 123.91C244.629 123.852 244.562 123.77 244.522 123.673C244.482 123.577 244.472 123.471 244.493 123.369C246.021 114.728 247.477 106.352 248.862 98.2388C249.005 97.4144 249.813 97.167 251.286 97.4968Z" fill="black"></path>
  <path d="M251.288 97.5L271.34 97.8133C272.924 97.8455 274.457 98.3891 275.709 99.3633L303.609 121.377C304.269 124.658 309.348 126.555 311.722 129.127C319.318 137.35 326.656 145.875 333.736 154.702L317.345 164.777C316.962 165.012 316.507 165.105 316.059 165.041C315.509 164.964 315.119 165.008 314.888 165.173C311.535 167.679 307.77 169.328 303.593 170.12L303.544 137.751C303.543 137.463 303.47 137.179 303.331 136.927C303.192 136.675 302.991 136.462 302.748 136.307C302.505 136.153 302.227 136.062 301.939 136.043C301.652 136.025 301.364 136.079 301.103 136.201C299.234 137.069 297.662 136.8 296.387 135.393C295.936 134.898 295.508 134.92 295.101 135.459L294.524 136.234C289.775 126.021 284.185 116.254 277.754 106.932C277.49 106.547 277.171 106.492 276.798 106.767C275.281 107.855 274.973 109.158 275.874 110.675C278.892 115.787 276.649 118.062 275.94 122.96C275.863 123.498 275.935 124.021 276.154 124.526C277.342 127.308 277.974 130.215 278.051 133.249C278.062 133.59 277.996 133.87 277.853 134.09C277.644 134.398 277.364 134.64 277.012 134.816C276.572 135.047 276.369 135.409 276.402 135.904C276.457 136.805 276.094 137.504 275.313 137.998C274.995 138.207 274.945 138.465 275.165 138.773C278.133 142.912 290.418 141.956 294.079 141.857C293.144 144.209 293.424 146.809 294.919 149.656C295.172 150.14 295.249 150.657 295.15 151.206C294.15 156.307 294.485 161.27 296.156 166.096C296.332 166.613 296.189 167.009 295.727 167.284C294.727 167.877 294.013 168.828 293.584 170.136L261.677 144.775C261.447 144.59 261.279 144.339 261.194 144.057C261.109 143.774 261.111 143.473 261.2 143.192C261.289 142.91 261.461 142.662 261.693 142.48C261.925 142.298 262.207 142.19 262.501 142.17L268.223 141.84C268.326 141.832 268.423 141.792 268.502 141.725C268.581 141.659 268.637 141.569 268.662 141.469C268.688 141.369 268.681 141.264 268.644 141.168C268.607 141.072 268.54 140.99 268.454 140.933L261.264 136.415C261.083 136.302 260.94 136.138 260.851 135.944C260.762 135.749 260.733 135.533 260.766 135.322C260.8 135.111 260.895 134.915 261.039 134.757C261.183 134.6 261.37 134.488 261.578 134.436C264.172 133.766 266.777 133.607 269.394 133.958C270.834 134.156 271.186 133.628 270.449 132.375L260.061 114.468C257.334 109.543 254.289 104.651 250.926 99.792C250.618 99.3413 250.739 98.5773 251.288 97.5Z" fill="black"></path>
  <path d="M294.523 136.232C297.48 141.289 297.331 143.163 294.077 141.855C290.417 141.954 278.132 142.911 275.164 138.772C274.944 138.464 274.994 138.206 275.312 137.997C276.093 137.502 276.456 136.804 276.401 135.902C276.368 135.408 276.571 135.045 277.011 134.814C277.362 134.638 277.643 134.396 277.852 134.089C277.995 133.869 278.061 133.588 278.05 133.248C277.973 130.214 277.341 127.306 276.153 124.525C275.933 124.019 275.862 123.497 275.939 122.958C276.648 118.061 278.891 115.785 275.873 110.674C274.972 109.156 275.279 107.854 276.796 106.766C277.17 106.491 277.489 106.546 277.753 106.93C284.184 116.252 289.774 126.02 294.523 136.232Z" fill="black"></path>
  <path d="M303.593 170.117L303.032 177.636L293.583 170.134C294.012 168.826 294.727 167.875 295.727 167.281C296.189 167.006 296.332 166.611 296.156 166.094C294.485 161.268 294.15 156.305 295.15 151.204C295.249 150.654 295.172 150.137 294.919 149.654C293.424 146.807 293.144 144.207 294.078 141.854C297.332 143.162 297.48 141.288 294.523 136.231L295.1 135.456C295.507 134.918 295.936 134.896 296.387 135.39C297.662 136.797 299.234 137.067 301.103 136.198C301.364 136.076 301.651 136.022 301.939 136.041C302.226 136.059 302.504 136.15 302.748 136.305C302.991 136.459 303.191 136.672 303.33 136.925C303.469 137.177 303.542 137.46 303.543 137.748L303.593 170.117Z" fill="black"></path>
  <path d="M177.133 195.116H186.829C187.074 195.116 187.309 195.213 187.482 195.386C187.655 195.56 187.753 195.794 187.753 196.039V202.437C187.753 202.682 187.655 202.917 187.482 203.09C187.309 203.263 187.074 203.361 186.829 203.361H167.652C167.407 203.361 167.172 203.263 166.999 203.09C166.826 202.917 166.729 202.682 166.729 202.437V143.685C166.729 143.44 166.826 143.205 166.999 143.032C167.172 142.859 167.407 142.762 167.652 142.762H175.287C175.531 142.762 175.766 142.859 175.94 143.032C176.113 143.205 176.21 143.44 176.21 143.685V194.192C176.21 194.437 176.307 194.672 176.48 194.845C176.654 195.019 176.888 195.116 177.133 195.116Z" fill="black"></path>
  <path d="M200.896 161.36C200.85 161.176 200.755 161.007 200.621 160.872C200.487 160.737 200.319 160.641 200.135 160.594C199.951 160.547 199.757 160.55 199.575 160.604C199.393 160.657 199.228 160.759 199.099 160.898C197.318 162.778 198.159 168.962 197.994 171.649C197.961 172.177 197.681 172.441 197.153 172.441H190.673C190.024 172.441 189.667 172.117 189.601 171.468C189.128 166.906 189.183 163.251 189.766 160.503C191.349 152.967 204.095 152.357 207.871 157.287C212.142 162.861 209.998 193.811 210.031 202.172C210.031 202.809 209.712 203.177 209.075 203.276C206.393 203.705 203.815 203.441 201.341 202.485C200.902 202.309 200.473 202.342 200.055 202.584C197.241 204.211 194.306 204.37 191.25 203.062C190.953 202.936 190.694 202.736 190.498 202.481C190.302 202.227 190.174 201.928 190.128 201.611C189.018 193.949 189.007 186.287 190.095 178.625C190.181 178.051 190.482 177.532 190.936 177.173C196.939 172.474 203.403 171.122 200.896 161.36ZM199.546 196.546C200.018 196.558 200.495 195.648 200.872 194.015C201.248 192.382 201.494 190.161 201.555 187.839C201.616 185.518 201.487 183.287 201.196 181.636C200.905 179.986 200.476 179.052 200.004 179.04C199.532 179.027 199.055 179.938 198.678 181.571C198.301 183.203 198.055 185.425 197.995 187.746C197.934 190.067 198.063 192.299 198.354 193.949C198.645 195.599 199.073 196.533 199.546 196.546Z" fill="black"></path>
  <path d="M333.735 154.699L345.294 168.699C339.929 173.844 334.103 177.213 327.815 178.807L308.291 178.823L303.031 177.636L303.592 170.117C307.769 169.325 311.534 167.676 314.887 165.17C315.118 165.005 315.508 164.961 316.058 165.038C316.506 165.102 316.96 165.009 317.344 164.774L333.735 154.699Z" fill="black"></path>
  <path d="M327.815 178.805L330.14 194.915C330.181 195.19 330.288 195.453 330.455 195.682C330.621 195.912 330.841 196.101 331.097 196.234L342.59 202.17C342.718 202.234 342.82 202.339 342.88 202.469C342.939 202.599 342.953 202.745 342.919 202.883C342.884 203.022 342.803 203.144 342.689 203.23C342.576 203.317 342.436 203.362 342.293 203.358H307.335C307.209 203.357 307.084 203.329 306.97 203.276C306.855 203.222 306.754 203.145 306.674 203.048C306.593 202.952 306.536 202.84 306.505 202.719C306.474 202.599 306.47 202.473 306.495 202.352C306.703 201.34 307.363 200.263 308.473 199.12C310.738 196.382 311.634 193.563 311.161 190.661L308.292 178.821L327.815 178.805Z" fill="black"></path>
  <path d="M311.163 190.664C311.635 193.566 310.739 196.386 308.475 199.123L304.649 197.886C303.825 197.612 303.737 197.188 304.385 196.617L311.163 190.664Z" fill="black"></path>
  <path d="M285.453 273.636L288.075 273.388C288.8 273.311 289.163 272.91 289.163 272.185V257.773C289.163 257.223 289.438 256.948 289.987 256.948H297.358C297.974 256.948 298.315 257.256 298.38 257.872C299.155 265.737 300.409 278.748 291.208 280.792C283.408 282.524 274.471 280.298 274.471 270.536C274.471 256.575 274.63 242.608 274.949 228.636C275.279 214.752 297.177 215.741 298.397 227.234C298.903 231.917 298.892 236.584 298.364 241.234C298.298 241.828 297.968 242.124 297.375 242.124L290.053 242.091C289.515 242.091 289.234 241.822 289.212 241.283C289.113 237.573 288.948 233.599 289.311 229.972C289.487 228.29 288.866 226.987 287.448 226.064C287.131 225.859 286.765 225.743 286.388 225.729C286.011 225.715 285.638 225.803 285.307 225.984C284.976 226.164 284.7 226.431 284.508 226.756C284.316 227.08 284.215 227.451 284.216 227.828V272.498C284.216 273.333 284.628 273.713 285.453 273.636Z" fill="black"></path>
  <path d="M399.297 271.904C399.299 272.176 399.355 272.445 399.46 272.695C399.566 272.945 399.72 273.172 399.913 273.362C400.107 273.552 400.335 273.702 400.586 273.803C400.837 273.903 401.105 273.953 401.375 273.948C403.474 273.916 404.524 273.064 404.524 271.393C404.546 266.984 404.579 262.582 404.623 258.185C404.623 257.635 404.898 257.36 405.448 257.36H412.917C413.5 257.36 413.813 257.651 413.857 258.234C414.396 264.687 414.269 269.931 413.478 273.965C411.73 282.836 396.659 283.793 392.14 277.18C387.853 270.881 390.178 237.672 390.178 228.536C390.178 215.642 411.615 215.345 413.362 226.327C414.132 231.219 414.33 236.138 413.956 241.085C413.935 241.363 413.81 241.624 413.605 241.813C413.4 242.003 413.131 242.108 412.851 242.107H405.464C404.936 242.107 404.667 241.843 404.656 241.316C404.546 237.336 404.519 233.384 404.574 229.46C404.596 228.35 404.42 227.487 404.046 226.871C403.111 225.321 401.765 225.491 400.006 227.382C399.487 227.945 399.198 228.681 399.198 229.443L399.297 271.904Z" fill="black"></path>
  <path d="M177.133 242.933H186.005C186.25 242.933 186.485 243.03 186.658 243.203C186.831 243.377 186.928 243.611 186.928 243.856V250.254C186.928 250.499 186.831 250.734 186.658 250.907C186.485 251.08 186.25 251.178 186.005 251.178H177.133C176.888 251.178 176.654 251.275 176.48 251.448C176.307 251.621 176.21 251.856 176.21 252.101V279.523C176.21 279.768 176.113 280.003 175.94 280.176C175.766 280.349 175.531 280.447 175.287 280.447H167.652C167.407 280.447 167.172 280.349 166.999 280.176C166.826 280.003 166.729 279.768 166.729 279.523V220.771C166.729 220.526 166.826 220.291 166.999 220.118C167.172 219.945 167.407 219.848 167.652 219.848H186.433C186.678 219.848 186.913 219.945 187.086 220.118C187.26 220.291 187.357 220.526 187.357 220.771L187.307 227.169C187.307 227.414 187.21 227.649 187.037 227.822C186.864 227.995 186.629 228.092 186.384 228.092H177.133C176.888 228.092 176.654 228.19 176.48 228.363C176.307 228.536 176.21 228.771 176.21 229.016V242.01C176.21 242.254 176.307 242.489 176.48 242.663C176.654 242.836 176.888 242.933 177.133 242.933Z" fill="black"></path>
  <path d="M208.233 248.358C211.883 249.655 213.724 252.387 213.757 256.553C213.801 264.117 214.12 271.718 214.713 279.358C214.779 280.084 214.45 280.447 213.724 280.447H206.683C206.024 280.447 205.655 280.122 205.578 279.474C204.523 271.048 205.793 261.451 203.929 253.552C203.802 253.048 203.495 252.608 203.067 252.313C202.639 252.019 202.118 251.889 201.602 251.95C201.086 252.01 200.609 252.257 200.261 252.642C199.912 253.028 199.716 253.527 199.708 254.047V279.622C199.708 280.172 199.433 280.447 198.884 280.447H191.463C190.639 280.447 190.227 280.034 190.227 279.21V221.085C190.225 220.819 190.324 220.563 190.504 220.365C190.684 220.167 190.932 220.041 191.199 220.013C208.728 218.463 217.006 220.062 213.691 240.888C213.081 244.73 211.745 246.033 208.233 247.303C207.255 247.666 207.255 248.017 208.233 248.358ZM204.556 228.868C204.556 228.461 204.394 228.071 204.107 227.783C203.819 227.496 203.429 227.334 203.022 227.334H201.209C200.802 227.334 200.412 227.496 200.124 227.783C199.837 228.071 199.675 228.461 199.675 228.868V242.95C199.675 243.151 199.715 243.35 199.792 243.536C199.869 243.722 199.982 243.892 200.124 244.034C200.267 244.176 200.436 244.289 200.622 244.366C200.808 244.443 201.007 244.483 201.209 244.483H203.022C203.224 244.483 203.423 244.443 203.609 244.366C203.795 244.289 203.964 244.176 204.107 244.034C204.249 243.892 204.362 243.722 204.439 243.536C204.516 243.35 204.556 243.151 204.556 242.95V228.868Z" fill="black"></path>
  <path d="M228.465 272.202H238.556C238.749 272.202 238.933 272.278 239.069 272.414C239.205 272.55 239.282 272.735 239.282 272.927V279.721C239.282 279.913 239.205 280.098 239.069 280.234C238.933 280.37 238.749 280.447 238.556 280.447H219.395C219.203 280.447 219.018 280.37 218.882 280.234C218.746 280.098 218.67 279.913 218.67 279.721V220.573C218.67 220.381 218.746 220.196 218.882 220.06C219.018 219.924 219.203 219.848 219.395 219.848H238.144C238.336 219.848 238.521 219.924 238.657 220.06C238.793 220.196 238.87 220.381 238.87 220.573V227.367C238.87 227.559 238.793 227.744 238.657 227.88C238.521 228.016 238.336 228.092 238.144 228.092H228.465C228.272 228.092 228.088 228.169 227.952 228.305C227.816 228.441 227.739 228.626 227.739 228.818V242.207C227.739 242.4 227.816 242.584 227.952 242.72C228.088 242.857 228.272 242.933 228.465 242.933H237.732C237.924 242.933 238.109 243.009 238.245 243.145C238.381 243.282 238.457 243.466 238.457 243.659V250.452C238.457 250.645 238.381 250.829 238.245 250.965C238.109 251.101 237.924 251.178 237.732 251.178H228.465C228.272 251.178 228.088 251.254 227.952 251.39C227.816 251.526 227.739 251.711 227.739 251.903V271.476C227.739 271.669 227.816 271.853 227.952 271.989C228.088 272.125 228.272 272.202 228.465 272.202Z" fill="black"></path>
  <path d="M250.991 233.369L250.744 280.331C250.744 280.362 250.732 280.391 250.71 280.413C250.689 280.434 250.659 280.447 250.629 280.447H243.522C243.491 280.447 243.462 280.434 243.44 280.413C243.418 280.391 243.406 280.362 243.406 280.331V219.963C243.406 219.932 243.418 219.903 243.44 219.881C243.462 219.86 243.491 219.848 243.522 219.848H256.796C256.824 219.847 256.851 219.857 256.872 219.875C256.893 219.894 256.907 219.919 256.911 219.947L263.161 262.143C263.163 262.158 263.168 262.173 263.175 262.186C263.183 262.2 263.194 262.211 263.206 262.22C263.218 262.23 263.232 262.236 263.247 262.24C263.262 262.244 263.277 262.245 263.293 262.242L263.49 262.209C263.518 262.205 263.543 262.191 263.562 262.17C263.58 262.149 263.59 262.122 263.589 262.094L263.606 219.963C263.606 219.932 263.618 219.903 263.64 219.881C263.661 219.86 263.691 219.848 263.721 219.848H271.323C271.354 219.848 271.383 219.86 271.405 219.881C271.426 219.903 271.438 219.932 271.438 219.963V280.331C271.438 280.362 271.426 280.391 271.405 280.413C271.383 280.434 271.354 280.447 271.323 280.447H257.802C257.774 280.447 257.747 280.437 257.725 280.419C257.704 280.401 257.69 280.375 257.686 280.348L251.222 233.353C251.22 233.322 251.206 233.293 251.183 233.273C251.159 233.253 251.129 233.243 251.099 233.245C251.068 233.248 251.039 233.262 251.019 233.285C250.999 233.308 250.989 233.338 250.991 233.369Z" fill="black"></path>
  <path d="M312.908 242.933H316.536C316.711 242.933 316.879 242.863 317.003 242.74C317.126 242.616 317.196 242.448 317.196 242.273V220.507C317.196 220.332 317.265 220.165 317.389 220.041C317.513 219.917 317.68 219.848 317.855 219.848H325.605C325.78 219.848 325.948 219.917 326.072 220.041C326.195 220.165 326.265 220.332 326.265 220.507V279.787C326.265 279.962 326.195 280.13 326.072 280.253C325.948 280.377 325.78 280.447 325.605 280.447H317.855C317.68 280.447 317.513 280.377 317.389 280.253C317.265 280.13 317.196 279.962 317.196 279.787V251.837C317.196 251.662 317.126 251.495 317.003 251.371C316.879 251.247 316.711 251.178 316.536 251.178H312.908C312.734 251.178 312.566 251.247 312.442 251.371C312.318 251.495 312.249 251.662 312.249 251.837V279.787C312.249 279.962 312.179 280.13 312.056 280.253C311.932 280.377 311.764 280.447 311.589 280.447H303.839C303.664 280.447 303.497 280.377 303.373 280.253C303.249 280.13 303.18 279.962 303.18 279.787V220.507C303.18 220.332 303.249 220.165 303.373 220.041C303.497 219.917 303.664 219.848 303.839 219.848H311.589C311.764 219.848 311.932 219.917 312.056 220.041C312.179 220.165 312.249 220.332 312.249 220.507V242.273C312.249 242.448 312.318 242.616 312.442 242.74C312.566 242.863 312.734 242.933 312.908 242.933Z" fill="black"></path>
  <path d="M355.947 228.95V279.589C355.947 279.817 355.856 280.035 355.696 280.195C355.535 280.356 355.317 280.447 355.089 280.447H347.323C347.21 280.447 347.099 280.424 346.995 280.381C346.891 280.338 346.796 280.275 346.716 280.195C346.637 280.116 346.574 280.021 346.531 279.917C346.488 279.813 346.465 279.702 346.465 279.589V228.95C346.465 228.722 346.375 228.504 346.214 228.344C346.053 228.183 345.835 228.092 345.608 228.092H339.49C339.263 228.092 339.045 228.002 338.884 227.841C338.723 227.68 338.633 227.462 338.633 227.235V220.705C338.633 220.478 338.723 220.26 338.884 220.099C339.045 219.938 339.263 219.848 339.49 219.848H362.51C362.737 219.848 362.955 219.938 363.116 220.099C363.277 220.26 363.367 220.478 363.367 220.705V227.235C363.367 227.462 363.277 227.68 363.116 227.841C362.955 228.002 362.737 228.092 362.51 228.092H356.804C356.577 228.092 356.359 228.183 356.198 228.344C356.037 228.504 355.947 228.722 355.947 228.95Z" fill="black"></path>
  <path d="M376.986 272.202H386.451C386.675 272.202 386.888 272.29 387.046 272.448C387.204 272.606 387.292 272.82 387.292 273.043L387.243 279.606C387.243 279.829 387.154 280.043 386.997 280.2C386.839 280.358 386.625 280.447 386.402 280.447H367.505C367.282 280.447 367.068 280.358 366.91 280.2C366.753 280.043 366.664 279.829 366.664 279.606V220.689C366.664 220.466 366.753 220.252 366.91 220.094C367.068 219.936 367.282 219.848 367.505 219.848H386.451C386.675 219.848 386.888 219.936 387.046 220.094C387.204 220.252 387.292 220.466 387.292 220.689L387.243 227.251C387.243 227.474 387.154 227.688 386.997 227.846C386.839 228.004 386.625 228.092 386.402 228.092H376.986C376.763 228.092 376.55 228.181 376.392 228.339C376.234 228.496 376.146 228.71 376.146 228.933V242.108C376.146 242.332 376.234 242.545 376.392 242.703C376.55 242.861 376.763 242.949 376.986 242.949H386.023C386.133 242.949 386.243 242.971 386.345 243.013C386.447 243.056 386.539 243.118 386.617 243.196C386.695 243.274 386.757 243.367 386.8 243.469C386.842 243.571 386.864 243.68 386.864 243.79V250.337C386.864 250.56 386.775 250.774 386.617 250.931C386.46 251.089 386.246 251.178 386.023 251.178H376.986C376.763 251.178 376.55 251.266 376.392 251.424C376.234 251.582 376.146 251.796 376.146 252.019V271.361C376.146 271.584 376.234 271.798 376.392 271.956C376.55 272.113 376.763 272.202 376.986 272.202Z" fill="black"></path>
  <path d="M428.501 242.934H431.799C432.018 242.934 432.227 242.847 432.382 242.692C432.537 242.538 432.623 242.328 432.623 242.109V220.689C432.623 220.471 432.71 220.261 432.865 220.106C433.02 219.952 433.229 219.865 433.448 219.865L440.868 219.832C441.087 219.832 441.297 219.919 441.451 220.074C441.606 220.228 441.693 220.438 441.693 220.657V279.623C441.693 279.842 441.606 280.051 441.451 280.206C441.297 280.361 441.087 280.447 440.868 280.447H433.448C433.229 280.447 433.02 280.361 432.865 280.206C432.71 280.051 432.623 279.842 432.623 279.623V252.003C432.623 251.784 432.537 251.575 432.382 251.42C432.227 251.265 432.018 251.179 431.799 251.179H428.501C428.282 251.179 428.073 251.265 427.918 251.42C427.764 251.575 427.677 251.784 427.677 252.003V279.623C427.677 279.842 427.59 280.051 427.435 280.206C427.281 280.361 427.071 280.447 426.852 280.447H419.432C419.213 280.447 419.004 280.361 418.849 280.206C418.694 280.051 418.607 279.842 418.607 279.623V220.673C418.607 220.454 418.694 220.245 418.849 220.09C419.004 219.935 419.213 219.849 419.432 219.849H426.852C427.071 219.849 427.281 219.935 427.435 220.09C427.59 220.245 427.677 220.454 427.677 220.673V242.109C427.677 242.328 427.764 242.538 427.918 242.692C428.073 242.847 428.282 242.934 428.501 242.934Z" fill="black"></path>
  <path d="M533.471 301.059H210.211C209.92 301.059 209.684 301.295 209.684 301.586V303.433C209.684 303.725 209.92 303.961 210.211 303.961H533.471C533.763 303.961 533.999 303.725 533.999 303.433V301.586C533.999 301.295 533.763 301.059 533.471 301.059Z" fill="black"></path>
  <path d="M212.175 349.245C216.429 349.954 226.85 352.856 225.713 344.15C225.185 340.06 220.683 338.774 217.501 337.175C202.759 329.754 215.11 315.986 227.625 321.378C228.219 321.631 228.4 322.059 228.17 322.664L227.691 323.95C227.646 324.064 227.578 324.168 227.492 324.255C227.405 324.341 227.302 324.409 227.189 324.454C227.076 324.499 226.955 324.52 226.835 324.516C226.714 324.511 226.596 324.481 226.488 324.428C222.794 322.592 219.326 322.812 216.083 325.088C215.638 325.406 215.331 325.871 215.225 326.391C213.346 335.13 225.136 333.827 228.697 340.506C234.633 351.669 218.804 356.121 211.218 352.065C210.904 351.893 210.66 351.614 210.529 351.279C210.398 350.944 210.389 350.575 210.504 350.236C210.619 349.897 210.85 349.611 211.156 349.43C211.462 349.248 211.823 349.183 212.175 349.245Z" fill="black"></path>
  <path d="M491.16 340.551V352.176C491.16 353.001 490.748 353.413 489.924 353.413H488.06C487.368 353.413 487.021 353.067 487.021 352.374L487.12 322.05C487.12 321.435 487.423 321.039 488.027 320.863C492.743 319.511 497.217 319.61 501.45 321.16C509.216 323.996 508.491 333.263 502.093 337.369C501.576 337.699 501.554 338.056 502.027 338.441C506.215 341.838 506.347 347.609 507.881 352.506C508.112 353.254 507.842 353.578 507.073 353.479L504.616 353.199C503.978 353.122 503.604 352.77 503.494 352.144C502.34 345.696 501.136 337.286 491.902 339.595C491.408 339.727 491.16 340.046 491.16 340.551ZM491.127 324.111L491.16 335.324C491.16 335.437 491.183 335.548 491.226 335.652C491.269 335.756 491.332 335.851 491.411 335.931C491.491 336.01 491.586 336.073 491.69 336.116C491.794 336.16 491.905 336.182 492.018 336.182L495.926 336.165C497.837 336.161 499.668 335.515 501.016 334.371C502.364 333.227 503.119 331.678 503.115 330.064V329.306C503.113 328.506 502.925 327.716 502.561 326.978C502.197 326.241 501.664 325.571 500.993 325.008C500.323 324.444 499.527 323.998 498.652 323.694C497.777 323.39 496.839 323.235 495.893 323.237L491.985 323.254C491.757 323.254 491.539 323.344 491.379 323.505C491.218 323.666 491.127 323.884 491.127 324.111Z" fill="black"></path>
  <path d="M241.395 343.997L238.608 352.341C238.388 353.011 237.926 353.357 237.223 353.379L235.277 353.429C235.14 353.433 235.004 353.405 234.88 353.345C234.756 353.286 234.649 353.198 234.568 353.089C234.486 352.98 234.433 352.854 234.413 352.72C234.393 352.587 234.407 352.451 234.453 352.324L244.627 322.495C244.85 321.85 245.269 321.292 245.824 320.897C246.38 320.501 247.045 320.289 247.727 320.289C248.409 320.289 249.073 320.501 249.629 320.897C250.185 321.292 250.603 321.85 250.827 322.495L261.017 352.324C261.193 352.83 261.028 353.165 260.523 353.33C255.757 354.896 255.065 346.916 253.811 343.832C253.602 343.304 253.212 343.046 252.641 343.057L242.598 343.139C241.994 343.139 241.593 343.425 241.395 343.997ZM247.001 326.188L242.912 339.001C242.747 339.539 242.945 339.809 243.505 339.809H251.552C252.267 339.809 252.514 339.468 252.294 338.786L248.089 326.188C247.727 325.078 247.364 325.078 247.001 326.188Z" fill="black"></path>
  <path d="M270.991 320.453H268.584C268.11 320.453 267.727 320.837 267.727 321.311V352.575C267.727 353.048 268.11 353.432 268.584 353.432H270.991C271.465 353.432 271.849 353.048 271.849 352.575V321.311C271.849 320.837 271.465 320.453 270.991 320.453Z" fill="black"></path>
  <path d="M284.018 326.983L284.299 352.343C284.31 353.058 283.952 353.415 283.227 353.415H281.116C280.435 353.415 280.094 353.069 280.094 352.376V322.53C280.093 321.936 280.286 321.358 280.644 320.884C281.003 320.41 281.506 320.067 282.078 319.906C282.65 319.745 283.259 319.776 283.812 319.994C284.365 320.212 284.831 320.605 285.14 321.112L300.821 346.688C300.866 346.751 300.929 346.799 301.003 346.823C301.077 346.848 301.156 346.848 301.23 346.824C301.304 346.8 301.368 346.753 301.413 346.69C301.458 346.627 301.482 346.551 301.481 346.473C300.81 338.756 300.552 330.935 300.706 323.009C300.728 321.843 301.035 321.063 301.629 320.667C302.201 320.293 302.937 320.233 303.839 320.486C304.09 320.552 304.312 320.699 304.47 320.905C304.629 321.111 304.714 321.364 304.713 321.624L304.861 351.502C304.867 352.056 304.691 352.595 304.36 353.037C304.028 353.479 303.559 353.8 303.026 353.95C302.492 354.1 301.923 354.07 301.405 353.867C300.888 353.663 300.451 353.296 300.161 352.822L284.463 326.867C284.434 326.823 284.391 326.789 284.341 326.769C284.29 326.75 284.236 326.746 284.186 326.759C284.135 326.772 284.091 326.801 284.061 326.842C284.031 326.882 284.016 326.931 284.018 326.983Z" fill="black"></path>
  <path d="M323.379 324.97V352.375C323.379 353.068 323.038 353.414 322.357 353.414H320.658C319.955 353.414 319.603 353.057 319.603 352.342L319.702 325.201C319.702 324.497 319.356 324.145 318.663 324.145H311.408C310.858 324.145 310.429 323.914 310.121 323.453C308.912 321.617 309.099 320.639 310.682 320.518C313.991 320.265 321.263 320.276 332.498 320.551C333.102 320.573 333.372 320.88 333.306 321.474L333.141 323.09C333.075 323.794 332.69 324.145 331.987 324.145H324.203C323.654 324.145 323.379 324.42 323.379 324.97Z" fill="black"></path>
  <path d="M371.974 345.779C372.015 345.849 372.078 345.903 372.154 345.933C372.229 345.963 372.312 345.967 372.39 345.944C372.468 345.922 372.536 345.874 372.583 345.808C372.63 345.742 372.654 345.662 372.65 345.581L372.354 321.523C372.343 320.797 372.7 320.434 373.425 320.434H375.734C376.284 320.434 376.558 320.709 376.558 321.259V351.385C376.557 351.945 376.372 352.489 376.033 352.934C375.694 353.379 375.219 353.702 374.68 353.853C374.141 354.004 373.568 353.975 373.047 353.771C372.526 353.567 372.086 353.198 371.793 352.721L356.144 326.832C356.11 326.78 356.06 326.74 356.001 326.718C355.943 326.696 355.879 326.693 355.819 326.709C355.758 326.726 355.705 326.761 355.666 326.81C355.626 326.858 355.603 326.918 355.6 326.981L356.095 352.292C356.106 353.04 355.738 353.413 354.99 353.413H352.847C352.165 353.413 351.824 353.067 351.824 352.374V322.397C351.825 321.811 352.016 321.242 352.37 320.775C352.724 320.308 353.22 319.97 353.784 319.811C354.347 319.653 354.947 319.683 355.493 319.896C356.038 320.11 356.498 320.496 356.804 320.995L371.974 345.779Z" fill="black"></path>
  <path d="M389.815 343.919L387.078 352.592C387.001 352.831 386.85 353.04 386.645 353.188C386.441 353.336 386.194 353.416 385.94 353.417H383.648C382.856 353.417 382.587 353.043 382.84 352.296L393.014 322.499C393.234 321.849 393.652 321.285 394.21 320.885C394.767 320.485 395.436 320.27 396.122 320.27C396.808 320.27 397.477 320.485 398.035 320.885C398.592 321.285 399.01 321.849 399.23 322.499L409.404 352.279C409.569 352.741 409.421 353.065 408.959 353.252C404.227 355.115 403.402 346.755 402.182 343.738C401.973 343.243 401.605 342.996 401.077 342.996L390.837 343.16C390.321 343.171 389.98 343.424 389.815 343.919ZM395.702 325.401L391.365 339.038C391.211 339.555 391.403 339.813 391.942 339.813H399.939C400.632 339.813 400.874 339.483 400.665 338.824L396.328 325.401C396.307 325.335 396.265 325.278 396.208 325.237C396.152 325.196 396.084 325.174 396.015 325.174C395.946 325.174 395.878 325.196 395.822 325.237C395.765 325.278 395.723 325.335 395.702 325.401Z" fill="black"></path>
  <path d="M420.668 349.706H437.042C437.515 349.706 437.762 349.943 437.784 350.415L437.9 352.229C437.909 352.382 437.886 352.535 437.833 352.678C437.78 352.822 437.697 352.954 437.591 353.065C437.484 353.176 437.356 353.265 437.213 353.325C437.071 353.386 436.917 353.417 436.762 353.417H415.342C415.076 353.415 414.816 353.341 414.589 353.202C414.362 353.064 414.177 352.867 414.053 352.631C413.929 352.396 413.872 352.132 413.887 351.866C413.902 351.601 413.989 351.344 414.138 351.124L431.617 325.285C432.134 324.527 431.936 324.148 431.024 324.148H416.81C416.238 324.148 415.925 323.862 415.87 323.29L415.688 321.542C415.611 320.806 415.947 320.438 416.694 320.438H435.789C436.122 320.44 436.449 320.532 436.735 320.704C437.021 320.875 437.255 321.121 437.412 321.413C437.57 321.706 437.644 322.035 437.629 322.365C437.613 322.696 437.507 323.015 437.323 323.29L420.19 348.799C419.783 349.404 419.943 349.706 420.668 349.706Z" fill="black"></path>
  <path d="M459.715 343.092L449.491 343.109C448.887 343.12 448.496 343.406 448.32 343.966L445.501 352.673C445.314 353.233 444.924 353.492 444.33 353.448L442.203 353.283C441.466 353.228 441.219 352.849 441.461 352.145L451.668 322.118C451.883 321.495 452.286 320.955 452.823 320.572C453.359 320.19 454.002 319.984 454.661 319.984C455.319 319.984 455.962 320.19 456.498 320.572C457.035 320.955 457.439 321.495 457.653 322.118L467.992 352.277C468.037 352.406 468.05 352.544 468.031 352.679C468.011 352.814 467.96 352.943 467.881 353.054C467.802 353.165 467.698 353.256 467.576 353.319C467.455 353.381 467.321 353.414 467.184 353.415H464.793C464.535 353.414 464.284 353.332 464.077 353.18C463.869 353.029 463.716 352.817 463.639 352.574L460.902 343.966C460.715 343.384 460.319 343.092 459.715 343.092ZM454.356 325.036L449.887 339.019C449.711 339.547 449.903 339.811 450.464 339.811H458.676C459.28 339.811 459.489 339.52 459.302 338.937L454.768 325.036C454.755 324.992 454.728 324.952 454.691 324.924C454.654 324.896 454.608 324.881 454.562 324.881C454.515 324.881 454.47 324.896 454.433 324.924C454.395 324.952 454.368 324.992 454.356 325.036Z" fill="black"></path>
  <path d="M478.083 320.438H475.379C474.987 320.438 474.67 320.755 474.67 321.147V352.707C474.67 353.099 474.987 353.417 475.379 353.417H478.083C478.475 353.417 478.792 353.099 478.792 352.707V321.147C478.792 320.755 478.475 320.438 478.083 320.438Z" fill="black"></path>
  <path d="M519.078 349.706H531.214C531.386 349.705 531.553 349.766 531.683 349.878C531.814 349.99 531.899 350.146 531.923 350.316L532.269 352.609C532.283 352.71 532.276 352.813 532.246 352.91C532.217 353.008 532.167 353.098 532.1 353.175C532.033 353.252 531.95 353.313 531.856 353.355C531.763 353.396 531.662 353.418 531.56 353.417H514.955C514.767 353.417 514.587 353.342 514.454 353.209C514.321 353.076 514.246 352.896 514.246 352.707V321.147C514.246 320.958 514.321 320.778 514.454 320.645C514.587 320.512 514.767 320.438 514.955 320.438H531.379C531.483 320.438 531.585 320.462 531.679 320.506C531.773 320.551 531.856 320.616 531.922 320.696C531.988 320.776 532.036 320.87 532.061 320.971C532.087 321.071 532.091 321.176 532.071 321.278L531.626 323.57C531.595 323.732 531.51 323.878 531.383 323.983C531.257 324.089 531.098 324.147 530.933 324.148H519.078C518.889 324.148 518.709 324.222 518.576 324.355C518.443 324.488 518.368 324.669 518.368 324.857V333.745C518.368 333.933 518.443 334.113 518.576 334.246C518.709 334.379 518.889 334.454 519.078 334.454H530.521C530.622 334.455 530.721 334.478 530.812 334.52C530.903 334.563 530.985 334.625 531.05 334.701C531.116 334.778 531.164 334.867 531.192 334.964C531.221 335.06 531.228 335.162 531.214 335.262L530.95 337.141C530.926 337.309 530.844 337.463 530.717 337.575C530.59 337.686 530.427 337.749 530.257 337.751H519.078C518.889 337.751 518.709 337.826 518.576 337.959C518.443 338.092 518.368 338.272 518.368 338.461V348.997C518.368 349.185 518.443 349.366 518.576 349.499C518.709 349.632 518.889 349.706 519.078 349.706Z" fill="black"></path>
  <path d="M344.476 338.561L335.671 338.622C334.815 338.628 334.126 339.327 334.132 340.183L334.133 340.348C334.139 341.204 334.838 341.893 335.694 341.887L344.499 341.825C345.355 341.819 346.044 341.121 346.038 340.265L346.037 340.1C346.031 339.244 345.332 338.555 344.476 338.561Z" fill="black"></path>
  <path d="M292.791 382.719C295.254 383.345 296.82 384.939 297.491 387.501C300.657 399.654 287.185 401.187 278.512 399.423C277.918 399.302 277.621 398.944 277.621 398.351V368.225C277.621 367.554 277.945 367.131 278.594 366.955C282.145 365.976 285.586 365.828 288.916 366.51C297.095 368.175 300.179 375.991 292.561 381.581C292.464 381.654 292.389 381.753 292.346 381.867C292.303 381.98 292.293 382.104 292.317 382.223C292.341 382.342 292.399 382.452 292.483 382.539C292.566 382.627 292.674 382.689 292.791 382.719ZM282.518 380.443C295.677 383.312 296.947 366.823 282.518 369.692C282.002 369.791 281.743 370.104 281.743 370.632V379.487C281.743 380.015 282.002 380.333 282.518 380.443ZM281.743 384.368L281.71 396.273C281.71 396.396 281.759 396.513 281.846 396.6C281.932 396.686 282.05 396.735 282.172 396.735L286.41 396.751C287.422 396.754 288.424 396.6 289.36 396.296C290.296 395.993 291.146 395.547 291.863 394.983C292.58 394.42 293.149 393.75 293.537 393.012C293.926 392.274 294.126 391.483 294.127 390.683V390.024C294.129 388.411 293.321 386.863 291.88 385.719C290.44 384.575 288.484 383.929 286.443 383.923L282.205 383.906C282.083 383.906 281.965 383.955 281.879 384.041C281.792 384.128 281.743 384.245 281.743 384.368Z" fill="black"></path>
  <path d="M229.802 396.65V398.811C229.802 399.016 229.721 399.213 229.575 399.359C229.43 399.504 229.233 399.586 229.027 399.586H212.686C212.481 399.586 212.284 399.504 212.138 399.359C211.993 399.213 211.911 399.016 211.911 398.811L211.631 367.546C211.63 367.352 211.703 367.164 211.834 367.02C211.965 366.877 212.146 366.788 212.34 366.771L215.044 366.491C215.153 366.482 215.262 366.496 215.365 366.531C215.468 366.567 215.562 366.624 215.642 366.699C215.721 366.774 215.784 366.864 215.826 366.965C215.868 367.065 215.888 367.174 215.885 367.283L215.555 395.084C215.553 395.187 215.572 395.29 215.61 395.386C215.648 395.481 215.704 395.569 215.776 395.643C215.849 395.716 215.935 395.775 216.03 395.815C216.125 395.855 216.227 395.875 216.33 395.875H229.027C229.233 395.875 229.43 395.957 229.575 396.102C229.721 396.248 229.802 396.445 229.802 396.65Z" fill="black"></path>
  <path d="M234.072 399.338C233.599 399.272 233.44 399.014 233.594 398.563L243.933 368.272C244.15 367.646 244.557 367.103 245.098 366.72C245.638 366.336 246.285 366.131 246.948 366.133C247.611 366.135 248.256 366.343 248.795 366.73C249.333 367.116 249.738 367.661 249.951 368.288L260.175 398.497C260.417 399.222 260.153 399.585 259.383 399.585H257.223C256.498 399.585 256.025 399.239 255.805 398.546L253.117 390.087C252.941 389.549 252.568 389.279 251.996 389.279H241.723C241.13 389.279 240.739 389.565 240.552 390.137L237.766 398.728C237.535 399.464 237.035 399.778 236.265 399.668L234.072 399.338ZM242.053 385.322C242.03 385.399 242.025 385.48 242.039 385.559C242.053 385.638 242.085 385.713 242.133 385.777C242.181 385.841 242.244 385.893 242.316 385.929C242.388 385.964 242.467 385.982 242.548 385.981L251.106 385.965C251.185 385.963 251.262 385.943 251.332 385.907C251.402 385.87 251.462 385.818 251.509 385.754C251.555 385.69 251.586 385.616 251.599 385.538C251.612 385.461 251.607 385.381 251.584 385.305L247.297 371.982C247.263 371.879 247.198 371.789 247.111 371.726C247.024 371.662 246.918 371.628 246.81 371.628C246.702 371.628 246.597 371.662 246.509 371.726C246.422 371.789 246.357 371.879 246.324 371.982L242.053 385.322Z" fill="black"></path>
  <path d="M310.634 390.169L307.83 398.777C307.654 399.316 307.281 399.585 306.709 399.585H304.499C303.708 399.585 303.439 399.211 303.691 398.464L313.849 368.618C314.073 367.97 314.494 367.408 315.053 367.01C315.611 366.612 316.28 366.398 316.965 366.398C317.651 366.398 318.32 366.612 318.878 367.01C319.437 367.408 319.858 367.97 320.082 368.618L330.256 398.48C330.509 399.217 330.251 399.585 329.481 399.585H327.156C326.573 399.585 326.194 399.316 326.018 398.777L323.083 389.972C322.929 389.51 322.61 389.279 322.127 389.279H311.854C311.584 389.28 311.322 389.366 311.103 389.526C310.884 389.686 310.72 389.911 310.634 390.169ZM316.273 372.493L312.332 384.86C312.09 385.607 312.365 385.981 313.156 385.981H320.494C321.363 385.981 321.665 385.563 321.401 384.728L317.427 372.493C317.042 371.305 316.658 371.305 316.273 372.493Z" fill="black"></path>
  <path d="M338.651 388.438C338.684 399.387 354.068 400.392 354.25 386.393C354.327 380.248 354.338 374.059 354.283 367.826C354.272 367.012 354.673 366.605 355.486 366.605H357.234C357.545 366.605 357.843 366.729 358.062 366.948C358.282 367.168 358.405 367.466 358.405 367.776C358.438 375.295 360.45 391.538 354.217 397.062C349.775 400.997 344.884 401.382 339.541 398.216C332.451 394.011 334.429 375.048 334.545 367.76C334.549 367.452 334.673 367.159 334.889 366.943C335.105 366.727 335.396 366.605 335.699 366.605H337.447C337.762 366.605 338.064 366.731 338.286 366.953C338.509 367.176 338.634 367.478 338.634 367.793C338.634 374.696 338.64 381.578 338.651 388.438Z" fill="black"></path>
  <path d="M372.388 395.874H384.755C384.96 395.874 385.157 395.956 385.303 396.101C385.448 396.247 385.53 396.444 385.53 396.649V398.809C385.53 399.015 385.448 399.212 385.303 399.357C385.157 399.503 384.96 399.584 384.755 399.584H368.265C368.06 399.584 367.863 399.503 367.717 399.357C367.572 399.212 367.49 399.015 367.49 398.809V367.38C367.49 367.175 367.572 366.978 367.717 366.832C367.863 366.687 368.06 366.605 368.265 366.605H370.838C371.043 366.605 371.24 366.687 371.386 366.832C371.531 366.978 371.613 367.175 371.613 367.38V395.099C371.613 395.305 371.694 395.502 371.84 395.647C371.985 395.793 372.182 395.874 372.388 395.874Z" fill="black"></path>
  <path d="M396.196 395.874H408.86C409.04 395.874 409.212 395.946 409.338 396.072C409.465 396.199 409.536 396.371 409.536 396.55V398.908C409.536 399.088 409.465 399.26 409.338 399.386C409.212 399.513 409.04 399.584 408.86 399.584H392.486C392.31 399.585 392.14 399.516 392.014 399.392C391.888 399.269 391.815 399.101 391.81 398.925L391.299 367.298C391.297 367.208 391.313 367.118 391.346 367.034C391.379 366.95 391.428 366.874 391.491 366.809C391.554 366.745 391.629 366.693 391.712 366.658C391.796 366.623 391.885 366.605 391.975 366.605H408.448C408.627 366.605 408.799 366.677 408.926 366.803C409.053 366.93 409.124 367.102 409.124 367.282V369.64C409.124 369.819 409.053 369.991 408.926 370.118C408.799 370.244 408.627 370.316 408.448 370.316H396.196C396.017 370.316 395.845 370.387 395.718 370.514C395.592 370.64 395.52 370.812 395.52 370.992V380.242C395.52 380.332 395.538 380.422 395.573 380.505C395.608 380.588 395.66 380.663 395.724 380.726C395.789 380.789 395.865 380.839 395.949 380.872C396.033 380.905 396.123 380.921 396.213 380.918L407.574 380.687C407.748 380.687 407.915 380.754 408.041 380.874C408.167 380.993 408.242 381.157 408.25 381.331L408.316 383.161C408.318 383.251 408.303 383.341 408.27 383.425C408.237 383.509 408.187 383.585 408.124 383.65C408.061 383.714 407.986 383.765 407.903 383.8C407.82 383.835 407.73 383.854 407.64 383.853L396.213 383.656C396.123 383.653 396.033 383.669 395.949 383.702C395.865 383.735 395.789 383.785 395.724 383.848C395.66 383.911 395.608 383.986 395.573 384.069C395.538 384.152 395.52 384.241 395.52 384.332V395.198C395.52 395.378 395.592 395.55 395.718 395.676C395.845 395.803 396.017 395.874 396.196 395.874Z" fill="black"></path>
</svg>
