<?xml version="1.0" encoding="UTF-8"?>
<svg xmlns="http://www.w3.org/2000/svg" width="700" height="440" viewBox="0 0 700 440" fill="none">
  <path d="M87.0451 95.1792C87.0438 95.1482 87.051 95.1174 87.0659 95.0901C87.0807 95.0628 87.1026 95.04 87.1294 95.0241C87.1561 95.0083 87.1866 94.9999 87.2177 95C87.2488 95.0001 87.2793 95.0085 87.3059 95.0245C109.904 108.417 132.504 121.81 155.106 135.206C158.584 137.269 160.583 140.292 161.102 144.275C161.531 147.547 161.367 153.211 161.924 158.96C162.101 160.79 161.995 162.497 162.194 164.421C162.259 165.066 162.315 165.878 162.362 166.857C162.654 173.03 163.03 179.207 163.229 185.385C163.286 187.277 164.064 189.749 162.822 191.314C160.863 193.786 159.01 192.813 156.693 191.301C136.483 178.089 116.273 164.872 96.0656 151.65C93.0543 149.678 90.9053 148.294 89.8927 144.739C89.6834 144.005 89.4549 141.592 89.2073 137.501C88.3539 123.408 87.6951 109.289 87.0451 95.1792Z" fill="black"></path>
  <path d="M373.773 215.212C353.42 216.813 336.387 201.526 336.604 181.111C336.776 165.082 348.896 151.639 364.452 148.968C376.113 146.97 388.834 150.295 397.134 159.028C397.175 159.071 397.198 159.127 397.201 159.186C397.203 159.245 397.184 159.302 397.147 159.346L389.926 168.438C389.897 168.474 389.861 168.503 389.819 168.523C389.778 168.544 389.733 168.555 389.687 168.556C389.641 168.557 389.596 168.549 389.554 168.53C389.512 168.512 389.475 168.485 389.444 168.451C384.837 163.26 378.346 160.001 371.403 159.961C358.324 159.886 348.047 171.414 349.865 184.542C351.633 197.268 363.506 205.272 375.958 202.791C381.074 201.77 385.695 199.121 389.413 195.455C389.446 195.423 389.485 195.398 389.528 195.381C389.57 195.364 389.616 195.356 389.662 195.357C389.708 195.358 389.753 195.369 389.794 195.388C389.836 195.407 389.873 195.435 389.904 195.468L397.227 203.521C397.427 203.739 397.42 203.951 397.205 204.157C390.806 210.343 382.635 214.518 373.773 215.212Z" fill="black"></path>
  <path d="M471.682 182.663C471.574 187.079 470.555 191.429 468.683 195.464C466.811 199.5 464.123 203.143 460.771 206.186C457.42 209.228 453.472 211.609 449.152 213.194C444.832 214.779 440.225 215.537 435.593 215.424C430.962 215.311 426.397 214.329 422.16 212.535C417.922 210.74 414.095 208.169 410.897 204.967C407.698 201.764 405.191 197.994 403.518 193.872C401.846 189.749 401.04 185.355 401.148 180.94C401.256 176.524 402.275 172.174 404.147 168.138C406.019 164.102 408.708 160.459 412.059 157.417C415.41 154.375 419.358 151.994 423.678 150.409C427.998 148.823 432.605 148.066 437.237 148.179C441.868 148.292 446.433 149.274 450.67 151.068C454.908 152.862 458.735 155.434 461.934 158.636C465.132 161.838 467.639 165.608 469.312 169.731C470.984 173.854 471.79 178.248 471.682 182.663ZM458.457 179.91C457.963 174.151 455.171 168.826 450.695 165.108C446.219 161.389 440.425 159.581 434.589 160.081C431.699 160.329 428.885 161.136 426.309 162.456C423.733 163.777 421.444 165.584 419.573 167.776C417.703 169.967 416.287 172.5 415.407 175.23C414.527 177.959 414.2 180.832 414.444 183.684C414.938 189.443 417.73 194.768 422.206 198.486C426.682 202.205 432.476 204.013 438.312 203.513C441.202 203.265 444.016 202.458 446.592 201.138C449.168 199.817 451.457 198.01 453.328 195.818C455.198 193.627 456.614 191.094 457.494 188.364C458.374 185.635 458.701 182.762 458.457 179.91Z" fill="black"></path>
  <path d="M207.991 215.055H195.062C195.017 215.055 194.972 215.043 194.932 215.021C194.893 214.999 194.859 214.968 194.835 214.929C194.81 214.891 194.795 214.848 194.792 214.803C194.788 214.757 194.796 214.712 194.814 214.67L223.972 148.781C223.993 148.733 224.028 148.692 224.072 148.663C224.115 148.634 224.167 148.618 224.219 148.617H236.357C236.411 148.617 236.463 148.632 236.508 148.661C236.553 148.69 236.588 148.732 236.609 148.781L265.453 214.67C265.471 214.712 265.479 214.758 265.475 214.804C265.472 214.849 265.457 214.893 265.431 214.931C265.406 214.97 265.372 215.001 265.332 215.023C265.292 215.044 265.247 215.055 265.201 215.055H252.028C251.974 215.055 251.922 215.039 251.877 215.009C251.832 214.979 251.797 214.937 251.776 214.887L245.656 200.521C245.636 200.471 245.601 200.429 245.556 200.399C245.511 200.369 245.458 200.353 245.404 200.353H214.593C214.539 200.353 214.487 200.369 214.442 200.399C214.397 200.429 214.362 200.471 214.341 200.521L208.243 214.887C208.223 214.937 208.188 214.979 208.143 215.009C208.098 215.039 208.045 215.055 207.991 215.055ZM229.729 164.217C226.498 171.832 223.32 179.316 220.196 186.671C219.921 187.321 219.806 187.87 219.267 188.427C219.24 188.453 219.222 188.486 219.215 188.523C219.208 188.559 219.211 188.597 219.226 188.631C219.24 188.665 219.264 188.695 219.295 188.715C219.326 188.735 219.363 188.746 219.4 188.745H240.196C240.242 188.745 240.288 188.734 240.33 188.712C240.371 188.69 240.406 188.658 240.432 188.619C240.458 188.58 240.473 188.535 240.478 188.488C240.482 188.442 240.475 188.395 240.456 188.352C237.178 180.678 233.903 172.949 230.631 165.164C230.46 164.76 230.255 164.428 230.016 164.169C229.996 164.148 229.971 164.132 229.943 164.123C229.916 164.114 229.886 164.111 229.858 164.116C229.829 164.121 229.803 164.133 229.78 164.15C229.758 164.168 229.74 164.191 229.729 164.217Z" fill="black"></path>
  <path d="M546.544 148.605H534.552C534.323 148.605 534.137 148.792 534.137 149.021V214.641C534.137 214.871 534.323 215.057 534.552 215.057H546.544C546.774 215.057 546.96 214.871 546.96 214.641V149.021C546.96 148.792 546.774 148.605 546.544 148.605Z" fill="black"></path>
  <path d="M606.84 179.701C606.818 179.713 606.8 179.732 606.789 179.755C606.777 179.777 606.773 179.803 606.775 179.828C606.778 179.854 606.788 179.878 606.804 179.899C606.82 179.919 606.842 179.935 606.866 179.944C615.321 183.017 618.766 190.397 617.669 199.126C616.121 211.454 602.874 215.04 592.31 215.071C582.897 215.095 573.485 215.078 564.072 215.022C563.939 215.022 563.873 214.956 563.873 214.823V148.956C563.873 148.717 563.992 148.598 564.231 148.598C574.331 148.604 584.491 148.646 594.711 148.726C604.996 148.805 615.48 154.107 615.396 165.71C615.352 171.665 612.863 176.172 607.928 179.232C607.587 179.444 607.198 179.489 606.84 179.701ZM576.595 160.324L576.542 175.04C576.542 175.073 576.555 175.105 576.578 175.128C576.601 175.151 576.633 175.164 576.665 175.164L593.398 175.221C594.567 175.226 595.726 175.05 596.808 174.703C597.89 174.357 598.874 173.847 599.703 173.203C600.533 172.559 601.192 171.793 601.642 170.949C602.093 170.105 602.327 169.199 602.33 168.284V167.258C602.336 165.41 601.404 163.634 599.739 162.322C598.074 161.009 595.812 160.267 593.451 160.258L576.718 160.201C576.686 160.201 576.654 160.214 576.631 160.237C576.608 160.26 576.595 160.292 576.595 160.324ZM576.533 187.01L576.621 203.274C576.621 203.304 576.633 203.333 576.655 203.355C576.676 203.376 576.706 203.389 576.736 203.389L593.729 203.296C595.186 203.288 596.628 203.08 597.972 202.684C599.316 202.288 600.536 201.712 601.563 200.987C602.589 200.263 603.402 199.405 603.955 198.463C604.507 197.521 604.789 196.512 604.784 195.496L604.775 194.487C604.77 193.471 604.478 192.465 603.915 191.529C603.353 190.592 602.531 189.743 601.497 189.029C600.464 188.316 599.238 187.752 597.89 187.37C596.541 186.987 595.098 186.795 593.641 186.802L576.648 186.895C576.617 186.895 576.588 186.907 576.566 186.929C576.545 186.95 576.533 186.98 576.533 187.01Z" fill="black"></path>
  <path d="M286.293 195.825V214.379C286.293 214.558 286.222 214.73 286.095 214.857C285.968 214.984 285.796 215.055 285.617 215.055H273.802C273.684 215.055 273.572 215.009 273.489 214.926C273.406 214.843 273.359 214.73 273.359 214.613V148.843C273.359 148.784 273.383 148.728 273.424 148.686C273.466 148.645 273.522 148.622 273.58 148.622C282.799 148.616 292.048 148.616 301.327 148.622C317.056 148.635 329.03 157.01 327.522 174.171C326.793 182.488 322.694 189.13 315 192.769C314.855 192.837 314.827 192.939 314.916 193.074L329.375 214.662C329.549 214.924 329.478 215.055 329.163 215.055H315.588C315.375 215.055 315.165 215 314.98 214.896C314.795 214.791 314.64 214.64 314.531 214.458L303.171 195.674C303.089 195.542 302.969 195.475 302.813 195.475L286.62 195.497C286.534 195.497 286.45 195.532 286.389 195.593C286.328 195.655 286.293 195.738 286.293 195.825ZM286.24 160.397V183.762C286.24 183.778 286.243 183.793 286.249 183.808C286.255 183.822 286.264 183.835 286.275 183.846C286.286 183.857 286.299 183.866 286.314 183.872C286.328 183.878 286.344 183.881 286.36 183.881H302.411C305.818 183.881 309.085 182.787 311.494 180.84C313.903 178.893 315.256 176.252 315.256 173.499V170.66C315.256 167.906 313.903 165.266 311.494 163.319C309.085 161.371 305.818 160.278 302.411 160.278H286.36C286.328 160.278 286.298 160.29 286.275 160.313C286.253 160.335 286.24 160.365 286.24 160.397Z" fill="black"></path>
  <path d="M496.18 203.121L523.56 203.112C523.637 203.112 523.711 203.143 523.766 203.197C523.821 203.252 523.851 203.326 523.851 203.404V214.763C523.851 214.841 523.821 214.915 523.766 214.97C523.711 215.024 523.637 215.055 523.56 215.055H483.356C483.279 215.055 483.205 215.024 483.15 214.97C483.095 214.915 483.064 214.841 483.064 214.763V148.909C483.064 148.832 483.095 148.757 483.15 148.703C483.205 148.648 483.279 148.617 483.356 148.617H495.64C495.718 148.617 495.792 148.648 495.847 148.703C495.901 148.757 495.932 148.832 495.932 148.909L495.888 202.829C495.888 202.906 495.919 202.98 495.973 203.035C496.028 203.09 496.102 203.121 496.18 203.121Z" fill="black"></path>
  <path d="M83.0438 226.389C82.7932 226.209 82.668 225.965 82.668 225.655V160.367C82.6681 160.223 82.7147 160.085 82.8006 159.973C84.5782 157.696 86.3779 159.093 88.465 160.46C110.415 174.822 132.371 189.178 154.333 203.528C156.65 205.041 158.697 206.509 160.147 208.764C163.274 213.628 162.889 220.278 159.236 224.634C158.269 225.786 156.339 227.288 153.444 229.14C141.741 236.621 130.033 244.097 118.321 251.567C118.18 251.656 118.043 251.651 117.91 251.554L83.0438 226.389Z" fill="black"></path>
  <path d="M582.528 229.341C581.909 229.152 581.79 228.723 582.17 228.054C582.94 226.695 583.799 225.388 584.748 224.132C584.778 224.092 584.817 224.06 584.862 224.038C584.906 224.015 584.955 224.004 585.005 224.004L587.317 224.048C587.439 224.05 587.558 224.086 587.661 224.151C587.764 224.215 587.847 224.307 587.902 224.416C587.957 224.525 587.98 224.647 587.971 224.768C587.961 224.89 587.919 225.006 587.848 225.105L584.947 229.146C584.862 229.267 584.747 229.338 584.602 229.359C583.7 229.497 583.009 229.491 582.528 229.341Z" fill="black"></path>
  <path d="M599.552 229.403C599.43 229.403 599.31 229.371 599.204 229.311C599.098 229.251 599.009 229.164 598.947 229.059C598.884 228.955 598.85 228.835 598.848 228.713C598.845 228.591 598.875 228.471 598.933 228.364C599.54 227.237 600.251 226.114 601.064 224.994C601.865 223.893 602.864 223.734 604.089 224.061C604.77 224.241 604.934 224.677 604.58 225.37C604.217 226.08 603.28 227.358 601.768 229.204C601.658 229.336 601.518 229.403 601.347 229.403H599.552Z" fill="black"></path>
  <path d="M208.898 245.271C208.897 246.126 208.727 246.973 208.398 247.763C208.07 248.552 207.589 249.269 206.983 249.873C206.377 250.477 205.658 250.955 204.867 251.281C204.076 251.607 203.229 251.774 202.374 251.773L200.375 251.769C199.52 251.768 198.673 251.598 197.883 251.269C197.094 250.94 196.377 250.459 195.773 249.854C195.169 249.248 194.69 248.529 194.365 247.738C194.039 246.947 193.872 246.1 193.873 245.245L193.888 236.631C193.89 235.776 194.06 234.929 194.388 234.139C194.717 233.35 195.198 232.632 195.804 232.029C196.41 231.425 197.129 230.946 197.919 230.62C198.71 230.294 199.557 230.127 200.413 230.129L202.411 230.132C203.267 230.134 204.114 230.304 204.903 230.633C205.693 230.961 206.41 231.442 207.014 232.048C207.618 232.654 208.096 233.373 208.422 234.164C208.748 234.955 208.915 235.802 208.913 236.657L208.898 245.271ZM199.156 248.689C201.844 250.307 205.426 248.508 205.846 245.488C206.191 243.011 206.651 236.931 205.13 234.667C202.99 231.484 197.781 232.399 196.976 236.171C196.445 238.659 196.369 241.403 196.746 244.404C196.998 246.394 197.484 247.685 199.156 248.689Z" fill="black"></path>
  <path d="M224.029 241.875C223.969 241.898 223.914 241.933 223.868 241.978C223.822 242.023 223.786 242.077 223.763 242.137C223.74 242.197 223.73 242.261 223.734 242.325C223.738 242.389 223.756 242.451 223.786 242.508L228.084 250.604C228.132 250.696 228.142 250.804 228.112 250.903C228.081 251.002 228.012 251.086 227.92 251.135C227.08 251.594 226.165 251.705 225.174 251.466C225.024 251.428 224.912 251.339 224.838 251.201L220.226 242.379C220.144 242.217 220.011 242.136 219.828 242.136H215.924C215.732 242.136 215.638 242.23 215.641 242.419L215.659 251.112C215.659 251.163 215.65 251.214 215.63 251.261C215.611 251.308 215.582 251.351 215.546 251.387C215.51 251.424 215.467 251.452 215.42 251.472C215.372 251.491 215.321 251.502 215.27 251.502H213.275C213.173 251.502 213.075 251.461 213.003 251.389C212.931 251.317 212.891 251.219 212.891 251.117V230.745C212.891 230.576 212.958 230.414 213.077 230.294C213.196 230.174 213.358 230.105 213.527 230.104C216.835 230.087 222.331 229.538 224.869 230.781C229.247 232.93 228.756 240.146 224.029 241.875ZM215.57 232.775L215.544 239.399C215.543 239.439 215.55 239.478 215.565 239.515C215.58 239.552 215.602 239.586 215.63 239.614C215.658 239.643 215.692 239.665 215.728 239.681C215.765 239.696 215.805 239.704 215.844 239.704L220.872 239.722C221.377 239.724 221.877 239.646 222.344 239.494C222.811 239.341 223.236 239.117 223.594 238.833C223.952 238.549 224.237 238.212 224.431 237.84C224.626 237.468 224.726 237.07 224.728 236.666V235.579C224.731 234.765 224.329 233.983 223.611 233.405C222.893 232.828 221.917 232.501 220.899 232.497L215.871 232.479C215.792 232.479 215.716 232.51 215.66 232.565C215.604 232.621 215.571 232.696 215.57 232.775Z" fill="black"></path>
  <path d="M232.983 250.125C229.848 247.388 230.803 241.932 230.803 238.213C230.8 236.22 230.972 234.804 231.32 233.963C232.695 230.616 237.033 229.524 240.288 230.271C243.153 230.93 245.041 232.77 245.762 235.586C246.253 237.501 243.763 238.089 242.967 236.457C242.574 235.653 242.216 234.742 241.614 234.127C239.846 232.327 236.693 232.204 234.999 234.008C232.886 236.245 232.881 245.412 234.924 247.693C237.1 250.116 240.575 249.608 242.22 246.959C242.914 245.845 243.007 244.173 243.219 242.785C243.229 242.729 243.225 242.672 243.208 242.617C243.191 242.563 243.162 242.513 243.122 242.472C243.083 242.431 243.035 242.399 242.981 242.378C242.927 242.358 242.87 242.351 242.813 242.356C241.583 242.489 237.002 243.232 237.467 240.844C237.51 240.617 237.631 240.413 237.808 240.266C237.986 240.119 238.209 240.039 238.439 240.039H245.077C245.305 240.039 245.524 240.128 245.686 240.287C245.849 240.445 245.943 240.661 245.948 240.888C246.032 245.261 246.178 249.82 241.185 251.452C238.74 252.252 235.11 251.978 232.983 250.125Z" fill="black"></path>
  <path d="M247.929 251.534C247.796 251.534 247.664 251.502 247.546 251.44C247.428 251.378 247.327 251.289 247.251 251.179C247.175 251.07 247.127 250.944 247.11 250.811C247.093 250.679 247.109 250.545 247.155 250.42L254.504 230.703C254.557 230.553 254.655 230.441 254.796 230.367C256.109 229.682 257.215 229.996 257.754 231.437C260.142 237.81 262.519 244.16 264.887 250.486C264.931 250.604 264.946 250.73 264.931 250.854C264.915 250.978 264.869 251.097 264.798 251.2C264.726 251.303 264.63 251.387 264.519 251.446C264.407 251.504 264.283 251.534 264.157 251.534H262.229C262.147 251.534 262.067 251.51 261.999 251.463C261.931 251.417 261.879 251.35 261.849 251.273L260.195 246.896C260.139 246.746 260.031 246.67 259.872 246.67H252.634C252.399 246.671 252.17 246.743 251.978 246.877C251.786 247.012 251.64 247.202 251.559 247.422L250.158 251.296C250.099 251.455 249.985 251.534 249.817 251.534H247.929ZM252.886 244.048C252.878 244.071 252.876 244.096 252.879 244.12C252.883 244.144 252.892 244.166 252.907 244.186C252.921 244.205 252.94 244.221 252.962 244.232C252.983 244.243 253.007 244.248 253.032 244.247L258.961 244.225C258.985 244.225 259.009 244.219 259.03 244.208C259.051 244.197 259.069 244.181 259.083 244.162C259.097 244.142 259.106 244.12 259.109 244.096C259.113 244.073 259.111 244.049 259.103 244.026L256.109 235.47C256.099 235.439 256.08 235.413 256.054 235.394C256.028 235.375 255.996 235.365 255.964 235.366C255.932 235.366 255.901 235.377 255.875 235.397C255.849 235.416 255.831 235.443 255.822 235.474L252.886 244.048Z" fill="black"></path>
  <path d="M269.478 236.184L269.491 251.143C269.491 251.379 269.373 251.498 269.137 251.501L267.249 251.519C267.154 251.52 267.061 251.484 266.991 251.419C266.921 251.354 266.879 251.265 266.873 251.169C266.621 246.898 266.82 242.189 266.776 238.439C266.745 235.848 266.506 233.018 266.887 230.462C266.91 230.314 266.996 230.227 267.143 230.201C268.288 230.006 269.111 229.763 269.849 230.838C273.228 235.767 276.56 240.701 279.847 245.642C279.864 245.666 279.889 245.684 279.917 245.694C279.945 245.703 279.976 245.703 280.004 245.695C280.032 245.686 280.057 245.668 280.075 245.645C280.093 245.621 280.103 245.592 280.104 245.562V230.466C280.104 230.26 280.208 230.154 280.418 230.148L282.434 230.113C282.649 230.107 282.757 230.213 282.757 230.431V251.094C282.757 251.213 282.71 251.326 282.627 251.41C282.544 251.494 282.432 251.541 282.315 251.541L280.342 251.532C280.281 251.532 280.22 251.517 280.165 251.487C280.111 251.458 280.064 251.416 280.028 251.364L269.752 236.104C269.734 236.077 269.708 236.056 269.677 236.044C269.646 236.033 269.613 236.031 269.582 236.041C269.551 236.05 269.524 236.068 269.505 236.094C269.486 236.12 269.477 236.152 269.478 236.184Z" fill="black"></path>
  <path d="M289.648 230.086H288.357C287.952 230.086 287.623 230.415 287.623 230.82V250.798C287.623 251.203 287.952 251.532 288.357 251.532H289.648C290.054 251.532 290.382 251.203 290.382 250.798V230.82C290.382 230.415 290.054 230.086 289.648 230.086Z" fill="black"></path>
  <path d="M305.541 245.347C305.179 240.558 295.504 244.254 294.239 238.157C291.975 227.279 307.098 229.141 307.438 233.133C307.45 233.269 307.417 233.393 307.341 233.505C306.655 234.495 305.727 234.513 304.701 233.85C302.963 232.722 298.422 231.895 297.286 234.341C295.101 239.041 300.474 239.271 303.335 239.868C306.12 240.452 308.119 241.597 308.486 244.458C308.937 247.954 307.668 250.259 304.679 251.374C303.034 251.988 300.854 251.758 299.01 251.732C296.932 251.699 295.216 250.934 293.863 249.437C293.76 249.319 293.698 249.172 293.686 249.017C293.618 247.967 294.083 247.276 295.079 246.943C295.144 246.921 295.213 246.913 295.282 246.921C295.351 246.928 295.417 246.951 295.477 246.987C296.459 247.597 297.308 248.393 298.311 248.796C301.217 249.954 305.851 249.437 305.541 245.347Z" fill="black"></path>
  <path d="M327.605 238.288C327.605 238.245 327.59 238.203 327.563 238.169C327.536 238.135 327.498 238.112 327.456 238.103C327.414 238.093 327.369 238.099 327.331 238.118C327.292 238.137 327.261 238.169 327.243 238.208L322.551 248.511C322.495 248.635 322.402 248.714 322.272 248.75C320.782 249.183 319.783 248.745 319.106 247.299C317.665 244.219 316.246 241.161 314.848 238.124C314.833 238.093 314.807 238.067 314.776 238.051C314.744 238.035 314.708 238.031 314.674 238.038C314.64 238.045 314.609 238.064 314.588 238.091C314.567 238.118 314.555 238.151 314.556 238.186L314.609 251.142C314.609 251.234 314.574 251.322 314.51 251.388C314.446 251.453 314.36 251.49 314.269 251.491L312.222 251.514C312.17 251.514 312.119 251.504 312.071 251.485C312.024 251.466 311.98 251.437 311.944 251.401C311.907 251.365 311.878 251.322 311.858 251.274C311.838 251.227 311.828 251.176 311.828 251.124V230.585C311.828 230.481 311.868 230.381 311.939 230.305C312.011 230.229 312.109 230.184 312.213 230.178L314.181 230.068C314.354 230.056 314.478 230.13 314.552 230.289L321.03 244.182C321.039 244.203 321.053 244.221 321.072 244.234C321.091 244.246 321.113 244.253 321.136 244.253C321.159 244.253 321.181 244.246 321.2 244.234C321.219 244.221 321.233 244.203 321.242 244.182L327.512 230.337C327.58 230.187 327.695 230.11 327.857 230.107L329.617 230.081C329.705 230.079 329.792 230.095 329.873 230.128C329.955 230.16 330.029 230.209 330.092 230.27C330.154 230.332 330.204 230.406 330.238 230.487C330.272 230.569 330.289 230.656 330.289 230.744V250.965C330.289 251.107 330.234 251.244 330.135 251.345C330.036 251.447 329.901 251.506 329.759 251.509L328.45 251.544C327.863 251.562 327.57 251.278 327.57 250.691L327.605 238.288Z" fill="black"></path>
  <path d="M337.816 249.104H348.044C348.093 249.104 348.141 249.113 348.187 249.132C348.232 249.151 348.273 249.179 348.308 249.214C348.342 249.249 348.37 249.29 348.388 249.336C348.406 249.382 348.416 249.43 348.415 249.48L348.388 251.213C348.387 251.299 348.352 251.381 348.29 251.441C348.228 251.502 348.144 251.536 348.057 251.536H335.596C335.391 251.536 335.194 251.454 335.049 251.309C334.904 251.164 334.822 250.967 334.822 250.762V230.987C334.822 230.389 335.121 230.09 335.72 230.09H348.021C348.12 230.09 348.215 230.129 348.286 230.198C348.356 230.268 348.396 230.362 348.397 230.461L348.428 232.031C348.431 232.211 348.349 232.329 348.181 232.385C346.341 232.995 341.451 232.495 337.732 232.553C337.617 232.556 337.559 232.615 337.559 232.73L337.586 239.42C337.586 239.585 337.668 239.669 337.834 239.672C340.995 239.743 344.948 239.292 346.673 239.853C346.808 239.897 346.876 239.992 346.876 240.136L346.854 241.763C346.853 241.864 346.813 241.959 346.742 242.03C346.672 242.1 346.577 242.139 346.478 242.139H337.741C337.623 242.139 337.564 242.198 337.564 242.316L337.577 248.865C337.577 249.024 337.657 249.104 337.816 249.104Z" fill="black"></path>
  <path d="M359.01 230.922C359.01 230.814 359.031 230.706 359.073 230.606C359.114 230.505 359.175 230.414 359.252 230.337C359.329 230.261 359.42 230.2 359.52 230.158C359.621 230.117 359.728 230.095 359.837 230.095L367.486 230.082C369.255 230.08 370.953 230.797 372.206 232.075C373.458 233.354 374.164 235.089 374.168 236.9L374.186 244.709C374.187 245.607 374.016 246.496 373.682 247.326C373.348 248.156 372.858 248.91 372.239 249.546C371.62 250.181 370.885 250.686 370.076 251.031C369.266 251.375 368.398 251.553 367.522 251.554L359.872 251.568C359.763 251.568 359.656 251.546 359.556 251.505C359.455 251.463 359.364 251.402 359.287 251.326C359.211 251.249 359.15 251.158 359.108 251.057C359.067 250.957 359.045 250.849 359.045 250.741L359.01 230.922ZM361.658 232.872L361.685 248.755C361.685 248.852 361.723 248.944 361.791 249.012C361.859 249.08 361.951 249.118 362.048 249.118L365.886 249.109C366.622 249.108 367.351 248.954 368.031 248.656C368.711 248.357 369.328 247.92 369.848 247.37C370.368 246.82 370.78 246.167 371.061 245.449C371.341 244.731 371.485 243.961 371.484 243.184L371.475 238.408C371.472 236.839 370.879 235.335 369.826 234.228C368.773 233.12 367.346 232.499 365.859 232.501L362.021 232.51C361.925 232.51 361.833 232.548 361.765 232.616C361.697 232.684 361.658 232.776 361.658 232.872Z" fill="black"></path>
  <path d="M381.03 249.104H391.195C391.269 249.104 391.341 249.125 391.401 249.166C391.462 249.206 391.509 249.263 391.536 249.329C391.798 249.969 391.812 250.622 391.576 251.288C391.552 251.36 391.505 251.423 391.442 251.467C391.38 251.512 391.304 251.536 391.226 251.536H378.832C378.623 251.536 378.423 251.453 378.275 251.305C378.128 251.158 378.045 250.957 378.045 250.749V230.643C378.045 230.496 378.103 230.355 378.207 230.252C378.31 230.148 378.451 230.09 378.598 230.09H391.182C391.353 230.09 391.471 230.168 391.536 230.324C391.819 230.99 391.801 231.645 391.483 232.287C391.448 232.358 391.395 232.417 391.328 232.458C391.262 232.5 391.185 232.522 391.107 232.522H381.03C380.882 232.522 380.809 232.596 380.809 232.743V239.473C380.809 239.629 380.887 239.707 381.043 239.707H389.798C389.85 239.707 389.901 239.718 389.949 239.738C389.997 239.758 390.04 239.787 390.076 239.824C390.113 239.861 390.141 239.905 390.16 239.954C390.179 240.002 390.188 240.053 390.187 240.105L390.165 241.817C390.163 241.903 390.127 241.985 390.066 242.045C390.005 242.106 389.923 242.139 389.838 242.139H381.03C380.882 242.139 380.809 242.213 380.809 242.36V248.883C380.809 249.03 380.882 249.104 381.03 249.104Z" fill="black"></path>
  <path d="M413.849 242.448C412.703 242.443 408.48 243.045 408.348 241.325C408.336 241.16 408.357 240.995 408.412 240.84C408.466 240.685 408.552 240.542 408.664 240.421C408.776 240.301 408.912 240.204 409.063 240.138C409.214 240.072 409.377 240.038 409.542 240.038H416.068C416.277 240.038 416.477 240.121 416.625 240.269C416.772 240.416 416.855 240.616 416.855 240.825C416.86 245.269 417.244 249.762 412.133 251.464C410.846 251.893 408.047 251.95 406.663 251.579C400.556 249.938 401.684 243.598 401.693 238.91C401.699 236.481 401.938 234.76 402.409 233.746C403.868 230.624 407.565 229.651 410.877 230.199C413.902 230.699 415.905 232.578 416.665 235.585C417.094 237.283 415.684 237.734 414.41 237.204C414.276 237.147 414.169 237.041 414.109 236.907C413.654 235.895 413.269 234.776 412.482 234.046C409.352 231.155 404.656 233.113 404.682 237.442C404.686 238.154 404.364 238.561 404.35 239.189C404.286 241.963 404.431 244.125 404.788 245.676C405.867 250.376 411.868 250.336 413.663 246.03C413.919 245.411 414.064 244.301 414.096 242.7C414.099 242.535 414.017 242.451 413.849 242.448Z" fill="black"></path>
  <path d="M423.702 249.104H433.938C433.987 249.104 434.035 249.118 434.075 249.145C434.116 249.171 434.148 249.209 434.168 249.254C434.472 249.932 434.483 250.613 434.203 251.297C434.139 251.456 434.021 251.536 433.85 251.536H421.469C421.287 251.536 421.112 251.464 420.984 251.335C420.855 251.206 420.783 251.032 420.783 250.85L420.788 230.554C420.788 230.431 420.836 230.313 420.922 230.226C421.009 230.139 421.125 230.09 421.247 230.09H433.876C433.948 230.09 434.018 230.112 434.077 230.153C434.136 230.194 434.182 230.252 434.208 230.32C434.45 230.965 434.458 231.605 434.234 232.239C434.206 232.322 434.152 232.393 434.081 232.444C434.009 232.495 433.924 232.522 433.836 232.522H423.702C423.643 232.522 423.587 232.545 423.545 232.587C423.504 232.628 423.481 232.684 423.481 232.743V239.486C423.481 239.634 423.554 239.707 423.702 239.707H432.395C432.452 239.707 432.508 239.719 432.56 239.74C432.612 239.762 432.66 239.794 432.7 239.835C432.74 239.875 432.771 239.923 432.792 239.975C432.814 240.028 432.824 240.084 432.824 240.141L432.806 241.817C432.805 241.903 432.77 241.985 432.709 242.045C432.648 242.105 432.565 242.139 432.479 242.139H423.702C423.554 242.139 423.481 242.213 423.481 242.36V248.883C423.481 249.03 423.554 249.104 423.702 249.104Z" fill="black"></path>
  <path d="M448.007 245.003C447.092 240.59 437.749 244.238 436.648 237.959C435.635 232.21 439.261 229.672 444.342 230.048C445.77 230.154 449.347 231.003 449.9 232.546C450.183 233.333 449.497 234.174 448.781 234.297C447.76 234.474 446.738 233.537 446.048 233.245C439.946 230.685 435.887 237.968 443.218 239.356C445.916 239.869 449.02 239.997 450.382 242.699C452.058 246.029 450.727 250.229 446.937 251.463C444.359 252.303 439.451 251.927 437.222 250.296C435.86 249.301 435.865 247.377 437.665 246.935C437.736 246.917 437.811 246.915 437.883 246.93C437.955 246.945 438.022 246.975 438.08 247.019C439.156 247.833 439.918 248.347 440.366 248.562C443.134 249.889 448.962 249.623 448.007 245.003Z" fill="black"></path>
  <path d="M452.416 232.239C452.104 231.584 452.114 230.931 452.447 230.28C452.512 230.153 452.615 230.09 452.757 230.09H466.354C466.535 230.09 466.712 230.141 466.865 230.238C467.018 230.335 467.14 230.474 467.216 230.638C468.463 233.313 462.494 232.509 461.326 232.54C461.123 232.545 461.021 232.652 461.021 232.858L460.942 251.186C460.942 251.229 460.933 251.271 460.917 251.31C460.9 251.349 460.876 251.385 460.846 251.415C460.815 251.445 460.779 251.468 460.74 251.485C460.7 251.501 460.657 251.509 460.614 251.509L458.625 251.492C458.54 251.49 458.46 251.456 458.401 251.396C458.341 251.335 458.307 251.254 458.306 251.169L458.253 232.774C458.253 232.606 458.169 232.522 458.001 232.522H452.863C452.77 232.522 452.679 232.495 452.6 232.445C452.521 232.395 452.458 232.324 452.416 232.239Z" fill="black"></path>
  <path d="M471.5 230.094H470.094C469.75 230.094 469.471 230.373 469.471 230.717V250.907C469.471 251.252 469.75 251.531 470.094 251.531H471.5C471.845 251.531 472.124 251.252 472.124 250.907V230.717C472.124 230.373 471.845 230.094 471.5 230.094Z" fill="black"></path>
  <path d="M491.548 245.187C491.536 246.946 490.826 248.628 489.573 249.863C488.321 251.099 486.629 251.786 484.87 251.773L482.977 251.76C482.106 251.754 481.245 251.576 480.442 251.238C479.64 250.899 478.912 250.405 478.301 249.785C477.689 249.165 477.206 248.43 476.878 247.623C476.55 246.816 476.385 245.952 476.391 245.081L476.449 236.715C476.461 234.956 477.172 233.274 478.425 232.039C479.677 230.804 481.369 230.117 483.128 230.129L485.021 230.142C485.892 230.148 486.753 230.326 487.555 230.665C488.358 231.004 489.085 231.497 489.697 232.118C490.309 232.738 490.792 233.472 491.12 234.279C491.447 235.086 491.613 235.95 491.607 236.821L491.548 245.187ZM479.4 244.842C480.147 251.113 488.328 250.401 488.615 244.639C488.748 242.03 488.761 239.802 488.567 237.21C488.146 231.519 480.276 231.152 479.489 236.706C479.105 239.412 479.076 242.124 479.4 244.842Z" fill="black"></path>
  <path d="M498.452 236.007C498.436 235.983 498.413 235.965 498.386 235.956C498.359 235.946 498.33 235.945 498.302 235.954C498.275 235.962 498.251 235.979 498.234 236.003C498.217 236.026 498.209 236.054 498.209 236.082C498.209 240.793 498.213 245.538 498.222 250.316C498.227 251.868 496.458 251.873 495.635 251.232C495.576 251.185 495.528 251.125 495.495 251.057C495.463 250.989 495.445 250.914 495.445 250.838L495.45 230.652C495.45 230.511 495.513 230.409 495.64 230.347C497.174 229.609 498.063 230.002 498.983 231.373C501.878 235.683 504.768 239.987 507.654 244.285C507.978 244.768 508.263 245.253 508.507 245.74C508.525 245.773 508.553 245.799 508.587 245.815C508.621 245.83 508.659 245.835 508.695 245.826C508.731 245.818 508.763 245.798 508.786 245.77C508.809 245.741 508.821 245.706 508.821 245.669V230.449C508.821 230.363 508.855 230.28 508.916 230.219C508.976 230.158 509.058 230.123 509.144 230.122L511.183 230.1C511.22 230.099 511.257 230.106 511.292 230.12C511.327 230.134 511.359 230.155 511.386 230.181C511.412 230.207 511.434 230.239 511.448 230.273C511.463 230.308 511.47 230.345 511.47 230.383C511.479 237.186 511.48 243.978 511.474 250.758C511.474 251.855 509.684 251.581 509.082 251.515C508.932 251.5 508.814 251.429 508.729 251.302L498.452 236.007Z" fill="black"></path>
  <path d="M521.508 251.398C520.986 251.212 520.821 250.86 521.013 250.341L528.287 230.775C528.344 230.623 528.45 230.494 528.587 230.408C530.104 229.484 531.09 230.094 531.669 231.65C534.013 237.941 536.359 244.226 538.709 250.505C538.762 250.644 538.759 250.782 538.7 250.921C538.342 251.792 536.785 251.579 536.012 251.526C535.838 251.518 535.72 251.431 535.658 251.266L534.009 246.892C533.953 246.745 533.846 246.671 533.69 246.671H526.191C526.017 246.671 525.848 246.726 525.708 246.827C525.567 246.929 525.462 247.072 525.408 247.237C524.771 249.147 524.524 252.482 521.508 251.398ZM526.69 244.036C526.683 244.057 526.68 244.08 526.683 244.103C526.686 244.125 526.694 244.147 526.707 244.165C526.72 244.184 526.738 244.199 526.758 244.21C526.778 244.22 526.8 244.226 526.823 244.226L532.762 244.257C532.784 244.257 532.806 244.251 532.825 244.241C532.845 244.231 532.862 244.216 532.875 244.198C532.888 244.18 532.896 244.159 532.9 244.137C532.903 244.115 532.901 244.092 532.894 244.071L529.971 235.431C529.961 235.404 529.943 235.381 529.92 235.364C529.896 235.348 529.868 235.339 529.839 235.339C529.81 235.339 529.782 235.348 529.758 235.364C529.734 235.381 529.716 235.404 529.706 235.431L526.69 244.036Z" fill="black"></path>
  <path d="M542.629 250.444C540.578 248.874 540.043 247.096 540.007 244.39C539.972 241.326 539.331 235.803 540.958 233.207C544.416 227.702 553.945 229.519 555.037 236.121C555.068 236.303 555.044 236.491 554.969 236.659C554.895 236.828 554.772 236.972 554.617 237.072C553.207 237.987 552.415 237.143 551.915 235.79C550.699 232.517 545.778 231.527 543.863 234.41C542.28 236.793 542.488 243.143 543.067 245.677C544.248 250.833 551.601 250.236 552.088 244.828C552.138 244.277 552.243 243.718 552.402 243.152C552.425 243.07 552.429 242.984 552.413 242.9C552.397 242.816 552.361 242.737 552.31 242.669C552.258 242.601 552.191 242.546 552.114 242.508C552.037 242.469 551.953 242.449 551.867 242.449H547.697C547.446 242.449 547.204 242.36 547.013 242.198C546.822 242.036 546.694 241.812 546.653 241.565C546.494 240.583 546.976 240.052 547.962 240.048C550.123 240.036 552.247 240.035 554.334 240.043C554.539 240.044 554.735 240.124 554.882 240.266C555.029 240.408 555.114 240.601 555.121 240.804C555.276 245.186 555.386 249.873 550.425 251.456C548.161 252.177 544.664 252.004 542.629 250.444Z" fill="black"></path>
  <path d="M566.027 242.156L562.07 242.13C561.872 242.127 561.773 242.225 561.773 242.426V250.872C561.773 251.047 561.704 251.216 561.579 251.341C561.455 251.465 561.286 251.535 561.11 251.535H559.881C559.767 251.535 559.654 251.512 559.549 251.468C559.444 251.425 559.349 251.361 559.268 251.28C559.188 251.199 559.124 251.103 559.08 250.997C559.037 250.891 559.014 250.778 559.014 250.664L559.01 230.876C559.01 230.369 559.263 230.112 559.77 230.107C562.689 230.077 565.566 230.074 568.402 230.098C572.819 230.133 574.813 234.568 573.62 238.486C573.018 240.471 571.497 241.13 569.958 242.076C569.901 242.113 569.859 242.169 569.842 242.234C569.825 242.299 569.833 242.367 569.865 242.426C571.266 244.982 572.611 247.545 573.903 250.115C574.827 251.955 572.165 251.57 571.356 251.517C571.19 251.505 571.071 251.427 570.997 251.283L566.412 242.395C566.329 242.239 566.201 242.159 566.027 242.156ZM561.778 232.755L561.751 239.432C561.751 239.468 561.757 239.504 561.771 239.537C561.784 239.57 561.804 239.6 561.829 239.626C561.854 239.651 561.884 239.672 561.917 239.685C561.95 239.699 561.985 239.706 562.021 239.706L567.102 239.724C567.592 239.726 568.078 239.647 568.531 239.492C568.985 239.337 569.397 239.108 569.745 238.82C570.093 238.531 570.369 238.188 570.558 237.81C570.747 237.431 570.846 237.026 570.847 236.616V235.643C570.85 234.815 570.46 234.02 569.763 233.432C569.065 232.844 568.118 232.512 567.128 232.508L562.048 232.49C561.977 232.49 561.909 232.518 561.858 232.567C561.808 232.617 561.779 232.685 561.778 232.755Z" fill="black"></path>
  <path d="M580.667 249.104H590.607C590.664 249.104 590.72 249.115 590.773 249.137C590.825 249.159 590.873 249.191 590.913 249.231C590.953 249.271 590.985 249.319 591.007 249.372C591.029 249.424 591.04 249.481 591.04 249.538L591.049 251.103C591.049 251.218 591.003 251.328 590.922 251.409C590.841 251.491 590.731 251.536 590.616 251.536H578.013C577.898 251.536 577.788 251.491 577.707 251.409C577.626 251.328 577.58 251.218 577.58 251.103V230.533C577.58 230.418 577.626 230.307 577.707 230.226C577.788 230.145 577.898 230.099 578.013 230.099L590.62 230.086C590.733 230.086 590.841 230.13 590.922 230.208C591.003 230.287 591.05 230.393 591.053 230.506L591.111 232.076C591.113 232.134 591.103 232.192 591.082 232.246C591.061 232.3 591.029 232.349 590.989 232.391C590.948 232.432 590.9 232.466 590.846 232.488C590.793 232.511 590.736 232.522 590.678 232.522H580.667C580.552 232.522 580.441 232.568 580.36 232.649C580.279 232.731 580.233 232.841 580.233 232.956V239.275C580.233 239.331 580.244 239.388 580.266 239.44C580.288 239.493 580.32 239.541 580.36 239.581C580.4 239.621 580.448 239.653 580.501 239.675C580.553 239.697 580.61 239.708 580.667 239.708H589.165C589.224 239.708 589.282 239.721 589.336 239.744C589.39 239.768 589.438 239.803 589.479 239.846C589.519 239.889 589.55 239.939 589.57 239.995C589.589 240.05 589.598 240.109 589.594 240.168L589.497 241.733C589.49 241.843 589.442 241.947 589.361 242.022C589.28 242.098 589.174 242.14 589.064 242.14H580.667C580.61 242.14 580.553 242.151 580.501 242.173C580.448 242.195 580.4 242.227 580.36 242.267C580.32 242.307 580.288 242.355 580.266 242.407C580.244 242.46 580.233 242.516 580.233 242.573V248.671C580.233 248.786 580.279 248.896 580.36 248.977C580.441 249.059 580.552 249.104 580.667 249.104Z" fill="black"></path>
  <path d="M597.135 242.35L597.153 248.885C597.156 249.029 597.229 249.102 597.374 249.102H607.553C607.619 249.102 607.683 249.122 607.736 249.16C607.789 249.199 607.829 249.252 607.849 249.314C608.059 249.962 608.067 250.618 607.876 251.282C607.856 251.354 607.812 251.418 607.752 251.463C607.692 251.509 607.619 251.534 607.544 251.534H595.159C594.953 251.534 594.757 251.452 594.611 251.307C594.466 251.162 594.385 250.965 594.385 250.76V230.773C594.385 230.596 594.455 230.426 594.58 230.301C594.706 230.176 594.875 230.105 595.052 230.105H607.5C607.558 230.105 607.616 230.12 607.667 230.149C607.718 230.178 607.761 230.219 607.792 230.269C608.184 230.924 608.197 231.593 607.832 232.277C607.791 232.35 607.733 232.411 607.662 232.454C607.591 232.497 607.511 232.52 607.429 232.52H597.361C597.207 232.52 597.131 232.596 597.131 232.75L597.157 239.48C597.157 239.639 597.237 239.719 597.396 239.719L605.895 239.701C605.987 239.7 606.078 239.718 606.163 239.754C606.248 239.79 606.324 239.843 606.388 239.91C606.451 239.977 606.5 240.056 606.532 240.142C606.563 240.229 606.577 240.321 606.571 240.413L606.483 241.837C606.477 241.918 606.441 241.995 606.381 242.051C606.321 242.107 606.242 242.137 606.16 242.137H597.347C597.206 242.137 597.135 242.208 597.135 242.35Z" fill="black"></path>
  <path d="M86.4926 350.401C83.9235 350.865 82.0044 349.636 82.0044 346.881C82.0074 330.965 82.0059 315.045 82 299.121C82 295.477 82.2285 292.96 82.6854 291.568C83.8837 287.947 86.1875 285.966 89.6454 283.671C114.131 267.41 138.65 251.133 163.203 234.841C163.228 234.824 163.257 234.814 163.287 234.813C163.317 234.811 163.347 234.818 163.374 234.832C163.4 234.846 163.423 234.867 163.438 234.892C163.454 234.918 163.463 234.947 163.463 234.978C163.508 252.087 163.512 269.229 163.477 286.403C163.463 291.891 162.858 295.252 158.582 298.378C135.473 315.266 112.354 332.141 89.2253 349.003C88.1287 349.802 87.2178 350.268 86.4926 350.401Z" fill="black"></path>
  <path d="M379.367 292.717C375.68 293.513 372.381 291.917 372.35 287.818C372.291 279.861 372.276 271.889 372.306 263.9C372.306 263.817 372.339 263.737 372.399 263.678C372.459 263.619 372.54 263.586 372.624 263.586H374.826C374.886 263.586 374.943 263.61 374.986 263.652C375.028 263.694 375.052 263.752 375.052 263.811C375.066 271.712 375.068 279.602 375.056 287.482C375.047 290.793 376.785 290.285 379.235 290.484C379.32 290.491 379.4 290.529 379.459 290.591C379.518 290.652 379.551 290.732 379.553 290.816L379.611 292.407C379.617 292.578 379.535 292.682 379.367 292.717Z" fill="black"></path>
  <path d="M386.476 263.618L383.946 263.614C383.719 263.614 383.535 263.797 383.534 264.025L383.531 266.227C383.53 266.454 383.714 266.638 383.941 266.639L386.47 266.643C386.698 266.643 386.882 266.46 386.882 266.232L386.886 264.03C386.887 263.803 386.703 263.619 386.476 263.618Z" fill="black"></path>
  <path d="M396.507 291.66V292.549C396.507 292.77 396.397 292.881 396.175 292.881H394.133C393.95 292.881 393.858 292.789 393.858 292.606L393.85 263.962C393.85 263.711 393.975 263.586 394.225 263.586H396.175C396.397 263.586 396.507 263.696 396.507 263.918V274.212C396.507 274.689 396.68 274.763 397.025 274.433C399.536 272.001 404.307 272.085 406.872 274.411C410.485 277.687 410.343 287.163 407.376 290.86C404.838 294.017 399.885 293.579 396.812 291.497C396.783 291.476 396.748 291.464 396.713 291.462C396.677 291.46 396.641 291.468 396.61 291.485C396.578 291.502 396.552 291.527 396.534 291.558C396.516 291.589 396.506 291.624 396.507 291.66ZM396.918 286.911C397.692 290.214 400.637 291.576 403.79 290.272C407.628 288.689 407.146 281.614 406.164 278.249C405.324 275.37 402.017 274.349 399.527 275.503C395.862 277.201 396.189 283.789 396.918 286.911Z" fill="black"></path>
  <path d="M426.575 274.749H424.417C424.232 274.749 424.139 274.656 424.139 274.47L424.148 272.856C424.148 272.688 424.232 272.607 424.4 272.613L426.544 272.662C426.575 272.663 426.605 272.658 426.634 272.647C426.662 272.637 426.689 272.62 426.711 272.599C426.733 272.578 426.751 272.553 426.763 272.525C426.776 272.497 426.782 272.467 426.783 272.436C426.832 270.672 426.575 268.549 427.084 267.024C427.959 264.389 430.008 263.279 433.23 263.694C434.1 263.806 434.362 264.509 434.017 265.804C433.994 265.889 433.94 265.963 433.865 266.012C433.79 266.06 433.699 266.079 433.61 266.064C428.547 265.22 429.489 269.31 429.578 272.445C429.583 272.581 429.654 272.649 429.79 272.649H433.761C433.842 272.648 433.92 272.68 433.978 272.736C434.036 272.793 434.069 272.869 434.07 272.949L434.101 274.519C434.104 274.672 434.029 274.749 433.876 274.749H429.648C429.62 274.749 429.593 274.76 429.573 274.78C429.553 274.8 429.542 274.827 429.542 274.855L429.569 292.525C429.569 292.737 429.463 292.843 429.25 292.843H427.11C426.901 292.843 426.796 292.738 426.796 292.529V274.97C426.796 274.823 426.722 274.749 426.575 274.749Z" fill="black"></path>
  <path d="M207.394 278.087L202.543 292.537C202.505 292.65 202.431 292.748 202.333 292.815C202.234 292.882 202.117 292.915 201.999 292.909L200.053 292.798C199.879 292.789 199.766 292.702 199.713 292.537L193.514 273.201C193.494 273.141 193.489 273.078 193.499 273.016C193.508 272.954 193.532 272.895 193.568 272.843C193.604 272.792 193.651 272.75 193.706 272.72C193.761 272.689 193.822 272.673 193.885 272.67L195.804 272.591C196.122 272.579 196.326 272.725 196.414 273.028L200.929 288.531C200.941 288.571 200.965 288.606 200.998 288.631C201.031 288.656 201.072 288.67 201.113 288.67C201.155 288.671 201.195 288.658 201.229 288.634C201.262 288.609 201.288 288.575 201.3 288.536L206.332 272.984C206.365 272.886 206.427 272.801 206.509 272.741C206.592 272.68 206.691 272.648 206.792 272.648H208.68C208.759 272.648 208.835 272.673 208.899 272.719C208.963 272.765 209.01 272.83 209.034 272.904L214.084 288.239C214.264 288.779 214.433 288.777 214.592 288.235L219.076 272.882C219.123 272.72 219.231 272.639 219.399 272.639L221.659 272.666C221.944 272.669 222.043 272.806 221.955 273.077L215.764 292.361C215.714 292.517 215.614 292.627 215.464 292.692C214.688 293.034 213.934 293.041 213.2 292.714C213.055 292.649 212.958 292.542 212.908 292.391L207.982 278.087C207.781 277.512 207.585 277.512 207.394 278.087Z" fill="black"></path>
  <path d="M250.953 273.077C250.946 273.05 250.93 273.026 250.908 273.009C250.885 272.992 250.858 272.983 250.83 272.983C250.801 272.983 250.774 272.992 250.752 273.009C250.729 273.026 250.713 273.05 250.706 273.077L244.436 292.604C244.377 292.784 244.253 292.873 244.064 292.87L242.105 292.825C241.905 292.822 241.772 292.727 241.707 292.538L236.596 277.738C236.584 277.7 236.559 277.666 236.527 277.642C236.494 277.618 236.455 277.605 236.414 277.605C236.374 277.605 236.335 277.618 236.302 277.642C236.269 277.666 236.245 277.7 236.233 277.738L231.267 292.609C231.211 292.78 231.094 292.862 230.914 292.856L228.765 292.786C228.701 292.785 228.638 292.763 228.587 292.724C228.535 292.685 228.497 292.631 228.477 292.569L222.238 273.179C222.219 273.118 222.214 273.054 222.224 272.991C222.234 272.928 222.259 272.868 222.296 272.817C222.334 272.765 222.383 272.723 222.439 272.694C222.496 272.664 222.559 272.649 222.623 272.649H224.891C225.006 272.649 225.08 272.703 225.112 272.812L229.676 288.532C229.686 288.572 229.709 288.608 229.742 288.634C229.775 288.66 229.816 288.674 229.857 288.674C229.899 288.675 229.94 288.662 229.973 288.637C230.007 288.612 230.031 288.576 230.043 288.536L235.07 272.993C235.147 272.764 235.306 272.649 235.548 272.649H237.445C237.513 272.649 237.579 272.67 237.635 272.709C237.69 272.749 237.732 272.805 237.754 272.87L242.844 288.235C243.024 288.775 243.193 288.771 243.352 288.222L247.805 272.914C247.849 272.761 247.951 272.681 248.11 272.675L250.091 272.582C250.131 272.581 250.172 272.588 250.209 272.604C250.246 272.62 250.28 272.644 250.308 272.675C250.505 272.896 250.738 272.93 251.006 272.777C251.154 272.691 251.313 272.649 251.484 272.649H253.567C253.723 272.649 253.823 272.724 253.867 272.874L258.356 288.35C258.37 288.401 258.4 288.445 258.441 288.476C258.482 288.508 258.533 288.525 258.585 288.525C258.638 288.526 258.689 288.51 258.732 288.479C258.775 288.448 258.807 288.405 258.824 288.355L263.874 272.848C263.893 272.79 263.931 272.739 263.981 272.704C264.031 272.668 264.091 272.649 264.153 272.649H266.2C266.269 272.649 266.337 272.67 266.393 272.711C266.449 272.751 266.492 272.808 266.514 272.874L271.63 288.452C271.644 288.494 271.67 288.53 271.706 288.555C271.741 288.58 271.784 288.593 271.828 288.592C271.871 288.591 271.913 288.576 271.948 288.549C271.982 288.522 272.007 288.485 272.019 288.443L276.547 272.936C276.603 272.744 276.731 272.649 276.932 272.649H279.355C279.526 272.649 279.585 272.73 279.532 272.892L273.191 292.551C273.16 292.645 273.101 292.726 273.021 292.782C272.941 292.839 272.846 292.868 272.749 292.865L270.79 292.83C270.622 292.827 270.511 292.747 270.458 292.591L265.355 277.738C265.343 277.7 265.319 277.666 265.286 277.642C265.254 277.618 265.214 277.605 265.174 277.605C265.134 277.605 265.094 277.618 265.062 277.642C265.029 277.666 265.005 277.7 264.993 277.738L259.996 292.622C259.931 292.819 259.794 292.914 259.585 292.905L257.533 292.817C257.461 292.812 257.393 292.787 257.336 292.743C257.279 292.7 257.237 292.641 257.215 292.573L250.953 273.077Z" fill="black"></path>
  <path d="M293.407 276.825C291.39 275.393 295.136 273.513 296.126 273.208C299.708 272.116 305.293 272.284 307.19 276.113C307.62 276.986 307.838 278.413 307.844 280.394C307.853 284.468 307.853 288.539 307.844 292.607C307.844 292.677 307.817 292.745 307.768 292.794C307.719 292.844 307.652 292.872 307.583 292.872L305.589 292.877C305.511 292.877 305.435 292.852 305.374 292.803C305.313 292.755 305.27 292.687 305.253 292.611L305.045 291.776C305.037 291.741 305.021 291.708 304.997 291.682C304.972 291.656 304.942 291.636 304.908 291.625C304.874 291.615 304.837 291.613 304.802 291.621C304.768 291.629 304.735 291.645 304.709 291.669C302.719 293.478 298.116 293.363 295.896 292.784C291.479 291.634 290.338 285.368 294.066 282.755C296.608 280.973 301.698 281.207 304.762 281.49C304.921 281.505 305.022 281.434 305.063 281.278C306.787 274.606 297.86 272.969 294.826 277.369C294.735 277.505 294.61 277.553 294.45 277.515C294.039 277.422 293.694 277.033 293.407 276.825ZM297.559 290.564C302.706 291.634 306.071 289.224 305.107 283.71C305.081 283.566 304.995 283.492 304.851 283.489C302.525 283.462 298.492 283.029 296.44 284.077C294.592 285.023 293.964 287.345 295.078 289.021C295.603 289.814 296.43 290.328 297.559 290.564Z" fill="black"></path>
  <path d="M317.821 274.615C320.554 272.324 324.985 271.785 327.748 274.447C327.806 274.502 327.853 274.569 327.885 274.642C327.917 274.716 327.934 274.795 327.935 274.875C327.936 274.955 327.922 275.035 327.892 275.109C327.862 275.184 327.818 275.252 327.762 275.309L326.431 276.671C326.393 276.709 326.347 276.738 326.297 276.757C326.247 276.776 326.193 276.785 326.139 276.781C326.085 276.778 326.032 276.763 325.984 276.738C325.936 276.713 325.894 276.678 325.86 276.635C323.698 273.876 319.466 275.004 318.197 277.692C317.782 278.577 317.575 280.182 317.578 282.508C317.581 285.851 317.58 289.192 317.574 292.532C317.574 292.712 317.484 292.805 317.304 292.81L315.124 292.903C315.084 292.905 315.044 292.899 315.007 292.885C314.969 292.871 314.935 292.849 314.906 292.821C314.877 292.794 314.854 292.76 314.838 292.724C314.822 292.687 314.814 292.647 314.814 292.607V273.164C314.814 273.088 314.845 273.015 314.899 272.961C314.953 272.907 315.026 272.877 315.102 272.877L317.269 272.868C317.315 272.868 317.361 272.877 317.404 272.896C317.446 272.914 317.484 272.942 317.516 272.976C317.548 273.01 317.572 273.05 317.587 273.094C317.602 273.138 317.608 273.184 317.605 273.231L317.503 274.451C317.5 274.489 317.509 274.527 317.527 274.56C317.546 274.594 317.574 274.621 317.608 274.638C317.642 274.655 317.68 274.663 317.718 274.658C317.756 274.654 317.792 274.639 317.821 274.615Z" fill="black"></path>
  <path d="M342.403 289.618C342.898 289.313 343.282 288.641 343.884 288.287C344.037 288.195 344.179 288.21 344.308 288.331L345.392 289.33C345.46 289.394 345.516 289.47 345.555 289.554C345.594 289.639 345.616 289.73 345.619 289.823C345.623 289.916 345.608 290.008 345.576 290.095C345.544 290.182 345.495 290.262 345.432 290.33C341.447 294.597 333.59 294.093 331.176 288.393C328.584 282.273 330.145 273.416 338.1 272.74C341.19 272.477 343.716 273.491 345.679 275.782C345.732 275.843 345.759 275.923 345.754 276.005C345.749 276.086 345.713 276.163 345.653 276.22L344.251 277.529C344.219 277.558 344.182 277.581 344.141 277.595C344.1 277.61 344.057 277.616 344.013 277.613C343.97 277.61 343.928 277.598 343.889 277.578C343.849 277.559 343.815 277.531 343.787 277.498C340.01 272.921 333.78 275.052 332.825 280.708C332.312 283.75 332.657 287.411 335.217 289.45C337.381 291.174 339.776 291.23 342.403 289.618Z" fill="black"></path>
  <path d="M365.983 287.675C364.113 294.75 352.576 295.144 350.613 287.799C349.622 284.108 349.656 280.743 350.715 277.704C352.24 273.331 357.378 271.58 361.486 273.313C367.128 275.692 367.332 282.577 365.983 287.675ZM354.915 289.585C357.215 291.412 360.628 291.045 362.401 288.86C364.104 286.769 364.135 283.09 363.803 280.388C363.37 276.833 360.659 274.48 357.069 275.157C353.107 275.904 352.413 280.441 352.682 283.934C352.877 286.406 353.076 288.126 354.915 289.585Z" fill="black"></path>
  <path d="M386.208 272.66H384.254C384.061 272.66 383.904 272.817 383.904 273.009V292.536C383.904 292.729 384.061 292.886 384.254 292.886H386.208C386.401 292.886 386.557 292.729 386.557 292.536V273.009C386.557 272.817 386.401 272.66 386.208 272.66Z" fill="black"></path>
  <path d="M441.269 274.688L441.769 274.215C441.872 274.117 441.985 274.033 442.109 273.962C444.926 272.3 449.113 271.853 451.333 274.754C451.375 274.809 451.396 274.876 451.393 274.945C451.39 275.014 451.362 275.079 451.315 275.13L449.891 276.647C449.857 276.683 449.816 276.712 449.77 276.732C449.724 276.752 449.675 276.761 449.625 276.761C449.575 276.76 449.526 276.748 449.482 276.727C449.437 276.706 449.397 276.675 449.365 276.638C447.079 273.976 443.139 274.9 441.742 277.641C441.303 278.508 441.077 279.929 441.065 281.904C441.048 285.43 441.048 288.945 441.065 292.45C441.065 292.564 441.021 292.673 440.941 292.753C440.861 292.834 440.754 292.879 440.641 292.879H438.625C438.404 292.879 438.293 292.769 438.293 292.547V273.091C438.293 272.944 438.367 272.87 438.514 272.87H440.707C440.917 272.87 441.02 272.975 441.017 273.184L440.995 274.568C440.995 274.6 441.004 274.631 441.022 274.657C441.039 274.684 441.064 274.704 441.093 274.717C441.122 274.73 441.154 274.734 441.185 274.728C441.217 274.723 441.246 274.709 441.269 274.688Z" fill="black"></path>
  <path d="M286.289 289.216L283.504 289.235C283.264 289.237 283.072 289.432 283.073 289.672L283.093 292.448C283.094 292.688 283.29 292.88 283.529 292.879L286.315 292.859C286.554 292.858 286.747 292.662 286.745 292.423L286.726 289.646C286.724 289.407 286.529 289.214 286.289 289.216Z" fill="black"></path>
  <path d="M418.84 289.238L416.01 289.228C415.807 289.227 415.642 289.391 415.641 289.594L415.631 292.485C415.63 292.688 415.794 292.853 415.997 292.854L418.827 292.864C419.03 292.864 419.194 292.701 419.195 292.498L419.205 289.606C419.206 289.403 419.042 289.238 418.84 289.238Z" fill="black"></path>
</svg>
