<?xml version="1.0" encoding="UTF-8"?>
<svg xmlns="http://www.w3.org/2000/svg" width="700" height="440" viewBox="0 0 700 440" fill="none">
  <path d="M121.709 150.962C121.613 153.181 121.516 155.4 121.322 157.778C106.353 162.019 97.3878 171.451 94.9658 186.921C92.0489 187.73 89.2243 188.515 86.3998 189.301C82.16 183.546 77.9234 177.79 73.6785 172.039C72.3368 170.222 70.9731 168.42 69.5394 166.68C69.4594 166.2 69.4594 165.652 69.5188 165.08C71.609 162.819 73.671 160.609 75.6644 158.339C80.2814 153.081 84.8485 147.779 89.4937 142.546C89.8734 142.118 90.7867 141.765 91.2957 141.914C97.8962 143.843 104.464 145.885 111.05 147.866C114.593 148.931 118.156 149.932 121.709 150.962Z" fill="black"></path>
  <path d="M630.98 161.333C629.284 162.678 627.338 162.545 625.4 162.541C616.674 162.524 607.948 162.557 599.222 162.508C597.992 162.501 597.528 162.752 597.539 164.112C597.605 171.691 597.6 179.27 597.542 186.849C597.532 188.124 597.945 188.411 599.135 188.405C607.638 188.359 616.142 188.399 624.645 188.359C625.819 188.353 626.555 188.829 626.861 189.866C627.163 190.889 627.134 191.977 626.072 192.597C625.613 192.864 624.99 192.942 624.442 192.943C616.027 192.964 607.613 192.984 599.199 192.93C597.934 192.921 597.531 193.24 597.542 194.559C597.602 202.093 597.599 209.628 597.543 217.162C597.533 218.434 597.847 218.841 599.158 218.834C608.507 218.779 617.857 218.814 627.206 218.794C628.531 218.791 629.748 219.01 630.881 219.889C630.98 220.786 630.98 221.691 630.98 222.72C629.613 223.781 628.064 223.658 626.521 223.657C616.105 223.645 605.689 223.652 595.272 223.65C593.331 223.649 592.496 222.838 592.496 220.913C592.491 200.779 592.491 180.645 592.496 160.511C592.497 158.505 593.338 157.689 595.339 157.688C606.2 157.687 617.062 157.667 627.923 157.723C628.876 157.728 629.827 158.235 630.879 158.502C630.98 159.4 630.98 160.305 630.98 161.333Z" fill="black"></path>
  <path d="M121.021 222.965C119.087 225.23 117.153 227.496 115.199 229.849C105.233 226.704 95.2988 223.431 85.3266 220.282C83.9772 219.856 83.8192 219.273 83.942 218.028C84.5785 211.571 85.1341 205.106 85.7098 198.643C85.9937 195.457 86.2601 192.269 86.553 188.963C89.3706 188.052 92.1695 187.259 95.0639 186.551C95.1772 188.927 94.9882 191.243 95.247 193.506C96.685 206.083 103.212 215.021 114.298 220.516C116.425 221.57 118.774 222.161 121.021 222.965Z" fill="black"></path>
  <path d="M121.255 222.842C118.871 222.051 116.492 221.467 114.337 220.425C103.112 214.995 96.502 206.162 95.0459 193.733C94.7839 191.497 94.9752 189.208 94.9531 186.836C97.2867 171.326 106.283 161.919 121.3 157.811C127.186 156.657 132.935 156.663 138.647 158.294C142.912 159.512 146.802 161.446 150.313 164.142C152.099 165.515 152.457 167.545 151.222 169.313C150.067 170.967 147.741 171.411 145.969 170.279C144.841 169.558 143.793 168.707 142.635 168.043C135.788 164.121 128.562 163.46 120.842 165.719C117.175 166.807 114.085 168.565 111.374 170.938C107.172 174.614 104.218 179.069 103.055 184.698C101.78 189.892 102.282 194.872 104.219 199.71C108.234 209.735 117.944 215.652 127.595 216.047C134.212 216.47 140.111 214.548 145.508 210.785C146.38 210.177 147.655 209.836 148.72 209.884C150.248 209.953 151.366 210.986 151.747 212.519C152.163 214.191 151.608 215.593 150.225 216.648C146.589 219.421 142.544 221.369 138.118 222.523C132.563 223.971 126.973 224.003 121.255 222.842Z" fill="#FEFEFE"></path>
  <path d="M127.752 216.105C118.061 215.793 108.334 209.862 104.311 199.813C102.37 194.965 101.867 189.973 103.254 184.752C108.998 183.222 114.584 181.795 120.169 180.367C125.706 188.719 131.243 197.07 136.83 205.499C134.029 208.811 131.176 212.043 128.328 215.28C128.125 215.511 127.958 215.774 127.752 216.105Z" fill="black"></path>
  <path d="M120.299 180.142C114.616 181.667 108.94 183.071 103.152 184.49C104.175 179.04 107.183 174.647 111.461 171.023C114.222 168.683 117.368 166.95 121.021 165.934C120.854 170.626 120.58 175.324 120.299 180.142Z" fill="black"></path>
  <path d="M147.218 139.129C149.479 145.402 151.616 151.679 153.774 157.948C156.341 165.402 158.919 172.852 161.508 180.298C162.456 183.024 163.452 185.733 164.319 188.561C159.058 191.798 153.906 194.928 148.748 198.048C144.805 200.433 140.855 202.806 136.858 205.107C131.315 196.705 125.821 188.381 120.334 179.934C120.608 175.053 120.875 170.292 121.221 165.475C128.79 163.223 135.973 163.883 142.778 167.802C143.93 168.465 144.971 169.316 146.092 170.035C147.854 171.166 150.166 170.722 151.314 169.07C152.541 167.304 152.186 165.275 150.41 163.904C146.92 161.21 143.054 159.278 138.814 158.061C133.137 156.432 127.422 156.425 121.67 157.421C121.768 155.089 121.865 152.877 122.048 150.622C124.979 149.251 127.825 147.931 130.666 146.599C135.57 144.299 140.473 141.995 145.367 139.674C145.536 139.594 145.611 139.315 145.73 139.129C146.188 139.129 146.646 139.129 147.218 139.129Z" fill="black"></path>
  <path d="M211.016 223.456C202.242 224.357 194.403 222.36 187.594 216.774C180.78 211.185 176.808 203.918 175.675 195.266C174.122 183.419 177.589 173.101 186.403 164.938C191.968 159.784 198.662 157.144 206.387 157.004C212.754 156.888 218.52 158.519 223.797 161.929C228.24 164.799 231.659 168.686 234.191 173.34C237.397 179.232 238.89 185.564 238.478 192.237C237.993 200.084 235.34 207.129 230.119 213.145C225.807 218.113 220.462 221.304 214.148 222.934C213.166 223.188 212.138 223.258 211.016 223.456ZM232.048 199.262C234.379 191.505 233.738 183.989 230.183 176.729C225.423 167.009 214.761 160.578 203.955 162.123C197.092 163.104 191.452 166.144 187.013 171.479C181.098 178.589 179.277 186.84 180.785 195.753C182.03 203.107 185.623 209.286 191.8 213.713C199.972 219.569 208.743 220.635 217.849 216.322C225.042 212.915 229.514 206.974 232.048 199.262Z" fill="black"></path>
  <path d="M136.788 205.293C140.739 202.891 144.693 200.495 148.639 198.086C153.801 194.935 158.957 191.774 164.205 188.613C164.308 196.065 164.33 203.523 164.315 210.981C164.314 211.362 164.08 211.832 163.805 212.111C155.576 220.451 147.332 228.777 139.065 237.078C138.817 237.328 138.233 237.483 137.906 237.374C130.464 234.885 123.036 232.354 115.523 229.721C117.389 227.353 119.337 225.094 121.395 222.832C127.083 224.004 132.644 223.971 138.171 222.51C142.574 221.346 146.598 219.38 150.215 216.582C151.591 215.518 152.143 214.103 151.729 212.416C151.35 210.869 150.238 209.827 148.717 209.758C147.658 209.709 146.39 210.053 145.523 210.666C140.153 214.463 134.285 216.403 127.724 215.892C127.929 215.558 128.094 215.293 128.295 215.061C131.124 211.802 133.957 208.548 136.788 205.293Z" fill="black"></path>
  <path d="M419.316 188.388C422.984 188.388 426.516 188.382 430.048 188.392C431.591 188.396 432.376 189.248 432.359 190.853C432.344 192.238 431.552 192.962 430.005 192.963C421.357 192.968 412.708 192.987 404.06 192.941C402.85 192.935 402.429 193.221 402.439 194.497C402.499 202.079 402.493 209.661 402.443 217.243C402.435 218.453 402.746 218.848 404.021 218.841C413.53 218.789 423.039 218.807 432.547 218.824C433.304 218.826 434.077 218.927 434.814 219.099C435.941 219.362 436.57 220.42 436.423 221.692C436.287 222.879 435.593 223.535 434.393 223.649C434.123 223.675 433.85 223.659 433.578 223.659C422.439 223.659 411.3 223.66 400.162 223.658C398.115 223.658 397.308 222.859 397.308 220.813C397.304 200.759 397.304 180.705 397.308 160.651C397.308 158.467 398.111 157.695 400.34 157.695C411.524 157.694 422.708 157.702 433.893 157.685C435.059 157.684 435.979 158.034 436.33 159.18C436.673 160.299 436.453 161.438 435.377 162.007C434.627 162.402 433.652 162.516 432.776 162.52C424.173 162.555 415.57 162.541 406.967 162.541C405.925 162.541 404.879 162.6 403.844 162.525C402.785 162.448 402.436 162.808 402.446 163.884C402.496 169.267 402.469 174.651 402.469 180.035C402.469 182.368 402.516 184.702 402.447 187.033C402.416 188.092 402.756 188.42 403.831 188.41C408.947 188.361 414.064 188.388 419.316 188.388Z" fill="black"></path>
  <path d="M456.132 208.152C454.418 204.325 453.65 200.42 453.662 196.324C453.697 184.408 453.671 172.492 453.677 160.576C453.678 158.452 454.611 157.433 456.579 157.738C457.284 157.848 458.057 158.604 458.459 159.27C458.814 159.86 458.777 160.734 458.778 161.482C458.794 173.757 458.724 186.032 458.822 198.305C458.861 203.212 460.841 207.483 464.052 211.162C467.621 215.25 472.085 217.854 477.481 218.561C483.211 219.313 488.549 218.028 493.188 214.528C499.159 210.023 502.131 203.952 502.133 196.461C502.136 184.5 502.131 172.539 502.136 160.578C502.137 158.453 503.069 157.435 505.036 157.738C505.742 157.847 506.497 158.607 506.921 159.268C507.268 159.808 507.236 160.642 507.237 161.346C507.254 172.769 507.306 184.193 507.224 195.615C507.185 201.022 506.221 206.238 503.217 210.92C499.936 216.034 495.594 219.847 489.842 221.91C482.361 224.592 475.018 224.241 467.927 220.557C462.618 217.798 458.784 213.593 456.132 208.152Z" fill="black"></path>
  <path d="M279.555 218.674C291.18 219.22 300.994 210.269 302.076 198.833C302.152 198.033 302.137 197.223 302.137 196.418C302.14 184.467 302.136 172.516 302.142 160.565C302.143 158.518 303.036 157.648 304.953 157.689C306.067 157.713 306.691 158.32 306.966 159.3C307.143 159.935 307.24 160.613 307.241 161.271C307.257 172.775 307.309 184.278 307.228 195.781C307.188 201.285 306.134 206.585 303.004 211.28C299.7 216.235 295.396 219.967 289.701 221.938C281.238 224.867 273.106 224.152 265.643 219.14C257.86 213.913 253.823 206.43 253.729 197.052C253.606 184.923 253.697 172.792 253.701 160.662C253.702 158.507 254.574 157.637 256.55 157.687C257.614 157.714 258.22 158.317 258.501 159.208C258.724 159.915 258.799 160.695 258.8 161.443C258.817 173.528 258.784 185.613 258.825 197.698C258.843 203.164 260.967 207.79 264.669 211.784C268.215 215.61 272.593 217.772 277.68 218.622C278.248 218.717 278.842 218.66 279.555 218.674Z" fill="black"></path>
  <path d="M551.625 186.831C557.642 187.862 563.321 189.504 568.495 192.655C576.842 197.74 578.279 207.774 572.526 214.81C568.421 219.83 562.959 222.37 556.713 223.29C546.181 224.842 537.003 221.438 528.648 215.259C528.29 214.995 527.923 214.74 527.583 214.452C526.362 213.419 526.173 212.101 527.082 211.053C527.797 210.229 529.519 210.17 530.513 210.983C534.306 214.09 538.536 216.455 543.203 217.876C551.676 220.454 559.753 219.685 566.913 214.088C571.547 210.465 573.367 203.769 568.714 198.648C566.543 196.258 563.718 194.713 560.653 193.843C555.755 192.453 550.776 191.352 545.849 190.061C541.078 188.811 536.496 187.119 532.851 183.606C527.556 178.504 527.063 171.309 531.561 165.468C534.946 161.073 539.61 158.801 544.871 157.68C553.415 155.861 561.264 157.758 568.527 162.444C569.571 163.117 570.639 163.759 571.649 164.481C572.809 165.311 573.069 166.681 572.348 167.74C571.654 168.758 570.451 168.876 569.143 168.16C565.872 166.37 562.687 164.368 559.271 162.911C553.749 160.558 548.089 160.918 542.51 162.991C539.17 164.232 536.407 166.18 534.453 169.248C532.028 173.056 532.944 178.011 536.46 180.825C540.671 184.197 545.648 185.505 550.741 186.607C551.001 186.664 551.255 186.744 551.625 186.831Z" fill="black"></path>
  <path d="M376.887 174.012C374.365 179.914 371.857 185.711 369.372 191.518C366.73 197.692 364.104 203.873 361.484 210.056C359.767 214.109 358.055 218.165 356.382 222.236C356.04 223.069 355.563 223.605 354.636 223.632C353.567 223.663 352.403 223.869 351.807 222.634C351.225 221.427 350.676 220.203 350.154 218.97C342.155 200.086 334.162 181.2 326.171 162.313C325.469 160.653 325.854 159.138 327.258 158.684C328.678 158.225 329.995 158.241 330.874 160.346C335.691 171.876 340.563 183.383 345.423 194.896C348.035 201.082 350.658 207.264 353.285 213.444C353.455 213.845 353.696 214.216 354.036 214.847C354.329 214.241 354.547 213.838 354.725 213.418C362.229 195.732 369.729 178.044 377.233 160.358C378.149 158.2 380.375 157.696 381.672 159.367C382.44 160.357 382.234 161.434 381.78 162.498C380.154 166.302 378.533 170.107 376.887 174.012Z" fill="black"></path>
  <path d="M88.024 284.808C86.7795 284.808 85.5993 284.762 84.4194 284.83C83.9797 284.856 83.8314 284.073 83.9447 282.082C135.449 282.082 186.958 282.082 238.518 282.082C238.526 282.909 238.534 283.703 238.545 284.808C188.365 284.808 138.227 284.808 88.024 284.808Z" fill="black"></path>
  <path d="M261.054 300.638V267.924H273.299C276.072 267.924 278.455 268.376 280.449 269.279C282.443 270.152 283.97 271.429 285.029 273.112C286.12 274.763 286.665 276.772 286.665 279.14C286.665 281.446 286.12 283.44 285.029 285.122C283.97 286.774 282.443 288.051 280.449 288.955C278.455 289.827 276.072 290.263 273.299 290.263H262.971L264.513 288.674V300.638H261.054ZM283.394 300.638L274.981 288.768H278.72L287.179 300.638H283.394ZM264.513 288.955L262.971 287.319H273.205C276.477 287.319 278.954 286.602 280.636 285.169C282.35 283.736 283.207 281.726 283.207 279.14C283.207 276.523 282.35 274.498 280.636 273.065C278.954 271.632 276.477 270.915 273.205 270.915H262.971L264.513 269.279V288.955Z" fill="black"></path>
  <path d="M304.548 300.872C301.993 300.872 299.75 300.342 297.819 299.283C295.887 298.192 294.376 296.713 293.285 294.843C292.195 292.943 291.65 290.777 291.65 288.347C291.65 285.917 292.164 283.767 293.192 281.898C294.251 280.028 295.684 278.564 297.491 277.505C299.33 276.414 301.386 275.869 303.66 275.869C305.966 275.869 308.007 276.399 309.783 277.458C311.59 278.486 313.007 279.95 314.035 281.851C315.064 283.72 315.578 285.886 315.578 288.347C315.578 288.503 315.562 288.674 315.531 288.861C315.531 289.017 315.531 289.188 315.531 289.375H294.173V286.898H313.755L312.446 287.88C312.446 286.104 312.057 284.53 311.278 283.16C310.53 281.757 309.502 280.667 308.194 279.888C306.885 279.109 305.374 278.72 303.66 278.72C301.978 278.72 300.467 279.109 299.127 279.888C297.787 280.667 296.744 281.757 295.996 283.16C295.248 284.562 294.874 286.166 294.874 287.973V288.487C294.874 290.357 295.279 292.008 296.089 293.441C296.931 294.843 298.083 295.949 299.548 296.759C301.043 297.538 302.741 297.928 304.642 297.928C306.137 297.928 307.524 297.663 308.801 297.133C310.11 296.604 311.231 295.793 312.166 294.703L314.035 296.853C312.945 298.161 311.574 299.158 309.923 299.844C308.303 300.529 306.511 300.872 304.548 300.872ZM300.576 272.27L306.979 266.475H311.418L303.847 272.27H300.576Z" fill="black"></path>
  <path d="M328.921 300.872C326.896 300.872 324.98 300.592 323.173 300.031C321.366 299.439 319.948 298.707 318.92 297.834L320.415 295.217C321.412 295.965 322.69 296.619 324.248 297.18C325.805 297.71 327.441 297.974 329.155 297.974C331.492 297.974 333.174 297.616 334.202 296.899C335.23 296.152 335.744 295.17 335.744 293.955C335.744 293.052 335.448 292.351 334.856 291.852C334.296 291.323 333.548 290.933 332.613 290.684C331.678 290.403 330.635 290.17 329.482 289.983C328.329 289.796 327.176 289.578 326.024 289.328C324.902 289.079 323.874 288.721 322.939 288.254C322.004 287.755 321.241 287.085 320.649 286.244C320.088 285.403 319.808 284.281 319.808 282.879C319.808 281.539 320.182 280.34 320.93 279.281C321.677 278.221 322.768 277.396 324.201 276.804C325.665 276.18 327.441 275.869 329.529 275.869C331.118 275.869 332.707 276.087 334.296 276.523C335.885 276.928 337.193 277.473 338.221 278.159L336.773 280.823C335.682 280.075 334.514 279.545 333.267 279.234C332.021 278.891 330.775 278.72 329.529 278.72C327.317 278.72 325.681 279.109 324.622 279.888C323.593 280.636 323.079 281.602 323.079 282.786C323.079 283.72 323.36 284.453 323.921 284.982C324.513 285.512 325.276 285.932 326.211 286.244C327.176 286.524 328.22 286.758 329.342 286.945C330.495 287.132 331.632 287.366 332.753 287.646C333.906 287.895 334.95 288.254 335.885 288.721C336.85 289.157 337.614 289.796 338.175 290.637C338.767 291.447 339.063 292.522 339.063 293.862C339.063 295.295 338.658 296.541 337.847 297.601C337.069 298.629 335.916 299.439 334.389 300.031C332.894 300.592 331.071 300.872 328.921 300.872Z" fill="black"></path>
  <path d="M355.573 300.872C353.018 300.872 350.775 300.342 348.843 299.283C346.912 298.192 345.4 296.713 344.31 294.843C343.22 292.943 342.674 290.777 342.674 288.347C342.674 285.917 343.188 283.767 344.217 281.898C345.276 280.028 346.709 278.564 348.516 277.505C350.354 276.414 352.411 275.869 354.685 275.869C356.991 275.869 359.031 276.399 360.807 277.458C362.614 278.486 364.032 279.95 365.06 281.851C366.088 283.72 366.602 285.886 366.602 288.347C366.602 288.503 366.587 288.674 366.556 288.861C366.556 289.017 366.556 289.188 366.556 289.375H345.198V286.898H364.78L363.471 287.88C363.471 286.104 363.082 284.53 362.303 283.16C361.555 281.757 360.527 280.667 359.218 279.888C357.91 279.109 356.399 278.72 354.685 278.72C353.003 278.72 351.492 279.109 350.152 279.888C348.812 280.667 347.768 281.757 347.021 283.16C346.273 284.562 345.899 286.166 345.899 287.973V288.487C345.899 290.357 346.304 292.008 347.114 293.441C347.955 294.843 349.108 295.949 350.572 296.759C352.068 297.538 353.766 297.928 355.667 297.928C357.162 297.928 358.548 297.663 359.826 297.133C361.134 296.604 362.256 295.793 363.191 294.703L365.06 296.853C363.97 298.161 362.599 299.158 360.948 299.844C359.327 300.529 357.536 300.872 355.573 300.872Z" fill="black"></path>
  <path d="M388.047 300.638V295.217L387.907 294.329V285.263C387.907 283.175 387.315 281.571 386.131 280.449C384.978 279.327 383.249 278.766 380.944 278.766C379.355 278.766 377.844 279.031 376.41 279.561C374.977 280.091 373.762 280.792 372.765 281.664L371.27 279.187C372.516 278.128 374.011 277.318 375.756 276.757C377.501 276.165 379.339 275.869 381.271 275.869C384.449 275.869 386.895 276.663 388.608 278.252C390.353 279.81 391.225 282.194 391.225 285.403V300.638H388.047ZM379.588 300.872C377.75 300.872 376.146 300.576 374.775 299.984C373.435 299.361 372.407 298.52 371.69 297.46C370.974 296.37 370.615 295.124 370.615 293.722C370.615 292.444 370.911 291.291 371.503 290.263C372.126 289.204 373.123 288.363 374.494 287.74C375.896 287.085 377.766 286.758 380.103 286.758H388.561V289.235H380.196C377.828 289.235 376.177 289.656 375.242 290.497C374.339 291.338 373.887 292.382 373.887 293.628C373.887 295.03 374.432 296.152 375.523 296.993C376.613 297.834 378.14 298.255 380.103 298.255C381.972 298.255 383.576 297.834 384.916 296.993C386.287 296.121 387.284 294.874 387.907 293.254L388.655 295.544C388.032 297.164 386.941 298.457 385.384 299.423C383.857 300.389 381.925 300.872 379.588 300.872Z" fill="black"></path>
  <path d="M410.379 300.872C408.292 300.872 406.469 300.482 404.911 299.704C403.354 298.925 402.138 297.756 401.266 296.198C400.425 294.641 400.004 292.693 400.004 290.357V276.103H403.322V289.983C403.322 292.6 403.961 294.578 405.238 295.918C406.547 297.227 408.37 297.881 410.706 297.881C412.42 297.881 413.9 297.538 415.146 296.853C416.424 296.136 417.389 295.108 418.044 293.768C418.729 292.429 419.072 290.824 419.072 288.955V276.103H422.39V300.638H419.212V293.908L419.726 295.124C418.947 296.931 417.732 298.348 416.081 299.376C414.461 300.373 412.56 300.872 410.379 300.872Z" fill="black"></path>
  <path d="M456.394 275.869C458.388 275.869 460.133 276.258 461.628 277.037C463.155 277.785 464.339 278.938 465.18 280.496C466.052 282.053 466.489 284.016 466.489 286.384V300.638H463.17V286.711C463.17 284.125 462.516 282.178 461.208 280.87C459.93 279.53 458.123 278.86 455.786 278.86C454.042 278.86 452.515 279.218 451.206 279.935C449.929 280.62 448.932 281.633 448.215 282.973C447.53 284.281 447.187 285.87 447.187 287.74V300.638H443.869V276.103H447.047V282.832L446.533 281.571C447.312 279.795 448.558 278.408 450.272 277.411C451.985 276.383 454.026 275.869 456.394 275.869Z" fill="black"></path>
  <path d="M490.827 300.638V295.217L490.687 294.329V285.263C490.687 283.175 490.095 281.571 488.911 280.449C487.758 279.327 486.029 278.766 483.723 278.766C482.134 278.766 480.623 279.031 479.19 279.561C477.757 280.091 476.542 280.792 475.545 281.664L474.049 279.187C475.296 278.128 476.791 277.318 478.536 276.757C480.281 276.165 482.119 275.869 484.051 275.869C487.229 275.869 489.674 276.663 491.388 278.252C493.133 279.81 494.005 282.194 494.005 285.403V300.638H490.827ZM482.368 300.872C480.53 300.872 478.925 300.576 477.554 299.984C476.215 299.361 475.187 298.52 474.47 297.46C473.753 296.37 473.395 295.124 473.395 293.722C473.395 292.444 473.691 291.291 474.283 290.263C474.906 289.204 475.903 288.363 477.274 287.74C478.676 287.085 480.545 286.758 482.882 286.758H491.341V289.235H482.976C480.608 289.235 478.956 289.656 478.022 290.497C477.118 291.338 476.666 292.382 476.666 293.628C476.666 295.03 477.212 296.152 478.302 296.993C479.393 297.834 480.919 298.255 482.882 298.255C484.752 298.255 486.356 297.834 487.696 296.993C489.067 296.121 490.064 294.874 490.687 293.254L491.435 295.544C490.811 297.164 489.721 298.457 488.163 299.423C486.637 300.389 484.705 300.872 482.368 300.872Z" fill="black"></path>
  <path d="M510.775 300.872C508.47 300.872 506.694 300.249 505.448 299.003C504.201 297.756 503.578 295.996 503.578 293.722V270.681H506.896V293.535C506.896 294.968 507.255 296.074 507.971 296.853C508.719 297.632 509.778 298.021 511.149 298.021C512.614 298.021 513.829 297.601 514.795 296.759L515.963 299.143C515.309 299.735 514.514 300.171 513.58 300.451C512.676 300.732 511.741 300.872 510.775 300.872ZM499.185 278.86V276.103H514.374V278.86H499.185Z" fill="black"></path>
  <path d="M522.003 300.638V276.103H525.322V300.638H522.003ZM523.686 270.681C523 270.681 522.424 270.448 521.957 269.98C521.489 269.513 521.256 268.952 521.256 268.298C521.256 267.644 521.489 267.098 521.957 266.662C522.424 266.195 523 265.961 523.686 265.961C524.371 265.961 524.948 266.179 525.415 266.615C525.882 267.052 526.116 267.597 526.116 268.251C526.116 268.937 525.882 269.513 525.415 269.98C524.979 270.448 524.403 270.681 523.686 270.681Z" fill="black"></path>
  <path d="M544.555 300.872C542.188 300.872 540.053 300.342 538.153 299.283C536.283 298.192 534.804 296.713 533.713 294.843C532.623 292.943 532.077 290.777 532.077 288.347C532.077 285.886 532.623 283.72 533.713 281.851C534.804 279.982 536.283 278.517 538.153 277.458C540.022 276.399 542.156 275.869 544.555 275.869C546.986 275.869 549.135 276.399 551.005 277.458C552.905 278.517 554.385 279.982 555.445 281.851C556.535 283.72 557.08 285.886 557.08 288.347C557.08 290.777 556.535 292.943 555.445 294.843C554.385 296.713 552.905 298.192 551.005 299.283C549.104 300.342 546.954 300.872 544.555 300.872ZM544.555 297.928C546.331 297.928 547.905 297.538 549.276 296.759C550.647 295.949 551.721 294.828 552.5 293.394C553.31 291.93 553.715 290.248 553.715 288.347C553.715 286.415 553.31 284.733 552.5 283.3C551.721 281.867 550.647 280.76 549.276 279.982C547.905 279.171 546.347 278.766 544.602 278.766C542.857 278.766 541.3 279.171 539.929 279.982C538.558 280.76 537.467 281.867 536.657 283.3C535.847 284.733 535.442 286.415 535.442 288.347C535.442 290.248 535.847 291.93 536.657 293.394C537.467 294.828 538.558 295.949 539.929 296.759C541.3 297.538 542.842 297.928 544.555 297.928Z" fill="black"></path>
  <path d="M576.38 275.869C578.374 275.869 580.118 276.258 581.614 277.037C583.141 277.785 584.324 278.938 585.166 280.496C586.038 282.053 586.474 284.016 586.474 286.384V300.638H583.156V286.711C583.156 284.125 582.502 282.178 581.193 280.87C579.916 279.53 578.109 278.86 575.772 278.86C574.027 278.86 572.501 279.218 571.192 279.935C569.915 280.62 568.918 281.633 568.201 282.973C567.516 284.281 567.173 285.87 567.173 287.74V300.638H563.855V276.103H567.033V282.832L566.519 281.571C567.297 279.795 568.544 278.408 570.257 277.411C571.971 276.383 574.012 275.869 576.38 275.869Z" fill="black"></path>
  <path d="M610.813 300.638V295.217L610.673 294.329V285.263C610.673 283.175 610.081 281.571 608.897 280.449C607.744 279.327 606.015 278.766 603.709 278.766C602.12 278.766 600.609 279.031 599.176 279.561C597.743 280.091 596.528 280.792 595.531 281.664L594.035 279.187C595.281 278.128 596.777 277.318 598.522 276.757C600.266 276.165 602.105 275.869 604.036 275.869C607.214 275.869 609.66 276.663 611.374 278.252C613.118 279.81 613.991 282.194 613.991 285.403V300.638H610.813ZM602.354 300.872C600.516 300.872 598.911 300.576 597.54 299.984C596.2 299.361 595.172 298.52 594.456 297.46C593.739 296.37 593.381 295.124 593.381 293.722C593.381 292.444 593.677 291.291 594.269 290.263C594.892 289.204 595.889 288.363 597.26 287.74C598.662 287.085 600.531 286.758 602.868 286.758H611.327V289.235H602.961C600.593 289.235 598.942 289.656 598.007 290.497C597.104 291.338 596.652 292.382 596.652 293.628C596.652 295.03 597.197 296.152 598.288 296.993C599.378 297.834 600.905 298.255 602.868 298.255C604.737 298.255 606.342 297.834 607.682 296.993C609.052 296.121 610.049 294.874 610.673 293.254L611.42 295.544C610.797 297.164 609.707 298.457 608.149 299.423C606.622 300.389 604.691 300.872 602.354 300.872Z" fill="black"></path>
  <path d="M623.003 300.638V265.961H626.321V300.638H623.003Z" fill="black"></path>
</svg>
