<?xml version="1.0" encoding="UTF-8"?>
<svg xmlns="http://www.w3.org/2000/svg" width="700" height="440" viewBox="0 0 700 440" fill="none">
  <path fill-rule="evenodd" clip-rule="evenodd" d="M200.739 128.446C194.283 128.129 188.002 127.82 181.601 127.511C181.271 127.48 180.957 127.443 180.654 127.407C180.145 127.346 179.665 127.289 179.183 127.273C178.562 127.253 177.941 127.231 177.32 127.209L177.32 127.209C174.833 127.122 172.345 127.034 169.858 127.029C157.737 127.001 145.616 127.006 133.494 127.038C132.499 127.041 131.477 127.24 130.516 127.516C128.308 128.152 128.078 128.52 128.078 130.779L128.078 235.679C128.078 237.664 128.08 239.649 128.081 241.634C128.085 247.826 128.09 254.017 128.052 260.209C128.045 261.383 128.38 262.042 129.877 262.342C130.946 262.556 132.062 262.624 133.155 262.612C135.227 262.591 137.299 262.549 139.37 262.507H139.37H139.371H139.371H139.371H139.371H139.371H139.371H139.371H139.371H139.372H139.372H139.372H139.372H139.372H139.372H139.372H139.372H139.373H139.373H139.373H139.373H139.373H139.373H139.373C141.929 262.456 144.485 262.404 147.042 262.391C152.388 262.363 157.734 262.369 163.08 262.375C165.335 262.378 167.591 262.38 169.846 262.38C173.542 262.38 173.677 262.232 173.695 258.592L173.697 258.287C173.772 243.528 173.846 228.77 173.948 214.012C173.961 212.086 174.021 210.16 174.082 208.235V208.234V208.234V208.234V208.233V208.233V208.233V208.233V208.232V208.232V208.232V208.231V208.231V208.231V208.23V208.23V208.23V208.23V208.229V208.229V208.229V208.228V208.228V208.228V208.228C174.119 207.047 174.156 205.867 174.182 204.686C174.22 203.002 174.251 201.317 174.283 199.632V199.632V199.632V199.632V199.632V199.632V199.632V199.631V199.631V199.631V199.631V199.631V199.631V199.631V199.631V199.63V199.63V199.63V199.63V199.63V199.63V199.63V199.63V199.63V199.629C174.329 197.138 174.376 194.647 174.442 192.156C174.467 191.177 174.546 190.199 174.625 189.222L174.626 189.22C174.662 188.774 174.698 188.327 174.729 187.881C174.93 188.349 175.031 188.825 175.131 189.297C175.163 189.45 175.196 189.602 175.231 189.753C175.864 192.447 176.502 195.139 177.141 197.832C178.383 203.075 179.626 208.318 180.832 213.57C181.654 217.15 182.437 220.74 183.22 224.329L183.22 224.33C183.822 227.091 184.425 229.853 185.045 232.61C185.509 234.675 186.002 236.734 186.495 238.792L186.495 238.793L186.496 238.794C186.915 240.544 187.334 242.294 187.735 244.048C188.166 245.928 188.587 247.81 189.008 249.692L189.008 249.694L189.008 249.695L189.008 249.695L189.008 249.695L189.008 249.696L189.008 249.696L189.008 249.697L189.009 249.697L189.009 249.698L189.009 249.698L189.009 249.698L189.009 249.699L189.009 249.699L189.009 249.7L189.009 249.7L189.009 249.7L189.009 249.701L189.009 249.701L189.01 249.702L189.01 249.702L189.01 249.702L189.01 249.703L189.01 249.703L189.01 249.704C189.769 253.098 190.528 256.492 191.343 259.873C191.52 260.607 192.144 261.497 192.798 261.797C194.164 262.421 195.688 263.06 197.148 263.063C209.131 263.081 221.116 263.053 233.096 262.807C236.226 262.742 237.411 262.023 238.021 259.17C238.054 259.016 238.071 258.859 238.088 258.702C238.106 258.535 238.125 258.369 238.161 258.207C238.613 256.219 239.069 254.232 239.526 252.245L239.526 252.244L239.526 252.244L239.526 252.243L239.527 252.242L239.527 252.241L239.527 252.24L239.527 252.239L239.528 252.238L239.528 252.237L239.528 252.236L239.528 252.235L239.529 252.234L239.529 252.233L239.529 252.232L239.529 252.231L239.529 252.23L239.53 252.229L239.53 252.229L239.53 252.228L239.53 252.227L239.531 252.226L239.531 252.225L239.531 252.224L239.531 252.223C240.438 248.276 241.345 244.329 242.21 240.372C242.961 236.939 243.686 233.501 244.411 230.062L244.412 230.06C245.336 225.675 246.26 221.291 247.238 216.919C248.273 212.291 249.399 207.684 250.526 203.077C250.896 201.564 251.265 200.052 251.632 198.539C251.895 197.451 252.192 196.371 252.488 195.291L252.488 195.291L252.49 195.284C252.626 194.79 252.761 194.296 252.894 193.801L253.332 193.846C253.332 194.594 253.335 195.343 253.337 196.092C253.343 197.754 253.349 199.415 253.326 201.077C253.301 202.875 253.261 204.674 253.222 206.472V206.472V206.472V206.472V206.473V206.473V206.473V206.473V206.473V206.473V206.474V206.474V206.474V206.474V206.474V206.474V206.475V206.475V206.475V206.475V206.475V206.475V206.476V206.476V206.476C253.167 208.976 253.113 211.476 253.096 213.977C253.055 219.976 253.07 225.975 253.089 231.974C253.094 233.406 253.084 234.839 253.075 236.272V236.272V236.272V236.273V236.273V236.273V236.273V236.273V236.274V236.274V236.274V236.274V236.275V236.275V236.275V236.275V236.276V236.276V236.276V236.276V236.276V236.277V236.277V236.277V236.277C253.033 242.527 252.992 248.778 254.105 254.967C254.495 257.135 255.191 259.267 255.936 261.347C256.364 262.543 257.309 263.161 258.787 263.154C271.566 263.095 284.345 263.073 297.123 263.159C299.756 263.177 301.533 261.579 302.043 259.708C302.908 256.527 303.712 253.224 303.787 249.955C303.89 245.499 303.728 241.037 303.566 236.575L303.566 236.574C303.499 234.736 303.433 232.897 303.384 231.059C303.356 229.992 303.327 228.926 303.297 227.859L303.296 227.852C303.24 225.854 303.184 223.856 303.141 221.857C303.093 219.633 303.053 217.409 303.012 215.185C302.973 213.026 302.934 210.868 302.888 208.71C302.851 206.992 302.805 205.273 302.758 203.555C302.719 202.124 302.68 200.693 302.647 199.261C302.596 197.054 302.55 194.846 302.504 192.638C302.469 190.956 302.434 189.275 302.397 187.594C302.354 185.634 302.307 183.674 302.261 181.714C302.224 180.154 302.188 178.595 302.152 177.036C302.106 174.981 302.061 172.926 302.015 170.871C301.979 169.201 301.942 167.531 301.905 165.861C301.876 164.578 301.846 163.295 301.816 162.011C301.762 159.693 301.708 157.375 301.66 155.057C301.613 152.743 301.571 150.43 301.528 148.116C301.49 146.048 301.452 143.979 301.41 141.91C301.389 140.86 301.375 139.809 301.361 138.758V138.758V138.758V138.758V138.758V138.757V138.757V138.757V138.757V138.757V138.757V138.757V138.757V138.756V138.756V138.756V138.756V138.756V138.756V138.756V138.756V138.755V138.755V138.755V138.755C301.323 135.998 301.285 133.241 301.127 130.491C301.001 128.304 300.152 126.943 297.554 127.002C292.598 127.114 287.64 127.173 282.683 127.231C281.82 127.241 280.956 127.251 280.093 127.262C275.113 127.322 270.133 127.374 265.154 127.427C262.546 127.455 259.939 127.482 257.331 127.511C255.156 127.535 252.981 127.561 250.806 127.587L250.805 127.587C245.599 127.649 240.393 127.711 235.186 127.744C233.556 127.755 231.926 127.694 230.278 127.633C229.519 127.605 228.756 127.577 227.987 127.555L214.145 197.389L213.97 197.347L200.739 128.446ZM490.545 184.334C493.928 183.547 497.311 182.758 500.787 181.924L500.854 181.903L500.854 181.903C501.266 181.773 501.596 181.669 501.933 181.6C503.074 181.366 504.213 181.13 505.353 180.894C508.405 180.263 511.457 179.631 514.518 179.05C516.443 178.684 518.379 178.375 520.315 178.066C521.415 177.891 522.514 177.716 523.611 177.53C524.437 177.39 525.262 177.244 526.087 177.097C527.528 176.841 528.97 176.585 530.417 176.365C530.619 176.334 530.848 176.482 531.096 176.643C531.218 176.721 531.344 176.803 531.473 176.868C529.179 178.211 526.918 179.591 524.665 180.965C516.147 186.163 507.745 191.29 498.102 194.097C498.503 195.069 498.894 196.027 499.28 196.975C500.114 199.017 500.927 201.009 501.771 202.989C503.056 206.001 504.356 209.007 505.655 212.013L505.657 212.018C508.116 217.708 510.576 223.398 512.938 229.127C515.759 235.968 518.366 242.899 520.965 249.829C521.839 252.16 522.632 254.521 523.426 256.883L523.427 256.885C523.961 258.474 524.494 260.063 525.053 261.643C525.191 262.034 525.669 262.569 526.01 262.586L527.157 262.642C532.976 262.925 538.796 263.209 544.619 263.336C548.382 263.418 552.16 263.334 555.914 263.078C558.893 262.874 561.867 262.407 564.804 261.851C567.522 261.336 568.048 260.105 566.913 257.579C566.392 256.417 565.86 255.259 565.328 254.102L565.326 254.098L565.326 254.097C565.015 253.421 564.705 252.745 564.396 252.068C564.265 251.78 564.14 251.489 564.016 251.197L564.015 251.196C563.773 250.629 563.531 250.063 563.24 249.523C562.102 247.411 560.95 245.307 559.798 243.203C559.04 241.82 558.283 240.438 557.53 239.052C556.603 237.348 555.68 235.642 554.758 233.936C553.558 231.716 552.358 229.496 551.148 227.281C548.258 221.989 545.356 216.704 542.454 211.418L542.432 211.376L541.203 209.138C540.465 207.794 539.725 206.452 538.985 205.109C537.883 203.113 536.782 201.116 535.69 199.114C535.27 198.345 534.875 197.561 534.484 196.783C534.305 196.428 534.127 196.074 533.947 195.722C534.487 195.435 535.021 195.156 535.55 194.88L535.56 194.874L535.565 194.872L535.566 194.871C536.724 194.266 537.856 193.675 538.966 193.045C542.875 190.827 546.452 188.118 549.548 184.894C551.639 182.718 553.428 180.206 555.083 177.668C557.529 173.916 558.956 169.714 559.279 165.244C559.547 161.539 559.313 157.82 558.567 154.163C557.459 148.733 555.169 143.851 551.425 139.747C548.173 136.183 544.182 133.614 539.733 131.776C532.887 128.948 525.654 127.854 518.342 127.809C499.924 127.696 481.505 127.723 463.086 127.749C458.287 127.756 453.488 127.763 448.69 127.767C445.427 127.77 442.164 127.876 438.902 127.982L438.008 128.011C435.362 128.097 434.309 129.211 434.309 131.798V260.377C434.309 260.466 434.301 260.558 434.294 260.65C434.277 260.856 434.26 261.061 434.327 261.233C434.483 261.633 434.67 262.111 434.996 262.336C436.119 263.112 437.364 263.182 438.752 263.17C447.184 263.094 455.617 263.105 464.05 263.116C465.972 263.118 467.895 263.121 469.817 263.122C473.317 263.125 476.79 262.968 479.923 261.756C479.923 261.421 479.92 261.092 479.917 260.767V260.766V260.766V260.765V260.765V260.765V260.764V260.764V260.763V260.763V260.763V260.762V260.762V260.761V260.761V260.76V260.76V260.76V260.759V260.759V260.758V260.758V260.758V260.757V260.757C479.911 260.05 479.906 259.363 479.929 258.676C479.952 258.002 479.991 257.329 480.03 256.656L480.03 256.652V256.652V256.651V256.65V256.649V256.649V256.648V256.647V256.647V256.646V256.645V256.644V256.644V256.643V256.642V256.641V256.641V256.64V256.639V256.638V256.638V256.637V256.636V256.636V256.635C480.092 255.562 480.154 254.49 480.151 253.417C480.149 252.284 480.093 251.151 480.037 250.017C479.992 249.11 479.948 248.203 479.93 247.296C479.915 246.502 479.899 245.708 479.883 244.914C479.794 240.381 479.704 235.847 479.687 231.313C479.661 223.931 479.666 216.549 479.672 209.168C479.674 206.112 479.676 203.056 479.676 200V198.607C479.166 198.654 478.674 198.713 478.195 198.771L478.194 198.771L478.194 198.771L478.194 198.771L478.194 198.771L478.193 198.771L478.193 198.771C477.178 198.893 476.219 199.009 475.264 198.987C471.51 198.9 467.751 198.792 464.011 198.49C460.498 198.206 457.06 197.402 453.799 196.035C453.122 195.751 452.251 195.045 452.179 194.448C452.125 193.994 452.547 193.474 452.954 192.972L452.954 192.972C453.092 192.801 453.228 192.633 453.344 192.471C453.43 192.35 453.595 192.284 453.76 192.219C453.836 192.189 453.912 192.159 453.98 192.123C456.907 190.602 460.111 190.06 463.301 189.52L463.549 189.478L463.886 189.421C465.965 189.066 468.052 188.758 470.138 188.451C472.894 188.044 475.65 187.637 478.386 187.124C481.22 186.592 484.027 185.909 486.833 185.225C488.069 184.923 489.306 184.622 490.545 184.334ZM499.859 168.717C499.873 171.876 498.492 174.521 496.029 176.554C492.56 179.711 486.468 179.748 482.526 177.366C477.478 174.315 476.05 167.375 478.133 162.168C479.291 159.276 481.017 156.929 483.862 155.488C487.256 153.77 490.567 154.217 493.484 156.322C497.635 159.318 499.837 163.558 499.859 168.717ZM319.41 157.837V131.953C319.41 129.32 320.08 128.47 322.732 128.023C327.38 127.24 332.075 127.197 336.772 127.267C338.445 127.292 340.119 127.325 341.792 127.359L341.792 127.359C344.994 127.424 348.195 127.489 351.397 127.491C353.842 127.493 356.287 127.435 358.732 127.376C360.587 127.332 362.441 127.288 364.296 127.27L367.507 127.238C377.022 127.145 386.538 127.052 396.053 127.034C400.174 127.025 404.296 127.096 408.417 127.167C410.403 127.201 412.389 127.236 414.376 127.261C414.824 127.267 415.272 127.262 415.721 127.257C416.352 127.251 416.983 127.244 417.613 127.266C421.41 127.402 422.123 129.155 422.165 132.142C422.273 139.803 422.246 147.467 422.22 155.131C422.21 157.985 422.2 160.839 422.197 163.693C422.197 163.715 422.188 163.737 422.166 163.792L422.165 163.793C422.149 163.833 422.127 163.888 422.096 163.972C421.565 164.024 421.026 164.085 420.483 164.147L420.481 164.148L420.48 164.148C419.262 164.287 418.018 164.429 416.771 164.475C412.885 164.618 408.995 164.693 405.105 164.734C398.284 164.805 391.462 164.859 384.641 164.914L384.636 164.914C381.572 164.939 378.508 164.963 375.444 164.989C375.305 164.99 375.166 165.001 375.03 165.012C374.967 165.017 374.905 165.022 374.844 165.025C374.28 167.083 374.218 175.183 374.704 176.571C375.216 176.571 375.723 176.576 376.227 176.582C377.363 176.596 378.483 176.609 379.6 176.553C380.447 176.511 381.292 176.418 382.136 176.326C382.988 176.233 383.839 176.14 384.692 176.098C386.755 175.996 388.82 175.945 390.885 175.893C391.6 175.875 392.315 175.857 393.03 175.837C394.354 175.8 395.677 175.765 397 175.731L397.006 175.731C398.789 175.685 400.572 175.638 402.355 175.585C403.123 175.563 403.892 175.518 404.661 175.473C406.265 175.379 407.868 175.285 409.457 175.393C411.594 175.539 413.718 175.909 415.838 176.279C416.386 176.375 416.934 176.47 417.482 176.562C418.599 176.748 419.042 177.486 419.038 178.656C419.028 182.234 419.033 185.813 419.039 189.391C419.048 195.674 419.058 201.956 418.979 208.237C418.934 211.911 417.773 214.038 413.18 214.04C412.371 214.04 411.561 213.985 410.751 213.931L410.751 213.931C409.808 213.868 408.865 213.804 407.923 213.828C404.884 213.902 401.847 214.039 398.809 214.176L398.808 214.176L398.808 214.176L398.807 214.176L398.807 214.176L398.806 214.176L398.806 214.176L398.805 214.176L398.805 214.176L398.804 214.176L398.804 214.176L398.803 214.176L398.802 214.176L398.802 214.176L398.801 214.176L398.801 214.176L398.8 214.176L398.8 214.177L398.799 214.177L398.799 214.177L398.798 214.177L398.797 214.177L398.797 214.177L398.796 214.177C397.841 214.22 396.885 214.263 395.93 214.304C394.386 214.37 392.843 214.441 391.3 214.512L391.299 214.512C389.215 214.608 387.13 214.704 385.045 214.789C382.681 214.885 380.316 214.966 377.888 215.05L377.886 215.05L377.885 215.05L377.885 215.05L377.884 215.05L377.883 215.05L377.883 215.05C376.796 215.087 375.696 215.125 374.578 215.165C374.611 215.526 374.652 215.885 374.692 216.243L374.692 216.243C374.779 217.012 374.865 217.775 374.875 218.539C374.931 222.852 374.975 227.166 375.018 231.48L375.019 231.51C375.056 235.183 375.093 238.857 375.138 242.531C375.164 244.673 375.204 246.816 375.244 248.958L375.244 248.968C375.293 251.574 375.341 254.18 375.365 256.786C375.378 258.167 375.25 259.553 375.119 260.931C374.994 262.239 373.571 263.114 371.625 263.116C369.095 263.119 366.564 263.116 364.034 263.113C359.621 263.107 355.208 263.102 350.795 263.127C341.524 263.178 332.253 263.264 322.983 263.393C321.952 263.407 321.402 263.044 321.035 262.171C320.071 259.875 319.397 257.533 319.398 254.999C319.413 229.308 319.412 203.616 319.411 177.863V177.851V177.839V177.827V177.815V177.802V177.79V177.778V177.766V177.754V177.742V177.73V177.718V177.706V177.693V177.681V177.669V177.657V177.645V177.633V177.62V177.608V177.596V177.584C319.411 171.006 319.41 164.424 319.41 157.837ZM503.784 240.288C502.394 237.909 501.041 235.508 499.647 233.028C498.189 230.082 496.755 227.225 495.321 224.368L494.939 224.517C494.25 227.425 493.59 230.341 492.93 233.256C490.761 242.84 488.592 252.424 485.38 261.741L517.407 262.341C516.832 261.487 516.259 260.655 515.693 259.835C514.461 258.048 513.265 256.314 512.171 254.518C509.935 250.85 507.773 247.136 505.611 243.422L505.609 243.418C505.001 242.374 504.394 241.331 503.784 240.288ZM269.257 298.831L269.258 298.832L269.261 298.841L269.509 298.811V288.089C269.765 288.051 270.008 288.009 270.241 287.967C270.727 287.881 271.174 287.802 271.622 287.791C272.508 287.768 273.394 287.772 274.281 287.775H274.283C274.998 287.778 275.712 287.781 276.426 287.77C277.113 287.76 277.505 287.932 277.503 288.724C277.492 294.549 277.493 300.374 277.494 306.269C277.494 307.976 277.495 309.689 277.495 311.41C277.267 311.441 277.045 311.48 276.826 311.517C276.359 311.598 275.908 311.676 275.455 311.681C274.301 311.696 273.146 311.693 271.99 311.691C270.599 311.688 269.208 311.685 267.817 311.711C266.917 311.728 266.446 311.49 266.121 310.566C264.937 307.196 263.638 303.867 262.198 300.57V311.694H256.165C254.869 311.694 254.222 311.694 253.899 311.371C253.579 311.049 253.579 310.408 253.579 309.129C253.579 308.488 253.576 307.846 253.574 307.205C253.569 305.793 253.563 304.38 253.584 302.968C253.614 300.882 253.652 298.796 253.69 296.71L253.69 296.703C253.737 294.165 253.783 291.627 253.815 289.089C253.827 288.105 254.184 287.737 255.203 287.757C258.076 287.815 260.953 287.816 263.826 287.755C264.719 287.736 265.182 288.035 265.448 288.856C265.743 289.766 266.08 290.662 266.433 291.603C266.488 291.75 266.544 291.899 266.6 292.049C266.639 292.154 266.678 292.258 266.718 292.364C267.594 294.577 268.425 296.704 269.257 298.831ZM402.579 311.694H406.202C406.702 311.694 407.19 311.691 407.67 311.688C408.77 311.682 409.828 311.676 410.886 311.705C411.942 311.734 412.438 311.416 412.39 310.237C412.329 308.743 412.341 307.245 412.354 305.755V305.754V305.754V305.754V305.754V305.753V305.753V305.753V305.753V305.752V305.752V305.752V305.751V305.751V305.751V305.751V305.75V305.75V305.75V305.749V305.749V305.746V305.742V305.739V305.736V305.732V305.729V305.726C412.36 305.111 412.365 304.498 412.365 303.887C414.34 303.715 414.688 304.099 414.854 305.919C414.999 307.526 415.282 309.127 415.632 310.703C415.718 311.09 416.293 311.637 416.658 311.649C419.244 311.731 421.834 311.725 424.42 311.649C424.723 311.64 425.321 310.845 425.253 310.73C424.587 309.615 424.599 308.415 424.611 307.215C424.619 306.501 424.626 305.787 424.49 305.092C424.051 302.841 423.63 300.695 421.305 299.501C421.423 299.425 421.537 299.353 421.649 299.282C421.882 299.134 422.104 298.994 422.319 298.844C425.581 296.574 425.266 290.966 422.219 289.087C420.546 288.055 418.693 287.86 416.856 287.812C413.476 287.722 410.092 287.748 406.709 287.775C405.983 287.78 405.257 287.786 404.531 287.79C404.075 287.793 403.619 287.876 403.176 287.957L403.175 287.957C402.973 287.994 402.774 288.03 402.579 288.058V311.694ZM414.909 293.516L414.968 293.526L415.025 293.536C416.271 294.462 416.461 295.283 415.85 296.533C415.46 297.33 413.96 298.164 413.215 297.831C412.834 297.661 412.501 297.094 412.403 296.65C412.305 296.208 412.326 295.74 412.348 295.272C412.356 295.079 412.365 294.886 412.366 294.695C412.369 293.13 412.601 292.966 414.19 293.379C414.377 293.428 414.569 293.459 414.76 293.491L414.76 293.491C414.81 293.499 414.86 293.507 414.909 293.516ZM473.207 307.877C471.349 310.87 468.429 311.864 465.296 312.133C462.511 312.372 459.715 312.273 456.978 311.26C454.15 310.214 451.737 307.147 451.792 304.005C451.852 300.572 451.839 297.139 451.826 293.705C451.82 292.249 451.814 290.793 451.814 289.338V287.777C452.636 287.777 453.446 287.779 454.246 287.781C456.275 287.787 458.247 287.792 460.219 287.761C461.114 287.747 461.441 288.021 461.449 288.952C461.474 291.845 461.526 294.737 461.577 297.629L461.578 297.654C461.611 299.505 461.643 301.356 461.669 303.207C461.682 304.073 461.752 304.91 462.735 305.16C463.391 305.326 464.136 304.249 464.138 303.191L464.141 302.23C464.142 301.617 464.144 301.004 464.146 300.392C464.157 296.682 464.169 292.972 464.115 289.263C464.098 288.047 464.491 287.712 465.661 287.753C467.247 287.809 468.835 287.798 470.423 287.787C471.136 287.782 471.849 287.777 472.562 287.778C474.246 287.78 474.251 287.788 474.251 289.516C474.251 290.773 474.259 292.029 474.266 293.286C474.284 296.468 474.302 299.649 474.206 302.827C474.17 304.006 473.873 305.178 473.569 306.379C473.444 306.872 473.317 307.371 473.207 307.877ZM115.238 303.372C115.22 304.963 115.473 306.438 116.307 307.897C117.33 309.496 118.653 310.566 120.35 311.214C123.447 312.397 126.629 312.449 129.837 311.935C135.296 311.06 137.519 308.36 137.666 303.243C137.745 300.509 137.73 297.772 137.716 295.035C137.706 293.091 137.695 291.146 137.718 289.201C137.731 288.106 137.332 287.755 136.307 287.768L136.278 287.768H136.276C133.865 287.799 131.451 287.83 129.041 287.754C127.919 287.719 127.544 288.035 127.56 289.201C127.593 291.697 127.591 294.192 127.588 296.688V296.689C127.586 298.874 127.584 301.059 127.606 303.243C127.617 304.29 127.146 305.071 126.267 305.117C125.268 305.17 125.128 304.191 125.115 303.321C125.09 301.612 125.059 299.903 125.029 298.194C124.974 295.114 124.919 292.033 124.892 288.952C124.884 288.021 124.557 287.748 123.663 287.762C121.693 287.793 119.724 287.788 117.694 287.782H117.688H117.682H117.675H117.669H117.663H117.657H117.65H117.644H117.638C116.854 287.78 116.062 287.778 115.258 287.778V289.33C115.258 290.647 115.26 291.964 115.263 293.281C115.27 296.645 115.277 300.009 115.238 303.372ZM242.702 288.016C246.577 289.447 248.394 292.46 249.109 296.169C249.789 299.694 249.59 303.201 247.915 306.503C246.207 309.87 243.376 311.46 239.725 311.969C237.512 312.278 235.371 312.21 233.205 311.708C229.524 310.857 227.14 308.597 225.88 305.096C224.748 301.954 224.542 298.699 225.348 295.495C226.471 291.031 229.657 288.532 234.005 287.571C236.866 286.939 239.783 286.981 242.702 288.016ZM238.74 294.037C236.946 293.262 235.577 293.754 235.008 295.663C234.201 298.371 233.985 301.15 234.839 303.923C235.178 305.027 235.912 305.774 237.028 305.958C237.984 306.115 239.247 305.063 239.578 303.878C239.868 302.838 240.119 301.762 240.187 300.689C240.33 298.416 240.354 296.134 238.74 294.037ZM509.335 288.028C503.862 289.867 502.169 296.507 505.653 300.031C507.652 301.419 509.793 302.167 512.09 302.607C513.284 302.836 514.443 303.276 515.589 303.711L515.878 303.82C516.197 303.941 516.638 304.426 516.594 304.664C516.518 305.076 516.184 305.552 515.819 305.778C514.84 306.388 513.773 306.107 513.243 305.05C512.848 304.263 512.312 304.012 511.504 304.045C510.682 304.078 509.859 304.106 509.037 304.135C507.492 304.188 505.948 304.241 504.405 304.327C504.157 304.341 503.707 304.787 503.73 304.987C504.095 308.061 505.601 310.238 508.65 311.267C512.23 312.476 515.813 312.445 519.43 311.537C521.605 310.991 523.526 310.045 524.813 308.1C525.83 306.563 525.811 304.845 525.793 303.119V303.119C525.792 303.011 525.791 302.903 525.79 302.795C525.778 301.426 525.307 300.284 524.363 299.286C522.808 297.642 520.757 297.011 518.688 296.415C518.082 296.24 517.47 296.082 516.859 295.923L516.858 295.923C515.907 295.677 514.957 295.431 514.026 295.123C513.714 295.019 513.296 294.204 513.409 294.03C513.912 293.256 515.288 293.424 515.928 294.108C516.291 294.495 516.882 294.871 517.384 294.89C518.661 294.94 519.939 294.935 521.218 294.929C522.116 294.926 523.013 294.922 523.91 294.937C525.01 294.956 525.476 294.405 525.268 293.422C524.744 290.945 523.378 288.986 521.002 288.059C517.154 286.557 513.231 286.718 509.335 288.028ZM487.362 302.797C487.006 302.692 486.655 302.588 486.307 302.486C485.047 302.116 483.834 301.76 482.641 301.347C477.257 299.488 477.681 293.597 480.231 290.564C482.04 288.413 484.525 287.673 487.209 287.254C490.053 286.81 492.805 286.996 495.473 288.02C497.936 288.966 499.305 290.905 499.872 293.409C500.107 294.447 499.629 294.914 498.525 294.921C498.167 294.924 497.809 294.927 497.45 294.93C495.631 294.945 493.811 294.96 491.994 294.89C491.49 294.87 490.897 294.499 490.534 294.111C489.891 293.424 488.523 293.253 488.015 294.028C487.902 294.201 488.319 295.019 488.63 295.122C489.563 295.43 490.515 295.677 491.469 295.924L491.47 295.924C492.08 296.082 492.69 296.24 493.295 296.414C495.366 297.01 497.419 297.645 498.972 299.291C499.915 300.29 500.385 301.434 500.395 302.806C500.396 302.929 500.397 303.053 500.399 303.177C500.416 304.851 500.433 306.522 499.486 308.016C498.21 310.027 496.24 310.994 494.017 311.546C490.354 312.456 486.715 312.502 483.113 311.217C480.062 310.129 478.71 307.999 478.314 304.956C478.289 304.767 478.699 304.338 478.922 304.327C481.453 304.2 483.987 304.088 486.52 304.094C486.947 304.095 487.531 304.584 487.769 305.003C488.312 305.959 489.114 306.255 490.028 305.952C490.514 305.791 490.95 305.216 491.187 304.721C491.264 304.56 490.707 303.913 490.328 303.75C489.622 303.446 488.877 303.233 488.089 303.008L487.885 302.95L487.694 302.894C487.584 302.863 487.473 302.83 487.362 302.797ZM590.38 296.519L590.381 296.522C590.384 296.756 590.388 296.992 590.39 297.229C590.506 297.45 590.614 297.672 590.72 297.891C591.031 298.531 591.327 299.14 591.775 299.6C593.544 301.417 595.878 302.097 598.295 302.582C599.516 302.827 600.738 303.136 601.897 303.58C602.339 303.748 602.749 304.33 602.894 304.808C602.973 305.07 602.539 305.606 602.211 305.847C601.481 306.383 600.139 306.016 599.729 305.164C599.313 304.302 598.674 304.004 597.768 304.043C596.306 304.107 594.844 304.162 593.382 304.217C592.948 304.234 592.513 304.25 592.079 304.267C591.804 304.277 591.529 304.288 591.254 304.299L590.689 304.321L590.42 304.332C590.372 304.334 590.326 304.371 590.279 304.408C590.258 304.425 590.237 304.442 590.216 304.455C589.928 308.167 592.609 310.858 596.353 311.695C598.926 312.271 601.516 312.396 604.102 311.922C607.635 311.274 611.468 310.079 612.209 305.028C612.577 302.516 612.252 300.136 609.967 298.677C608.53 297.759 606.877 297.15 605.256 296.553L604.917 296.428C604.118 296.133 603.291 295.912 602.463 295.692C601.769 295.507 601.075 295.322 600.397 295.093C600.098 294.991 599.689 294.318 599.781 294.112C600.147 293.3 601.62 293.374 602.273 294.018C602.706 294.445 603.365 294.853 603.943 294.885C605.388 294.962 606.837 294.949 608.286 294.935C608.809 294.93 609.332 294.925 609.855 294.924C611.48 294.922 612.128 294.087 611.494 292.551C610.472 290.074 608.796 288.205 606.069 287.543C603.425 286.902 600.727 286.78 598.082 287.334C595.394 287.897 592.863 288.895 591.298 291.423C590.324 292.997 590.352 294.719 590.38 296.519ZM376.715 304.515L376.714 304.514C376.33 304.015 375.953 303.524 375.464 303.356C374.624 303.066 373.751 302.872 372.877 302.678L372.877 302.678L372.877 302.677C372.055 302.495 371.234 302.312 370.439 302.05L370.292 302.001C367.941 301.227 365.454 300.409 364.787 297.612C363.785 293.419 365.265 290.045 369.218 288.301C372.762 286.736 376.476 286.664 380.19 287.557C382.856 288.198 384.775 289.885 385.595 292.51C386.06 294.001 385.968 295.08 383.81 294.947C382.01 294.837 380.196 294.885 378.39 294.942C377.538 294.969 376.914 294.76 376.391 294.053C375.816 293.276 374.548 293.254 374.008 294.023C373.89 294.192 374.19 294.947 374.435 295.031C375.215 295.298 376.011 295.521 376.806 295.744L376.807 295.744L376.807 295.744L376.808 295.744L376.808 295.744L376.809 295.744L376.809 295.744L376.809 295.745L376.81 295.745L376.81 295.745L376.811 295.745L376.811 295.745L376.812 295.745L376.812 295.745C377.568 295.957 378.324 296.169 379.066 296.419L379.145 296.445C380.646 296.95 382.165 297.46 383.57 298.175C386.272 299.548 386.78 302.735 386.395 305.153C385.82 308.764 383.466 310.623 380.053 311.486C375.826 312.555 371.706 312.579 367.734 310.571C365.537 309.46 364.148 306.875 364.358 304.455C364.371 304.447 364.384 304.437 364.397 304.427L364.422 304.408C364.468 304.371 364.515 304.333 364.563 304.332C365.48 304.296 366.398 304.262 367.315 304.229C368.929 304.171 370.544 304.112 372.157 304.039C372.89 304.006 373.362 304.222 373.727 304.913C374.553 306.479 375.869 306.52 377.09 304.987C376.962 304.836 376.838 304.675 376.715 304.515ZM283.45 304.273C282.291 304.274 281.952 304.696 282.342 305.848C282.806 308.679 284.512 310.295 287.01 311.199C290.352 312.409 293.749 312.435 297.199 311.705C301.989 310.69 304.802 307.983 304.352 302.773C304.201 301.028 303.45 299.583 301.945 298.481C300.25 297.241 298.313 296.744 296.374 296.245L296.374 296.245L296.374 296.245L296.373 296.245L296.373 296.245L296.373 296.245L296.373 296.245L296.372 296.245L296.372 296.245L296.372 296.244L296.372 296.244L296.371 296.244L296.371 296.244C295.665 296.063 294.959 295.881 294.264 295.664C294.142 295.626 294.019 295.588 293.896 295.55C293.287 295.364 292.677 295.177 292.11 294.903C291.927 294.814 291.778 294.168 291.905 294.008C292.553 293.191 293.844 293.332 294.518 294.148C294.796 294.484 295.25 294.879 295.635 294.891C297.932 294.96 300.234 294.954 302.533 294.909C303.288 294.894 303.753 294.557 303.662 293.601C303.402 290.865 301.064 288.239 298.103 287.542C294.325 286.653 290.568 286.781 287.015 288.353C283.065 290.101 281.687 293.632 282.692 297.73C283.225 299.899 285.052 300.9 286.965 301.547C288.173 301.955 289.413 302.269 290.654 302.583L290.654 302.583L290.655 302.584C291.603 302.824 292.552 303.064 293.487 303.347C294.306 303.594 295.311 303.974 294.967 305.172C294.671 306.201 293.697 306.105 292.922 305.98C292.493 305.912 291.97 305.515 291.771 305.123C291.334 304.266 290.754 303.974 289.813 304.033C287.695 304.166 285.572 304.27 283.45 304.273ZM219.29 303.986C219.18 304.413 219.073 304.835 218.967 305.252L218.967 305.253L218.967 305.253L218.967 305.254L218.966 305.255L218.966 305.256C218.611 306.656 218.267 308.01 217.864 309.346C217.157 311.692 217.122 311.692 214.822 311.692H214.793L207.65 311.692C207.574 311.692 207.497 311.691 207.421 311.69C207.251 311.687 207.08 311.684 206.911 311.695C204.621 311.837 204.619 311.828 204.06 309.78L204.022 309.642C202.686 304.752 201.318 299.871 199.949 294.99L199.949 294.989L199.948 294.984L199.316 292.732C199.116 292.016 198.899 291.305 198.683 290.594C198.512 290.031 198.34 289.469 198.177 288.903C197.979 288.218 198.159 287.774 198.972 287.775C199.704 287.776 200.436 287.774 201.168 287.771L201.177 287.771C203.234 287.764 205.291 287.757 207.345 287.83C207.728 287.844 208.332 288.533 208.415 288.986C208.899 291.623 209.338 294.269 209.776 296.914L209.777 296.917L209.777 296.92C209.999 298.256 210.221 299.592 210.448 300.928C210.502 301.241 210.714 301.526 211.095 301.773L214.01 287.982H223.319C223.268 288.217 223.218 288.46 223.166 288.708C223.052 289.261 222.932 289.838 222.785 290.409C222.331 292.18 221.874 293.951 221.415 295.728L221.41 295.747L221.384 295.847L221.368 295.91L221.362 295.933L221.361 295.935L221.361 295.936C220.674 298.598 219.983 301.274 219.29 303.986ZM98.1468 301.731C98.0994 301.436 98.0513 301.137 97.9976 300.832C98.0202 300.41 98.0376 299.997 98.0547 299.59C98.1002 298.508 98.1438 297.471 98.2793 296.447C98.359 295.844 98.6806 295.16 99.1159 294.751C99.4919 294.398 100.376 294.082 100.693 294.285C101.181 294.597 101.557 295.338 101.653 295.949C101.817 296.984 102.186 297.456 103.3 297.413C104.361 297.372 105.424 297.379 106.487 297.385C107.314 297.391 108.142 297.396 108.969 297.378C109.396 297.37 109.822 297.28 110.234 297.194C110.418 297.155 110.599 297.118 110.776 297.088C110.968 292.705 109.37 289.684 105.782 288.281C101.017 286.419 96.3486 287.054 92.0398 289.724C89.8136 291.103 88.3713 293.241 88.1538 295.895C87.9656 298.191 87.9198 300.54 88.19 302.821C88.5593 305.938 89.8988 308.689 92.6429 310.465C96.0925 312.697 99.925 312.646 103.702 311.746C107.816 310.767 110.196 307.995 110.858 303.768C111.084 302.319 110.972 302.085 109.54 302.08C108.868 302.077 108.194 302.086 107.521 302.094C106.097 302.113 104.674 302.131 103.257 302.043C101.96 301.962 101.381 302.451 101.215 303.642C101.207 303.696 101.207 303.757 101.207 303.818C101.208 303.937 101.208 304.055 101.149 304.119C101.059 304.217 100.97 304.327 100.879 304.438C100.596 304.785 100.301 305.146 99.9747 305.186C99.5767 305.234 98.846 304.752 98.7124 304.353C98.4355 303.526 98.2951 302.653 98.1468 301.731ZM355.622 294.626L355.621 294.626C354.589 294.58 353.602 294.536 352.615 294.53C352.401 294.529 352.042 294.838 351.998 295.054C351.932 295.377 351.944 295.716 351.957 296.105V296.105C351.963 296.277 351.969 296.458 351.969 296.652C352.622 296.652 353.269 296.658 353.91 296.663H353.91H353.911H353.912H353.912H353.913C355.435 296.676 356.928 296.689 358.417 296.627C359.578 296.579 359.922 296.97 359.875 298.102C359.841 298.939 359.927 299.782 360.012 300.624V300.624V300.624V300.625V300.625V300.625V300.625V300.626V300.626V300.626C360.042 300.919 360.072 301.212 360.097 301.505C360.165 302.309 359.813 302.572 359.021 302.585C357.406 302.613 355.792 302.683 354.179 302.753C353.631 302.777 353.084 302.801 352.537 302.823C352.433 302.827 352.331 302.846 352.213 302.869C352.153 302.88 352.089 302.893 352.019 302.904V304.773C352.433 304.773 352.846 304.776 353.257 304.778H353.258C354.195 304.785 355.125 304.791 356.055 304.764C356.752 304.744 357.449 304.699 358.145 304.653H358.145H358.146H358.146H358.146H358.147H358.147H358.148H358.148H358.148C358.75 304.613 359.352 304.574 359.954 304.551C360.737 304.521 361.125 304.866 361.096 305.734C361.04 307.375 361.062 309.018 361.087 310.66C361.1 311.503 360.662 311.642 359.931 311.636C358.337 311.625 356.742 311.639 355.148 311.653C354.224 311.661 353.3 311.67 352.376 311.673C351.861 311.675 351.346 311.677 350.831 311.68C348.309 311.693 345.785 311.705 343.265 311.626C342.944 311.616 342.385 310.789 342.384 310.34C342.382 308.795 342.433 307.25 342.484 305.704V305.704V305.703V305.703V305.702V305.702V305.701V305.701V305.701V305.7L342.484 305.698C342.524 304.509 342.563 303.32 342.578 302.131C342.607 299.84 342.6 297.548 342.593 295.256C342.591 294.263 342.588 293.271 342.588 292.279V288.123H360.82C360.82 288.263 360.821 288.404 360.821 288.544C360.823 288.919 360.825 289.295 360.828 289.671V289.674V289.676V289.678V289.68C360.838 290.985 360.848 292.295 360.796 293.602C360.768 294.307 360.326 294.769 359.471 294.695C358.912 294.646 358.348 294.657 357.744 294.669C357.468 294.674 357.183 294.679 356.886 294.68C356.457 294.663 356.039 294.644 355.627 294.626L355.625 294.626L355.622 294.626ZM429.132 288.103V295.914C429.132 297.259 429.13 298.592 429.129 299.917V299.924V299.93V299.936V299.942V299.949V299.955V299.961V299.967C429.126 303.036 429.123 306.064 429.137 309.092C429.139 309.47 429.133 309.794 429.129 310.071C429.115 310.895 429.109 311.307 429.311 311.51C429.514 311.713 429.926 311.707 430.751 311.696H430.752C431.033 311.692 431.362 311.687 431.746 311.69C433.506 311.702 435.265 311.695 437.025 311.687C437.728 311.684 438.432 311.681 439.135 311.679C439.844 311.678 440.552 311.674 441.261 311.67L441.277 311.67C442.956 311.661 444.635 311.653 446.314 311.67C447.119 311.678 447.661 311.568 447.635 310.57C447.592 308.888 447.609 307.204 447.63 305.521C447.639 304.861 447.412 304.503 446.709 304.544C446.369 304.563 446.03 304.585 445.691 304.606L445.69 304.606L445.689 304.606L445.688 304.606L445.687 304.606L445.686 304.606L445.685 304.606L445.684 304.606L445.683 304.606C444.684 304.668 443.686 304.73 442.686 304.758C441.786 304.784 440.885 304.777 439.992 304.771H439.992H439.991H439.991H439.991H439.99H439.99H439.989H439.989L439.984 304.771C439.595 304.769 439.208 304.766 438.823 304.766V302.923L446.638 302.561C446.638 302.078 446.635 301.609 446.632 301.15V301.149V301.148V301.147V301.147V301.146V301.145V301.144V301.144C446.625 300.106 446.618 299.117 446.648 298.128C446.68 297.069 446.35 296.584 445.178 296.629C443.633 296.689 442.085 296.677 440.479 296.665H440.479L440.475 296.664C439.794 296.659 439.102 296.654 438.395 296.654L438.825 294.671C439.455 294.671 440.074 294.673 440.685 294.674C442.678 294.679 444.583 294.683 446.486 294.638C446.783 294.631 447.31 294.174 447.32 293.911C447.375 292.429 447.368 290.945 447.363 289.476C447.361 289.017 447.359 288.559 447.359 288.103H429.132ZM568.193 310.378C568.193 302.895 568.193 295.527 568.193 288.092H586.424C586.424 288.536 586.425 288.981 586.426 289.425C586.43 290.973 586.434 292.522 586.39 294.07C586.384 294.279 585.909 294.645 585.646 294.65C583.684 294.684 581.722 294.681 579.682 294.678H579.672H579.661L578.91 294.677L578.512 294.677L577.887 294.676L577.718 296.652C578.075 296.652 578.432 296.654 578.79 296.656C579.024 296.657 579.259 296.659 579.493 296.66L579.647 296.662C581.208 296.673 582.775 296.684 584.34 296.629C585.453 296.59 585.762 296.992 585.724 298.05C585.695 298.856 585.781 299.667 585.865 300.476C585.891 300.72 585.917 300.964 585.939 301.208C586.018 302.062 585.894 302.582 584.801 302.597C583.192 302.618 581.584 302.716 579.948 302.815L579.945 302.815L579.944 302.815C579.265 302.857 578.58 302.898 577.889 302.935V304.765C578.295 304.765 578.705 304.768 579.116 304.771C580.065 304.777 581.025 304.783 581.984 304.757C582.638 304.739 583.292 304.698 583.945 304.656C584.592 304.615 585.238 304.573 585.885 304.555C586.608 304.535 586.97 304.893 586.946 305.691C586.918 306.6 586.923 307.509 586.928 308.419V308.423C586.931 309.073 586.935 309.723 586.926 310.373C586.912 311.511 586.528 311.643 585.396 311.566C583.313 311.424 581.216 311.435 579.126 311.461C577.963 311.475 576.801 311.53 575.639 311.584H575.639H575.638H575.638H575.638H575.637H575.637H575.636C574.801 311.623 573.966 311.662 573.131 311.686C572.604 311.701 572.076 311.695 571.549 311.689C570.885 311.681 570.221 311.673 569.559 311.708C568.637 311.757 568.155 311.454 568.193 310.378ZM181.09 294.632V291.23L181.09 289.63C181.089 287.779 181.089 287.75 179.272 287.782C177.627 287.811 175.981 287.852 174.336 287.893C172.466 287.94 170.597 287.987 168.727 288.015C167.025 288.041 165.323 288.035 163.62 288.028C162.86 288.025 162.1 288.022 161.339 288.022H160.132C160.132 288.643 160.135 289.245 160.137 289.834C160.142 291.238 160.147 292.567 160.12 293.896C160.104 294.732 160.477 294.962 161.24 294.936C162.347 294.897 163.457 294.896 164.563 294.945C164.882 294.96 165.413 295.145 165.463 295.348C165.658 296.127 165.8 296.948 165.777 297.748C165.714 299.876 165.632 302.004 165.549 304.132C165.469 306.202 165.389 308.272 165.327 310.343C165.3 311.225 165.727 311.745 166.766 311.712C168.217 311.665 169.668 311.675 171.12 311.684C171.721 311.688 172.321 311.692 172.922 311.692H175.475V294.632H181.09ZM559.041 311.364C558.717 311.55 558.413 311.68 558.108 311.682C557.119 311.688 556.13 311.686 555.14 311.684C553.544 311.68 551.947 311.677 550.351 311.709C549.366 311.729 549.028 311.222 548.973 310.398C548.924 309.672 548.944 308.941 548.963 308.213V308.212L548.964 308.182C548.995 307.039 549.03 305.895 549.065 304.752C549.114 303.118 549.164 301.485 549.202 299.851C549.233 298.486 549.26 297.116 549.163 295.757C549.142 295.46 548.601 294.995 548.266 294.964C547.167 294.863 546.052 294.891 544.945 294.936C544.123 294.97 543.745 294.718 543.768 293.826C543.802 292.505 543.796 291.182 543.789 289.804V289.803V289.803V289.802V289.801V289.797V289.791V289.784L543.787 289.374C543.786 289.16 543.785 288.945 543.784 288.728C543.783 288.494 543.783 288.259 543.783 288.022H545.184C546.291 288.022 547.398 288.024 548.505 288.027H548.508C551.135 288.033 553.763 288.039 556.389 288.011C557.63 287.998 558.87 287.945 560.109 287.891H560.11H560.11H560.11H560.11H560.111L560.113 287.891C561.115 287.848 562.117 287.805 563.12 287.784C564.685 287.749 564.738 287.833 564.74 289.333C564.741 290.52 564.741 291.707 564.741 292.944L564.74 294.642H559.061C559.061 300.277 559.061 305.763 559.041 311.364ZM152.45 311.692L152.498 311.692C153.474 311.693 154.456 311.693 155.446 311.693C155.823 311.674 156.194 311.657 156.56 311.64H156.561C157.772 311.585 158.927 311.532 160.075 311.408C160.366 311.377 160.821 310.887 160.833 310.594C160.906 308.873 160.912 307.145 160.829 305.425C160.815 305.119 160.297 304.608 159.98 304.582C158.421 304.453 156.857 304.396 155.292 304.339L155.292 304.339L155.291 304.339L155.29 304.339L155.289 304.339L154.823 304.322C154.629 304.315 154.434 304.307 154.239 304.3C153.863 304.285 153.486 304.289 153.084 304.293H153.084C152.892 304.295 152.694 304.296 152.488 304.296C152.488 304.087 152.487 303.897 152.486 303.72L152.486 303.717V303.716C152.485 303.371 152.483 303.077 152.489 302.782C152.509 301.674 152.527 300.565 152.546 299.456C152.601 296.104 152.657 292.753 152.757 289.403C152.786 288.43 152.434 287.897 151.535 287.826C149.708 287.682 147.874 287.584 146.041 287.553C145.44 287.543 144.837 287.618 144.118 287.706L144.117 287.707L144.117 287.707C143.754 287.752 143.362 287.8 142.926 287.843C142.902 288.223 142.869 288.627 142.834 289.049C142.753 290.04 142.664 291.128 142.668 292.215C142.675 294.276 142.72 296.337 142.765 298.397C142.796 299.852 142.828 301.307 142.847 302.763C142.88 305.401 142.887 308.041 142.854 310.679C142.842 311.646 143.376 311.705 144.116 311.702C146.878 311.688 149.639 311.69 152.45 311.692ZM320.644 293.94C320.703 293.141 320.668 292.351 320.635 291.58C320.577 290.262 320.522 289 320.941 287.845C321.3 287.811 321.636 287.768 321.955 287.728L321.956 287.728L321.956 287.728C322.614 287.645 323.203 287.57 323.788 287.591C325.733 287.658 327.68 287.784 329.613 288.003C329.944 288.041 330.463 288.656 330.467 289.01C330.526 293.446 330.516 297.883 330.494 302.32C330.492 302.712 330.419 303.104 330.333 303.572L330.333 303.573L330.333 303.576C330.288 303.817 330.24 304.077 330.196 304.369H338.555V311.59C337.983 311.597 337.413 311.605 336.844 311.613L336.004 311.624C334.073 311.651 332.15 311.677 330.228 311.689C329.239 311.695 328.25 311.69 327.261 311.685C325.538 311.676 323.816 311.667 322.095 311.718C320.91 311.753 320.628 311.257 320.632 310.208C320.651 306.225 320.648 302.241 320.645 298.208C320.645 296.792 320.644 295.37 320.644 293.94ZM194.65 311.597C194.65 303.829 194.65 296.158 194.648 288.374L194.612 288.324C194.44 288.079 194.271 287.838 194.097 287.834C192.648 287.801 191.198 287.799 189.749 287.797C189.462 287.796 189.175 287.796 188.889 287.795C187.977 287.793 187.065 287.793 186.101 287.794H186.086C185.64 287.794 185.184 287.794 184.71 287.794V311.597H194.65ZM539.838 295.666V311.615H529.731C529.731 311.35 529.73 311.085 529.728 310.818C529.727 310.677 529.726 310.536 529.725 310.395V310.394C529.719 309.477 529.713 308.553 529.738 307.629C529.763 306.709 529.804 305.789 529.845 304.869L529.845 304.864C529.895 303.746 529.945 302.628 529.966 301.509C529.995 299.995 529.988 298.481 529.982 296.966V296.962C529.979 296.301 529.976 295.639 529.976 294.977C529.976 294.394 529.978 293.81 529.981 293.226C529.987 291.784 529.993 290.342 529.962 288.901C529.943 288.037 530.26 287.726 531.113 287.766C533.439 287.877 535.767 287.951 538.095 288.014C538.441 288.024 538.789 287.987 539.188 287.946C539.389 287.925 539.604 287.903 539.838 287.884V295.666ZM443.63 276.912C441.181 276.835 438.733 276.758 436.175 276.682C436.094 276.711 436.012 276.736 435.934 276.76C435.677 276.84 435.453 276.909 435.359 277.059C434.355 278.672 433.357 280.292 432.436 281.953C432.151 282.468 432.286 283.064 433.058 283.078C434.739 283.108 436.422 283.117 438.101 283.06C438.464 283.048 438.898 282.802 439.158 282.53C440.203 281.434 441.208 280.3 442.213 279.166L442.438 278.912C442.744 278.568 443.032 278.21 443.321 277.851C443.453 277.688 443.584 277.524 443.717 277.362L443.63 276.912Z" fill="black"></path>
</svg>
