<?xml version="1.0" encoding="UTF-8"?>
<svg xmlns="http://www.w3.org/2000/svg" width="700" height="440" viewBox="0 0 700 440" fill="none">
  <path fill-rule="evenodd" clip-rule="evenodd" d="M440.63 353.462C440.812 353.724 440.998 353.994 441.254 354.258C445.821 354.258 450.275 354.258 454.744 354.172C455.207 353.841 455.642 353.568 456.106 353.356C456.674 353.095 457.255 352.855 457.835 352.614C458.992 352.135 460.148 351.656 461.211 351.02C465.509 348.449 468.763 344.864 471.023 340.37C472.768 336.903 473.716 333.242 473.624 329.375C473.58 327.519 473.34 325.664 473.101 323.814C473.052 323.437 473.003 323.06 472.956 322.683C472.54 319.355 470.822 316.587 469.049 313.85C466.649 310.142 463.376 307.368 459.425 305.532C457.055 304.43 454.467 303.334 451.918 303.176C447.233 302.885 442.477 302.597 437.928 304.673C434.094 306.423 430.666 308.584 428.003 311.869C426.902 313.227 425.812 314.595 424.723 315.963L424.723 315.963L424.722 315.964L424.721 315.965L424.721 315.965L424.72 315.966L424.72 315.966C423.958 316.924 423.196 317.881 422.43 318.835C422.015 319.35 421.602 319.866 421.188 320.382C419.495 322.493 417.803 324.603 416.081 326.69C415.974 326.819 415.867 326.949 415.76 327.079C414.569 328.526 413.372 329.979 412.035 331.282C411.169 332.126 409.981 331.842 408.993 331.242C408.097 330.699 407.499 329.121 407.741 328.17C408.133 326.631 409.442 325.68 411.13 325.608L411.155 325.607C411.758 325.581 412.501 325.549 412.911 325.204C414.284 324.048 413.93 322.061 412.254 321.394C409.979 320.49 407.908 321.369 406.178 322.68C403.392 324.79 402.496 327.617 403.481 331.113C404.528 334.83 409.263 337.329 413.064 335.944C415.146 335.185 416.441 333.662 417.758 332.113L417.768 332.101L417.944 331.894L417.998 331.831C419.362 330.233 420.704 328.615 422.047 326.998L422.052 326.992L422.053 326.99L422.054 326.989L422.055 326.988L422.055 326.988L422.055 326.988L422.056 326.987C423.046 325.794 424.037 324.6 425.036 323.414C425.755 322.56 426.492 321.72 427.228 320.88C428.562 319.358 429.896 317.836 431.128 316.235C434.822 311.432 439.734 308.655 445.614 307.988C451.925 307.273 457.589 309.301 462.137 313.787C467.909 319.481 469.746 326.393 467.801 334.268C466.867 338.05 464.794 341.22 462.026 343.877C459.509 346.294 456.513 347.891 453.075 348.822C449.76 349.719 446.518 349.71 443.223 349.079C442.196 348.882 440.792 349.291 440.269 350.22C439.713 351.207 439.73 352.22 440.428 353.175C440.497 353.269 440.563 353.365 440.63 353.462ZM257.979 343.82V324.346H262.569V343.82H257.979ZM260.287 321.582C259.56 321.582 258.934 321.341 258.41 320.859C257.886 320.369 257.624 319.782 257.624 319.097C257.624 318.404 257.886 317.816 258.41 317.335C258.934 316.844 259.56 316.599 260.287 316.599C261.022 316.599 261.648 316.844 262.163 317.335C262.687 317.816 262.949 318.404 262.949 319.097C262.949 319.782 262.687 320.369 262.163 320.859C261.648 321.341 261.022 321.582 260.287 321.582ZM220.118 343.82V317.855H215.528V343.82H220.118ZM130.597 343.82V332.409C130.597 331.471 130.77 330.672 131.117 330.013C131.472 329.354 131.958 328.851 132.575 328.504C133.2 328.149 133.914 327.972 134.717 327.972C135.901 327.972 136.826 328.34 137.494 329.075C138.17 329.81 138.508 330.829 138.508 332.13V343.82H143.098V331.42C143.106 329.865 142.832 328.542 142.274 327.452C141.724 326.362 140.947 325.529 139.941 324.954C138.943 324.38 137.773 324.092 136.429 324.092C134.975 324.092 133.754 324.413 132.765 325.056C131.784 325.698 131.07 326.565 130.622 327.655H130.394V324.346H126.007V343.82H130.597ZM117.412 324.346V335.63C117.412 336.619 117.205 337.443 116.791 338.102C116.385 338.753 115.865 339.243 115.231 339.573C114.598 339.902 113.943 340.067 113.266 340.067C112.168 340.067 111.28 339.704 110.604 338.977C109.928 338.25 109.59 337.269 109.59 336.035V324.346H105V336.745C105 338.301 105.275 339.628 105.824 340.726C106.373 341.817 107.134 342.649 108.106 343.224C109.087 343.79 110.215 344.073 111.491 344.073C112.954 344.073 114.183 343.727 115.181 343.034C116.187 342.341 116.909 341.449 117.349 340.359H117.552V343.82H122.002V324.346H117.412ZM155.671 344.2C153.718 344.2 152.032 343.795 150.612 342.983C149.2 342.163 148.114 341.005 147.354 339.509C146.593 338.005 146.213 336.234 146.213 334.197C146.213 332.194 146.593 330.436 147.354 328.923C148.123 327.401 149.196 326.218 150.574 325.373C151.952 324.519 153.57 324.092 155.43 324.092C156.63 324.092 157.763 324.287 158.828 324.676C159.901 325.056 160.848 325.648 161.668 326.45C162.496 327.253 163.147 328.276 163.62 329.519C164.093 330.753 164.33 332.223 164.33 333.931V335.338H150.765C150.778 336.422 150.985 337.356 151.385 338.14C151.8 338.943 152.379 339.56 153.122 339.991C153.866 340.414 154.737 340.625 155.734 340.625C156.402 340.625 157.006 340.532 157.547 340.346C158.088 340.152 158.557 339.868 158.954 339.497C159.352 339.125 159.652 338.664 159.855 338.115L164.14 338.596C163.869 339.729 163.354 340.718 162.593 341.563C161.841 342.4 160.877 343.051 159.702 343.516C158.528 343.972 157.184 344.2 155.671 344.2ZM151.36 330.127C151.013 330.776 150.818 331.482 150.774 332.245H159.931C159.922 331.365 159.732 330.584 159.36 329.899C158.988 329.206 158.468 328.661 157.801 328.264C157.141 327.866 156.372 327.668 155.493 327.668C154.555 327.668 153.731 327.896 153.021 328.352C152.311 328.8 151.757 329.392 151.36 330.127ZM186.848 329.95L191.032 329.493C190.719 327.837 189.904 326.522 188.585 325.55C187.275 324.578 185.479 324.092 183.197 324.092C181.642 324.092 180.268 324.337 179.076 324.828C177.893 325.309 176.968 325.994 176.3 326.882C175.641 327.761 175.315 328.8 175.324 330C175.315 331.42 175.759 332.595 176.655 333.525C177.551 334.446 178.933 335.101 180.801 335.49L184.122 336.188C185.018 336.382 185.678 336.661 186.1 337.024C186.531 337.388 186.747 337.848 186.747 338.406C186.747 339.066 186.413 339.619 185.745 340.067C185.086 340.515 184.211 340.739 183.121 340.739C182.064 340.739 181.206 340.515 180.547 340.067C179.888 339.619 179.457 338.956 179.254 338.077L174.778 338.508C175.057 340.3 175.924 341.698 177.378 342.704C178.831 343.702 180.75 344.2 183.134 344.2C184.756 344.2 186.193 343.938 187.444 343.414C188.695 342.89 189.671 342.163 190.373 341.234C191.083 340.295 191.442 339.213 191.451 337.988C191.442 336.593 190.986 335.465 190.081 334.603C189.185 333.741 187.816 333.111 185.974 332.714L182.652 332.004C181.663 331.775 180.953 331.484 180.522 331.129C180.099 330.774 179.892 330.313 179.901 329.747C179.892 329.088 180.209 328.551 180.851 328.137C181.502 327.723 182.305 327.515 183.26 327.515C183.97 327.515 184.57 327.63 185.061 327.858C185.551 328.086 185.94 328.386 186.227 328.758C186.523 329.13 186.73 329.527 186.848 329.95ZM203.016 344.2C201.114 344.2 199.466 343.782 198.071 342.945C196.676 342.108 195.594 340.938 194.825 339.433C194.065 337.929 193.684 336.171 193.684 334.159C193.684 332.147 194.065 330.385 194.825 328.872C195.594 327.359 196.676 326.184 198.071 325.347C199.466 324.511 201.114 324.092 203.016 324.092C204.917 324.092 206.566 324.511 207.96 325.347C209.355 326.184 210.432 327.359 211.193 328.872C211.962 330.385 212.347 332.147 212.347 334.159C212.347 336.171 211.962 337.929 211.193 339.433C210.432 340.938 209.355 342.108 207.96 342.945C206.566 343.782 204.917 344.2 203.016 344.2ZM203.041 340.524C204.072 340.524 204.934 340.24 205.627 339.674C206.32 339.099 206.836 338.33 207.174 337.367C207.521 336.403 207.694 335.33 207.694 334.146C207.694 332.955 207.521 331.877 207.174 330.913C206.836 329.941 206.32 329.168 205.627 328.593C204.934 328.018 204.072 327.731 203.041 327.731C201.984 327.731 201.105 328.018 200.404 328.593C199.711 329.168 199.191 329.941 198.844 330.913C198.506 331.877 198.337 332.955 198.337 334.146C198.337 335.33 198.506 336.403 198.844 337.367C199.191 338.33 199.711 339.099 200.404 339.674C201.105 340.24 201.984 340.524 203.041 340.524ZM236.536 335.63V324.346H241.125V343.82H236.675V340.359H236.472C236.033 341.449 235.31 342.341 234.304 343.034C233.307 343.727 232.077 344.073 230.615 344.073C229.338 344.073 228.21 343.79 227.23 343.224C226.258 342.649 225.497 341.817 224.947 340.726C224.398 339.628 224.123 338.301 224.123 336.745V324.346H228.713V336.035C228.713 337.269 229.051 338.25 229.727 338.977C230.403 339.704 231.291 340.067 232.39 340.067C233.066 340.067 233.721 339.902 234.355 339.573C234.989 339.243 235.509 338.753 235.914 338.102C236.328 337.443 236.536 336.619 236.536 335.63ZM254.855 327.896V324.346H251.013V319.68H246.424V324.346H243.66V327.896H246.424V338.723C246.415 339.94 246.677 340.955 247.21 341.766C247.751 342.577 248.482 343.178 249.403 343.566C250.325 343.947 251.36 344.12 252.509 344.086C253.16 344.069 253.71 344.01 254.158 343.909C254.614 343.807 254.965 343.714 255.21 343.63L254.437 340.042C254.31 340.076 254.124 340.114 253.879 340.156C253.642 340.198 253.38 340.219 253.093 340.219C252.712 340.219 252.366 340.16 252.053 340.042C251.74 339.923 251.487 339.704 251.292 339.382C251.106 339.053 251.013 338.58 251.013 337.962V327.896H254.855ZM270.124 342.945C271.519 343.782 273.167 344.2 275.069 344.2C276.971 344.2 278.619 343.782 280.014 342.945C281.408 342.108 282.486 340.938 283.247 339.433C284.016 337.929 284.4 336.171 284.4 334.159C284.4 332.147 284.016 330.385 283.247 328.872C282.486 327.359 281.408 326.184 280.014 325.347C278.619 324.511 276.971 324.092 275.069 324.092C273.167 324.092 271.519 324.511 270.124 325.347C268.73 326.184 267.648 327.359 266.879 328.872C266.118 330.385 265.738 332.147 265.738 334.159C265.738 336.171 266.118 337.929 266.879 339.433C267.648 340.938 268.73 342.108 270.124 342.945ZM277.681 339.674C276.988 340.24 276.125 340.524 275.094 340.524C274.038 340.524 273.159 340.24 272.457 339.674C271.764 339.099 271.244 338.33 270.898 337.367C270.56 336.403 270.391 335.33 270.391 334.146C270.391 332.955 270.56 331.877 270.898 330.913C271.244 329.941 271.764 329.168 272.457 328.593C273.159 328.018 274.038 327.731 275.094 327.731C276.125 327.731 276.988 328.018 277.681 328.593C278.374 329.168 278.889 329.941 279.227 330.913C279.574 331.877 279.747 332.955 279.747 334.146C279.747 335.33 279.574 336.403 279.227 337.367C278.889 338.33 278.374 339.099 277.681 339.674ZM292.171 332.409V343.82H287.582V324.346H291.968V327.655H292.197C292.645 326.565 293.359 325.698 294.339 325.056C295.328 324.413 296.55 324.092 298.003 324.092C299.347 324.092 300.518 324.38 301.515 324.954C302.521 325.529 303.299 326.362 303.848 327.452C304.406 328.542 304.681 329.865 304.672 331.42V343.82H300.083V332.13C300.083 330.829 299.744 329.81 299.068 329.075C298.401 328.34 297.475 327.972 296.292 327.972C295.489 327.972 294.775 328.149 294.149 328.504C293.532 328.851 293.046 329.354 292.691 330.013C292.344 330.672 292.171 331.471 292.171 332.409ZM316.766 324.346V351.123H321.355V340.752H321.545C321.79 341.225 322.133 341.728 322.572 342.26C323.02 342.785 323.612 343.232 324.347 343.604C325.083 343.976 326.008 344.162 327.124 344.162C328.654 344.162 330.023 343.769 331.232 342.983C332.44 342.197 333.395 341.056 334.097 339.56C334.799 338.064 335.149 336.247 335.149 334.108C335.149 331.944 334.79 330.119 334.072 328.631C333.362 327.135 332.398 326.007 331.181 325.246C329.972 324.477 328.616 324.092 327.111 324.092C325.97 324.092 325.032 324.287 324.297 324.676C323.561 325.056 322.978 325.517 322.547 326.057C322.116 326.59 321.782 327.093 321.545 327.566H321.279V324.346H316.766ZM321.799 337.392C321.444 336.445 321.266 335.342 321.266 334.083C321.266 332.824 321.44 331.729 321.786 330.799C322.141 329.869 322.661 329.147 323.346 328.631C324.03 328.116 324.863 327.858 325.843 327.858C326.866 327.858 327.72 328.124 328.404 328.657C329.089 329.189 329.605 329.924 329.951 330.863C330.298 331.801 330.471 332.874 330.471 334.083C330.471 335.3 330.293 336.386 329.938 337.341C329.592 338.288 329.076 339.036 328.392 339.585C327.707 340.126 326.858 340.397 325.843 340.397C324.871 340.397 324.043 340.135 323.358 339.611C322.682 339.078 322.162 338.339 321.799 337.392ZM343.969 344.213C342.735 344.213 341.624 343.993 340.635 343.554C339.655 343.106 338.877 342.446 338.302 341.576C337.736 340.705 337.453 339.632 337.453 338.356C337.453 337.257 337.656 336.348 338.061 335.63C338.467 334.911 339.021 334.336 339.722 333.905C340.424 333.474 341.214 333.149 342.093 332.929C342.981 332.701 343.898 332.536 344.844 332.435C345.985 332.316 346.911 332.211 347.621 332.118C348.331 332.016 348.846 331.864 349.168 331.661C349.497 331.45 349.662 331.125 349.662 330.685V330.609C349.662 329.654 349.379 328.914 348.813 328.39C348.246 327.866 347.431 327.604 346.366 327.604C345.242 327.604 344.35 327.849 343.69 328.34C343.04 328.83 342.6 329.409 342.372 330.077L338.087 329.468C338.425 328.285 338.983 327.296 339.76 326.501C340.538 325.698 341.489 325.098 342.613 324.701C343.737 324.295 344.979 324.092 346.34 324.092C347.278 324.092 348.212 324.202 349.142 324.422C350.072 324.642 350.921 325.005 351.691 325.512C352.46 326.011 353.077 326.691 353.542 327.554C354.015 328.416 354.252 329.493 354.252 330.787V343.82H349.84V341.145H349.687C349.408 341.686 349.015 342.193 348.508 342.666C348.01 343.131 347.38 343.507 346.619 343.795C345.867 344.073 344.984 344.213 343.969 344.213ZM345.161 340.84C346.082 340.84 346.881 340.659 347.557 340.295C348.234 339.923 348.753 339.433 349.117 338.825C349.489 338.216 349.675 337.553 349.675 336.834V334.539C349.531 334.658 349.286 334.768 348.939 334.869C348.601 334.97 348.221 335.059 347.798 335.135C347.376 335.211 346.957 335.279 346.543 335.338C346.129 335.397 345.77 335.448 345.465 335.49C344.781 335.583 344.168 335.735 343.627 335.947C343.086 336.158 342.659 336.454 342.347 336.834C342.034 337.206 341.877 337.688 341.877 338.279C341.877 339.125 342.186 339.763 342.803 340.194C343.42 340.625 344.206 340.84 345.161 340.84ZM358.153 324.346V343.82H362.742V332.371C362.742 331.543 362.932 330.812 363.313 330.178C363.693 329.544 364.213 329.05 364.872 328.695C365.54 328.331 366.292 328.149 367.129 328.149C367.518 328.149 367.919 328.179 368.333 328.238C368.756 328.289 369.064 328.348 369.259 328.416V324.194C369.047 324.151 368.781 324.122 368.46 324.105C368.147 324.08 367.864 324.067 367.611 324.067C366.495 324.067 365.502 324.375 364.631 324.992C363.769 325.601 363.16 326.467 362.806 327.592H362.603V324.346H358.153ZM422.847 330.348L422.872 330.32L422.881 330.31C424.841 328.136 426.786 325.98 428.737 323.829C429.449 323.045 430.152 322.25 430.856 321.456L430.856 321.456L430.856 321.456C432.659 319.421 434.461 317.385 436.411 315.503C438.761 313.236 441.715 311.827 445.027 311.583C447.255 311.419 449.567 311.29 451.735 311.701C454.21 312.171 456.516 313.378 458.521 314.991C463.519 319.011 465.777 324.332 465.093 330.613C464.376 337.199 460.841 342.06 454.702 344.785C451.112 346.379 447.346 346.67 443.506 345.754C442.599 345.537 441.611 344.125 441.641 343.048C441.672 341.925 442.696 340.795 443.835 340.684C444.314 340.638 444.838 340.587 445.282 340.727C450.761 342.446 457.27 338.139 459.128 333.369C461.458 327.384 459.112 321.346 453.928 318.201C448.676 315.015 442.438 316.414 438.454 320.671C435.918 323.38 433.367 326.077 430.816 328.773L430.815 328.774L430.815 328.774L430.814 328.775L430.813 328.776L430.812 328.777C429.325 330.349 427.838 331.921 426.354 333.496C425.733 334.154 425.122 334.824 424.512 335.493L424.509 335.496C423.277 336.846 422.046 338.196 420.731 339.458C417.846 342.226 414.379 343.425 410.314 343.395C406.191 343.365 402.828 341.814 400.084 338.984C396.373 335.157 395.171 330.51 396.405 325.285C397.525 320.544 400.392 317.331 404.781 315.233C407.121 314.114 409.51 314.181 411.906 314.248C412.408 314.262 412.909 314.276 413.411 314.279C414.54 314.287 415.349 315.753 415.125 316.935C414.877 318.234 413.776 319.073 412.501 318.769C407.608 317.602 402.363 321.363 400.85 325.922C399.38 330.35 402.441 336.335 406.633 338.068C410.812 339.796 415.766 338.449 418.357 335.29C418.634 334.952 418.937 334.635 419.259 334.299C419.412 334.14 419.568 333.976 419.728 333.804C420.774 332.646 421.813 331.494 422.847 330.348ZM396.107 312.401C390.87 317.279 388.37 323.224 388.968 330.519C389.053 331.037 389.123 331.55 389.193 332.056L389.193 332.057L389.193 332.059C389.361 333.28 389.523 334.462 389.868 335.589C391.137 339.732 393.609 343.132 396.938 345.861C400.356 348.664 404.366 350.238 408.742 350.574C414.291 351 419.545 349.784 423.838 346.12C427.384 343.093 430.773 339.881 434.161 336.67C435.185 335.699 436.209 334.729 437.237 333.764C438.463 332.613 439.664 331.436 440.865 330.26L440.867 330.258C442.282 328.872 443.698 327.485 445.153 326.141C446.844 324.58 447.806 324.609 449.626 325.609C452.012 326.92 451.81 330.558 449.805 331.783C448.865 332.357 447.937 332.363 447.009 332.368C446.578 332.371 446.147 332.373 445.715 332.433L445.633 332.444C445.113 332.515 444.415 332.611 444.228 332.937C443.798 333.688 443.402 334.629 443.468 335.454C443.559 336.575 444.496 337.347 445.613 337.457L445.75 337.47C447.11 337.605 448.55 337.747 449.841 337.428C455.74 335.971 458.014 330.154 455.922 325.242C453.172 318.785 445.196 318.004 440.616 323.217C438.712 325.384 436.649 327.413 434.587 329.441L434.587 329.441L434.587 329.441L434.586 329.442C433.959 330.059 433.332 330.675 432.71 331.295C431.7 332.301 430.672 333.289 429.643 334.276L429.643 334.276L429.643 334.276L429.643 334.277L429.642 334.277C428.037 335.817 426.433 337.358 424.902 338.968C421.83 342.2 418.474 344.786 413.938 345.663C410.323 346.362 406.875 346.036 403.577 344.545C399.841 342.855 397.08 340.123 395.181 336.426C393.325 332.813 392.967 329.058 393.718 325.19C394.324 322.069 395.797 319.312 398.023 316.992C401.251 313.628 405.113 311.625 409.841 311.566C410.736 311.555 411.632 311.615 412.528 311.675C413.199 311.721 413.871 311.766 414.542 311.781C415.635 311.806 416.548 310.843 416.629 309.7C416.71 308.552 415.85 307.238 414.804 307.216C414.14 307.203 413.473 307.177 412.805 307.151C410.648 307.066 408.482 306.981 406.392 307.322C402.531 307.952 399.035 309.673 396.107 312.401ZM568.044 324.213C568.564 325.931 568.707 327.567 568.575 329.276C568.5 330.239 568.242 330.499 567.304 330.494C562.375 330.467 557.446 330.47 552.517 330.474C550.935 330.475 549.353 330.476 547.771 330.476L546.217 330.476C546.298 332.151 547.162 333.29 548.044 334.34C551.174 338.066 555.981 338.177 559.8 335.409C560.026 335.245 560.222 335.029 560.395 334.808L560.402 334.798L560.403 334.798C560.969 334.074 561.247 333.719 561.563 333.681C561.866 333.644 562.205 333.9 562.87 334.402L562.92 334.44C563.686 335.018 564.471 335.573 565.282 336.146C565.651 336.407 566.025 336.671 566.405 336.944C565.19 338.742 563.693 340.092 561.876 341.057C559.297 342.427 556.454 342.65 553.603 342.865C551.183 343.047 549.15 342.089 547.118 340.974C545.45 340.06 543.864 339.054 542.72 337.514C542.101 336.681 541.473 335.787 541.142 334.82C541.062 334.589 540.982 334.357 540.901 334.126L540.899 334.121C540.207 332.137 539.514 330.151 539.632 327.955C539.797 324.871 540.599 322.134 542.544 319.625C545.786 315.442 550.09 313.639 555.169 313.796C558.423 313.896 561.343 315.289 563.893 317.43C566.032 319.225 567.169 321.569 568.044 324.213ZM554.794 319.313C550.638 319.313 546.746 322.105 546.462 325.268H562.134C561.608 322.141 557.715 319.165 554.794 319.313ZM572.051 339.675C573.861 341.568 576.141 342.61 578.98 342.365C580.356 342.365 581.724 342.364 583.086 342.362H583.088H583.091C587.009 342.358 590.879 342.353 594.749 342.387C595.728 342.395 596.034 342.083 595.97 341.138C595.9 340.091 595.892 339.031 595.972 337.986C596.049 336.993 595.654 336.759 594.722 336.766C589.506 336.804 584.289 336.791 579.072 336.774L578.985 336.774C578.489 336.773 577.901 336.773 577.57 336.509C577.127 336.156 576.633 335.477 576.685 334.994C576.743 334.441 577.27 333.665 577.776 333.477C579.507 332.834 581.264 332.261 583.02 331.687L583.021 331.687L583.022 331.686C584.041 331.353 585.06 331.021 586.074 330.674C586.301 330.597 586.528 330.52 586.756 330.444L586.759 330.443L586.759 330.442C588.044 330.01 589.336 329.575 590.539 328.973C592.177 328.154 593.836 327.311 594.855 325.616C597.811 320.699 594.706 314.571 589.399 314.278C586.083 314.094 582.755 314.135 579.427 314.175C577.778 314.195 576.129 314.215 574.481 314.208C573.609 314.204 573.361 314.602 573.379 315.397C573.401 316.403 573.396 317.41 573.392 318.472C573.39 318.929 573.387 319.397 573.387 319.879C573.527 319.895 573.671 319.915 573.819 319.936C574.15 319.984 574.499 320.033 574.848 320.034C576.414 320.039 577.98 320.039 579.546 320.039H579.548C582.187 320.038 584.826 320.038 587.465 320.062C588.081 320.068 588.768 320.217 589.294 320.522C590.311 321.11 590.386 321.827 589.443 322.497C588.584 323.107 587.576 323.536 586.587 323.925C585.164 324.484 583.734 325.022 582.303 325.56C580.809 326.122 579.316 326.683 577.832 327.269C576.358 327.85 574.922 328.529 573.49 329.209C569.731 330.996 569.742 337.261 572.051 339.675ZM491.37 342.367C490.565 342.367 489.77 342.365 488.982 342.363C486.958 342.357 484.98 342.352 483.002 342.383C482.156 342.396 481.856 342.126 481.891 341.274C481.93 340.298 481.922 339.32 481.914 338.28C481.91 337.826 481.906 337.359 481.906 336.876C481.988 336.87 482.084 336.86 482.189 336.85C482.452 336.823 482.776 336.791 483.101 336.79C486.486 336.786 489.871 336.786 493.256 336.786C495.126 336.786 496.996 336.786 498.865 336.785C500.209 336.784 501.12 336.234 501.237 335.365C501.339 334.605 500.306 333.469 499.352 333.13C498.332 332.767 497.322 332.376 496.312 331.984L496.31 331.984L496.31 331.984C495.538 331.685 494.765 331.385 493.988 331.099C493.499 330.919 493.011 330.736 492.523 330.553C490.878 329.936 489.233 329.32 487.556 328.805C483.262 327.485 481.099 323.759 482.039 319.511C482.674 316.643 485.409 314.316 488.715 314.246C491.685 314.183 494.656 314.193 497.627 314.203C499.547 314.21 501.468 314.216 503.388 314.203C504.248 314.197 504.526 314.485 504.487 315.323C504.431 316.533 504.427 317.75 504.488 318.96C504.532 319.825 504.202 320.064 503.369 320.058C501.2 320.042 499.032 320.043 496.863 320.044C494.625 320.045 492.388 320.046 490.151 320.028C489.131 320.02 488.285 320.12 488.007 321.288C487.718 322.506 488.531 322.978 489.44 323.315C490.732 323.793 492.029 324.258 493.326 324.722C494.606 325.181 495.886 325.639 497.16 326.111C497.67 326.299 498.181 326.483 498.693 326.667C500.335 327.257 501.978 327.848 503.548 328.591C506.686 330.076 508.304 334.251 506.974 337.548C505.676 340.764 503.195 342.433 500.195 342.533C498.203 342.6 496.207 342.528 494.171 342.455C493.247 342.422 492.314 342.388 491.37 342.367ZM510.75 330.181C510.689 332.795 511.206 335.217 512.314 337.642C512.555 337.895 512.783 338.156 513.008 338.413C513.554 339.038 514.081 339.64 514.727 340.058C514.914 340.178 515.102 340.302 515.291 340.426C516.626 341.302 518.02 342.216 519.504 342.514C523.038 343.223 526.588 343.17 529.951 341.319C533.37 339.437 535.491 336.573 535.691 332.835C535.908 328.802 535.864 324.756 535.82 320.709C535.8 318.848 535.78 316.988 535.785 315.128C535.787 314.448 535.539 314.195 534.861 314.21C533.447 314.241 532.029 314.268 530.617 314.201C529.7 314.158 529.441 314.482 529.449 315.38C529.489 319.787 529.487 324.195 529.456 328.602C529.455 328.775 529.454 328.947 529.454 329.121C529.451 330.362 529.448 331.624 529.158 332.804C528.912 333.811 528.222 334.779 527.53 335.594C525.924 337.487 523.757 337.191 521.693 336.909C521.537 336.888 521.382 336.867 521.227 336.847C520.319 336.728 519.317 336.155 518.667 335.488C517.434 334.224 516.855 332.574 516.852 330.777L516.849 329.169C516.841 324.57 516.834 319.97 516.867 315.371C516.874 314.463 516.595 314.152 515.69 314.202C514.481 314.269 513.261 314.28 512.053 314.2C511.029 314.131 510.753 314.505 510.762 315.503L510.77 316.365C510.814 320.97 510.857 325.578 510.75 330.181Z" fill="#05040B"></path>
  <path fill-rule="evenodd" clip-rule="evenodd" d="M127.44 86H105V199.42H127.44V193.998C128.896 194.77 130.147 195.488 131.289 196.144L131.289 196.144C135.868 198.773 138.697 200.398 145.977 200.398C155.124 200.398 172.25 196.188 174.881 170.274L175.735 157.347C175.735 157.347 175.735 153.2 174.881 142.468C174.028 131.736 164.99 115.541 146.343 116.125C138.217 115.7 134.164 117.556 127.44 122.499V86ZM127.44 143.415V173.388C131.794 180.018 134.421 182.33 140.367 182.592C152.628 181.117 154.151 173.388 155.124 157.347C154.472 140.919 151.969 134.771 140.367 134.053C131.911 134.128 130.15 137.379 127.44 143.415ZM352.33 86.4859H363.794H375.258H400.991H401.113V86.4862C412.136 86.5472 434.912 94.8573 435.383 120.512C435.76 141.071 421.5 147.442 415.644 150.058C414.866 150.405 414.236 150.687 413.809 150.926L439.895 199.422H414.04L391.974 154.298H375.258V199.418H352.33V86.4859ZM375.258 135.516V105.267H401.113V105.182C402.364 105.573 412.828 109.204 412.943 121.244C413.042 131.656 402.981 134.731 399.218 135.516H375.258ZM450.139 86.4859H473.067V199.418H450.139V86.4859ZM336.72 119.172H313.792V199.42H336.72V119.172ZM267.447 94.2929H290.374V119.172H303.791V135.514H290.374V176.98H267.447V135.514H258.911V119.172H267.447V94.2929ZM251.837 141.49H251.836V199.421H229.396V164.055H206.956V164.025C202.845 167.145 200.918 169.098 201.59 174.299C203.021 180.719 204.908 183.2 214.639 183.446C222.31 183.527 225.603 181.774 229.396 175.884V193.69C223.381 198.38 219.331 200.049 210.249 200.398C191.631 198.651 183.41 195.2 181.954 174.299C183.37 156.035 189.696 151.644 206.956 150.162V150.151H207.078H229.396V141.369H229.459C226.119 134.604 222.442 133.405 214.274 133.197C206.291 133.39 203.741 135.678 199.366 139.602L199.029 139.904L185.248 127.465C193.32 118.52 200.221 116.141 216.225 116.001C237.768 116.48 251.837 127.465 251.837 141.49ZM491.361 86.4859H514.289V86.8588L544.047 147.589L573.072 86.8663V86.4859H596V199.418H573.072V135.018L551.486 176.371H536.119L514.289 133.545V199.418H491.361V86.4859ZM303.668 182.469C294.675 182.434 291.452 181.412 290.374 176.981H267.447C270.999 194.097 281.228 199.543 289.277 199.543H303.668V182.469ZM313.792 86H336.72V102.586H313.792V86ZM294.282 233.881H291.58V238.564H294.282V256.388H299.138V238.564H302.77V233.881H299.138V232.291C299.138 231.133 299.293 230.356 299.603 229.96C299.913 229.564 300.412 229.367 301.102 229.367C301.82 229.367 302.573 229.48 303.361 229.706L303.994 225.552C302.671 225.043 301.32 224.789 299.941 224.789C298.674 224.789 297.604 225.05 296.732 225.573C295.873 226.096 295.247 226.816 294.852 227.735C294.472 228.653 294.282 230.137 294.282 232.185V233.881ZM105 256.388V225.319H115.789C118.548 225.319 120.518 225.601 121.7 226.166C122.883 226.717 123.854 227.685 124.614 229.07C125.374 230.44 125.754 232.086 125.754 234.008C125.754 236.438 125.17 238.395 124.002 239.878C122.848 241.362 121.201 242.295 119.061 242.676C120.159 243.467 121.067 244.336 121.785 245.283C122.503 246.215 123.481 247.897 124.72 250.327L127.802 256.388H121.7L117.985 249.627C116.647 247.183 115.74 245.657 115.261 245.05C114.782 244.428 114.276 244.004 113.741 243.778C113.206 243.538 112.347 243.418 111.165 243.418H110.109V256.388H105ZM110.109 238.459H113.91C116.232 238.459 117.71 238.36 118.343 238.162C118.977 237.95 119.491 237.533 119.885 236.911C120.279 236.29 120.476 235.463 120.476 234.432C120.476 233.443 120.279 232.652 119.885 232.058C119.491 231.451 118.956 231.034 118.28 230.808C117.802 230.652 116.415 230.575 114.121 230.575H110.109V238.459ZM139.912 249.225L144.747 250.221C144.099 252.481 143.093 254.163 141.728 255.265C140.362 256.353 138.701 256.897 136.745 256.897C134.028 256.897 131.931 255.985 130.453 254.163C128.708 252.043 127.835 249.076 127.835 245.262C127.835 241.503 128.715 238.494 130.474 236.233C131.966 234.326 133.895 233.372 136.259 233.372C138.891 233.372 140.953 234.347 142.445 236.297C144.163 238.529 145.021 241.821 145.021 246.173L145 246.851H132.818C132.846 248.631 133.24 250.009 134 250.984C134.774 251.959 135.703 252.446 136.787 252.446C138.349 252.446 139.391 251.372 139.912 249.225ZM140.186 243.206C140.144 241.454 139.771 240.14 139.067 239.264C138.364 238.374 137.526 237.929 136.555 237.929C135.527 237.929 134.662 238.388 133.958 239.306C133.24 240.239 132.888 241.539 132.902 243.206H140.186ZM150.839 249.055L145.962 249.967C146.441 252.227 147.433 253.951 148.939 255.138C150.445 256.31 152.387 256.897 154.766 256.897C157.384 256.897 159.432 256.19 160.91 254.777C162.402 253.365 163.148 251.57 163.148 249.394C163.148 247.586 162.669 246.138 161.712 245.05C160.741 243.962 158.897 243.036 156.181 242.273C153.76 241.595 152.317 241.086 151.853 240.747C151.388 240.422 151.156 240.013 151.156 239.518C151.156 238.967 151.409 238.522 151.916 238.183C152.423 237.83 153.274 237.653 154.471 237.653C156.371 237.653 157.525 238.557 157.933 240.366L162.515 239.327C162.008 237.236 161.128 235.725 159.876 234.792C158.623 233.845 156.793 233.372 154.386 233.372C151.867 233.372 149.945 234.001 148.622 235.258C147.299 236.516 146.638 238.19 146.638 240.281C146.638 242.372 147.313 244.018 148.664 245.219C149.748 246.18 152.289 247.19 156.286 248.25C157.075 248.462 157.602 248.709 157.87 248.992C158.123 249.274 158.25 249.663 158.25 250.157C158.25 250.878 157.961 251.464 157.384 251.916C156.807 252.368 155.934 252.595 154.766 252.595C152.57 252.595 151.261 251.415 150.839 249.055ZM164.954 244.817C164.954 242.612 165.391 240.606 166.263 238.798C167.136 236.989 168.276 235.633 169.684 234.728C171.091 233.824 172.675 233.372 174.434 233.372C177.39 233.372 179.713 234.538 181.402 236.869C183.091 239.186 183.935 241.899 183.935 245.007C183.935 247.324 183.492 249.415 182.605 251.281C181.732 253.146 180.578 254.551 179.142 255.498C177.721 256.431 176.159 256.897 174.455 256.897C171.725 256.897 169.459 255.851 167.657 253.76C165.855 251.669 164.954 248.688 164.954 244.817ZM169.937 245.134C169.937 247.409 170.381 249.133 171.267 250.306C172.154 251.464 173.224 252.043 174.476 252.043C175.701 252.043 176.75 251.457 177.622 250.284C178.495 249.112 178.931 247.381 178.931 245.092C178.931 242.86 178.488 241.157 177.601 239.984C176.714 238.812 175.652 238.225 174.413 238.225C173.189 238.225 172.133 238.812 171.246 239.984C170.374 241.157 169.937 242.874 169.937 245.134ZM198.536 253.018V256.388H203.054V233.881H198.198V243.375C198.198 246.427 198.086 248.405 197.861 249.31C197.649 250.2 197.199 250.934 196.509 251.514C195.82 252.079 195.067 252.361 194.25 252.361C193.532 252.361 192.92 252.142 192.413 251.704C191.907 251.266 191.576 250.652 191.421 249.861C191.28 249.055 191.21 247.176 191.21 244.223V233.881H186.333V248.123C186.333 250.355 186.565 252.058 187.03 253.23C187.508 254.403 188.226 255.307 189.183 255.943C190.14 256.579 191.224 256.897 192.434 256.897C193.631 256.897 194.778 256.558 195.876 255.879C196.974 255.187 197.861 254.233 198.536 253.018ZM211.49 256.388H206.613V233.881H211.131V237.081C211.906 235.583 212.595 234.594 213.2 234.114C213.82 233.619 214.531 233.372 215.333 233.372C216.445 233.372 217.508 233.747 218.521 234.495L217.001 239.688C216.199 239.038 215.438 238.713 214.721 238.713C214.045 238.713 213.447 238.967 212.926 239.476C212.419 239.97 212.053 240.875 211.828 242.189C211.603 243.503 211.49 245.919 211.49 249.437V256.388ZM230.567 241.595L235.36 240.535C234.769 238.049 233.791 236.233 232.425 235.089C231.074 233.944 229.322 233.372 227.168 233.372C224.508 233.372 222.354 234.382 220.707 236.403C219.075 238.409 218.258 241.341 218.258 245.198C218.258 248.419 218.983 251.175 220.433 253.463C221.883 255.752 224.107 256.897 227.105 256.897C231.792 256.897 234.628 254.184 235.613 248.758L230.821 247.762C230.567 249.359 230.145 250.475 229.554 251.111C228.963 251.733 228.21 252.043 227.295 252.043C226.07 252.043 225.092 251.492 224.36 250.39C223.628 249.288 223.262 247.402 223.262 244.732C223.262 242.316 223.628 240.599 224.36 239.582C225.092 238.564 226.056 238.056 227.253 238.056C229.11 238.056 230.215 239.236 230.567 241.595ZM248.42 249.225L253.255 250.221C252.607 252.481 251.601 254.163 250.235 255.265C248.87 256.353 247.209 256.897 245.253 256.897C242.536 256.897 240.439 255.985 238.961 254.163C237.216 252.043 236.343 249.076 236.343 245.262C236.343 241.503 237.223 238.494 238.982 236.233C240.474 234.326 242.402 233.372 244.767 233.372C247.399 233.372 249.461 234.347 250.953 236.297C252.67 238.529 253.529 241.821 253.529 246.173L253.508 246.851H241.326C241.354 248.631 241.748 250.009 242.508 250.984C243.282 251.959 244.211 252.446 245.295 252.446C246.857 252.446 247.899 251.372 248.42 249.225ZM248.694 243.206C248.652 241.454 248.279 240.14 247.575 239.264C246.871 238.374 246.034 237.929 245.063 237.929C244.035 237.929 243.17 238.388 242.466 239.306C241.748 240.239 241.396 241.539 241.41 243.206H248.694ZM264.637 225.319V256.388H269.746V225.319H264.637ZM290.069 256.388H285.192V244.901C285.192 242.598 285.1 241.065 284.917 240.302C284.735 239.539 284.39 238.953 283.883 238.543C283.39 238.134 282.827 237.929 282.194 237.929C281.378 237.929 280.639 238.197 279.977 238.734C279.315 239.257 278.851 239.984 278.584 240.917C278.316 241.849 278.182 243.609 278.182 246.194V256.388H273.305V233.881H277.823V237.187C278.626 235.915 279.527 234.962 280.526 234.326C281.539 233.69 282.658 233.372 283.883 233.372C285.305 233.372 286.501 233.747 287.472 234.495C288.457 235.23 289.133 236.184 289.499 237.356C289.879 238.515 290.069 240.196 290.069 242.4V256.388ZM303.098 244.817C303.098 242.612 303.535 240.606 304.407 238.798C305.28 236.989 306.42 235.633 307.828 234.728C309.235 233.824 310.819 233.372 312.578 233.372C315.534 233.372 317.856 234.538 319.546 236.869C321.235 239.186 322.079 241.899 322.079 245.007C322.079 247.324 321.636 249.415 320.749 251.281C319.876 253.146 318.722 254.551 317.286 255.498C315.865 256.431 314.302 256.897 312.599 256.897C309.869 256.897 307.603 255.851 305.801 253.76C303.999 251.669 303.098 248.688 303.098 244.817ZM308.081 245.134C308.081 247.409 308.524 249.133 309.411 250.306C310.298 251.464 311.368 252.043 312.62 252.043C313.845 252.043 314.894 251.457 315.766 250.284C316.639 249.112 317.075 247.381 317.075 245.092C317.075 242.86 316.632 241.157 315.745 239.984C314.858 238.812 313.796 238.225 312.557 238.225C311.333 238.225 310.277 238.812 309.39 239.984C308.517 241.157 308.081 242.874 308.081 245.134ZM324.392 256.388H329.269V249.437C329.269 245.919 329.382 243.503 329.607 242.189C329.832 240.875 330.198 239.97 330.705 239.476C331.226 238.967 331.824 238.713 332.5 238.713C333.218 238.713 333.978 239.038 334.78 239.688L336.3 234.495C335.287 233.747 334.224 233.372 333.112 233.372C332.31 233.372 331.599 233.619 330.98 234.114C330.374 234.594 329.685 235.583 328.91 237.081V233.881H324.392V256.388ZM336.734 233.881H341.21V236.954C342.012 235.753 342.892 234.856 343.849 234.262C344.806 233.669 345.841 233.372 346.953 233.372C348.135 233.372 349.156 233.669 350.014 234.262C350.887 234.856 351.598 235.753 352.147 236.954C352.963 235.753 353.836 234.856 354.765 234.262C355.708 233.669 356.707 233.372 357.763 233.372C359.016 233.372 360.092 233.676 360.993 234.283C361.908 234.877 362.598 235.732 363.062 236.848C363.541 237.964 363.78 239.681 363.78 241.998V256.388H358.903V243.524C358.903 241.277 358.706 239.787 358.312 239.052C357.918 238.303 357.256 237.929 356.327 237.929C355.243 237.929 354.371 238.451 353.709 239.497C353.048 240.528 352.717 242.556 352.717 245.579V256.388H347.84V244.054C347.84 241.609 347.706 240.034 347.438 239.327C347.087 238.395 346.376 237.929 345.306 237.929C344.588 237.929 343.927 238.169 343.321 238.649C342.716 239.13 342.28 239.836 342.012 240.769C341.745 241.687 341.611 243.248 341.611 245.452V256.388H336.734V233.881ZM366.579 239.773L370.991 240.747C371.301 239.659 371.702 238.918 372.195 238.522C372.702 238.126 373.391 237.929 374.264 237.929C375.123 237.929 375.784 238.056 376.249 238.31C376.727 238.55 377.051 238.868 377.22 239.264C377.403 239.645 377.494 240.458 377.494 241.701C376.608 242.153 375.038 242.641 372.786 243.163C370.928 243.601 369.577 244.103 368.732 244.668C367.888 245.233 367.233 245.989 366.769 246.936C366.304 247.883 366.072 248.992 366.072 250.263C366.072 252.27 366.642 253.88 367.782 255.095C368.922 256.296 370.386 256.897 372.174 256.897C373.243 256.897 374.25 256.65 375.193 256.155C376.15 255.66 377.044 254.919 377.874 253.93L378.508 256.388H383.322C382.899 255.314 382.611 254.304 382.456 253.357C382.301 252.397 382.224 250.941 382.224 248.992L382.266 242.04C382.266 239.412 382.034 237.604 381.569 236.615C381.105 235.612 380.33 234.82 379.247 234.241C378.163 233.662 376.593 233.372 374.538 233.372C372.23 233.372 370.457 233.874 369.218 234.877C367.993 235.866 367.114 237.498 366.579 239.773ZM374.602 246.47C375.911 246.131 376.875 245.834 377.494 245.579V246.766C377.494 248.476 377.361 249.656 377.093 250.306C376.84 250.956 376.375 251.521 375.7 252.001C375.024 252.467 374.341 252.7 373.652 252.7C372.878 252.7 372.23 252.411 371.709 251.832C371.203 251.238 370.949 250.51 370.949 249.649C370.949 248.886 371.181 248.264 371.646 247.784C372.11 247.303 373.096 246.865 374.602 246.47ZM394.185 233.881V238.628H390.871V247.699C390.871 249.663 390.92 250.8 391.018 251.111C391.216 251.676 391.617 251.959 392.222 251.959C392.672 251.959 393.32 251.768 394.164 251.386L394.587 256.007C393.461 256.6 392.187 256.897 390.765 256.897C389.526 256.897 388.534 256.6 387.788 256.007C387.042 255.413 386.543 254.558 386.289 253.442C386.092 252.623 385.994 250.956 385.994 248.441V238.628H383.756V233.881H385.994V229.409L390.871 225.933V233.881H394.185ZM396.309 225.319V230.829H401.186V225.319H396.309ZM401.186 233.881H396.309V256.388H401.186V233.881ZM403.752 244.817C403.752 242.612 404.189 240.606 405.061 238.798C405.934 236.989 407.074 235.633 408.482 234.728C409.889 233.824 411.473 233.372 413.232 233.372C416.188 233.372 418.51 234.538 420.199 236.869C421.888 239.186 422.733 241.899 422.733 245.007C422.733 247.324 422.29 249.415 421.403 251.281C420.53 253.146 419.376 254.551 417.94 255.498C416.519 256.431 414.956 256.897 413.253 256.897C410.522 256.897 408.256 255.851 406.455 253.76C404.653 251.669 403.752 248.688 403.752 244.817ZM408.735 245.134C408.735 247.409 409.178 249.133 410.065 250.306C410.952 251.464 412.022 252.043 413.274 252.043C414.499 252.043 415.547 251.457 416.42 250.284C417.293 249.112 417.729 247.381 417.729 245.092C417.729 242.86 417.286 241.157 416.399 239.984C415.512 238.812 414.45 238.225 413.211 238.225C411.986 238.225 410.931 238.812 410.044 239.984C409.171 241.157 408.735 242.874 408.735 245.134ZM437.102 256.388H441.979V242.4C441.979 240.196 441.789 238.515 441.409 237.356C441.043 236.184 440.367 235.23 439.382 234.495C438.411 233.747 437.214 233.372 435.793 233.372C434.568 233.372 433.449 233.69 432.436 234.326C431.436 234.962 430.535 235.915 429.733 237.187V233.881H425.215V256.388H430.092V246.194C430.092 243.609 430.226 241.849 430.493 240.917C430.761 239.984 431.225 239.257 431.887 238.734C432.548 238.197 433.287 237.929 434.104 237.929C434.737 237.929 435.3 238.134 435.793 238.543C436.299 238.953 436.644 239.539 436.827 240.302C437.01 241.065 437.102 242.598 437.102 244.901V256.388ZM454.164 256.388V225.319H461.828L466.43 246.512L470.991 225.319H478.676V256.388H473.925V231.931L468.879 256.388H463.939L458.935 231.931V256.388H454.164ZM482.636 238.798C481.763 240.606 481.327 242.612 481.327 244.817C481.327 248.688 482.228 251.669 484.029 253.76C485.831 255.851 488.097 256.897 490.828 256.897C492.531 256.897 494.093 256.431 495.515 255.498C496.951 254.551 498.105 253.146 498.977 251.281C499.864 249.415 500.308 247.324 500.308 245.007C500.308 241.899 499.463 239.186 497.774 236.869C496.085 234.538 493.762 233.372 490.807 233.372C489.047 233.372 487.464 233.824 486.056 234.728C484.649 235.633 483.509 236.989 482.636 238.798ZM487.64 250.306C486.753 249.133 486.31 247.409 486.31 245.134C486.31 242.874 486.746 241.157 487.619 239.984C488.505 238.812 489.561 238.225 490.786 238.225C492.024 238.225 493.087 238.812 493.974 239.984C494.86 241.157 495.304 242.86 495.304 245.092C495.304 247.381 494.867 249.112 493.995 250.284C493.122 251.457 492.073 252.043 490.849 252.043C489.596 252.043 488.526 251.464 487.64 250.306ZM519.701 256.388H515.162V253.082C514.416 254.354 513.536 255.307 512.523 255.943C511.509 256.579 510.468 256.897 509.398 256.897C507.343 256.897 505.548 255.872 504.014 253.824C502.494 251.761 501.734 248.822 501.734 245.007C501.734 241.164 502.48 238.268 503.972 236.318C505.464 234.354 507.301 233.372 509.482 233.372C510.51 233.372 511.467 233.633 512.354 234.156C513.255 234.679 514.078 235.463 514.824 236.509V225.319H519.701V256.388ZM506.717 244.647C506.717 246.682 506.886 248.2 507.223 249.204C507.575 250.193 508.068 250.941 508.701 251.45C509.349 251.945 510.074 252.192 510.876 252.192C511.946 252.192 512.875 251.613 513.663 250.454C514.451 249.295 514.845 247.55 514.845 245.219C514.845 242.634 514.458 240.776 513.684 239.645C512.924 238.501 511.953 237.929 510.77 237.929C509.644 237.929 508.687 238.487 507.899 239.603C507.111 240.719 506.717 242.4 506.717 244.647ZM538.694 250.221L533.859 249.225C533.338 251.372 532.296 252.446 530.734 252.446C529.65 252.446 528.721 251.959 527.947 250.984C527.187 250.009 526.793 248.631 526.765 246.851H538.947L538.968 246.173C538.968 241.821 538.11 238.529 536.392 236.297C534.9 234.347 532.838 233.372 530.206 233.372C527.842 233.372 525.913 234.326 524.421 236.233C522.662 238.494 521.782 241.503 521.782 245.262C521.782 249.076 522.655 252.043 524.4 254.163C525.878 255.985 527.975 256.897 530.692 256.897C532.648 256.897 534.309 256.353 535.675 255.265C537.04 254.163 538.046 252.481 538.694 250.221ZM533.014 239.264C533.718 240.14 534.091 241.454 534.133 243.206H526.849C526.835 241.539 527.187 240.239 527.905 239.306C528.609 238.388 529.474 237.929 530.502 237.929C531.473 237.929 532.311 238.374 533.014 239.264ZM541.619 256.388V225.319H546.496V256.388H541.619ZM550.203 225.319V230.829H555.08V225.319H550.203ZM555.08 233.881H550.203V256.388H555.08V233.881ZM575.508 256.388H570.631V244.901C570.631 242.598 570.54 241.065 570.357 240.302C570.174 239.539 569.829 238.953 569.322 238.543C568.829 238.134 568.266 237.929 567.633 237.929C566.817 237.929 566.078 238.197 565.416 238.734C564.755 239.257 564.29 239.984 564.023 240.917C563.755 241.849 563.622 243.609 563.622 246.194V256.388H558.744V233.881H563.263V237.187C564.065 235.915 564.966 234.962 565.965 234.326C566.979 233.69 568.098 233.372 569.322 233.372C570.744 233.372 571.94 233.747 572.911 234.495C573.897 235.23 574.572 236.184 574.938 237.356C575.318 238.515 575.508 240.196 575.508 242.4V256.388ZM584.261 258.698L578.687 257.872V258.613C578.687 260.012 579.004 261.241 579.637 262.301C580.285 263.375 581.214 264.18 582.424 264.717C583.635 265.254 585.246 265.522 587.259 265.522C589.441 265.522 591.144 265.148 592.368 264.399C593.607 263.665 594.522 262.57 595.113 261.114C595.704 259.659 596 257.314 596 254.078V233.881H591.439V237.039C590.707 235.809 589.87 234.891 588.927 234.283C587.998 233.676 586.963 233.372 585.823 233.372C583.67 233.372 581.833 234.354 580.313 236.318C578.807 238.268 578.054 241.164 578.054 245.007C578.054 248.624 578.856 251.492 580.461 253.612C581.854 255.463 583.571 256.388 585.612 256.388C586.724 256.388 587.738 256.084 588.652 255.477C589.567 254.869 590.391 253.958 591.123 252.743V256.028C591.123 257.526 590.996 258.571 590.743 259.164C590.489 259.758 590.13 260.182 589.666 260.436C589.004 260.789 588.139 260.966 587.069 260.966C586.14 260.966 585.457 260.789 585.021 260.436C584.599 260.097 584.345 259.518 584.261 258.698ZM586.963 251.577C585.88 251.577 584.951 251.026 584.176 249.924C583.416 248.822 583.036 247.07 583.036 244.668C583.036 242.379 583.416 240.684 584.176 239.582C584.951 238.48 585.915 237.929 587.069 237.929C588.237 237.929 589.215 238.494 590.004 239.624C590.806 240.74 591.207 242.471 591.207 244.817C591.207 247.091 590.792 248.787 589.961 249.903C589.131 251.019 588.132 251.577 586.963 251.577Z" fill="black"></path>
</svg>
